<?xml version="1.0" encoding="utf-8"?>
<!-- Generator: Adobe Illustrator 25.4.0, SVG Export Plug-In . SVG Version: 6.00 Build 0)  -->
<svg version="1.1" xmlns="http://www.w3.org/2000/svg" xmlns:xlink="http://www.w3.org/1999/xlink" x="0px" y="0px"
	 viewBox="0 0 500 500" style="enable-background:new 0 0 500 500;" xml:space="preserve">
<style type="text/css">
	.st0{fill:#F5F5F5;}
	.st1{fill:#E0E0E0;}
	.st2{fill:#EBEBEB;}
	.st3{fill:#27DEBF;}
	.st4{opacity:0.15;}
	.st5{fill:#FFFFFF;}
	.st6{fill:#37474F;}
	.st7{fill:#263238;}
	.st8{fill:#455A64;}
	.st9{fill:#FAFAFA;}
	.st10{opacity:0.3;fill:#FFFFFF;}
	.st11{opacity:0.2;}
	.st12{fill:#F28F8F;}
	.st13{opacity:0.1;}
	.st14{opacity:0.35;fill:#FFFFFF;}
	.st15{opacity:0.05;}
	.st16{opacity:0.95;fill:#FFFFFF;}
	.st17{opacity:0.8;fill:#FFFFFF;}
	.st18{opacity:0.7;fill:#FFFFFF;}
	.st19{fill:#FFA8A7;}
	.st20{fill:#B16668;}
	.st21{opacity:0.4;fill:#FFFFFF;}
	.st22{opacity:0.3;}
	.st23{opacity:0.4;}
	.st24{opacity:0.7;}
	.st25{opacity:0.25;}
</style>
<g id="Floor">
	<ellipse id="Floor_13_" class="st0" cx="254.06" cy="347.94" rx="223.87" ry="137"/>
</g>
<g id="Shadows">
	<path id="Shadow_15_" class="st1" d="M367.34,404.79c-0.86,0-2.14-0.15-3.34-0.84l-39.58-22.85c-1.42-0.82-2.26-2.19-2.26-3.66
		c0-1.48,0.85-2.85,2.26-3.66l65.54-37.84c1.21-0.7,2.49-0.84,3.35-0.84c0.86,0,2.14,0.15,3.34,0.84l39.58,22.85
		c1.42,0.82,2.26,2.19,2.26,3.66c0,1.48-0.85,2.84-2.27,3.66l-65.54,37.84C369.48,404.65,368.2,404.79,367.34,404.79z"/>
	<path id="Shadow_8_" class="st1" d="M284.16,454.89c-5.15,0-10.14-0.57-14.83-1.68c-4.82-1.14-9.23-2.77-13.09-4.83l-0.1-0.05
		c-0.79-0.45-1.82-1.06-3.13-1.88c-1.24-0.77-2.5-1.58-3.81-2.44c-1.31-0.86-2.53-1.68-3.68-2.47c-1.19-0.82-2.11-1.47-2.79-2
		c-3.39-2.65-5.94-5.68-7.61-9.03c-1.84-3.69-2.38-7.58-1.61-11.56c0.73-3.78,2.75-7.55,6.01-11.2c3.08-3.45,7.4-6.62,13.19-9.69
		c6.42-3.4,12.64-5.9,18.49-7.43c5.87-1.53,11.52-2.33,16.78-2.38l0.5,0c5.13,0,10.03,0.64,14.56,1.9c4.58,1.28,8.91,3,12.87,5.14
		c1.57,0.87,3.26,1.9,5.08,3.09c1.84,1.2,3.37,2.28,4.69,3.3c2.46,1.82,4.19,3.85,5.15,6.03c0.92,2.13,1.22,4.27,0.89,6.37
		c0.15-0.01,0.29-0.02,0.44-0.02l0.28,0c1.87,0,3.59,0.55,5,1.6c1.9,1.35,2.86,3.58,2.51,5.88c-0.25,1.59-0.66,3.31-1.22,5.11
		c-0.68,2.14-1.9,4.34-3.64,6.54c-1.62,2.06-3.8,4.15-6.63,6.39c-2.74,2.16-6.38,4.45-10.81,6.8c-5.55,2.94-11.21,5.12-16.82,6.48
		c-5.59,1.35-11.08,2.04-16.33,2.07L284.16,454.89z M280.65,421c0.18,0.13,0.38,0.27,0.61,0.42c1.77,1.16,3.52,1.84,5.21,2.03
		c0.32,0.04,0.62,0.05,0.92,0.05c0.76,0,1.46-0.12,2.14-0.35c-0.16-0.12-0.34-0.24-0.54-0.37c-1.79-1.17-3.56-1.87-5.27-2.09
		c-0.31-0.04-0.62-0.06-0.91-0.06C282.06,420.63,281.35,420.75,280.65,421z"/>
	<path id="Shadow_3_" class="st1" d="M166.83,436.66L38.1,362.5c-2.72-1.57-2.72-4.11,0-5.68l261.25-150.77
		c2.72-1.57,7.12-1.57,9.83,0l128.73,74.15c2.72,1.57,2.72,4.11,0,5.68L176.66,436.66C173.95,438.22,169.55,438.22,166.83,436.66z"
		/>
</g>
<g id="Clouds">
	<g id="Clouds_7_">
		<g id="XMLID_746_">
			<path id="XMLID_923_" class="st2" d="M158.2,59.36l-6.55,3.78c0.03-0.29,0.06-0.58,0.06-0.87v-1.9c0-3.38-2.37-4.75-5.3-3.06
				c-1.18,0.68-2.27,1.77-3.16,3.04c-0.48-4.25-3.81-5.83-7.86-3.49c-4.38,2.53-7.92,8.67-7.92,13.73v2.84
				c0,1.31,0.24,2.41,0.67,3.29l-5.44,3.14c-1.62,0.94-2.94,3.22-2.94,5.09c0,1.87,1.32,2.63,2.94,1.7l35.5-20.5
				c1.62-0.94,2.94-3.22,2.94-5.09C161.14,59.18,159.83,58.42,158.2,59.36z"/>
		</g>
		<g id="XMLID_1345_">
			<path id="XMLID_1348_" class="st2" d="M114.89,41.96l-3.61,1.39v-7.96c0-6.31-5.03-7.82-10.5-4.67l0,0
				c-5.47,3.16-9.9,10.83-9.9,17.14v1.16c-1.24-0.49-2.84-0.3-4.59,0.71l0,0c-3.93,2.27-7.12,7.79-7.12,12.34v0.53l-5.04,2.91
				c-2.59,1.5-4.69,5.13-4.69,8.12c0,2.99,2.1,4.2,4.69,2.71l40.77-23.54c2.59-1.5,4.69-5.13,4.69-8.12
				C119.58,41.67,117.48,40.46,114.89,41.96z"/>
		</g>
	</g>
</g>
<g id="Plant">
	<g id="Plants_4_">
		<g id="XMLID_541_">
			<g id="XMLID_635_">
				<path id="XMLID_681_" class="st3" d="M60.93,333.55l6.81-3.93c0,0,4.05-16.83,2.44-31.98c-2.27-21.29-16.29-29.31-21.62-27.47
					c-5.33,1.84-6.87,8.03,1.95,20.72C55.71,298.37,62.1,313.96,60.93,333.55z"/>
			</g>
			<g id="XMLID_574_" class="st4">
				<path id="XMLID_630_" d="M60.93,333.55l6.81-3.93c0,0,4.05-16.83,2.44-31.98c-2.27-21.29-16.29-29.31-21.62-27.47
					c-5.33,1.84-6.87,8.03,1.95,20.72C55.71,298.37,62.1,313.96,60.93,333.55z"/>
			</g>
			<g id="XMLID_542_">
				<path id="XMLID_543_" class="st5" d="M63.75,325.28c-0.02,0-0.04,0-0.07-0.01c-0.26-0.05-0.42-0.3-0.38-0.55
					c3.73-19.64-3.13-41.71-11.63-50.9c-0.18-0.19-0.17-0.49,0.03-0.67c0.19-0.17,0.49-0.17,0.67,0.03
					c8.65,9.35,15.65,31.78,11.86,51.71C64.2,325.14,63.99,325.3,63.75,325.28z"/>
			</g>
		</g>
		<g id="XMLID_492_">
			<g id="XMLID_539_">
				<path id="XMLID_540_" class="st3" d="M42.13,346.83c-1.07,0.55-3.93-1.9-4.73-2.5c-1.36-1.02-2.44-2.42-3.12-3.97
					c-0.8-1.81-0.92-3.71-0.55-5.65c0.19-1.01,0.53-1.98,0.86-2.95c0.33-0.95,0.65-1.9,0.98-2.86c0.32-0.94,0.65-1.91,0.57-2.9
					c-0.15-1.99-1.84-3.47-3.38-4.75c-1.7-1.41-3.45-3.25-3.32-5.64c0.1-1.84,1.14-3.5,2.35-4.89c1.21-1.39,2.63-2.59,3.74-4.07
					c0.8-1.06,1.44-2.32,1.39-3.65c-0.03-0.82-0.33-1.61-0.69-2.36c-0.76-1.6-1.8-3.07-2.3-4.77c-0.5-1.7-0.31-3.77,1.05-4.9
					c1.12-0.93,2.71-0.98,4.16-0.81c1.33,0.16,2.61,0.83,3.75,1.54c3.68,2.3,5.62,6.89,9.55,8.71c1.52,0.7,3.21,0.93,4.8,1.43
					c1.59,0.51,3.2,1.42,3.87,2.95c1.33,3.02-1.59,6.51-0.71,9.69c0.78,2.81,3.41,4.01,4.8,6.58c0.61,1.12,0.69,2.39,0.52,3.66
					c-0.29,2.14-0.68,3.71-1.84,6.05c-0.95,1.93-3.64,5.59-3.64,5.59S42.29,346.75,42.13,346.83z"/>
			</g>
			<g id="XMLID_526_">
				<path id="XMLID_529_" class="st5" d="M52.55,341.4c-0.01,0-0.01,0-0.01,0c-0.27-0.02-0.46-0.25-0.43-0.51
					c1.72-18.68-6.06-39.79-12.17-46.12c-0.18-0.19-0.18-0.49,0.01-0.67c0.19-0.18,0.49-0.17,0.67,0.01
					c6.23,6.46,14.17,27.92,12.43,46.86C53.02,341.23,52.8,341.42,52.55,341.4z"/>
			</g>
			<g id="XMLID_522_">
				<path id="XMLID_523_" class="st5" d="M50.69,318.37c-0.05,0-0.09-0.01-0.14-0.03c-5.92-2.16-13.4-2.87-13.48-2.88
					c-0.26-0.02-0.45-0.25-0.43-0.51c0.02-0.26,0.23-0.45,0.51-0.43c0.08,0.01,7.67,0.72,13.71,2.93c0.24,0.09,0.37,0.36,0.28,0.6
					C51.08,318.26,50.89,318.38,50.69,318.37z"/>
			</g>
		</g>
	</g>
</g>
<g id="Device_1_">
	<g id="Device">
		<g id="Mobile">
			<path class="st6" d="M46.62,357.77l119.68,69.09c3.88,2.24,8.46,2.29,12.49,0.23l240.95-139.12c3.8-2.19,6.87-7.09,6.87-10.95
				c0-3.86-3.08-8.76-6.87-10.95L300.5,197.23c-3.78-2.18-9.97-2.18-13.75,0L46.62,335.87c-3.8,2.19-6.87,7.09-6.87,10.95
				C39.74,350.68,42.82,355.58,46.62,357.77z"/>
			<path class="st7" d="M166.3,426.86L46.62,357.77c-3.8-2.19-6.87-7.09-6.87-10.95c0-3.85,3.08-8.76,6.87-10.95l126.2-72.86v165.56
				C170.57,428.59,168.34,428.04,166.3,426.86z"/>
			<path class="st8" d="M169.15,414.55c3.33,1.92,8.79,1.92,12.12,0l238.51-137.7c5.13-2.96,5.13-7.8,0-10.77l-119.26-68.85
				c-3.78-2.18-9.97-2.18-13.75,0L46.63,335.87c-3.78,2.18-3.78,5.75,0,7.94L169.15,414.55z"/>
			<path class="st6" d="M180.73,400.68c3.61,2.08,9.46,2.08,13.06,0l205.23-118.49c3.61-2.08,3.61-5.46,0-7.54l-112.19-64.77
				c-3.59-2.07-9.47-2.07-13.06,0L68.54,328.37c-3.59,2.07-3.59,5.47,0,7.54L180.73,400.68z"/>
			<path class="st7" d="M280.69,208.35c2.23,0.06,4.44,0.56,6.13,1.53l112.19,64.77c3.61,2.08,3.61,5.46,0,7.54l-22.24,12.84
				l-96.09-61.36V208.35z"/>
			<path class="st9" d="M273.69,214.79c3.59-2.07,9.47-2.07,13.06,0l112.19,64.77c0.71,0.41,1.27,0.88,1.7,1.37
				c-0.42,0.46-0.96,0.89-1.63,1.27L193.79,400.68c-3.61,2.08-9.46,2.08-13.06,0L68.54,335.92c-0.7-0.41-1.27-0.87-1.69-1.35
				c0.42-0.46,0.95-0.9,1.62-1.29L273.69,214.79z"/>
			<g>
				<path class="st7" d="M358.01,244.36l-19.88-11.48c-1.19-0.68-1.25-1.76-0.13-2.4c1.11-0.64,2.98-0.61,4.16,0.08l19.88,11.48
					c1.19,0.68,1.25,1.76,0.13,2.4C361.06,245.08,359.2,245.04,358.01,244.36z"/>
				<g>
					<path class="st7" d="M323.87,224.68c-1.11-0.64-1.11-1.68,0-2.33c1.11-0.64,2.92-0.64,4.03,0c1.11,0.64,1.11,1.68,0,2.33
						C326.78,225.32,324.98,225.32,323.87,224.68z"/>
					<path class="st7" d="M315.81,220.02c-1.11-0.64-1.11-1.68,0-2.33c1.11-0.64,2.92-0.64,4.03,0c1.11,0.64,1.11,1.68,0,2.33
						C318.72,220.66,316.92,220.66,315.81,220.02z"/>
					<path class="st7" d="M380.29,257.25c-1.11-0.64-1.11-1.68,0-2.33c1.11-0.64,2.92-0.64,4.03,0c1.11,0.64,1.11,1.68,0,2.33
						C383.21,257.89,381.4,257.89,380.29,257.25z"/>
					<path class="st7" d="M372.23,252.59c-1.11-0.64-1.11-1.68,0-2.33c1.11-0.64,2.92-0.64,4.03,0c1.11,0.64,1.11,1.68,0,2.33
						C375.15,253.23,373.34,253.23,372.23,252.59z"/>
				</g>
			</g>
		</g>
		<g id="Mail_Notification">
			<path id="XMLID_725_" class="st3" d="M175.72,367.59v0.43c0,0.69,0.49,1.54,1.09,1.88l23.35,13.48c0.6,0.35,1.58,0.35,2.18,0
				l38.66-22.32c0.6-0.35,1.09-1.19,1.09-1.88v-0.43c0-0.69-0.49-1.54-1.09-1.88l-23.35-13.48c-0.6-0.35-1.58-0.35-2.18,0
				L176.8,365.7C176.2,366.05,175.72,366.89,175.72,367.59z"/>
			<path id="XMLID_724_" class="st3" d="M175.72,367.59v0.43c0,0.69,0.49,1.54,1.09,1.88l23.35,13.48c0.6,0.35,1.58,0.35,2.18,0
				l38.66-22.32c0.6-0.35,1.09-1.19,1.09-1.88v-0.43c0-0.69-0.49-1.54-1.09-1.88l-23.35-13.48c-0.6-0.35-1.58-0.35-2.18,0
				L176.8,365.7C176.2,366.05,175.72,366.89,175.72,367.59z"/>
			<path class="st10" d="M240.99,356.86l-23.35-13.48c-0.6-0.35-1.58-0.35-2.18,0l-14.22,8.21v32.05h0c0.39,0,0.79-0.09,1.09-0.26
				l38.66-22.32c0.6-0.35,1.09-1.19,1.09-1.88v-0.43C242.07,358.05,241.59,357.21,240.99,356.86z"/>
			<path class="st4" d="M240.99,356.86l-23.35-13.48c-0.6-0.35-1.58-0.35-2.18,0l-14.22,8.21v32.05h0c0.39,0,0.79-0.09,1.09-0.26
				l38.66-22.32c0.6-0.35,1.09-1.19,1.09-1.88v-0.43C242.07,358.05,241.59,357.21,240.99,356.86z"/>
			<path class="st10" d="M201.24,351.6L176.8,365.7c-0.6,0.35-1.09,1.19-1.09,1.89v0.43c0,0.69,0.49,1.54,1.09,1.88l23.35,13.48
				c0.3,0.17,0.69,0.26,1.09,0.26h0V351.6z"/>
			<path class="st11" d="M201.24,351.6L176.8,365.7c-0.6,0.35-1.09,1.19-1.09,1.89v0.43c0,0.69,0.49,1.54,1.09,1.88l23.35,13.48
				c0.3,0.17,0.69,0.26,1.09,0.26h0V351.6z"/>
			<path id="XMLID_723_" class="st3" d="M196.41,378.28l-19.61-11.32c-0.6-0.35-0.6-0.91,0-1.26l38.66-22.32
				c0.6-0.35,1.58-0.35,2.18,0l23.35,13.48c0.6,0.35,0.6,0.91,0,1.26l-6.41,3.7l-2.25,1.3l-30,17.32c-0.6,0.35-1.58,0.35-2.18,0
				l-1.9-1.1L196.41,378.28z"/>
			<path id="XMLID_720_" class="st10" d="M196.41,378.28l-19.61-11.32c-0.6-0.35-0.6-0.91,0-1.26l38.66-22.32
				c0.6-0.35,1.58-0.35,2.18,0l23.35,13.48c0.6,0.35,0.6,0.91,0,1.26l-6.41,3.7l-2.25,1.3l-30,17.32c-0.6,0.35-1.58,0.35-2.18,0
				l-1.9-1.1L196.41,378.28z"/>
			<path class="st4" d="M214.21,359.47l26.77-2.61l-26.54,1.5l3.19-14.98c-0.33-0.19-0.76-0.27-1.19-0.25l-5.01,20.25l-35.09,2.89
				c-0.03,0.24,0.12,0.49,0.44,0.68l28.33-1.64l-3.9,15.38l4.99-15.45h0l4.84-0.28c0.61-0.04,1.17-0.28,1.6-0.67l0,0l0,0
				c0.4-0.36,0.7-0.85,0.82-1.4L214.21,359.47z"/>
			<path id="XMLID_712_" class="st10" d="M184.73,365.59l26.71-2.2l0.96-3.83l0.53-2.13l3.53-14.29c-0.36,0.01-0.72,0.09-0.99,0.25
				l-19.33,11.16L176.8,365.7c-0.28,0.16-0.42,0.37-0.44,0.58l5.36-0.44L184.73,365.59z"/>
			<path id="XMLID_703_" class="st12" d="M212.13,340.19c2.44-1.41,6.4-1.41,8.84,0c2.44,1.41,2.44,3.7,0,5.1
				c-2.44,1.41-6.4,1.41-8.84,0C209.69,343.88,209.69,341.6,212.13,340.19z"/>
			<g>
				<path class="st9" d="M213.46,343.58c-0.08-0.01-0.14-0.03-0.18-0.06c-0.04-0.04-0.06-0.08-0.05-0.12l0.37-1.61
					c0.01-0.04,0.02-0.09,0.04-0.14c0.02-0.06,0.06-0.1,0.13-0.15l0.89-0.52c0.05-0.03,0.12-0.05,0.2-0.05
					c0.08,0,0.14,0.02,0.2,0.05l4.73,2.73c0.05,0.03,0.08,0.07,0.08,0.11c0,0.04-0.03,0.08-0.08,0.11l-0.96,0.55
					c-0.05,0.03-0.12,0.05-0.2,0.05c-0.08,0-0.14-0.02-0.2-0.05l-3.2-1.85l-0.21,0.88c-0.01,0.05-0.05,0.08-0.11,0.11
					c-0.06,0.03-0.13,0.04-0.21,0.03L213.46,343.58z"/>
			</g>
		</g>
		<g id="Notification">
			<path class="st3" d="M257.03,350.55l-26.27-15.17c-0.6-0.35-0.6-0.9,0-1.25l95.32-55.04c0.6-0.35,1.57-0.35,2.17,0l26.27,15.17
				c0.6,0.35,0.6,0.9,0,1.25l-95.32,55.04C258.6,350.9,257.63,350.9,257.03,350.55z"/>
			<g>
				<path class="st9" d="M251.98,333.42c-0.09,0.05-0.18,0.08-0.28,0.08c-0.09,0-0.16,0-0.21,0l-5.46-0.62l3.23,1.87
					c0.06,0.03,0.09,0.07,0.09,0.12c0,0.05-0.03,0.09-0.09,0.12l-0.64,0.37c-0.06,0.03-0.13,0.05-0.21,0.05
					c-0.08,0-0.15-0.02-0.21-0.05l-5.07-2.93c-0.06-0.03-0.09-0.07-0.09-0.12c0-0.05,0.03-0.09,0.09-0.12l0.55-0.32
					c0.09-0.05,0.18-0.08,0.27-0.08c0.09,0,0.17,0,0.21,0l5.46,0.62l-3.23-1.87c-0.06-0.03-0.08-0.07-0.09-0.12
					c0-0.05,0.03-0.09,0.09-0.12l0.64-0.37c0.06-0.03,0.13-0.05,0.21-0.05c0.08,0,0.15,0.02,0.21,0.05l5.07,2.93
					c0.06,0.03,0.09,0.07,0.09,0.12c0,0.05-0.03,0.09-0.09,0.12L251.98,333.42z"/>
				<path class="st9" d="M251.65,331.25c-0.29-0.17-0.52-0.35-0.69-0.55c-0.17-0.2-0.27-0.41-0.29-0.61
					c-0.02-0.21,0.03-0.41,0.16-0.61c0.13-0.2,0.34-0.39,0.63-0.56c0.29-0.17,0.61-0.29,0.96-0.37c0.35-0.08,0.69-0.11,1.04-0.1
					c0.35,0.01,0.69,0.06,1.02,0.14c0.34,0.09,0.64,0.21,0.9,0.36l0.35,0.2c0.06,0.03,0.09,0.07,0.09,0.12
					c0,0.05-0.03,0.09-0.09,0.12l-2.62,1.51c0.12,0.07,0.25,0.12,0.39,0.14c0.14,0.02,0.29,0.03,0.43,0.02
					c0.15-0.01,0.29-0.04,0.43-0.09c0.14-0.05,0.27-0.1,0.38-0.17c0.17-0.1,0.29-0.18,0.36-0.26c0.07-0.08,0.11-0.16,0.13-0.22
					c0.02-0.06,0.04-0.1,0.06-0.13c0.02-0.03,0.06-0.06,0.13-0.1l0.63-0.36c0.06-0.03,0.13-0.05,0.21-0.05
					c0.09,0,0.16,0.02,0.21,0.05c0.07,0.04,0.12,0.12,0.16,0.23c0.04,0.11,0.04,0.24,0,0.39c-0.04,0.15-0.13,0.31-0.28,0.49
					s-0.36,0.35-0.66,0.51c-0.29,0.17-0.61,0.29-0.95,0.37c-0.34,0.08-0.69,0.11-1.04,0.1c-0.36-0.01-0.71-0.07-1.06-0.16
					C252.3,331.57,251.97,331.43,251.65,331.25z M252.4,329.46c-0.15,0.09-0.26,0.18-0.32,0.26c-0.06,0.09-0.1,0.17-0.1,0.26
					c0,0.08,0.02,0.16,0.07,0.23c0.05,0.07,0.1,0.13,0.17,0.19l1.77-1.02c-0.09-0.04-0.19-0.08-0.3-0.11
					c-0.12-0.03-0.24-0.05-0.38-0.05c-0.14,0-0.28,0.01-0.43,0.05C252.73,329.3,252.57,329.37,252.4,329.46z"/>
				<path class="st9" d="M260.62,326.53l-1.54-1.7c-0.03-0.03-0.05-0.07-0.06-0.11c-0.01-0.04,0.02-0.08,0.09-0.12l0.6-0.34
					c0.06-0.03,0.13-0.05,0.21-0.05c0.08,0,0.15,0.02,0.21,0.05c0.02,0.01,0.04,0.02,0.05,0.04l2.43,2.77
					c0.03,0.04,0.05,0.08,0.06,0.12c0.01,0.04-0.02,0.08-0.09,0.13l-0.6,0.34c-0.07,0.04-0.15,0.06-0.22,0.05
					c-0.07-0.01-0.14-0.02-0.21-0.03l-2.86-0.77l1.33,1.65c0.03,0.04,0.05,0.08,0.06,0.12c0.01,0.04-0.02,0.08-0.09,0.12l-0.6,0.34
					c-0.07,0.04-0.15,0.06-0.22,0.05c-0.07-0.01-0.14-0.02-0.2-0.04l-4.8-1.4c-0.02-0.01-0.04-0.01-0.06-0.03
					c-0.06-0.03-0.09-0.07-0.09-0.12c0-0.05,0.03-0.09,0.08-0.12l0.6-0.34c0.07-0.04,0.15-0.06,0.22-0.05
					c0.07,0.01,0.13,0.02,0.19,0.03l2.95,0.89l-1.49-1.73c-0.03-0.03-0.05-0.07-0.05-0.12c0-0.05,0.02-0.09,0.08-0.12l0.6-0.34
					c0.06-0.03,0.13-0.05,0.21-0.05c0.08,0,0.15,0.01,0.2,0.03L260.62,326.53z"/>
				<path class="st9" d="M264.17,324.03c-0.29-0.17-0.52-0.35-0.69-0.55c-0.17-0.2-0.27-0.41-0.29-0.61
					c-0.02-0.21,0.03-0.41,0.16-0.61c0.13-0.2,0.34-0.39,0.63-0.56c0.29-0.17,0.61-0.29,0.96-0.37c0.35-0.08,0.69-0.11,1.04-0.1
					c0.35,0.01,0.69,0.06,1.02,0.14c0.33,0.09,0.64,0.21,0.9,0.36l0.35,0.2c0.06,0.03,0.09,0.07,0.09,0.12
					c0,0.05-0.03,0.09-0.09,0.12l-2.62,1.51c0.12,0.07,0.25,0.12,0.39,0.14c0.14,0.02,0.29,0.03,0.43,0.02
					c0.15-0.01,0.29-0.04,0.43-0.09c0.14-0.05,0.27-0.1,0.38-0.17c0.17-0.1,0.29-0.18,0.36-0.26c0.07-0.08,0.11-0.16,0.13-0.22
					c0.02-0.06,0.03-0.1,0.06-0.13c0.02-0.03,0.06-0.06,0.12-0.1l0.63-0.36c0.06-0.03,0.13-0.05,0.21-0.05
					c0.09,0,0.16,0.02,0.21,0.05c0.07,0.05,0.12,0.12,0.16,0.23c0.04,0.11,0.04,0.24,0,0.39c-0.04,0.15-0.13,0.31-0.28,0.49
					c-0.14,0.17-0.36,0.34-0.66,0.51c-0.29,0.17-0.61,0.29-0.95,0.37c-0.34,0.08-0.69,0.11-1.04,0.1c-0.36-0.01-0.71-0.07-1.06-0.17
					C264.81,324.35,264.49,324.21,264.17,324.03z M264.92,322.24c-0.15,0.09-0.26,0.17-0.32,0.26c-0.06,0.09-0.1,0.17-0.1,0.26
					c0,0.08,0.02,0.16,0.07,0.23c0.05,0.07,0.1,0.13,0.17,0.19l1.77-1.02c-0.09-0.04-0.19-0.08-0.3-0.11
					c-0.12-0.03-0.24-0.05-0.38-0.05c-0.14,0-0.28,0.01-0.43,0.05C265.24,322.07,265.08,322.14,264.92,322.24z"/>
				<path class="st9" d="M268.25,319.77c-0.03-0.16,0.01-0.32,0.11-0.46c0.1-0.15,0.24-0.28,0.43-0.39
					c0.33-0.19,0.66-0.31,0.99-0.36c0.33-0.05,0.66-0.05,0.98-0.01c-0.04-0.1-0.05-0.2-0.03-0.31c0.02-0.11,0.05-0.21,0.11-0.31
					c0.05-0.1,0.13-0.19,0.22-0.28c0.09-0.09,0.2-0.16,0.31-0.23c0.3-0.17,0.6-0.29,0.89-0.34c0.3-0.06,0.59-0.07,0.88-0.05
					c0.29,0.03,0.57,0.09,0.84,0.19c0.27,0.1,0.53,0.22,0.78,0.36l2.11,1.22c0.06,0.03,0.09,0.07,0.09,0.12
					c0,0.05-0.03,0.09-0.09,0.12l-0.6,0.34c-0.06,0.03-0.13,0.05-0.21,0.05c-0.08,0-0.15-0.02-0.21-0.05l-2.07-1.2
					c-0.36-0.21-0.67-0.31-0.95-0.31c-0.28,0-0.54,0.07-0.78,0.21c-0.21,0.12-0.32,0.26-0.33,0.43c-0.01,0.16,0.14,0.35,0.47,0.55
					l2.11,1.22c0.06,0.03,0.09,0.07,0.09,0.12c0,0.05-0.03,0.09-0.09,0.12l-0.6,0.34c-0.06,0.03-0.13,0.05-0.21,0.05
					c-0.08,0-0.15-0.02-0.21-0.05l-2.07-1.2c-0.36-0.21-0.67-0.31-0.95-0.31c-0.28,0-0.54,0.07-0.79,0.21
					c-0.21,0.12-0.33,0.27-0.33,0.44c-0.01,0.17,0.16,0.36,0.51,0.56l2.07,1.2c0.06,0.03,0.09,0.07,0.09,0.12
					c0,0.05-0.03,0.09-0.09,0.12l-0.6,0.34c-0.06,0.03-0.13,0.05-0.21,0.05c-0.08,0-0.15-0.02-0.21-0.05l-3.66-2.11
					c-0.06-0.03-0.09-0.07-0.09-0.12c0-0.05,0.03-0.09,0.09-0.12l0.6-0.34c0.06-0.03,0.13-0.05,0.21-0.05
					c0.08,0,0.15,0.02,0.21,0.05L268.25,319.77z"/>
				<path class="st9" d="M275.06,316.55c-0.09-0.08-0.16-0.17-0.21-0.29c-0.05-0.12-0.06-0.25-0.03-0.39
					c0.03-0.14,0.11-0.29,0.24-0.45c0.13-0.16,0.33-0.31,0.6-0.47c0.27-0.15,0.54-0.27,0.83-0.36c0.29-0.08,0.57-0.13,0.86-0.14
					c0.29-0.01,0.58,0.02,0.87,0.09c0.29,0.07,0.57,0.18,0.83,0.34l2.31,1.33c0.06,0.03,0.09,0.07,0.09,0.12
					c0,0.05-0.03,0.09-0.09,0.12l-0.6,0.34c-0.06,0.03-0.13,0.05-0.21,0.05c-0.08,0-0.15-0.02-0.21-0.05l-0.26-0.15
					c0.04,0.15,0.01,0.32-0.09,0.5c-0.1,0.18-0.31,0.36-0.63,0.55c-0.23,0.13-0.46,0.23-0.7,0.3c-0.24,0.07-0.47,0.1-0.7,0.11
					c-0.23,0.01-0.45-0.01-0.67-0.06c-0.21-0.05-0.41-0.12-0.59-0.23c-0.36-0.21-0.51-0.45-0.46-0.71c0.05-0.27,0.26-0.54,0.61-0.83
					l1.06-0.87c-0.21-0.12-0.44-0.17-0.67-0.14c-0.23,0.03-0.45,0.11-0.66,0.23c-0.13,0.08-0.21,0.14-0.25,0.21
					c-0.04,0.06-0.06,0.13-0.06,0.21c0,0.05-0.02,0.09-0.04,0.12c-0.02,0.03-0.06,0.06-0.11,0.09l-0.73,0.42
					c-0.05,0.03-0.11,0.05-0.18,0.05C275.15,316.6,275.1,316.58,275.06,316.55z M278.58,317.07c0.18-0.1,0.31-0.21,0.4-0.32
					c0.09-0.11,0.14-0.21,0.15-0.32c0.01-0.1-0.01-0.2-0.07-0.29c-0.06-0.09-0.14-0.16-0.25-0.23l-0.08-0.05l-0.88,0.73
					c-0.18,0.14-0.28,0.27-0.3,0.36c-0.02,0.09,0.03,0.18,0.15,0.25c0.11,0.06,0.25,0.08,0.41,0.04
					C278.27,317.21,278.43,317.15,278.58,317.07z"/>
				<path class="st9" d="M277.89,312.03c0.06-0.03,0.13-0.05,0.21-0.05c0.08,0,0.15,0.02,0.21,0.05l0.61,0.35
					c0.06,0.03,0.09,0.07,0.09,0.12c0,0.05-0.03,0.09-0.09,0.12l-0.67,0.39c-0.06,0.03-0.13,0.05-0.21,0.05
					c-0.08,0-0.15-0.02-0.21-0.05l-0.61-0.35c-0.06-0.03-0.09-0.07-0.09-0.12c0-0.05,0.03-0.09,0.09-0.12L277.89,312.03z
					 M283.42,315.02c0.06,0.03,0.09,0.07,0.09,0.12c0,0.05-0.03,0.09-0.09,0.12l-0.6,0.34c-0.06,0.03-0.13,0.05-0.21,0.05
					c-0.08,0-0.16-0.02-0.21-0.05l-3.66-2.11c-0.06-0.03-0.09-0.07-0.09-0.12c0-0.05,0.03-0.09,0.09-0.12l0.6-0.34
					c0.06-0.03,0.13-0.05,0.21-0.05c0.08,0,0.15,0.02,0.21,0.05L283.42,315.02z"/>
				<path class="st9" d="M285.52,313.81c0.06,0.03,0.09,0.07,0.09,0.12c0,0.05-0.03,0.09-0.09,0.12l-0.6,0.34
					c-0.06,0.03-0.13,0.05-0.21,0.05c-0.08,0-0.16-0.02-0.21-0.05l-5.15-2.97c-0.06-0.03-0.09-0.07-0.09-0.12
					c0-0.05,0.03-0.09,0.09-0.12l0.6-0.34c0.06-0.03,0.13-0.05,0.21-0.05c0.08,0,0.15,0.02,0.21,0.05L285.52,313.81z"/>
			</g>
			<path class="st9" d="M254.39,337.64l77.77-44.9c0.96-0.55,2.36-0.64,3.13-0.19c0.77,0.45,0.62,1.25-0.34,1.81l-77.78,44.91
				c-0.96,0.55-2.36,0.64-3.12,0.19C253.28,339.01,253.44,338.2,254.39,337.64z"/>
			<path class="st9" d="M259.85,340.8l77.77-44.9c0.96-0.55,2.36-0.64,3.13-0.19c0.77,0.45,0.62,1.25-0.34,1.81l-77.78,44.91
				c-0.96,0.55-2.36,0.64-3.12,0.19C258.75,342.16,258.9,341.35,259.85,340.8z"/>
		</g>
	</g>
</g>
<g id="Character">
	<g id="Character_Envelope">
		<polygon id="Shadow_5_" class="st1" points="144.38,369.94 103.76,346.49 285.72,241.43 327.17,264.41 		"/>
		<g id="Back">
			<path id="XMLID_489_" class="st3" d="M133.39,223.73l173.06-99.91l6.93,4c1.79,1.03,3.26,3.57,3.26,5.64v127.66
				c0,2.07-1.46,4.6-3.26,5.64l-166.55,96.16c-1.79,1.03-4.72,1.03-6.51,0l-3.67-2.12c-1.79-1.03-3.26-3.57-3.26-5.64L133.39,223.73
				z"/>
			<path id="XMLID_471_" class="st11" d="M133.39,223.73l173.06-99.91l6.93,4c1.79,1.03,3.26,3.57,3.26,5.64v127.66
				c0,2.07-1.46,4.6-3.26,5.64l-166.55,96.16c-1.79,1.03-4.72,1.03-6.51,0l-3.67-2.12c-1.79-1.03-3.26-3.57-3.26-5.64L133.39,223.73
				z"/>
			<path id="XMLID_470_" class="st3" d="M305.49,112.59l0.71-0.38l-2.69-1.56v0c-0.23-0.13-0.47-0.25-0.71-0.34l-76.16-28.22
				c-2.02-0.75-4.63,0.09-5.85,1.86l-85.2,124.42c-1.21,1.77-2.2,4.95-2.2,7.1c0,3.56,0,8.26,0,8.26l2.64,1.53l170.42-101.45v-8.26
				C306.45,114.54,306.08,113.5,305.49,112.59z"/>
			<path id="XMLID_469_" class="st13" d="M224.31,84.54c-0.34,0.26-0.64,0.58-0.88,0.93l-85.2,124.41
				c-0.62,0.92-1.19,2.22-1.58,3.56l-2.65-1.53c0.19-0.65,0.43-1.28,0.69-1.88c0.01-0.03,0.01-0.04,0.03-0.05
				c0.12-0.26,0.23-0.51,0.36-0.75c0.03-0.04,0.04-0.08,0.06-0.12c0.14-0.27,0.3-0.53,0.45-0.75l85.19-124.41
				c0.13-0.19,0.27-0.35,0.43-0.52c0.14-0.14,0.3-0.29,0.45-0.42L224.31,84.54z"/>
			<path id="XMLID_465_" class="st14" d="M306.17,112.19c-0.23-0.14-0.48-0.26-0.73-0.35l-76.17-28.23
				c-1.61-0.6-3.61-0.18-4.96,0.93l-2.65-1.53c1.36-1.1,3.35-1.53,4.97-0.93l76.16,28.22c0.25,0.09,0.48,0.21,0.71,0.35
				L306.17,112.19z"/>
			<g id="XMLID_408_">
				<path id="XMLID_464_" class="st3" d="M135.14,209.11c0.15-0.27,0.3-0.52,0.45-0.75C135.43,208.59,135.28,208.84,135.14,209.11z"
					/>
				<path id="XMLID_1103_" class="st3" d="M221.22,83.43c0.14-0.15,0.3-0.28,0.46-0.41C221.51,83.14,221.36,83.28,221.22,83.43z"/>
				<path id="XMLID_463_" class="st3" d="M133.99,211.92c0.2-0.65,0.43-1.29,0.69-1.89C134.42,210.63,134.19,211.27,133.99,211.92z"
					/>
				<path id="XMLID_449_" class="st3" d="M134.71,209.98c0.12-0.26,0.24-0.51,0.37-0.74C134.95,209.47,134.82,209.72,134.71,209.98z
					"/>
				<path id="XMLID_432_" class="st11" d="M134.69,210.03c0.01-0.02,0.01-0.04,0.02-0.05C134.7,210,134.69,210.01,134.69,210.03z"/>
				<polygon id="XMLID_1097_" class="st11" points="133.99,211.92 133.99,211.92 133.99,211.92 				"/>
				<polygon id="XMLID_431_" class="st11" points="221.67,83.01 221.67,83.01 221.67,83.01 				"/>
				<path id="XMLID_417_" class="st11" d="M135.07,209.23c0.02-0.04,0.04-0.08,0.06-0.12C135.11,209.15,135.09,209.19,135.07,209.23
					z"/>
				<path id="XMLID_409_" class="st11" d="M220.79,83.94c0.13-0.18,0.27-0.35,0.43-0.51C221.06,83.59,220.91,83.76,220.79,83.94z"/>
			</g>
			<path id="XMLID_402_" class="st3" d="M223.43,85.48l-85.2,124.42c-1.21,1.77-2.2,4.95-2.2,7.1c0,3.56,0,8.26,0,8.26l173.06-99.92
				l0-8.26c0-2.15-1.63-4.5-3.65-5.24l-76.16-28.22C227.26,82.87,224.64,83.7,223.43,85.48z"/>
			<path id="XMLID_1091_" class="st15" d="M309.09,117.08c0-0.99-0.36-2.01-0.92-2.91l-171.52,99.27c0,0-0.01,0.01-0.02,0.03
				c-0.37,1.23-0.6,2.49-0.6,3.52c0,3.56,0,8.26,0,8.26l173.06-99.92L309.09,117.08z"/>
		</g>
		<g id="Paper">
			<path class="st3" d="M301.7,82.01c0-0.89-0.31-1.52-0.81-1.81c-0.51-0.3-4.77-2.76-5.28-3.05c-0.51-0.29-1.21-0.25-1.99,0.2
				L151.67,159.3c-1.55,0.9-2.81,3.07-2.81,4.87l0,170c0,0.9,0.31,1.52,0.82,1.82c0.51,0.29,4.76,2.75,5.27,3.04
				c0.51,0.29,1.21,0.25,1.99-0.2l141.95-81.95c1.55-0.9,2.81-3.07,2.81-4.87L301.7,82.01z"/>
			<path class="st16" d="M301.7,82.01c0-0.89-0.31-1.52-0.81-1.81c-0.51-0.3-4.77-2.76-5.28-3.05c-0.51-0.29-1.21-0.25-1.99,0.2
				L151.67,159.3c-1.55,0.9-2.81,3.07-2.81,4.87l0,170c0,0.9,0.31,1.52,0.82,1.82c0.51,0.29,4.76,2.75,5.27,3.04
				c0.51,0.29,1.21,0.25,1.99-0.2l141.95-81.95c1.55-0.9,2.81-3.07,2.81-4.87L301.7,82.01z"/>
			<path class="st3" d="M156.94,338.83l141.95-81.95c1.55-0.9,2.81-3.07,2.81-4.87l0-170c0-1.79-1.26-2.52-2.81-1.62l-141.95,81.95
				c-1.55,0.9-2.81,3.07-2.81,4.87l0,170C154.13,339,155.39,339.72,156.94,338.83z"/>
			<path class="st17" d="M156.94,338.83l141.95-81.95c1.55-0.9,2.81-3.07,2.81-4.87l0-170c0-1.79-1.26-2.52-2.81-1.62l-141.95,81.95
				c-1.55,0.9-2.81,3.07-2.81,4.87l0,170C154.13,339,155.39,339.72,156.94,338.83z"/>
			<path class="st3" d="M154.13,337.2c0,0.79,0.25,1.38,0.66,1.71c-0.95-0.53-4.63-2.67-5.1-2.93c-0.52-0.3-0.83-0.92-0.83-1.82
				V164.16c0-0.9,0.31-1.88,0.83-2.76l5.27,3.04c-0.52,0.88-0.83,1.88-0.83,2.78V337.2z"/>
			<path class="st18" d="M154.13,337.2c0,0.79,0.25,1.38,0.66,1.71c-0.95-0.53-4.63-2.67-5.1-2.93c-0.52-0.3-0.83-0.92-0.83-1.82
				V164.16c0-0.9,0.31-1.88,0.83-2.76l5.27,3.04c-0.52,0.88-0.83,1.88-0.83,2.78V337.2z"/>
			<path class="st15" d="M154.13,337.2c0,0.79,0.25,1.38,0.66,1.71c-0.95-0.53-4.63-2.67-5.1-2.93c-0.52-0.3-0.83-0.92-0.83-1.82
				V164.16c0-0.9,0.31-1.88,0.83-2.76l5.27,3.04c-0.52,0.88-0.83,1.88-0.83,2.78V337.2z"/>
		</g>
		<g id="Character_12_">
			<path class="st6" d="M205.93,208.72c-0.63,15.81,0.44,49.7,0.44,49.7s16.76,5.07,28.16,3.18c11.4-1.89,35.77-19.15,35.77-19.15
				l-4.06-36.68L205.93,208.72z"/>
			<path class="st7" d="M244.85,257.85l2.72-25.83c10.68-6.37,14.16-15.19,14.16-15.19c-9.72,12.73-19.87,10.67-19.87,10.67v31.72
				C242.84,258.8,243.84,258.34,244.85,257.85z"/>
			<path id="XMLID_880_" class="st8" d="M272.93,161.08c2.71-13.76,3.95-32.06-8.03-35.41c-3.12-0.87-11.06-0.27-11.06-0.27
				l-12.91,0.64c-7.19,0.92-17.27,2.35-19.92,3c-6.94,1.71-8.99,13.04-12.1,38.14c-1.95,15.72-3.6,27.99-3.6,43.29
				c12.68,11.37,52.33,6.89,61.35-0.5C267.03,192.62,267.98,186.19,272.93,161.08z"/>
			<g>
				<path class="st6" d="M238.74,121.35c-0.12,2.51,2.77,6.76,7.19,9.73c4.43,2.98,8.24,4.18,8.72,5.43c-2.1,0.39-4,1.44-5.56,5.04
					c-1.49,3.44-1.48,3.55-6.59,0c-5.11-3.55-9.68-11.71-9.67-14.43c0.01-2.72,4.02-7.97,5.98-7.53L238.74,121.35z"/>
				<path class="st6" d="M254.66,136.51c1.5-1.63,2.91-5.74,3.1-7.52c0.18-1.78,0.65-6.44,0.65-6.44s1.22,0.31,1.77,1.15
					c0.55,0.83,3.27,6.45,3.18,9.59c-0.09,3.14-0.82,7.38-1.88,9.17c-1.06,1.79-1.77-1.37-2.46-2.59
					C258.11,138.28,256.88,136.55,254.66,136.51z"/>
				<path class="st6" d="M252.64,140.11c0,0,0.25,11.33-0.8,17.36c0,0,3.41,0.63,6.74-0.18c0,0-1.73,2.13-8.07,1.15
					C250.52,158.44,252.47,146.61,252.64,140.11z"/>
			</g>
			<g id="XMLID_796_">
				<g id="XMLID_809_">
					<path class="st7" d="M279.47,87.77c-0.15-9.93-8.32-17.87-18.25-17.72c-9.29,0.14-16.83,7.3-17.65,16.35l-8.17-5.81
						c0,0-2.98-0.47-5.26,1.94c-2.24,2.36-0.86,9.6,2.07,16.68c0,0,2.95,12.92,4.09,15.03c1.14,2.11,3.43,2.68,3.43,2.68l-0.28-7.86
						l32.67-2.35l-3.23-2.3C275.22,101.56,279.58,95.16,279.47,87.77z"/>
					<path id="XMLID_838_" class="st19" d="M238.98,99.72c-1.03,0.64-1.98-1.55-3.85-2.67c-1.6-0.95-5.19-2.62-7.55,1.34
						c-2.55,4.27,2.08,10.17,5.32,11.39c4.8,1.8,6.52-1.96,6.52-1.96l-0.99,20c6.53,11.9,25.93,11.14,19.34,1.17l0.79-7.71
						c0,0,5.17,0.71,7.68,0.28c4.18-0.71,6.76-4.05,7.96-8.6c1.93-7.31,2.62-13.19,0.68-27.48c-2.13-15.66-20.37-15.55-30.13-9.2
						C234.97,82.62,238.98,99.72,238.98,99.72z"/>
					<path class="st7" d="M278.85,70.86c-1.33-0.72-2.93-0.78-4.41-0.51c0.33-2.25-1.19-4.46-3.2-5.37c-2.43-1.1-4.62-0.71-6.76,0.9
						c0.44-1.59-1-3.21-2.62-3.56c-1.61-0.35-3.27,0.2-4.81,0.79c-2.29,0.88-4.55,1.85-6.88,2.63c-4.11,1.37-8.48,2.16-12.19,4.38
						c-0.88,0.53-1.72,1.14-2.32,1.97c-0.84,1.16-1.11,2.65-1.05,4.08c0.02,0.48,0.1,0.94,0.2,1.4c-0.28-0.3-0.6-0.57-0.97-0.76
						c-1.75-0.91-3.88-0.17-4.75,1.65l6.19,3.2c-0.15,1.25-0.31,2.49-0.43,3.74c-0.33,3.3-0.97,7.14-0.23,10.42
						c0.08,0.37,0.15,0.8,0.4,1.1c0,0,1.6,1.16,3.22,3.13c0.48,0.58,1.06,1.52,1.83,1.75c0.77,0.23,1.87-0.21,2.14-0.98
						c0.16-0.46,0.12-0.97,0.07-1.46c-0.2-2.03-0.4-4.07-0.6-6.1c-0.05-0.54-0.1-1.11,0.1-1.62c0.27-0.68,0.93-1.11,1.49-1.58
						c1.42-1.21,2.32-3.02,2.43-4.89c0.03-0.59,0-1.19,0.16-1.75c0.13-0.43,0.47-1.1,0.96-1.1c0.95,0,6.13,1.12,7.43,1.3
						c6.78,0.93,14.06,1.11,20.03-2.22c2.33-1.29,6.25-3.98,6.66-6.86C281.15,73.08,280.18,71.58,278.85,70.86z"/>
					<path id="XMLID_810_" class="st12" d="M258.55,121.28c0,0-9.37-1.74-12.66-3.43c-2.2-1.13-4.03-3.12-4.58-4.4
						c0,0,0.65,2.76,2.64,5.23c2.43,3.02,14.34,5.09,14.34,5.09L258.55,121.28z"/>
				</g>
				<g id="XMLID_797_">
					<path id="XMLID_808_" class="st7" d="M258.15,98.03c0.01,1.01-0.76,1.83-1.73,1.84c-0.97,0.01-1.77-0.79-1.78-1.8
						c-0.01-1.01,0.76-1.83,1.73-1.84C257.34,96.22,258.14,97.03,258.15,98.03z"/>
					<path id="XMLID_806_" class="st7" d="M254.74,91.49l-4.12,2c-0.53-1.18-0.04-2.58,1.1-3.14
						C252.86,89.8,254.21,90.31,254.74,91.49z"/>
					<path id="XMLID_804_" class="st20" d="M254.79,109l7.44,2.67c-0.7,2.13-2.93,3.26-4.99,2.53
						C255.18,113.45,254.08,111.13,254.79,109z"/>
					<path class="st12" d="M259.48,114.28c-0.29-2.11-2.23-3.59-4.34-3.31c-0.17,0.02-0.32,0.07-0.48,0.11
						c0.26,1.39,1.19,2.61,2.57,3.1C257.99,114.46,258.76,114.47,259.48,114.28z"/>
					<path id="XMLID_803_" class="st7" d="M274.24,92.85l-3.97-2.07c0.54-1.09,1.86-1.51,2.96-0.94
						C274.33,90.41,274.78,91.76,274.24,92.85z"/>
					<path id="XMLID_799_" class="st7" d="M272.22,97.74c0.01,1.01-0.76,1.83-1.73,1.84c-0.97,0.01-1.77-0.79-1.78-1.8
						c-0.02-1.01,0.76-1.83,1.73-1.84C271.41,95.92,272.21,96.73,272.22,97.74z"/>
					<polygon id="XMLID_798_" class="st12" points="263.27,96.65 263.62,108 270.31,106.44 					"/>
				</g>
			</g>
		</g>
		<g id="Front">
			<path id="XMLID_1018_" class="st3" d="M312.24,262.81c-0.05,0.09-0.1,0.17-0.18,0.26l-72.12-22.87
				c-5.66-2.52-12.29-0.47-15.58,4.8l-77.1,114.59l-2.85,1.65l-0.03,0.01c-0.86,0.48-1.64,0.54-2.21,0.25l79.29-118.11
				c3.29-5.26,9.93-7.31,15.6-4.81L312.24,262.81z"/>
			<path id="XMLID_1017_" class="st21" d="M217.26,256.25l0.18-0.16l-70.18,103.5l-2.85,1.65l-0.03,0.01
				c-0.86,0.48-1.63,0.53-2.21,0.25l72.31-106.91L217.26,256.25z"/>
			<path id="XMLID_330_" class="st21" d="M312.24,262.82c-0.05,0.09-0.1,0.17-0.18,0.26l-72.13-22.88
				c-5.66-2.52-12.29-0.47-15.58,4.8l-2.85-1.66c3.3-5.24,9.91-7.27,15.57-4.77L312.24,262.82z"/>
			<path id="XMLID_1011_" class="st3" d="M316.57,132.63h-0.01c-0.16-0.93-0.65-1.19-1.28-0.75c-0.25,0.17-0.53,0.45-0.83,0.86
				l-0.36,0.51l-71.17,108.19l-10.63,14.8c-1.19,1.69-3.81,2.66-5.85,2.19l-9.17-2.18l-70.02-25.78c-0.51-0.12-0.99-0.13-1.43-0.05
				c-0.18,0.04-0.36,0.09-0.53,0.17l2.64-1.53l67.13,24.6l8.84,3.15c2.02,0.48,4.65-0.49,5.85-2.19l10.63-14.79l71.52-108.7
				c0.23-0.32,0.52-0.56,0.8-0.74l-6.19-3.57l2.59-1.49l4.28,2.47C314.93,128.72,316.24,130.75,316.57,132.63z"/>
			<path id="XMLID_1010_" class="st21" d="M242.91,241.43l-10.63,14.8c-1.19,1.69-3.81,2.66-5.85,2.19l-9.17-2.18l0.18-0.16
				l0.44-0.7l6.01,1.43c2.02,0.48,4.64-0.49,5.85-2.19l10.52-14.64L242.91,241.43z"/>
			<path id="XMLID_1009_" class="st13" d="M313.37,127.8l-4.28-2.47l-2.59,1.49l6.19,3.57c0,0,0.01,0.01,0.02,0.01l-0.01-0.01
				c-0.31,0.2-0.59,0.44-0.8,0.74l-71.52,108.69l-0.1,0.14v0.01l2.65,1.44l71.17-108.19l0.36-0.51c0.3-0.4,0.58-0.69,0.83-0.86
				c0.64-0.44,1.13-0.18,1.28,0.75h0.01C316.24,130.75,314.93,128.71,313.37,127.8z"/>
			<path id="XMLID_1008_" class="st3" d="M148.66,232.55l-15.27-8.82l0,131.42c0,2.07,1.46,4.6,3.26,5.64l3.67,2.12
				c1.79,1.03,4.72,1.03,6.51,0l1.83-1.06V232.55z"/>
			<path id="XMLID_329_" class="st4" d="M148.66,232.55l-15.27-8.82l0,131.42c0,2.07,1.46,4.6,3.26,5.64l3.67,2.12
				c1.79,1.03,4.72,1.03,6.51,0l1.83-1.06V232.55z"/>
			<path id="XMLID_324_" class="st3" d="M316.63,133.45v127.66c0,1.08-0.39,2.26-1.01,3.3c-0.52,0.86-1.17,1.62-1.91,2.14
				l-0.13,0.06c-0.08,0.05-0.13,0.1-0.21,0.14l-166.54,96.14l-0.03,0.01c-0.87,0.49-1.65,0.56-2.22,0.26
				c-0.51-0.26-0.86-0.79-0.97-1.56c-0.03-0.18-0.04-0.38-0.04-0.58V233.36c0-2.06,1.62-3.36,3.66-2.88l70.02,25.78l9.17,2.18
				c2.04,0.47,4.66-0.51,5.85-2.19l10.63-14.8l71.17-108.19l0.36-0.51C315.65,131.06,316.63,131.38,316.63,133.45z"/>
			<path id="XMLID_1004_" class="st3" d="M313.38,266.75c0.08-0.04,0.14-0.09,0.21-0.14l0.12-0.08c0.74-0.51,1.39-1.28,1.9-2.13
				c0.62-1.02,1-2.19,1.01-3.24l-73.71-19.73l49.36,37.49L313.38,266.75z"/>
			<path id="XMLID_318_" class="st11" d="M313.38,266.75c0.08-0.04,0.14-0.09,0.21-0.14l0.12-0.08c0.74-0.51,1.39-1.28,1.9-2.13
				c0.62-1.02,1-2.19,1.01-3.24l-73.71-19.73l49.36,37.49L313.38,266.75z"/>
			<path id="XMLID_317_" class="st3" d="M143.57,361.02c0,1.08,0.39,1.82,1.01,2.14c0.58,0.3,1.35,0.24,2.22-0.25l0.03-0.01
				l57.34-33.1l13.09-73.55L143.58,358.9L143.57,361.02z"/>
			<path id="XMLID_279_" class="st4" d="M224.33,244.99l-79.74,118.17c-0.62-0.32-1.01-1.06-1.01-2.14l0-2.12l77.9-115.52
				c0-0.01,0.01-0.03,0.03-0.04L224.33,244.99z"/>
			<path id="XMLID_992_" class="st3" d="M315.62,264.41c-0.51,0.85-1.17,1.62-1.9,2.13l-0.12,0.08L146.83,362.9l-0.03,0.01
				c-0.86,0.49-1.64,0.55-2.22,0.25l79.75-118.2c3.31-5.28,9.98-7.33,15.68-4.81L315.62,264.41z"/>
			<path id="XMLID_966_" class="st4" d="M134,211.92l2.65,1.53c-0.38,1.25-0.61,2.52-0.61,3.56c0,3.55,0,8.25,0,8.25l-2.65-1.53
				c0,0,0-4.71,0-8.26C133.39,214.43,133.62,213.16,134,211.92z"/>
			<polygon id="XMLID_277_" class="st3" points="147.92,229.07 145.28,230.59 142.6,229.05 136.03,225.26 138.58,223.74 			"/>
			<path id="XMLID_276_" class="st13" d="M148.03,229.12l-9.45-5.37l-2.56,1.52l6.58,3.79l2.67,1.54l0.03-0.02
				c0.16-0.07,0.33-0.12,0.5-0.16c0.44-0.08,0.92-0.06,1.43,0.05l5.32,1.96l61.13,22.5l0.96-1.42L148.03,229.12z"/>
		</g>
		<g id="Arm">
			<path class="st19" d="M221.02,129.03c-8.48,0.61-14.3,2.63-19.77,15.77c-3.54,8.49-17.39,39.01-18.73,44.06
				c-1.58,5.93-5.12,50.95-5.12,50.95l8.1,3.04c0,0-2.77,9.69-5.12,15.23c-2.7,6.38,10.49,5.04,14.72-0.76
				c4.25-5.82,7.12-13.57,4.81-16.29c-3.06-3.6-6.43-5.95-6.43-5.95l8.86-40.17l18.59-39.52
				C220.93,155.39,230.26,135.96,221.02,129.03z"/>
			<path class="st12" d="M193.48,235.08c-4.33-2.45-8.22-2.34-8.22-2.34s4.26-1.37,8.6,0L193.48,235.08z"/>
			<path class="st6" d="M222.94,128.64c-4.77-0.04-13.66-0.25-19.41,10.15c-5.76,10.4-13.9,30.17-13.9,30.17s3.39,8.33,21.5,10.07
				l13.88-29.53C225.01,149.49,228.39,135.94,222.94,128.64z"/>
		</g>
		<g id="Arm_1_">
			<g id="XMLID_812_">
				<path class="st19" d="M284.42,135.46c7.16,5.64,18.78,14.52,24.43,18.07c4.27-5.17,12.13-15.62,14.04-17.91
					c2.42-2.91,10.08-7.67,10.08-7.67l2.89,11.6c0,0-14.51,26.77-19.77,31.73c-5.54,5.22-9.55,3.06-20.38-1.91
					c-10.23-4.69-21.34-10.5-21.34-10.5c2.2-19.46,0.71-30-8.59-33.28C272.02,126.36,278.41,130.73,284.42,135.46z"/>
				<path class="st6" d="M303.11,149.62c-3.74,1.03-11.47,12.03-10.06,18.99l-19.7-9.74c2.39-13.43,2.9-30.03-8.44-33.21
					c-0.84-0.24-2.03-0.36-3.32-0.42l0,0c5.65-0.56,9.34-0.4,15.26,4.05C282.76,133.75,303.11,149.62,303.11,149.62z"/>
				<path class="st12" d="M308.85,153.53c-2.82,2.47-3.74,6.94-4.28,8.7c0,0-0.59-5.16,2.65-9.77L308.85,153.53z"/>
				<g id="XMLID_813_">
					<g id="XMLID_1151_">
						<path id="XMLID_879_" class="st6" d="M336.28,114.98l6.75-4.1c0,0,0.78,36.44,0.8,37.63c0.03,1.19,1.42,2.34,1.42,2.34
							l-6.75,4.09c0,0-1.39-1.16-1.42-2.34C337.06,151.42,336.28,114.98,336.28,114.98z"/>
						<path id="XMLID_878_" class="st19" d="M343.36,126.07c0,0,1.94,0.46,2.68,3.47c0.74,3.01,1.11,8.76-0.61,10.65
							c-1.73,1.89-4.09,2.72-5.66,2.04c-2.93-1.27-2.04-7.23,0.31-8.6c3.76-2.19,3.31-4.61,3.31-4.61L343.36,126.07z"/>
						<path id="XMLID_877_" class="st8" d="M327.97,115.09l2.96,3.61l0.53,25.7l-3.01,5.02l10.05,5.52
							c-0.88-0.76-1.33-1.54-1.42-2.34l-0.7-32.89L327.97,115.09z"/>
						<polygon id="XMLID_876_" class="st3" points="328.46,149.43 328.49,151.01 338.54,156.53 338.5,154.95 						"/>
						<polygon id="XMLID_875_" class="st3" points="338.54,156.53 345.29,152.43 345.26,150.85 338.5,154.95 						"/>
						<polygon id="XMLID_874_" class="st13" points="338.54,156.53 345.29,152.43 345.26,150.85 338.5,154.95 						"/>
					</g>
					<g>
						<g id="XMLID_853_">
							<path id="XMLID_873_" class="st3" d="M329.94,97.26L329.94,97.26c-1.31-0.32-2.84,0.23-4.24,1.74l-0.05,0.05
								c-2.79,2.98-4.08,8.57-2.89,12.47l0.02,0.07c0.62,2.02,1.78,3.2,3.14,3.44l0,0l5.84,1.41l3.58-17.88L329.94,97.26z"/>
							<path id="XMLID_872_" class="st18" d="M329.94,97.26L329.94,97.26c-1.31-0.32-2.84,0.23-4.24,1.74l-0.05,0.05
								c-2.79,2.98-4.08,8.57-2.89,12.47l0.02,0.07c0.62,2.02,1.78,3.2,3.14,3.44l0,0l5.84,1.41l3.58-17.88L329.94,97.26z"/>
							<path id="XMLID_871_" class="st15" d="M325.92,115.04L325.92,115.04l5.84,1.41l1.19-5.93l-10.63-2.46
								c-0.02,1.22,0.11,2.41,0.43,3.47l0.02,0.07C323.39,113.61,324.55,114.79,325.92,115.04z"/>
							<path id="XMLID_870_" class="st3" d="M341.77,97.76L341.77,97.76c-1.48-0.33-3.16,0.21-4.76,1.7
								c-0.17,0.15-0.34,0.32-0.5,0.5c-0.2,0.21-0.38,0.43-0.57,0.66c-0.3,0.38-0.59,0.78-0.86,1.2c-0.49,0.77-0.93,1.62-1.29,2.51
								c-0.99,2.39-1.51,5.11-1.45,7.64c0.03,1.28,0.21,2.51,0.55,3.63c0.73,2.39,2.06,3.83,3.64,4.25l-5.56-1.28l0-0.01
								c-1.97-0.55-3.68-2.07-4.4-4.42c-0.33-1.07-0.51-2.25-0.55-3.46c-0.09-2.58,0.44-5.36,1.45-7.81
								c0.37-0.89,0.8-1.74,1.29-2.51c0.27-0.43,0.55-0.83,0.86-1.2c0.18-0.23,0.37-0.45,0.57-0.66c0.16-0.18,0.34-0.34,0.51-0.5
								c1.6-1.41,3.57-1.88,5.38-1.54l0,0l0.15,0.03c0.06,0.02,0.13,0.03,0.2,0.05L341.77,97.76z"/>
							<path id="XMLID_869_" class="st13" d="M330.98,118.57l0-0.01c-1.97-0.55-3.68-2.07-4.4-4.42c-0.33-1.07-0.51-2.25-0.55-3.46
								l6.3,1.29c0.03,1.28,0.21,2.51,0.55,3.63c0.73,2.39,2.06,3.83,3.64,4.25L330.98,118.57z"/>
							<path id="XMLID_868_" class="st3" d="M345.55,102.05c1.49,4.9-0.13,11.9-3.62,15.64c-1.76,1.88-3.65,2.58-5.3,2.18
								c-0.03-0.01-0.06-0.01-0.09-0.02c-1.58-0.42-2.92-1.87-3.64-4.25c-1.49-4.9,0.13-11.9,3.62-15.65
								c1.74-1.87,3.63-2.57,5.26-2.19C343.41,98.13,344.8,99.59,345.55,102.05z"/>
							<path id="XMLID_866_" class="st11" d="M345.55,102.05c1.49,4.9-0.13,11.9-3.62,15.64c-1.76,1.88-3.65,2.58-5.3,2.18
								c-0.03-0.01-0.06-0.01-0.09-0.02c-1.58-0.42-2.92-1.87-3.64-4.25c-1.49-4.9,0.13-11.9,3.62-15.65
								c1.74-1.87,3.63-2.57,5.26-2.19C343.41,98.13,344.8,99.59,345.55,102.05z"/>
							<path id="XMLID_863_" class="st3" d="M368.71,93.6c0,0-6.54,6.34-9.66,19.82c-0.61,2.65-0.99,5.11-1.19,7.35
								c-0.84,9.17,1.15,14.7,1.15,14.7c-4.03-4.95-8.69-9.93-14.85-12.95c-3.81-1.87-7.39-3.13-7.39-3.13l0-0.01
								c-1.49-0.35-2.72-1.72-3.39-3.92c-0.44-1.45-0.6-3.09-0.51-4.78c0.05-1.07,0.21-2.15,0.45-3.21
								c0.64-2.74,1.87-5.34,3.56-7.15c1.57-1.68,3.28-2.38,4.77-2.03l0-0.01c0,0,3.77,0.44,8.01,0.44
								C356.53,98.7,362.91,96.27,368.71,93.6z"/>
							<path id="XMLID_862_" class="st18" d="M368.71,93.6c0,0-6.54,6.34-9.66,19.82c-0.61,2.65-0.99,5.11-1.19,7.35
								c-0.84,9.17,1.15,14.7,1.15,14.7c-4.03-4.95-8.69-9.93-14.85-12.95c-3.81-1.87-7.39-3.13-7.39-3.13l0-0.01
								c-1.49-0.35-2.72-1.72-3.39-3.92c-0.44-1.45-0.6-3.09-0.51-4.78c0.05-1.07,0.21-2.15,0.45-3.21
								c0.64-2.74,1.87-5.34,3.56-7.15c1.57-1.68,3.28-2.38,4.77-2.03l0-0.01c0,0,3.77,0.44,8.01,0.44
								C356.53,98.7,362.91,96.27,368.71,93.6z"/>
							<path id="XMLID_861_" class="st15" d="M357.86,120.77c-0.84,9.17,1.15,14.7,1.15,14.7c-4.03-4.95-8.69-9.93-14.85-12.95
								c-3.81-1.87-7.39-3.13-7.39-3.13l0-0.01c-1.49-0.35-2.72-1.72-3.39-3.92c-0.44-1.45-0.6-3.09-0.51-4.78
								C339.64,111.82,350.79,114.35,357.86,120.77z"/>
							<path id="XMLID_860_" class="st3" d="M386.67,100.21c1.56,5.11,1.69,11.18,0.65,17.14l0,0c-1.34,7.64-4.6,15.08-9.27,20.08
								c-8.32,8.9-17.94,6.67-21.49-4.98c-0.81-2.67-1.24-5.59-1.31-8.63c-0.18-7.48,1.79-15.62,5.35-22.14
								c0.5-0.92,1.03-1.8,1.6-2.65c0.23-0.35,0.48-0.7,0.72-1.04l0,0c0.35-0.48,0.71-0.95,1.08-1.4c0.38-0.47,0.78-0.92,1.18-1.36
								C373.5,86.33,383.12,88.55,386.67,100.21z"/>
							<path id="XMLID_858_" class="st13" d="M387.32,117.35c-1.34,7.64-4.6,15.08-9.27,20.08c-8.32,8.9-17.94,6.67-21.49-4.98
								c-0.81-2.67-1.24-5.59-1.31-8.63l0,0c1.14,1.3,4.25,2.7,4.89,0.86c0.08,2.71,0.46,5.31,1.17,7.65
								c1.02,3.35,2.59,5.82,4.54,7.16c1.66,1.14,3.55,1.4,5.61,0.77c2-0.61,4.1-2.05,6.08-4.17c3.97-4.25,6.88-10.61,8.3-17.23
								C385.84,118.87,386.63,119.21,387.32,117.35z"/>
							<path id="XMLID_855_" class="st3" d="M385.62,101.24c1.57,5.15,1.53,11.51,0.22,17.63c-1.42,6.62-4.32,12.98-8.3,17.23
								c-1.98,2.11-4.08,3.56-6.08,4.17c-2.06,0.63-3.95,0.37-5.61-0.77c-1.95-1.34-3.52-3.81-4.54-7.16
								c-0.71-2.34-1.1-4.94-1.17-7.65c-0.03-1.03-0.02-2.07,0.04-3.12c0.1-1.83,0.32-3.7,0.66-5.55c0.07-0.38,0.15-0.76,0.22-1.14
								c0.13-0.63,0.27-1.26,0.43-1.87c0.54-2.12,1.23-4.2,2.06-6.17c0.01-0.02,0.02-0.05,0.03-0.07c0.55-1.31,1.17-2.57,1.84-3.76
								c0.48-0.86,0.99-1.68,1.53-2.46c0.22-0.33,0.45-0.65,0.69-0.96c0.28-0.38,0.57-0.74,0.87-1.1c0.29-0.35,0.59-0.68,0.88-1
								c1.98-2.12,4.09-3.56,6.08-4.17C379.9,91.96,383.7,94.93,385.62,101.24z"/>
							<path id="XMLID_854_" class="st22" d="M385.62,101.24c1.57,5.15,1.53,11.51,0.22,17.63c-1.42,6.62-4.32,12.98-8.3,17.23
								c-1.98,2.11-4.08,3.56-6.08,4.17c-2.06,0.63-3.95,0.37-5.61-0.77c-1.95-1.34-3.52-3.81-4.54-7.16
								c-0.71-2.34-1.1-4.94-1.17-7.65c-0.03-1.03-0.02-2.07,0.04-3.12c0.1-1.83,0.32-3.7,0.66-5.55c0.07-0.38,0.15-0.76,0.22-1.14
								c0.13-0.63,0.27-1.26,0.43-1.87c0.54-2.12,1.23-4.2,2.06-6.17c0.01-0.02,0.02-0.05,0.03-0.07c0.55-1.31,1.17-2.57,1.84-3.76
								c0.48-0.86,0.99-1.68,1.53-2.46c0.22-0.33,0.45-0.65,0.69-0.96c0.28-0.38,0.57-0.74,0.87-1.1c0.29-0.35,0.59-0.68,0.88-1
								c1.98-2.12,4.09-3.56,6.08-4.17C379.9,91.96,383.7,94.93,385.62,101.24z"/>
						</g>
						<g id="XMLID_847_">
							<path id="XMLID_851_" class="st3" d="M370.96,108.84l-2.76,13.93c-2.01-0.13-5.39-0.28-8.06-0.16
								c0.01-0.35,0.02-0.69,0.04-1.04c0.1-1.83,0.32-3.7,0.66-5.55c0.07-0.38,0.15-0.76,0.22-1.14c0.13-0.63,0.27-1.26,0.43-1.87
								c0.54-2.12,1.23-4.2,2.06-6.17c0.01-0.02,0.02-0.05,0.03-0.07c0.12-0.29,0.25-0.58,0.38-0.86
								C367.11,107.65,370.96,108.84,370.96,108.84z"/>
						</g>
						<g id="XMLID_844_" class="st23">
							<path id="XMLID_1132_" class="st5" d="M370.96,108.84l-2.76,13.93c-2.01-0.13-5.39-0.28-8.06-0.16
								c0.01-0.35,0.02-0.69,0.04-1.04c0.1-1.83,0.32-3.7,0.66-5.55c0.07-0.38,0.15-0.76,0.22-1.14c0.13-0.63,0.27-1.26,0.43-1.87
								c0.54-2.12,1.23-4.2,2.06-6.17c0.01-0.02,0.02-0.05,0.03-0.07c0.12-0.29,0.25-0.58,0.38-0.86
								C367.11,107.65,370.96,108.84,370.96,108.84z"/>
						</g>
						<g id="XMLID_842_">
							<path id="XMLID_843_" class="st3" d="M368.73,122.57c-1.45,0.44-2.67-0.47-3.27-2.43l-0.02-0.06
								c-0.94-3.08,0.09-7.51,2.28-9.86l0.04-0.05c0.59-0.63,1.22-1.06,1.83-1.24c1.45-0.44,2.67,0.47,3.27,2.43l0.02,0.06
								c0.94,3.08-0.09,7.51-2.28,9.86l-0.04,0.05C369.97,121.95,369.34,122.38,368.73,122.57L368.73,122.57z"/>
						</g>
						<g id="XMLID_840_" class="st24">
							<path id="XMLID_841_" class="st5" d="M368.73,122.57c-1.45,0.44-2.67-0.47-3.27-2.43l-0.02-0.06
								c-0.94-3.08,0.09-7.51,2.28-9.86l0.04-0.05c0.59-0.63,1.22-1.06,1.83-1.24c1.45-0.44,2.67,0.47,3.27,2.43l0.02,0.06
								c0.94,3.08-0.09,7.51-2.28,9.86l-0.04,0.05C369.97,121.95,369.34,122.38,368.73,122.57L368.73,122.57z"/>
						</g>
					</g>
					<g id="XMLID_820_">
						<g id="XMLID_837_">
							<path id="XMLID_1125_" class="st1" d="M365.36,86.74c-0.8,0.24-1.64-0.21-1.88-1l-4.25-13.94c-0.24-0.8,0.21-1.64,1-1.88
								c0.8-0.24,1.64,0.21,1.88,1l4.25,13.94C366.61,85.66,366.16,86.5,365.36,86.74z"/>
						</g>
						<g id="XMLID_1122_">
							<path id="XMLID_1123_" class="st1" d="M353.71,94.01c-0.5,0.15-1.06,0.04-1.47-0.34l-10.65-9.95
								c-0.61-0.57-0.64-1.52-0.07-2.13c0.56-0.61,1.52-0.64,2.13-0.07l10.65,9.95c0.61,0.57,0.64,1.52,0.07,2.13
								C354.19,93.8,353.96,93.94,353.71,94.01z"/>
						</g>
						<g id="XMLID_1120_">
							<path id="XMLID_1121_" class="st1" d="M361,165.23c-0.25,0.07-0.51,0.09-0.78,0.03c-0.81-0.19-1.32-1-1.13-1.81l3.29-14.2
								c0.19-0.81,1-1.32,1.81-1.13c0.81,0.19,1.32,1,1.13,1.81l-3.29,14.2C361.9,164.67,361.5,165.08,361,165.23z"/>
						</g>
						<g id="XMLID_835_">
							<path id="XMLID_836_" class="st1" d="M387.45,159.21c-0.8,0.24-1.64-0.21-1.88-1l-4.25-13.94c-0.24-0.8,0.21-1.64,1-1.88
								c0.8-0.24,1.64,0.21,1.88,1l4.25,13.94C388.7,158.12,388.25,158.96,387.45,159.21z"/>
						</g>
						<g id="XMLID_832_">
							<path id="XMLID_833_" class="st1" d="M403.14,140.18c-0.5,0.15-1.06,0.04-1.47-0.34l-10.65-9.95
								c-0.61-0.57-0.64-1.52-0.07-2.13c0.57-0.61,1.52-0.64,2.13-0.07l10.65,9.95c0.61,0.57,0.64,1.52,0.07,2.13
								C403.61,139.96,403.39,140.1,403.14,140.18z"/>
						</g>
						<g id="XMLID_830_">
							<path id="XMLID_831_" class="st1" d="M413.14,121.4c-0.25,0.07-0.51,0.09-0.78,0.03l-14.2-3.29c-0.81-0.19-1.32-1-1.13-1.81
								c0.19-0.81,1-1.32,1.81-1.13l14.2,3.29c0.81,0.19,1.32,1,1.13,1.81C414.04,120.84,413.64,121.25,413.14,121.4z"/>
						</g>
						<g id="XMLID_827_">
							<path id="XMLID_828_" class="st1" d="M412.42,100.13l-13.94,4.25c-0.8,0.24-1.64-0.21-1.88-1c-0.24-0.8,0.21-1.64,1-1.88
								l13.94-4.25c0.8-0.24,1.64,0.21,1.88,1C413.66,99.05,413.21,99.89,412.42,100.13z"/>
						</g>
						<g id="XMLID_825_">
							<path id="XMLID_826_" class="st1" d="M391.21,92.73c-0.5,0.15-1.06,0.04-1.47-0.34c-0.61-0.57-0.64-1.52-0.07-2.13
								l9.95-10.65c0.56-0.61,1.52-0.64,2.13-0.07c0.61,0.57,0.64,1.52,0.07,2.13l-9.95,10.65
								C391.68,92.52,391.45,92.66,391.21,92.73z"/>
						</g>
						<g id="XMLID_821_">
							<path id="XMLID_823_" class="st1" d="M379.08,86.28c-0.24,0.07-0.51,0.09-0.78,0.03c-0.81-0.19-1.32-1-1.13-1.81l3.29-14.2
								c0.19-0.81,1-1.32,1.81-1.13c0.81,0.19,1.32,1,1.13,1.81l-3.29,14.2C379.99,85.72,379.58,86.12,379.08,86.28z"/>
						</g>
					</g>
					<path id="XMLID_814_" class="st19" d="M322.89,135.62c2.88-3.65,2.99-5.93,5.23-7.72c2.24-1.79,4.5-1.9,7.83-0.95
						c2.52,0.72,5.46,0.36,6.48,1.29c0.29,0.19-0.16,1.81-1.34,2.39c-1.42,0.7-3.72,0.53-5.41,0.54c-3.85,0.02-0.69,3.8-4.4,7.64
						C329.7,141.57,322.89,135.62,322.89,135.62z"/>
				</g>
			</g>
		</g>
	</g>
</g>
<g id="Paper_Planes">
	<g id="Paper_Plane">
		<g>
			<polygon id="XMLID_760_" class="st3" points="411.2,193.48 446.58,170.83 462.16,175.83 			"/>
			<polygon id="XMLID_758_" class="st3" points="411.2,193.48 441.78,167.99 434.98,160.14 			"/>
			<polygon id="XMLID_741_" class="st3" points="441.78,167.99 441.78,173.9 411.2,193.48 			"/>
			<polygon id="XMLID_736_" class="st25" points="441.78,167.99 441.78,173.9 411.2,193.48 			"/>
		</g>
		<g>
			<g>
				<path class="st1" d="M449.03,164.56c-0.28,0-0.56-0.12-0.76-0.35c-0.36-0.42-0.32-1.05,0.1-1.41c0.62-0.53,1.22-1.08,1.81-1.65
					c0.4-0.38,1.03-0.37,1.41,0.03c0.38,0.4,0.37,1.03-0.03,1.41c-0.62,0.59-1.24,1.16-1.89,1.71
					C449.5,164.48,449.26,164.56,449.03,164.56z"/>
			</g>
			<g>
				<path class="st1" d="M454.29,159.32c-0.23,0-0.47-0.08-0.66-0.25c-0.41-0.36-0.46-1-0.09-1.41c1.05-1.19,2.07-2.46,3.04-3.78
					c0.33-0.44,0.95-0.54,1.4-0.21c0.44,0.33,0.54,0.95,0.21,1.4c-1,1.36-2.06,2.67-3.14,3.91
					C454.85,159.2,454.57,159.32,454.29,159.32z M460.15,151.4c-0.18,0-0.36-0.05-0.53-0.15c-0.47-0.29-0.61-0.91-0.32-1.38
					c0.84-1.35,1.66-2.77,2.42-4.21c0.26-0.49,0.86-0.67,1.35-0.42c0.49,0.26,0.68,0.86,0.42,1.35c-0.79,1.49-1.62,2.95-2.5,4.34
					C460.81,151.23,460.49,151.4,460.15,151.4z M464.76,142.69c-0.13,0-0.27-0.03-0.4-0.08c-0.5-0.22-0.73-0.81-0.51-1.32
					c0.65-1.47,1.26-2.99,1.82-4.51c0.19-0.52,0.76-0.78,1.28-0.6c0.52,0.19,0.79,0.76,0.6,1.28c-0.57,1.57-1.2,3.13-1.87,4.64
					C465.51,142.46,465.14,142.69,464.76,142.69z M468.14,133.42c-0.09,0-0.19-0.01-0.28-0.04c-0.53-0.16-0.83-0.71-0.68-1.24
					c0.45-1.55,0.86-3.13,1.22-4.71c0.12-0.54,0.65-0.88,1.2-0.76c0.54,0.12,0.88,0.66,0.76,1.2c-0.37,1.62-0.79,3.25-1.25,4.84
					C468.97,133.14,468.57,133.42,468.14,133.42z M470.31,123.8c-0.05,0-0.11,0-0.16-0.01c-0.55-0.09-0.92-0.6-0.83-1.14
					c0.25-1.59,0.46-3.22,0.62-4.83c0.05-0.55,0.55-0.97,1.09-0.9c0.55,0.05,0.95,0.54,0.9,1.09c-0.16,1.65-0.37,3.32-0.63,4.96
					C471.22,123.45,470.79,123.8,470.31,123.8z M471.24,113.98c-0.01,0-0.02,0-0.03,0c-0.55-0.02-0.99-0.48-0.97-1.03
					c0.02-0.77,0.04-1.54,0.04-2.31c0-0.85-0.01-1.71-0.04-2.56c-0.02-0.55,0.41-1.02,0.96-1.03c0.57-0.04,1.02,0.41,1.03,0.96
					c0.03,0.88,0.05,1.75,0.05,2.63c0,0.79-0.01,1.58-0.04,2.37C472.22,113.55,471.78,113.98,471.24,113.98z M470.89,104.13
					c-0.51,0-0.94-0.38-0.99-0.9c-0.17-1.62-0.39-3.24-0.67-4.82c-0.09-0.54,0.27-1.06,0.81-1.16c0.55-0.09,1.06,0.27,1.16,0.81
					c0.28,1.62,0.52,3.29,0.69,4.96c0.06,0.55-0.34,1.04-0.89,1.1C470.96,104.13,470.93,104.13,470.89,104.13z M469.18,94.41
					c-0.45,0-0.85-0.3-0.97-0.75c-0.4-1.57-0.86-3.14-1.37-4.66c-0.18-0.52,0.1-1.09,0.63-1.27c0.52-0.18,1.09,0.11,1.27,0.63
					c0.53,1.57,1,3.18,1.42,4.81c0.13,0.54-0.19,1.08-0.72,1.21C469.35,94.4,469.27,94.41,469.18,94.41z M466.03,85.07
					c-0.39,0-0.75-0.23-0.92-0.6c-0.64-1.49-1.35-2.96-2.11-4.36c-0.26-0.49-0.08-1.09,0.41-1.35c0.49-0.26,1.09-0.08,1.35,0.41
					c0.78,1.46,1.52,2.98,2.18,4.52c0.22,0.51-0.01,1.1-0.52,1.31C466.29,85.05,466.16,85.07,466.03,85.07z M461.36,76.4
					c-0.33,0-0.64-0.16-0.84-0.45c-0.89-1.35-1.84-2.66-2.85-3.91c-0.35-0.43-0.28-1.06,0.16-1.41c0.43-0.34,1.06-0.28,1.41,0.16
					c1.04,1.3,2.03,2.66,2.96,4.06c0.3,0.46,0.18,1.08-0.29,1.38C461.74,76.34,461.54,76.4,461.36,76.4z M455.2,68.7
					c-0.26,0-0.53-0.1-0.72-0.31c-1.09-1.15-2.27-2.29-3.48-3.39c-0.41-0.37-0.44-1-0.07-1.41c0.37-0.41,1-0.44,1.41-0.07
					c1.25,1.13,2.46,2.31,3.59,3.49c0.38,0.4,0.37,1.03-0.03,1.41C455.7,68.61,455.45,68.7,455.2,68.7z M447.89,62.08
					c-0.22,0-0.43-0.07-0.62-0.21c-1.25-0.99-2.57-1.96-3.92-2.89c-0.45-0.31-0.57-0.94-0.25-1.39c0.31-0.45,0.94-0.57,1.39-0.25
					c1.38,0.96,2.73,1.96,4.02,2.97c0.43,0.34,0.51,0.97,0.17,1.4C448.48,61.95,448.19,62.08,447.89,62.08z M439.79,56.46
					c-0.18,0-0.36-0.05-0.52-0.15c-1.37-0.83-2.79-1.65-4.23-2.43c-0.49-0.26-0.67-0.87-0.41-1.35c0.26-0.49,0.87-0.67,1.35-0.41
					c1.47,0.8,2.93,1.63,4.33,2.48c0.47,0.29,0.62,0.9,0.33,1.38C440.45,56.29,440.13,56.46,439.79,56.46z M431.11,51.77
					c-0.14,0-0.29-0.03-0.43-0.1c-1.46-0.7-2.96-1.37-4.46-1.99c-0.51-0.21-0.75-0.8-0.54-1.31c0.21-0.51,0.8-0.75,1.31-0.54
					c1.53,0.64,3.06,1.32,4.55,2.03c0.5,0.24,0.71,0.83,0.47,1.33C431.84,51.56,431.48,51.77,431.11,51.77z M330.13,49.29
					c-0.41,0-0.8-0.25-0.94-0.66c-0.19-0.52,0.08-1.09,0.6-1.28c1.57-0.56,3.15-1.1,4.7-1.6c0.53-0.17,1.09,0.12,1.26,0.65
					c0.17,0.53-0.12,1.09-0.65,1.26c-1.53,0.49-3.1,1.02-4.64,1.58C330.36,49.27,330.25,49.29,330.13,49.29z M422.01,47.96
					c-0.11,0-0.23-0.02-0.34-0.06c-1.5-0.55-3.06-1.08-4.63-1.58c-0.53-0.17-0.82-0.73-0.65-1.26c0.17-0.53,0.73-0.82,1.26-0.65
					c1.6,0.51,3.18,1.05,4.71,1.61c0.52,0.19,0.79,0.76,0.6,1.28C422.8,47.7,422.42,47.96,422.01,47.96z M339.53,46.26
					c-0.44,0-0.83-0.29-0.96-0.72c-0.15-0.53,0.15-1.08,0.68-1.24c1.57-0.45,3.19-0.89,4.8-1.29c0.54-0.13,1.08,0.19,1.21,0.73
					c0.13,0.54-0.19,1.08-0.73,1.21c-1.59,0.4-3.18,0.83-4.73,1.27C339.71,46.25,339.62,46.26,339.53,46.26z M412.61,44.97
					c-0.09,0-0.17-0.01-0.26-0.04c-1.54-0.42-3.14-0.82-4.75-1.18c-0.54-0.12-0.88-0.66-0.75-1.2c0.12-0.54,0.65-0.88,1.2-0.75
					c1.64,0.37,3.26,0.78,4.83,1.2c0.53,0.14,0.85,0.69,0.7,1.23C413.45,44.68,413.05,44.97,412.61,44.97z M349.1,43.86
					c-0.46,0-0.88-0.32-0.98-0.79c-0.12-0.54,0.23-1.07,0.77-1.19c1.62-0.35,3.25-0.67,4.87-0.97c0.55-0.1,1.06,0.26,1.16,0.81
					c0.1,0.54-0.26,1.06-0.81,1.16c-1.59,0.29-3.21,0.61-4.8,0.95C349.24,43.85,349.17,43.86,349.1,43.86z M402.99,42.78
					c-0.06,0-0.12,0-0.18-0.02c-1.57-0.29-3.2-0.56-4.83-0.8c-0.55-0.08-0.92-0.59-0.84-1.13c0.08-0.55,0.58-0.93,1.13-0.84
					c1.66,0.24,3.31,0.52,4.91,0.81c0.54,0.1,0.9,0.62,0.8,1.17C403.88,42.45,403.46,42.78,402.99,42.78z M358.8,42.1
					c-0.49,0-0.92-0.36-0.99-0.86c-0.08-0.55,0.3-1.05,0.84-1.13c1.64-0.24,3.3-0.45,4.92-0.63c0.54-0.05,1.04,0.33,1.1,0.88
					c0.06,0.55-0.34,1.04-0.88,1.1c-1.6,0.18-3.24,0.39-4.86,0.62C358.89,42.1,358.84,42.1,358.8,42.1z M393.22,41.36
					c-0.04,0-0.07,0-0.11-0.01c-1.59-0.17-3.23-0.31-4.88-0.43c-0.55-0.04-0.97-0.52-0.93-1.07c0.04-0.55,0.52-0.95,1.07-0.93
					c1.67,0.12,3.33,0.26,4.95,0.44c0.55,0.06,0.95,0.55,0.89,1.1C394.16,40.98,393.73,41.36,393.22,41.36z M368.59,41.01
					c-0.52,0-0.96-0.4-1-0.92c-0.04-0.55,0.37-1.03,0.92-1.07c1.66-0.12,3.32-0.22,4.96-0.29c0.55-0.06,1.02,0.41,1.04,0.96
					c0.02,0.55-0.41,1.02-0.96,1.04c-1.61,0.07-3.25,0.16-4.89,0.29C368.64,41.01,368.62,41.01,368.59,41.01z M383.38,40.68
					c-0.01,0-0.02,0-0.03,0c-1.43-0.04-2.87-0.07-4.28-0.07l-0.62,0c0,0,0,0,0,0c-0.55,0-1-0.44-1-1c0-0.55,0.44-1,1-1l0.63,0
					c1.43,0,2.89,0.02,4.34,0.07c0.55,0.02,0.99,0.48,0.97,1.03C384.36,40.25,383.92,40.68,383.38,40.68z"/>
			</g>
			<g>
				<path class="st1" d="M323.11,51.99c-0.39,0-0.77-0.23-0.92-0.62c-0.21-0.51,0.03-1.1,0.54-1.31c0.78-0.32,1.56-0.63,2.33-0.94
					c0.52-0.2,1.09,0.05,1.3,0.56c0.2,0.51-0.05,1.09-0.56,1.3c-0.77,0.3-1.54,0.61-2.31,0.93
					C323.36,51.97,323.23,51.99,323.11,51.99z"/>
			</g>
		</g>
	</g>
	<g id="Paper_Plane_1_">
		<g id="XMLID_1220_">
			<polygon id="XMLID_352_" class="st3" points="100.44,143.16 146.43,120.62 113.26,152.16 			"/>
			<polygon id="XMLID_339_" class="st3" points="146.43,120.62 95.73,137.3 82.9,128.3 			"/>
			<polygon id="XMLID_337_" class="st3" points="95.73,137.3 97.73,150.18 100.44,143.16 146.43,120.62 			"/>
			<polygon id="XMLID_331_" class="st25" points="95.73,137.3 97.73,150.18 100.44,143.16 146.43,120.62 			"/>
			<polygon id="XMLID_1222_" class="st3" points="97.73,150.18 104.72,146.16 100.44,143.16 			"/>
			<polygon id="XMLID_1221_" class="st25" points="100.44,143.16 104.72,146.16 103.6,146.8 			"/>
		</g>
		<g>
			<path class="st1" d="M103.9,278.13c-0.11,0-0.23-0.02-0.34-0.06c-1.62-0.58-3.21-1.18-4.71-1.77c-0.51-0.2-0.76-0.78-0.56-1.3
				c0.2-0.51,0.79-0.76,1.3-0.56c1.48,0.59,3.04,1.18,4.65,1.75c0.52,0.19,0.79,0.76,0.6,1.28
				C104.69,277.88,104.31,278.13,103.9,278.13z M94.61,274.44c-0.13,0-0.27-0.03-0.4-0.08c-1.56-0.68-3.09-1.4-4.57-2.12
				c-0.5-0.24-0.7-0.84-0.46-1.34c0.24-0.5,0.84-0.7,1.34-0.46c1.45,0.71,2.96,1.41,4.5,2.09c0.51,0.22,0.74,0.81,0.51,1.32
				C95.36,274.22,95,274.44,94.61,274.44z M85.64,270.04c-0.16,0-0.33-0.04-0.48-0.12c-1.49-0.81-2.96-1.67-4.36-2.54
				c-0.47-0.29-0.62-0.91-0.33-1.38c0.29-0.47,0.91-0.62,1.38-0.33c1.38,0.85,2.82,1.69,4.28,2.48c0.48,0.27,0.66,0.87,0.4,1.36
				C86.34,269.85,86,270.04,85.64,270.04z M77.15,264.79c-0.2,0-0.4-0.06-0.57-0.18c-1.4-0.97-2.76-1.99-4.06-3.02
				c-0.43-0.34-0.5-0.97-0.16-1.4c0.34-0.43,0.97-0.5,1.4-0.16c1.26,1,2.59,1.99,3.96,2.94c0.45,0.32,0.56,0.94,0.25,1.39
				C77.78,264.64,77.47,264.79,77.15,264.79z M69.34,258.57c-0.24,0-0.48-0.09-0.67-0.26c-1.25-1.15-2.47-2.34-3.61-3.55
				c-0.38-0.4-0.36-1.04,0.04-1.41c0.4-0.38,1.03-0.36,1.41,0.04c1.11,1.18,2.29,2.34,3.51,3.45c0.41,0.37,0.44,1.01,0.06,1.41
				C69.88,258.46,69.61,258.57,69.34,258.57z M62.5,251.31c-0.29,0-0.58-0.13-0.78-0.37c-1.06-1.31-2.07-2.69-3.02-4.08
				c-0.31-0.46-0.19-1.08,0.27-1.39c0.46-0.31,1.08-0.19,1.39,0.27c0.92,1.35,1.9,2.68,2.92,3.95c0.35,0.43,0.28,1.06-0.15,1.41
				C62.94,251.23,62.72,251.31,62.5,251.31z M56.9,243.05c-0.35,0-0.69-0.18-0.87-0.51c-0.82-1.46-1.6-2.98-2.31-4.52
				c-0.23-0.5-0.01-1.09,0.49-1.33c0.5-0.23,1.09-0.01,1.33,0.49c0.69,1.49,1.44,2.96,2.24,4.37c0.27,0.48,0.1,1.09-0.38,1.36
				C57.24,243,57.07,243.05,56.9,243.05z M52.72,233.98c-0.41,0-0.79-0.25-0.94-0.65c-0.58-1.56-1.11-3.18-1.58-4.82
				c-0.15-0.53,0.15-1.08,0.68-1.24c0.53-0.15,1.08,0.15,1.24,0.68c0.46,1.59,0.98,3.17,1.53,4.68c0.19,0.52-0.07,1.09-0.59,1.28
				C52.95,233.96,52.83,233.98,52.72,233.98z M49.93,224.39c-0.46,0-0.87-0.32-0.98-0.79c-0.35-1.61-0.66-3.29-0.93-4.97
				c-0.08-0.55,0.29-1.06,0.83-1.14c0.55-0.08,1.06,0.29,1.14,0.83c0.26,1.65,0.56,3.28,0.91,4.86c0.12,0.54-0.22,1.07-0.76,1.19
				C50.08,224.38,50,224.39,49.93,224.39z M48.37,214.52c-0.51,0-0.94-0.38-0.99-0.9c-0.17-1.61-0.31-3.31-0.41-5.03
				c-0.03-0.55,0.39-1.02,0.94-1.06c0.55-0.01,1.02,0.39,1.06,0.94c0.1,1.69,0.23,3.35,0.4,4.94c0.06,0.55-0.34,1.04-0.89,1.1
				C48.44,214.52,48.41,214.52,48.37,214.52z M47.85,204.54c-0.01,0-0.01,0-0.02,0c-0.55-0.01-0.99-0.47-0.98-1.02
				c0.03-1.68,0.13-3.39,0.3-5.07c0.06-0.55,0.54-0.94,1.1-0.89c0.55,0.06,0.95,0.55,0.89,1.1c-0.17,1.63-0.26,3.28-0.29,4.91
				C48.84,204.1,48.4,204.54,47.85,204.54z M48.85,194.6c-0.06,0-0.12,0-0.18-0.02c-0.54-0.1-0.9-0.62-0.8-1.16
				c0.3-1.66,0.68-3.32,1.12-4.96c0.14-0.53,0.7-0.85,1.22-0.71c0.53,0.14,0.85,0.69,0.71,1.22c-0.42,1.58-0.79,3.2-1.08,4.8
				C49.75,194.26,49.32,194.6,48.85,194.6z M51.43,184.95c-0.11,0-0.22-0.02-0.33-0.06c-0.52-0.18-0.79-0.75-0.61-1.28
				c0.56-1.59,1.19-3.17,1.88-4.72c0.22-0.5,0.81-0.73,1.32-0.51c0.5,0.22,0.73,0.82,0.51,1.32c-0.67,1.5-1.28,3.03-1.82,4.57
				C52.23,184.69,51.84,184.95,51.43,184.95z M55.49,175.82c-0.16,0-0.33-0.04-0.48-0.12c-0.49-0.26-0.66-0.87-0.4-1.36
				c0.81-1.48,1.68-2.95,2.6-4.36c0.3-0.46,0.92-0.59,1.38-0.29c0.46,0.3,0.59,0.92,0.29,1.38c-0.89,1.37-1.74,2.79-2.52,4.23
				C56.19,175.63,55.85,175.82,55.49,175.82z M60.95,167.45c-0.21,0-0.43-0.07-0.61-0.21c-0.44-0.34-0.52-0.97-0.18-1.4
				c1.03-1.34,2.13-2.65,3.27-3.89c0.37-0.41,1-0.44,1.41-0.07c0.41,0.37,0.44,1,0.07,1.41c-1.1,1.21-2.16,2.47-3.16,3.77
				C61.54,167.32,61.25,167.45,60.95,167.45z M67.68,160.07c-0.27,0-0.53-0.11-0.73-0.32c-0.38-0.4-0.35-1.04,0.05-1.41
				c1.24-1.15,2.53-2.27,3.85-3.31c0.43-0.34,1.06-0.27,1.4,0.16c0.34,0.43,0.27,1.06-0.16,1.4c-1.28,1.01-2.53,2.09-3.73,3.2
				C68.17,159.98,67.92,160.07,67.68,160.07z M75.52,153.88c-0.32,0-0.64-0.16-0.83-0.45c-0.31-0.46-0.18-1.08,0.28-1.39
				c1.4-0.93,2.86-1.82,4.34-2.64c0.48-0.27,1.09-0.09,1.36,0.39c0.27,0.48,0.09,1.09-0.39,1.36c-1.43,0.79-2.84,1.65-4.2,2.55
				C75.9,153.82,75.71,153.88,75.52,153.88z M84.25,149.04c-0.38,0-0.75-0.22-0.91-0.59c-0.23-0.5,0-1.1,0.5-1.32
				c1.53-0.69,3.11-1.33,4.7-1.91c0.52-0.19,1.09,0.08,1.28,0.6c0.19,0.52-0.08,1.09-0.6,1.28c-1.54,0.56-3.07,1.18-4.56,1.85
				C84.53,149.01,84.39,149.04,84.25,149.04z"/>
		</g>
	</g>
</g>
<g id="Icon">
	<g id="At">
		<path class="st3" d="M335.03,415.38c0.01-0.37-0.17-0.67-0.51-0.89c-0.59-0.46-1.33-0.67-2.21-0.65
			c-0.89,0.02-1.65,0.21-2.31,0.56l-4.03,2.13c0.33-0.6,0.58-1.21,0.73-1.83c0.12-0.49,0.17-0.99,0.16-1.5c-0.02-0.84,0-5.5,0-5.95
			c0.01-0.9-0.19-1.82-0.6-2.76c-0.61-1.39-1.8-2.74-3.58-4.05c-1.23-0.95-2.7-1.98-4.43-3.11c-1.72-1.13-3.29-2.08-4.71-2.87
			c-3.65-1.97-7.6-3.54-11.84-4.72c-4.24-1.18-8.8-1.75-13.67-1.71c-4.87,0.04-10.05,0.78-15.56,2.22
			c-5.5,1.44-11.3,3.77-17.41,7.01c-5.21,2.76-9.15,5.63-11.81,8.61c-2.66,2.98-4.27,5.92-4.83,8.81c-0.17,0.9-0.25,1.78-0.24,2.66
			c0.01,0.98-0.01,5.19,0,6.03c0,1.99,0.48,3.93,1.42,5.82c1.34,2.69,3.41,5.13,6.2,7.31c0.59,0.46,1.44,1.07,2.56,1.84
			c1.12,0.77,2.31,1.57,3.58,2.4c1.27,0.83,2.51,1.63,3.71,2.38c1.21,0.75,2.18,1.34,2.94,1.77c3.5,1.87,7.47,3.33,11.9,4.38
			c4.42,1.05,9.09,1.57,13.99,1.55c4.89-0.02,9.95-0.67,15.18-1.93c5.22-1.26,10.44-3.27,15.65-6.04c4.19-2.22,7.54-4.32,10.05-6.3
			c2.51-1.98,4.44-3.83,5.81-5.56c1.37-1.73,2.3-3.38,2.79-4.94c0.49-1.56,0.84-3.02,1.05-4.37c0.01-0.06,0.02-0.13,0.02-0.19
			C335.03,421.14,335.02,415.44,335.03,415.38z M320.03,422.56c-0.54,0.79-1.3,1.65-2.3,2.59c-1,0.94-2.3,1.96-3.89,3.04
			c-1.6,1.08-3.63,2.28-6.08,3.58c-3.47,1.84-7,3.22-10.58,4.14c-3.58,0.92-7.09,1.42-10.54,1.51c-3.44,0.09-6.77-0.21-9.96-0.88
			c-3.19-0.67-6.17-1.7-8.92-3.08c-0.82-0.39-1.79-0.94-2.92-1.64c-1.13-0.7-2.28-1.44-3.45-2.21c-1.17-0.77-2.28-1.51-3.32-2.23
			c-1.04-0.72-1.83-1.32-2.36-1.81c-2.03-1.76-3.48-3.62-4.33-5.6c-0.1-0.23-0.18-0.45-0.26-0.68c0.61-1.73,1.74-3.46,3.4-5.18
			c1.93-2,4.63-3.92,8.11-5.76c4.13-2.19,8.06-3.86,11.79-5c2.06-0.63,4.07-1.1,6.03-1.44l-1.03,0.55c-0.66,0.35-1.03,0.78-1.11,1.3
			c-0.08,0.52,0.16,0.95,0.7,1.31l0.67,0.44c-1.73-0.21-3.5-0.2-5.33,0.03c-1.82,0.23-3.96,0.99-6.41,2.29
			c-2.22,1.18-3.84,2.48-4.85,3.9c-0.89,1.25-1.34,2.53-1.33,3.85c0,0.19,0,5.12,0,6.14c0,0.19,0.01,0.37,0.03,0.56
			c0.15,1.52,0.83,3.06,2.04,4.64c1.21,1.58,2.97,3.11,5.26,4.62c2.3,1.5,4.72,2.69,7.28,3.55c2.56,0.86,5.15,1.39,7.79,1.59
			c2.63,0.2,5.21,0.06,7.73-0.42c2.52-0.48,4.89-1.3,7.11-2.48c1.86-0.98,3.29-1.89,4.3-2.72c1.01-0.83,1.73-1.6,2.17-2.3
			c0.44-0.71,0.68-1.36,0.72-1.98c0.04-0.61,0.05-1.21,0.03-1.79c1.69,0.11,3.72-0.03,6.09-0.43c2.37-0.4,5.05-1.39,8.05-2.98
			c0.16-0.08,0.3-0.18,0.46-0.26C320.58,421.71,320.32,422.13,320.03,422.56z M284.34,416.67c2.48,0.31,4.95,1.27,7.39,2.87
			c0.89,0.58,1.63,1.16,2.23,1.72c-0.35,0.25-0.73,0.49-1.17,0.72c-2.1,1.11-4.39,1.53-6.87,1.25c-2.49-0.28-4.95-1.22-7.4-2.82
			c-0.92-0.6-1.68-1.19-2.28-1.78c0.31-0.23,0.66-0.45,1.06-0.66C279.51,416.79,281.86,416.35,284.34,416.67z M312.21,410.74
			c-1.06,0.46-2.25,0.73-3.58,0.79c-1.58,0.07-2.97-0.29-4.16-1.08l-13.54-8.86c1.36,0.16,2.72,0.38,4.05,0.69
			c3.23,0.77,6.4,1.96,9.5,3.56c1.48,0.76,2.95,1.61,4.42,2.58C310.1,409.21,311.18,409.98,312.21,410.74z"/>
		<path class="st11" d="M335.03,415.38c0.01-0.37-0.17-0.67-0.51-0.89c-0.59-0.46-1.33-0.67-2.21-0.65
			c-0.89,0.02-1.65,0.21-2.31,0.56l-4.03,2.13c0.33-0.6,0.58-1.21,0.73-1.83c0.12-0.49,0.17-0.99,0.16-1.5c-0.02-0.84,0-5.5,0-5.95
			c0.01-0.9-0.19-1.82-0.6-2.76c-0.61-1.39-1.8-2.74-3.58-4.05c-1.23-0.95-2.7-1.98-4.43-3.11c-1.72-1.13-3.29-2.08-4.71-2.87
			c-3.65-1.97-7.6-3.54-11.84-4.72c-4.24-1.18-8.8-1.75-13.67-1.71c-4.87,0.04-10.05,0.78-15.56,2.22
			c-5.5,1.44-11.3,3.77-17.41,7.01c-5.21,2.76-9.15,5.63-11.81,8.61c-2.66,2.98-4.27,5.92-4.83,8.81c-0.17,0.9-0.25,1.78-0.24,2.66
			c0.01,0.98-0.01,5.19,0,6.03c0,1.99,0.48,3.93,1.42,5.82c1.34,2.69,3.41,5.13,6.2,7.31c0.59,0.46,1.44,1.07,2.56,1.84
			c1.12,0.77,2.31,1.57,3.58,2.4c1.27,0.83,2.51,1.63,3.71,2.38c1.21,0.75,2.18,1.34,2.94,1.77c3.5,1.87,7.47,3.33,11.9,4.38
			c4.42,1.05,9.09,1.57,13.99,1.55c4.89-0.02,9.95-0.67,15.18-1.93c5.22-1.26,10.44-3.27,15.65-6.04c4.19-2.22,7.54-4.32,10.05-6.3
			c2.51-1.98,4.44-3.83,5.81-5.56c1.37-1.73,2.3-3.38,2.79-4.94c0.49-1.56,0.84-3.02,1.05-4.37c0.01-0.06,0.02-0.13,0.02-0.19
			C335.03,421.14,335.02,415.44,335.03,415.38z M320.03,422.56c-0.54,0.79-1.3,1.65-2.3,2.59c-1,0.94-2.3,1.96-3.89,3.04
			c-1.6,1.08-3.63,2.28-6.08,3.58c-3.47,1.84-7,3.22-10.58,4.14c-3.58,0.92-7.09,1.42-10.54,1.51c-3.44,0.09-6.77-0.21-9.96-0.88
			c-3.19-0.67-6.17-1.7-8.92-3.08c-0.82-0.39-1.79-0.94-2.92-1.64c-1.13-0.7-2.28-1.44-3.45-2.21c-1.17-0.77-2.28-1.51-3.32-2.23
			c-1.04-0.72-1.83-1.32-2.36-1.81c-2.03-1.76-3.48-3.62-4.33-5.6c-0.1-0.23-0.18-0.45-0.26-0.68c0.61-1.73,1.74-3.46,3.4-5.18
			c1.93-2,4.63-3.92,8.11-5.76c4.13-2.19,8.06-3.86,11.79-5c2.06-0.63,4.07-1.1,6.03-1.44l-1.03,0.55c-0.66,0.35-1.03,0.78-1.11,1.3
			c-0.08,0.52,0.16,0.95,0.7,1.31l0.67,0.44c-1.73-0.21-3.5-0.2-5.33,0.03c-1.82,0.23-3.96,0.99-6.41,2.29
			c-2.22,1.18-3.84,2.48-4.85,3.9c-0.89,1.25-1.34,2.53-1.33,3.85c0,0.19,0,5.12,0,6.14c0,0.19,0.01,0.37,0.03,0.56
			c0.15,1.52,0.83,3.06,2.04,4.64c1.21,1.58,2.97,3.11,5.26,4.62c2.3,1.5,4.72,2.69,7.28,3.55c2.56,0.86,5.15,1.39,7.79,1.59
			c2.63,0.2,5.21,0.06,7.73-0.42c2.52-0.48,4.89-1.3,7.11-2.48c1.86-0.98,3.29-1.89,4.3-2.72c1.01-0.83,1.73-1.6,2.17-2.3
			c0.44-0.71,0.68-1.36,0.72-1.98c0.04-0.61,0.05-1.21,0.03-1.79c1.69,0.11,3.72-0.03,6.09-0.43c2.37-0.4,5.05-1.39,8.05-2.98
			c0.16-0.08,0.3-0.18,0.46-0.26C320.58,421.71,320.32,422.13,320.03,422.56z M284.34,416.67c2.48,0.31,4.95,1.27,7.39,2.87
			c0.89,0.58,1.63,1.16,2.23,1.72c-0.35,0.25-0.73,0.49-1.17,0.72c-2.1,1.11-4.39,1.53-6.87,1.25c-2.49-0.28-4.95-1.22-7.4-2.82
			c-0.92-0.6-1.68-1.19-2.28-1.78c0.31-0.23,0.66-0.45,1.06-0.66C279.51,416.79,281.86,416.35,284.34,416.67z M312.21,410.74
			c-1.06,0.46-2.25,0.73-3.58,0.79c-1.58,0.07-2.97-0.29-4.16-1.08l-13.54-8.86c1.36,0.16,2.72,0.38,4.05,0.69
			c3.23,0.77,6.4,1.96,9.5,3.56c1.48,0.76,2.95,1.61,4.42,2.58C310.1,409.21,311.18,409.98,312.21,410.74z"/>
		<path class="st13" d="M251.11,419.3c0.61-1.73,1.74-3.46,3.4-5.18c1.93-2,4.63-3.92,8.11-5.76c4.13-2.19,8.06-3.86,11.79-5
			c2.06-0.63,4.07-1.1,6.03-1.44l3.64-1.93c0.66-0.35,1.43-0.52,2.31-0.51c0.87,0.01,1.59,0.19,2.14,0.55l2.4,1.57
			c1.36,0.16,2.72,0.38,4.05,0.69c3.23,0.77,6.4,1.96,9.5,3.56c1.48,0.76,2.95,1.61,4.42,2.58c1.19,0.78,2.28,1.55,3.31,2.31
			c0.2-0.08,0.39-0.16,0.58-0.26c1.2-0.64,1.89-1.4,2.09-2.31c0.19-0.9-0.45-1.91-1.92-3.02c-1.23-0.95-2.58-1.9-4.05-2.86
			c-1.47-0.96-2.95-1.82-4.42-2.58c-3.1-1.61-6.27-2.79-9.5-3.56c-3.24-0.77-6.54-1.07-9.92-0.91c-3.38,0.17-6.93,0.82-10.65,1.97
			c-3.73,1.15-7.65,2.81-11.79,5c-3.47,1.84-6.18,3.76-8.11,5.76c-1.93,2-3.15,4-3.66,6.02c-0.5,2.01-0.33,4.01,0.51,5.98
			c0.42,0.99,1,1.95,1.72,2.88c-0.72-0.93-1.29-1.89-1.72-2.88C251.28,419.75,251.19,419.53,251.11,419.3z"/>
		<path class="st13" d="M291.73,413.4c-2.44-1.6-4.91-2.56-7.39-2.87c-2.48-0.31-4.83,0.12-7.04,1.3c-2.1,1.11-3.03,2.42-2.79,3.92
			c0.15,0.94,0.73,1.9,1.74,2.88c0,0-0.01-0.01-0.01-0.01c0.31-0.23,0.66-0.45,1.06-0.66c2.21-1.17,4.56-1.61,7.04-1.3
			c2.48,0.31,4.95,1.27,7.39,2.87c0.89,0.58,1.63,1.16,2.23,1.72c-0.17,0.12-0.34,0.24-0.53,0.35c1.76-1.08,2.56-2.27,2.37-3.57
			C295.57,416.58,294.23,415.03,291.73,413.4z"/>
		<path class="st13" d="M284.16,430.54c-2.64-0.2-5.23-0.73-7.79-1.59c-2.56-0.86-4.99-2.04-7.28-3.55
			c-2.29-1.5-4.05-3.04-5.26-4.62c-1.21-1.57-1.89-3.12-2.04-4.64c-0.03-0.3-0.02-0.59,0-0.89c-0.01,0.11-0.03,0.21-0.03,0.32
			c0,0.19,0,5.12,0,6.14c0,0.19,0.01,0.37,0.03,0.56c0.15,1.52,0.83,3.06,2.04,4.64c1.21,1.58,2.97,3.11,5.26,4.62
			c2.3,1.5,4.72,2.69,7.28,3.55c2.56,0.86,5.15,1.39,7.79,1.59L284.16,430.54z"/>
		<path class="st13" d="M306.22,418.84c0.02,0.58,0.01,1.18-0.03,1.79l0.03,4.34c1.69,0.11,3.72-0.03,6.09-0.43l0-6.13
			C309.93,418.81,307.9,418.96,306.22,418.84z"/>
		<path class="st13" d="M270.49,443.14c-4.43-1.05-8.39-2.51-11.89-4.38c-0.76-0.43-1.74-1.02-2.94-1.77
			c-1.2-0.75-2.44-1.54-3.71-2.38c-1.27-0.83-2.47-1.63-3.58-2.4c-1.12-0.77-1.98-1.38-2.56-1.84c-2.79-2.18-4.86-4.62-6.2-7.31
			c-0.95-1.9-1.41-3.86-1.41-5.86c0,0.05-0.01,0.09-0.01,0.14c0.01,0.98-0.01,5.19,0,6.03c0,1.99,0.48,3.93,1.42,5.82
			c1.34,2.69,3.41,5.13,6.2,7.31c0.59,0.46,1.44,1.07,2.56,1.84c1.12,0.77,2.31,1.57,3.58,2.4c1.27,0.83,2.51,1.63,3.71,2.38
			c1.21,0.75,2.19,1.34,2.94,1.77c3.5,1.87,7.47,3.33,11.9,4.38c4.42,1.05,9.09,1.57,13.98,1.55v-6.13
			C279.58,444.71,274.92,444.2,270.49,443.14z"/>
		<path id="XMLID_733_" class="st3" d="M322.68,400.45c1.78,1.31,2.97,2.65,3.58,4.05c0.61,1.39,0.75,2.75,0.44,4.07
			c-0.32,1.32-1.03,2.57-2.15,3.76c-1.12,1.18-2.52,2.22-4.19,3.11c-2.99,1.59-5.68,2.58-8.05,2.98c-2.37,0.4-4.4,0.54-6.09,0.43
			c0.02,0.58,0.01,1.18-0.03,1.79c-0.04,0.61-0.28,1.27-0.72,1.98c-0.44,0.71-1.16,1.47-2.17,2.3c-1.01,0.83-2.44,1.74-4.3,2.72
			c-2.22,1.17-4.58,2-7.11,2.48c-2.52,0.48-5.1,0.62-7.73,0.42c-2.64-0.2-5.23-0.73-7.79-1.59c-2.56-0.86-4.99-2.04-7.28-3.55
			c-2.29-1.5-4.05-3.04-5.26-4.62c-1.21-1.57-1.89-3.12-2.04-4.64c-0.15-1.52,0.28-2.99,1.3-4.42c1.02-1.43,2.64-2.73,4.85-3.9
			c2.45-1.3,4.59-2.06,6.41-2.29c1.82-0.22,3.6-0.24,5.33-0.03l-0.67-0.44c-0.55-0.36-0.78-0.79-0.7-1.31
			c0.08-0.52,0.45-0.95,1.11-1.3l4.67-2.48c0.66-0.35,1.43-0.52,2.31-0.51c0.87,0.01,1.59,0.19,2.14,0.55l15.94,10.44
			c1.2,0.78,2.59,1.14,4.16,1.08c1.58-0.07,2.96-0.42,4.16-1.05c1.2-0.64,1.89-1.4,2.09-2.31c0.19-0.9-0.45-1.91-1.92-3.02
			c-1.23-0.95-2.58-1.9-4.05-2.86c-1.47-0.96-2.94-1.82-4.42-2.58c-3.1-1.61-6.27-2.79-9.5-3.56c-3.24-0.77-6.54-1.07-9.92-0.91
			c-3.38,0.17-6.93,0.82-10.65,1.97c-3.73,1.15-7.65,2.81-11.79,5c-3.47,1.84-6.18,3.76-8.11,5.76c-1.93,2-3.15,4-3.66,6.02
			c-0.5,2.01-0.33,4.01,0.51,5.98c0.85,1.98,2.29,3.84,4.33,5.6c0.53,0.49,1.31,1.09,2.36,1.81c1.04,0.72,2.15,1.46,3.32,2.23
			c1.17,0.77,2.33,1.5,3.45,2.21c1.13,0.7,2.1,1.25,2.92,1.64c2.75,1.38,5.73,2.4,8.92,3.08c3.2,0.67,6.52,0.97,9.96,0.88
			c3.45-0.08,6.96-0.59,10.54-1.51c3.58-0.92,7.11-2.3,10.58-4.14c2.46-1.3,4.48-2.49,6.08-3.58c1.59-1.08,2.89-2.1,3.89-3.04
			c1-0.94,1.76-1.81,2.3-2.59c0.53-0.79,0.97-1.53,1.3-2.24c0.26-0.61,0.5-1.07,0.71-1.4c0.21-0.32,0.65-0.66,1.31-1.01l6.65-3.52
			c0.66-0.35,1.43-0.54,2.31-0.56c0.88-0.03,1.62,0.19,2.21,0.65c0.4,0.26,0.57,0.62,0.5,1.07c-0.21,1.35-0.56,2.81-1.05,4.37
			c-0.49,1.56-1.42,3.2-2.79,4.94c-1.37,1.73-3.3,3.58-5.81,5.56c-2.51,1.98-5.86,4.08-10.05,6.3c-5.21,2.76-10.43,4.77-15.65,6.04
			c-5.23,1.26-10.29,1.91-15.18,1.93c-4.9,0.02-9.56-0.49-13.99-1.55c-4.43-1.05-8.39-2.51-11.9-4.38
			c-0.76-0.43-1.74-1.02-2.94-1.77c-1.2-0.75-2.44-1.54-3.71-2.38c-1.27-0.83-2.47-1.63-3.58-2.4c-1.12-0.77-1.98-1.38-2.56-1.84
			c-2.79-2.18-4.86-4.62-6.2-7.31c-1.34-2.69-1.73-5.48-1.17-8.38c0.56-2.9,2.17-5.84,4.83-8.81c2.66-2.98,6.6-5.85,11.81-8.61
			c6.11-3.24,11.91-5.58,17.41-7.01c5.5-1.44,10.69-2.18,15.56-2.22c4.87-0.04,9.43,0.53,13.67,1.71c4.24,1.18,8.19,2.75,11.84,4.72
			c1.42,0.79,2.99,1.74,4.71,2.87C319.98,398.47,321.45,399.51,322.68,400.45z M278.52,420.4c2.44,1.6,4.91,2.54,7.4,2.82
			c2.48,0.28,4.77-0.14,6.87-1.25c2.21-1.17,3.22-2.49,3.01-3.94c-0.22-1.45-1.57-3-4.06-4.63c-2.44-1.6-4.91-2.56-7.39-2.87
			c-2.48-0.31-4.83,0.12-7.04,1.3c-2.1,1.11-3.03,2.42-2.79,3.92C274.74,417.25,276.08,418.8,278.52,420.4z"/>
	</g>
</g>
<g id="Envelope">
	<g id="Mail">
		<path id="XMLID_767_" class="st3" d="M324.08,373.21v0.74c0,1.18,0.83,2.61,1.84,3.2l39.58,22.85c1.02,0.59,2.67,0.59,3.69,0
			l65.54-37.84c1.02-0.59,1.84-2.02,1.84-3.2v-0.74c0-1.18-0.83-2.61-1.85-3.2l-39.58-22.85c-1.02-0.59-2.67-0.59-3.69,0
			l-65.54,37.84C324.9,370.6,324.08,372.03,324.08,373.21z"/>
		<path id="XMLID_763_" class="st3" d="M324.08,373.21v0.74c0,1.18,0.83,2.61,1.84,3.2l39.58,22.85c1.02,0.59,2.67,0.59,3.69,0
			l65.54-37.84c1.02-0.59,1.84-2.02,1.84-3.2v-0.74c0-1.18-0.83-2.61-1.85-3.2l-39.58-22.85c-1.02-0.59-2.67-0.59-3.69,0
			l-65.54,37.84C324.9,370.6,324.08,372.03,324.08,373.21z"/>
		<path class="st11" d="M367.34,346.09l-41.42,23.92c-1.02,0.59-1.84,2.02-1.84,3.2v0.74c0,1.18,0.83,2.61,1.84,3.2l39.58,22.85
			c0.51,0.29,1.18,0.44,1.84,0.44h0V346.09z"/>
		<path class="st4" d="M367.34,346.09l-41.42,23.92c-1.02,0.59-1.84,2.02-1.84,3.2v0.74c0,1.18,0.83,2.61,1.84,3.2l39.58,22.85
			c0.51,0.29,1.18,0.44,1.84,0.44h0V346.09z"/>
		<path class="st11" d="M434.73,355.02l-39.58-22.85c-1.02-0.59-2.67-0.59-3.69,0l-24.11,13.92v54.33h0c0.67,0,1.34-0.15,1.85-0.44
			l65.54-37.84c1.02-0.59,1.85-2.02,1.85-3.2v-0.74C436.57,357.04,435.75,355.61,434.73,355.02z"/>
		<path id="XMLID_762_" class="st3" d="M359.16,391.33l-33.24-19.19c-1.02-0.59-1.02-1.54,0-2.13l65.54-37.84
			c1.02-0.59,2.67-0.59,3.69,0l39.58,22.85c1.02,0.59,1.02,1.54,0,2.13l-10.87,6.28l-3.81,2.2l-50.86,29.36
			c-1.02,0.59-2.67,0.59-3.69,0l-3.22-1.86L359.16,391.33z"/>
		<path class="st4" d="M389.34,359.45l45.39-4.43l-44.99,2.55l5.41-25.4c-0.55-0.32-1.29-0.45-2.01-0.42l-8.49,34.33l-59.48,4.91
			c-0.04,0.42,0.2,0.84,0.75,1.16l48.03-2.79l-6.61,26.08l8.45-26.19h0l8.2-0.48c1.03-0.06,1.98-0.48,2.71-1.13l0,0l0-0.01
			c0.68-0.61,1.18-1.43,1.38-2.38L389.34,359.45z"/>
		<path id="XMLID_740_" class="st10" d="M339.36,369.81l45.29-3.74l1.62-6.49l0.89-3.61l5.98-24.23c-0.61,0.02-1.22,0.15-1.69,0.42
			l-32.77,18.92l-32.77,18.92c-0.47,0.27-0.71,0.62-0.75,0.97l9.08-0.75L339.36,369.81z"/>
	</g>
</g>
</svg>
