<?xml version="1.0" encoding="utf-8"?>
<!-- Generator: Adobe Illustrator 25.3.0, SVG Export Plug-In . SVG Version: 6.00 Build 0)  -->
<svg version="1.1" xmlns="http://www.w3.org/2000/svg" xmlns:xlink="http://www.w3.org/1999/xlink" x="0px" y="0px"
	 viewBox="0 0 3000 2000" style="enable-background:new 0 0 3000 2000;" xml:space="preserve">
<style type="text/css">
	.st0{fill:#FFFFFF;}
	.st1{fill:#F6F5F5;}
	.st2{fill:#DADADA;}
	.st3{fill:#86A7FF;}
	.st4{fill:#D3DFFF;}
	.st5{fill:#1F3C88;}
	.st6{fill:#FBC343;}
	.st7{fill:#3A6BEA;}
	.st8{fill:#E49B31;}
	.st9{fill:#ED7545;}
	.st10{opacity:0.4;fill:#E49B31;}
	.st11{fill:#102048;}
	.st12{fill:#F9B384;}
	.st13{fill:#E28B6D;}
	.st14{opacity:0.4;fill:#EB5D60;}
	.st15{fill:#BA5C36;}
	.st16{fill:#6E3620;}
	.st17{opacity:0.3;fill:#1F3C88;}
</style>
<g id="BACKGROUND">
	<rect class="st0" width="3000" height="2000"/>
</g>
<g id="OBJECTS">
	<g>
		<g>
			<path class="st1" d="M2321.49,767.05c-191.33-588.15-1219.41-613.72-1298.37,46.17c0,0-60.95,12.07-114.71,3.84
				c-293.15-44.85-806.1,516.53-412.42,945.51h2198.46C2932.32,1352.89,2761.47,933.7,2321.49,767.05z"/>
			<g>
				<g>
					<g>
						<path class="st2" d="M1793.2,1135.33l-3.79-3.69c245.39-252.28,255.15-390.27,269.91-599.12
							c5.23-73.96,11.14-157.63,28.14-258.61c-116.22,54.02-210.42,128.83-280.06,222.43c-56.44,75.86-96.99,164.17-120.5,262.49
							c-40.07,167.55-16.4,307.93-16.16,309.33l-5.21,0.91c-0.25-1.41-24.1-142.69,16.18-311.27
							c23.66-99.06,64.5-188.05,121.37-264.52c71.09-95.58,167.56-171.71,286.72-226.28l4.55-2.09l-0.85,4.94
							c-17.6,102.95-23.61,188-28.92,263.04C2049.76,742.91,2039.95,881.66,1793.2,1135.33z"/>
						<g>
							<path class="st2" d="M1746.96,1081.14l-5.13-1.32c0.98-3.78,98.7-381.01,221.64-590.41l4.57,2.68
								C1845.46,700.86,1747.93,1077.36,1746.96,1081.14z"/>
							<path class="st2" d="M1882.47,666.69l-5.29-0.19c0.03-0.76,2.24-76.48-37.32-149.35l4.65-2.52
								C1884.78,588.82,1882.5,665.92,1882.47,666.69z"/>
							<path class="st2" d="M1826.07,820.06l-3.72-3.75c56.23-55.84,129.7-73.09,130.43-73.26l1.17,5.16
								C1953.23,748.38,1881.19,765.33,1826.07,820.06z"/>
						</g>
					</g>
					<g>
						<path class="st2" d="M1979.87,1296.99l-0.52-5.27c95.68-9.48,173.3-73.6,237.28-196.02
							c56.68-108.46,95.62-247.05,133.28-381.07c24.42-86.89,47.51-169.07,74.46-240.23c-275.37,68.82-389.5,287.1-390.63,289.31
							l-4.71-2.4c1.15-2.25,117.64-225.22,398.99-293.25l4.89-1.18l-1.8,4.7c-27.64,72.01-51.18,155.79-76.1,244.49
							c-37.73,134.28-76.75,273.13-133.69,382.08C2156.44,1222.27,2077.47,1287.31,1979.87,1296.99z"/>
						<path class="st2" d="M1956.43,1167.03l-4.83-2.14c1.61-3.63,162.45-363.83,297.57-468.56l3.24,4.18
							c-55.39,42.93-124.1,137.16-198.73,272.5C1997.21,1075.42,1956.83,1166.13,1956.43,1167.03z"/>
						<path class="st2" d="M2134.17,836.66l-5.2-0.97c0.08-0.4,7.54-41.19,14.18-139.74l5.28,0.36
							C2141.76,795.23,2134.25,836.25,2134.17,836.66z"/>
						<path class="st2" d="M2043.99,990.08l-3-4.36c0.73-0.5,74.21-50.61,170.67-72.6l1.17,5.16
							C2117.35,940.05,2044.71,989.58,2043.99,990.08z"/>
					</g>
				</g>
				<g>
					<g>
						<path class="st2" d="M762.8,1642.73c-237.63-244.3-247.08-377.93-261.37-580.2c-5.11-72.26-10.9-154.17-27.84-253.3
							l-0.84-4.94l4.55,2.09c259.96,119.03,357.22,322.75,393.04,472.69c38.79,162.36,15.82,298.44,15.58,299.79l-5.21-0.91
							c0.23-1.35,23.02-136.51-15.56-297.85c-35.36-147.84-130.99-348.43-385.51-466.82c16.35,97.16,22.04,177.68,27.07,248.86
							c14.21,201.11,23.6,333.96,259.89,576.88L762.8,1642.73z"/>
						<g>
							<path class="st2" d="M807.32,1590.5c-0.93-3.64-94.86-366.2-212.89-567.22l4.56-2.68
								c118.41,201.67,212.52,564.94,213.45,568.58L807.32,1590.5z"/>
							<path class="st2" d="M676.82,1191.37c-0.03-0.74-2.23-75.02,36.56-146.49l4.65,2.52c-38.08,70.16-35.95,143.05-35.93,143.78
								L676.82,1191.37z"/>
							<path class="st2" d="M731.16,1339.14c-53.06-52.69-122.41-69-123.1-69.17l1.18-5.15c0.71,0.16,71.48,16.77,125.65,70.57
								L731.16,1339.14z"/>
						</g>
					</g>
					<g>
						<path class="st2" d="M599.47,1735.52c-204.16-18.99-285.89-245.31-358-445c-24.37-67.49-47.4-131.24-74.1-186.11l-2.36-4.84
							l5.28,1.09c137.91,28.7,232.98,88.87,288.44,134.29c60.17,49.27,88.11,92.42,88.38,92.85l-4.46,2.85
							c-1.08-1.69-110.24-168.09-368.18-223.69c25.83,54,48.27,116.12,71.97,181.77c71.57,198.2,152.7,422.85,353.51,441.53
							L599.47,1735.52z"/>
						<path class="st2" d="M619.81,1637.2c-1.54-2.76-155.75-276.62-282.36-356.94l2.83-4.47
							c127.73,81.04,282.59,356.06,284.14,358.82L619.81,1637.2z"/>
						<path class="st2" d="M449.47,1384.48c-0.07-0.31-7.61-31.55-15.05-106.67l5.26-0.52c7.39,74.66,14.85,105.63,14.92,105.93
							L449.47,1384.48z"/>
						<path class="st2" d="M535.91,1502.2c-0.68-0.39-69.3-38.83-158.88-56.47l1.02-5.19c90.46,17.82,159.78,56.66,160.47,57.05
							L535.91,1502.2z"/>
					</g>
				</g>
				<g>
					<g>
						<path class="st2" d="M2497.58,1758.97l-1.25-5.14c224.79-54.89,267.17-296.36,308.16-529.86
							c14.39-81.96,29.26-166.66,51.99-239.97c-223.76,42.87-350.51,197.37-417.56,319.86c-73.23,133.78-93.05,259.34-93.24,260.59
							l-5.23-0.8c0.19-1.26,20.12-127.61,93.76-262.19c68.03-124.34,197.09-281.39,425.64-323.48l4.33-0.8l-1.33,4.2
							c-23.38,73.93-38.51,160.14-53.14,243.5C2768.41,1460.07,2725.73,1703.25,2497.58,1758.97z"/>
						<path class="st2" d="M2478.34,1626.6l-5.1-1.41c0.82-2.97,83.7-297.63,218.49-414l3.46,4.01
							C2561.61,1330.51,2479.16,1623.66,2478.34,1626.6z"/>
						<path class="st2" d="M2573.61,1379.53l-5.18-1.07c0.12-0.6,12.23-60.64,7.98-148.79l5.29-0.26
							C2585.97,1318.29,2573.73,1378.93,2573.61,1379.53z"/>
						<path class="st2" d="M2502.33,1507.79l-3.25-4.18c0.73-0.57,74.7-57.69,176.9-93.98l1.77,4.98
							C2576.35,1450.63,2503.06,1507.22,2502.33,1507.79z"/>
					</g>
				</g>
			</g>
			<g>
				<path class="st2" d="M1978.95,677.1c-9.48,0-17.19-7.71-17.19-17.2s7.71-17.2,17.19-17.2c9.48,0,17.19,7.71,17.19,17.2
					S1988.42,677.1,1978.95,677.1z M1978.95,648.01c-6.56,0-11.9,5.34-11.9,11.9c0,6.56,5.34,11.9,11.9,11.9
					c6.56,0,11.9-5.34,11.9-11.9C1990.85,653.35,1985.51,648.01,1978.95,648.01z"/>
				<path class="st2" d="M553.21,942.96c-9.48,0-17.2-7.71-17.2-17.2s7.71-17.2,17.2-17.2s17.19,7.71,17.19,17.2
					S562.69,942.96,553.21,942.96z M553.21,913.86c-6.56,0-11.9,5.34-11.9,11.9c0,6.56,5.34,11.9,11.9,11.9
					c6.56,0,11.9-5.34,11.9-11.9C565.11,919.2,559.78,913.86,553.21,913.86z"/>
				<path class="st2" d="M2148.23,1326.09c-9.48,0-17.19-7.71-17.19-17.19c0-9.48,7.71-17.19,17.19-17.19
					c9.48,0,17.19,7.71,17.19,17.19C2165.42,1318.38,2157.71,1326.09,2148.23,1326.09z M2148.23,1296.99
					c-6.56,0-11.9,5.34-11.9,11.9c0,6.56,5.34,11.9,11.9,11.9c6.56,0,11.9-5.34,11.9-11.9
					C2160.14,1302.34,2154.79,1296.99,2148.23,1296.99z"/>
				<path class="st2" d="M2733.25,1142.68c-9.48,0-17.19-7.71-17.19-17.19c0-9.48,7.71-17.2,17.19-17.2s17.19,7.71,17.19,17.2
					C2750.44,1134.97,2742.73,1142.68,2733.25,1142.68z M2733.25,1113.58c-6.56,0-11.9,5.34-11.9,11.91c0,6.56,5.34,11.9,11.9,11.9
					s11.9-5.34,11.9-11.9C2745.16,1118.92,2739.81,1113.58,2733.25,1113.58z"/>
				<circle class="st2" cx="2091.36" cy="1081.84" r="11.9"/>
				<circle class="st2" cx="2639.35" cy="1520.08" r="11.9"/>
				
					<ellipse transform="matrix(1.415886e-03 -1 1 1.415886e-03 1018.954 2504.2275)" class="st2" cx="1763.36" cy="741.91" rx="11.9" ry="11.9"/>
				<circle class="st2" cx="449.17" cy="1558.88" r="11.9"/>
			</g>
			<path class="st2" d="M788.14,748.91c-1.52,0-3.06-0.22-4.59-0.67l-32.91-9.83c-4.11-1.23-7.49-3.98-9.52-7.75
				c-2.03-3.76-2.46-8.09-1.23-12.17l11.21-37.23c-13.92-7.38-26.68-16.66-38-27.61l-32.08,21.66c-7.33,4.94-17.31,3.02-22.27-4.28
				l-19.24-28.35c-2.4-3.54-3.28-7.79-2.47-11.99c0.81-4.2,3.21-7.84,6.76-10.23l31.71-21.4c-6.72-15.82-10.93-32.57-12.52-49.86
				l-37.62-4.31c-4.26-0.49-8.08-2.61-10.74-5.96c-2.66-3.34-3.85-7.52-3.36-11.76l3.93-34.02c1.01-8.77,8.98-15.08,17.77-14.07
				l37.13,4.26c4.98-15.59,12.21-30.31,21.51-43.81l-25.64-26.59c-2.97-3.08-4.56-7.13-4.48-11.4c0.09-4.28,1.83-8.26,4.93-11.23
				l24.77-23.74c6.38-6.12,16.55-5.92,22.67,0.44l25.41,26.35c14.42-9.24,30.09-16.17,46.62-20.62l-2.36-36.32
				c-0.57-8.8,6.14-16.44,14.96-17.01l34.28-2.23c8.93-0.59,16.47,6.12,17.05,14.92l2.37,36.33c16.97,2.27,33.39,7.11,48.88,14.4
				l21.78-29.43c5.25-7.1,15.31-8.61,22.42-3.38l27.64,20.33c3.45,2.54,5.7,6.26,6.34,10.49c0.64,4.23-0.41,8.45-2.96,11.89
				l-21.97,29.69c10.97,12.19,20.04,25.85,27,40.66l36.26-9.04c8.59-2.12,17.31,3.09,19.45,11.65l8.31,33.23
				c1.04,4.14,0.4,8.44-1.8,12.1c-2.21,3.67-5.72,6.26-9.88,7.3l-36.74,9.15c0.67,17.35-1.33,34.5-5.95,51.06l34.21,17.11
				c3.83,1.92,6.69,5.21,8.04,9.27c1.35,4.05,1.03,8.39-0.89,12.21l-15.4,30.61c-3.97,7.88-13.62,11.08-21.53,7.13l-34.63-17.31
				c-9.79,12.32-21.25,23.17-34.1,32.3l15.95,35.47c1.75,3.9,1.88,8.24,0.36,12.23c-1.52,4-4.52,7.17-8.44,8.92l-31.34,14.01
				c-8.07,3.6-17.57,0-21.19-8.05l-16.03-35.65c-8.36,1.85-16.92,3.07-25.47,3.62c-8.55,0.56-17.2,0.46-25.74-0.29l-11.26,37.42
				C801.43,744.43,795.04,748.91,788.14,748.91z M713.74,646.83l1.54,1.53c11.84,11.75,25.36,21.57,40.2,29.2l1.96,1.01L744.96,720
				c-0.82,2.74-0.53,5.63,0.82,8.14c1.36,2.52,3.63,4.37,6.38,5.19l32.91,9.83c5.69,1.69,11.69-1.53,13.38-7.19l12.52-41.58
				l2.17,0.22c8.95,0.9,18.05,1.06,27.03,0.48c8.99-0.59,17.98-1.93,26.73-3.98l2.12-0.5l17.81,39.61c2.42,5.39,8.79,7.8,14.2,5.39
				l31.34-14.01c2.63-1.17,4.63-3.29,5.65-5.98c1.02-2.67,0.93-5.57-0.24-8.18l-17.74-39.47l1.81-1.25
				c13.74-9.5,25.88-20.99,36.08-34.17l1.33-1.72l38.51,19.25c5.31,2.66,11.78,0.51,14.43-4.78l15.4-30.61
				c1.28-2.55,1.5-5.45,0.6-8.16c-0.9-2.72-2.81-4.92-5.38-6.21l-38.16-19.08l0.62-2.12c5.09-17.33,7.2-35.37,6.26-53.6l-0.11-2.18
				l40.96-10.2c2.79-0.69,5.14-2.43,6.62-4.89c1.47-2.45,1.9-5.32,1.21-8.09l-8.31-33.23c-1.43-5.73-7.27-9.23-13.03-7.79
				l-40.53,10.1l-0.91-2.01c-7.14-15.72-16.71-30.15-28.47-42.88l-1.49-1.61l24.57-33.19c1.7-2.3,2.41-5.13,1.98-7.95
				c-0.43-2.83-1.93-5.32-4.24-7.02l-27.64-20.33c-4.77-3.51-11.52-2.49-15.03,2.26l-24.39,32.95l-1.98-0.96
				c-16.2-7.88-33.48-12.97-51.37-15.13l-2.18-0.26l-2.65-40.7c-0.39-5.89-5.52-10.36-11.42-9.99l-34.28,2.23
				c-5.91,0.39-10.41,5.49-10.03,11.39l2.65,40.69l-2.13,0.54c-17.46,4.45-33.94,11.74-48.99,21.66l-1.84,1.21l-28.46-29.51
				c-4.11-4.26-10.93-4.39-15.2-0.29l-24.77,23.74c-2.07,1.98-3.24,4.65-3.3,7.51c-0.06,2.86,1.01,5.57,2.99,7.63l28.67,29.73
				l-1.27,1.79c-10.01,14.13-17.64,29.68-22.68,46.2l-0.64,2.11l-41.5-4.75c-5.9-0.73-11.24,3.55-11.91,9.42l-3.93,34.02
				c-0.33,2.84,0.47,5.63,2.25,7.86c1.79,2.25,4.34,3.67,7.2,3.99l41.93,4.8l0.17,2.17c1.45,18.2,5.88,35.81,13.16,52.35l0.89,2.02
				l-35.36,23.86c-2.38,1.61-3.99,4.04-4.53,6.85c-0.54,2.8,0.04,5.65,1.65,8.02l19.24,28.35c3.33,4.89,10.02,6.18,14.93,2.86
				L713.74,646.83z M829.66,631.07c-50.22,0-92.62-39.02-95.92-89.7c-3.44-52.79,36.84-98.55,89.79-101.99
				c25.65-1.67,50.4,6.72,69.72,23.61c19.32,16.9,30.87,40.3,32.54,65.87c1.67,25.58-6.76,50.27-23.72,69.54
				c-16.96,19.26-40.42,30.79-66.07,32.46l0,0C833.87,631,831.75,631.07,829.66,631.07z M829.93,444.46c-2.01,0-4.03,0.07-6.06,0.2
				c-50.04,3.26-88.1,46.49-84.86,96.37c3.25,49.89,46.64,87.81,96.63,84.56l0,0c24.24-1.58,46.41-12.47,62.44-30.67
				c16.03-18.2,23.99-41.53,22.41-65.7c-1.57-24.16-12.49-46.27-30.74-62.24C873.03,452.34,851.98,444.46,829.93,444.46z"/>
		</g>
		<g>
			<path class="st3" d="M1638.74,1759.93H851.78c-27.23,0-49.31-22.08-49.31-49.31V560.36c0-27.23,22.08-49.31,49.31-49.31h786.96
				c27.23,0,49.31,22.08,49.31,49.31v1150.26C1688.05,1737.85,1665.97,1759.93,1638.74,1759.93z"/>
			<rect x="1089.2" y="566" class="st4" width="312.13" height="52.4"/>
			<rect x="890.81" y="698.27" class="st2" width="708.9" height="157.22"/>
			<rect x="921.83" y="719.77" class="st0" width="646.86" height="114.21"/>
			<g>
				<path class="st5" d="M1414.83,991.9h-48.16c-14.46,0-26.18-11.72-26.18-26.18v-11.14c0-14.46,11.72-26.18,26.18-26.18h48.16
					c14.46,0,26.18,11.72,26.18,26.18v11.14C1441,980.18,1429.28,991.9,1414.83,991.9z"/>
				<path class="st5" d="M1573.54,991.9h-48.16c-14.46,0-26.18-11.72-26.18-26.18v-11.14c0-14.46,11.72-26.18,26.18-26.18h48.16
					c14.46,0,26.18,11.72,26.18,26.18v11.14C1599.71,980.18,1587.99,991.9,1573.54,991.9z"/>
			</g>
			<g>
				<path class="st5" d="M1587.23,1151.5h-96.74c-6.88,0-12.47-5.58-12.47-12.47v-57.96c0-6.88,5.58-12.47,12.47-12.47h96.74
					c6.88,0,12.47,5.58,12.47,12.47v57.96C1599.69,1145.92,1594.11,1151.5,1587.23,1151.5z"/>
				<path class="st5" d="M1393.11,1151.5h-96.74c-6.88,0-12.47-5.58-12.47-12.47v-57.96c0-6.88,5.58-12.47,12.47-12.47h96.74
					c6.88,0,12.47,5.58,12.47,12.47v57.96C1405.57,1145.92,1399.99,1151.5,1393.11,1151.5z"/>
				<path class="st5" d="M1198.99,1151.5h-96.74c-6.88,0-12.47-5.58-12.47-12.47v-57.96c0-6.88,5.58-12.47,12.47-12.47h96.74
					c6.88,0,12.47,5.58,12.47,12.47v57.96C1211.46,1145.92,1205.88,1151.5,1198.99,1151.5z"/>
				<path class="st5" d="M1004.87,1151.5h-96.74c-6.88,0-12.47-5.58-12.47-12.47v-57.96c0-6.88,5.58-12.47,12.47-12.47h96.74
					c6.88,0,12.47,5.58,12.47,12.47v57.96C1017.34,1145.92,1011.76,1151.5,1004.87,1151.5z"/>
			</g>
			<g>
				<path class="st5" d="M1587.23,1301.4h-96.74c-6.88,0-12.47-5.58-12.47-12.47v-57.96c0-6.88,5.58-12.47,12.47-12.47h96.74
					c6.88,0,12.47,5.58,12.47,12.47v57.96C1599.69,1295.82,1594.11,1301.4,1587.23,1301.4z"/>
				<path class="st4" d="M1393.11,1301.4h-96.74c-6.88,0-12.47-5.58-12.47-12.47v-57.96c0-6.88,5.58-12.47,12.47-12.47h96.74
					c6.88,0,12.47,5.58,12.47,12.47v57.96C1405.57,1295.82,1399.99,1301.4,1393.11,1301.4z"/>
				<path class="st4" d="M1198.99,1301.4h-96.74c-6.88,0-12.47-5.58-12.47-12.47v-57.96c0-6.88,5.58-12.47,12.47-12.47h96.74
					c6.88,0,12.47,5.58,12.47,12.47v57.96C1211.46,1295.82,1205.88,1301.4,1198.99,1301.4z"/>
				<path class="st4" d="M1004.87,1301.4h-96.74c-6.88,0-12.47-5.58-12.47-12.47v-57.96c0-6.88,5.58-12.47,12.47-12.47h96.74
					c6.88,0,12.47,5.58,12.47,12.47v57.96C1017.34,1295.82,1011.76,1301.4,1004.87,1301.4z"/>
			</g>
			<g>
				<path class="st5" d="M1587.23,1451.31h-96.74c-6.88,0-12.47-5.58-12.47-12.47v-57.96c0-6.88,5.58-12.47,12.47-12.47h96.74
					c6.88,0,12.47,5.58,12.47,12.47v57.96C1599.69,1445.72,1594.11,1451.31,1587.23,1451.31z"/>
				<path class="st4" d="M1393.11,1451.31h-96.74c-6.88,0-12.47-5.58-12.47-12.47v-57.96c0-6.88,5.58-12.47,12.47-12.47h96.74
					c6.88,0,12.47,5.58,12.47,12.47v57.96C1405.57,1445.72,1399.99,1451.31,1393.11,1451.31z"/>
				<path class="st4" d="M1198.99,1451.31h-96.74c-6.88,0-12.47-5.58-12.47-12.47v-57.96c0-6.88,5.58-12.47,12.47-12.47h96.74
					c6.88,0,12.47,5.58,12.47,12.47v57.96C1211.46,1445.72,1205.88,1451.31,1198.99,1451.31z"/>
				<path class="st4" d="M1004.87,1451.31h-96.74c-6.88,0-12.47-5.58-12.47-12.47v-57.96c0-6.88,5.58-12.47,12.47-12.47h96.74
					c6.88,0,12.47,5.58,12.47,12.47v57.96C1017.34,1445.72,1011.76,1451.31,1004.87,1451.31z"/>
			</g>
			<g>
				<path class="st6" d="M1587.23,1606.5h-96.74c-6.88,0-12.47-5.58-12.47-12.47v-57.96c0-6.88,5.58-12.47,12.47-12.47h96.74
					c6.88,0,12.47,5.58,12.47,12.47v57.96C1599.69,1600.92,1594.11,1606.5,1587.23,1606.5z"/>
				<path class="st4" d="M1393.11,1606.5h-96.74c-6.88,0-12.47-5.58-12.47-12.47v-57.96c0-6.88,5.58-12.47,12.47-12.47h96.74
					c6.88,0,12.47,5.58,12.47,12.47v57.96C1405.57,1600.92,1399.99,1606.5,1393.11,1606.5z"/>
				<path class="st4" d="M1198.99,1606.5h-96.74c-6.88,0-12.47-5.58-12.47-12.47v-57.96c0-6.88,5.58-12.47,12.47-12.47h96.74
					c6.88,0,12.47,5.58,12.47,12.47v57.96C1211.46,1600.92,1205.88,1606.5,1198.99,1606.5z"/>
				<path class="st4" d="M1004.87,1606.5h-96.74c-6.88,0-12.47-5.58-12.47-12.47v-57.96c0-6.88,5.58-12.47,12.47-12.47h96.74
					c6.88,0,12.47,5.58,12.47,12.47v57.96C1017.34,1600.92,1011.76,1606.5,1004.87,1606.5z"/>
			</g>
			<g>
				<path class="st7" d="M1427.84,802.77c1.87,0.2,4.04,0,6.98-0.3c5.01-0.68,9.74-2.75,13.37-6.19c4.23-3.84,7.28-9.44,8.46-17.01
					h-0.29c-3.55,4.32-8.66,6.88-15.04,6.88c-11.51,0-18.88-8.65-18.88-19.57c0-12.1,8.75-22.72,21.83-22.72
					s21.14,10.62,21.14,26.94c0,14.07-4.72,23.9-11.01,30c-4.92,4.82-11.71,7.77-18.58,8.56c-3.15,0.49-5.9,0.59-7.97,0.49V802.77z
					 M1430.99,765.99c0,7.96,4.82,13.57,12.29,13.57c5.8,0,10.33-2.85,12.59-6.69c0.5-0.78,0.78-1.77,0.78-3.15
					c0-10.91-4.03-19.27-13.08-19.27C1436.2,750.46,1430.99,756.95,1430.99,765.99z"/>
				<path class="st7" d="M1478.32,802.77c1.87,0.2,4.04,0,6.98-0.3c5.01-0.68,9.74-2.75,13.37-6.19c4.23-3.84,7.28-9.44,8.46-17.01
					h-0.29c-3.55,4.32-8.66,6.88-15.04,6.88c-11.51,0-18.88-8.65-18.88-19.57c0-12.1,8.75-22.72,21.83-22.72
					c13.08,0,21.14,10.62,21.14,26.94c0,14.07-4.72,23.9-11.01,30c-4.92,4.82-11.71,7.77-18.58,8.56c-3.15,0.49-5.9,0.59-7.97,0.49
					V802.77z M1481.46,765.99c0,7.96,4.82,13.57,12.29,13.57c5.8,0,10.33-2.85,12.59-6.69c0.5-0.78,0.78-1.77,0.78-3.15
					c0-10.91-4.03-19.27-13.08-19.27C1486.68,750.46,1481.46,756.95,1481.46,765.99z"/>
			</g>
		</g>
		<g>
			<g>
				<rect x="1920.75" y="1408.15" class="st6" width="483.16" height="354.42"/>
				<rect x="2275.2" y="1488.39" class="st8" width="128.73" height="5.29"/>
				<rect x="2179.97" y="1682.38" class="st8" width="223.95" height="5.29"/>
				<path class="st8" d="M2161.61,1536.57c0,40.79-6.14,81.79-18.62,121.63c-18.99,60.53-75.02,101.69-138.39,101.69h-83.85v-351.72
					h220.08C2154.58,1449.54,2161.61,1492.93,2161.61,1536.57z"/>
			</g>
			<g>
				<path class="st6" d="M1719.72,1700.78v37.78c0,13.28-10.74,24.02-24.02,24.02h-398.31c-13.28,0-24.02-10.74-24.02-24.02v-37.78
					c0-13.28,10.74-24.02,24.02-24.02h398.31C1708.98,1676.76,1719.72,1687.5,1719.72,1700.78z"/>
				<path class="st6" d="M1670.36,1614.91v37.83c0,13.28-10.79,24.02-24.02,24.02h-398.31c-13.28,0-24.02-10.74-24.02-24.02v-37.83
					c0-13.23,10.74-24.02,24.02-24.02h398.31C1659.57,1590.89,1670.36,1601.68,1670.36,1614.91z"/>
				<path class="st8" d="M1719.72,1700.78v37.78c0,13.28-10.74,24.02-24.02,24.02h-285.62c-19.73-24.34-31.79-55.71-39.04-85.81
					c-8.36-34.5-10.53-67.24-11-85.87h286.31c13.23,0,24.02,10.79,24.02,24.02v37.83c0,13.28-10.79,24.02-24.02,24.02h49.36
					C1708.98,1676.76,1719.72,1687.5,1719.72,1700.78z"/>
			</g>
			<g>
				<path class="st6" d="M1929.05,997.01l-32.17,98.78l-2.38,7.3l-14.92,45.87l-0.11,0.32l-48.09-1.06l-184.53-4.18l-13.49-38.62
					l-2.27-6.45l-35.71-101.95C1706.17,1035.37,1797.48,951.51,1929.05,997.01z"/>
				<path class="st8" d="M1894.51,1103.09l-14.92,45.87l-48.19-0.74l-184.53-4.18l-13.49-38.62
					C1696.81,1104.31,1805.95,1102.83,1894.51,1103.09z"/>
				<path class="st6" d="M2100.67,1660.89c-9.47,30.26-28.25,55.66-52.53,73.54c-24.34,17.88-54.17,28.15-85.86,28.15h-417.93
					c-60.41,0-113.42-40.37-129.51-98.67c-9.26-33.7-14.23-67.88-15.02-101.9c-0.05-3.28-0.11-6.56-0.11-9.84
					c0-3.88,0.05-7.75,0.16-11.62c3.41-123.3,63.66-238.13,160.35-314.7l99.98-79.16l228.8,5.29l125.77,120.35
					c17.69,16.93,33.45,35.85,46.1,56.82c15.16,25.13,27.43,51.65,36.73,79.05C2125.06,1488.94,2126.86,1577.4,2100.67,1660.89z"/>
				<g>
					<path class="st0" d="M1728.52,1652.05v-44.22c-31.21-1.4-61.46-9.78-79.17-20.02l13.99-54.49
						c19.57,10.69,47.02,20.48,77.31,20.48c26.54,0,44.7-10.24,44.7-28.86c0-17.71-14.9-28.9-49.37-40.54
						c-49.82-16.76-83.84-40.04-83.84-85.21c0-40.99,28.89-73.11,78.72-82.89v-44.25h45.61v40.99c31.21,1.4,52.17,7.93,67.53,15.36
						l-13.5,52.63c-12.1-5.12-33.52-15.85-67.08-15.85c-30.26,0-40.04,13.04-40.04,26.09c0,15.36,16.3,25.14,55.89,40.04
						c55.4,19.57,77.77,45.16,77.77,87.1c0,41.45-29.35,76.83-82.89,86.16v47.48H1728.52z"/>
				</g>
				<path class="st9" d="M1926.87,1189.4h-323.66c-13.39,0-24.34-10.95-24.34-24.34v-10.36c0-13.39,10.95-24.34,24.34-24.34h323.66
					c13.39,0,24.34,10.95,24.34,24.34v10.36C1951.21,1178.45,1940.25,1189.4,1926.87,1189.4z"/>
				<path class="st10" d="M2100.67,1660.89c-9.47,30.26-28.25,55.66-52.53,73.54c-24.34,17.88-54.17,28.15-85.86,28.15h-417.93
					c-60.41,0-113.42-40.37-129.51-98.67c-9.26-33.7-14.23-67.88-15.02-101.9c69.14,65.92,150.61,152.11,341.06,154.75
					c236.5,3.28,338.42-107.56,356.72-308.55C2125.06,1488.94,2126.86,1577.4,2100.67,1660.89z"/>
			</g>
		</g>
		<g>
			<g>
				<g>
					<polygon class="st11" points="477.38,1689.39 435.06,1673.51 336.75,1759.93 453.09,1759.93 					"/>
					<polygon class="st12" points="477.38,1689.39 570.85,1689.39 560.27,1756.4 453.09,1759.93 					"/>
					<path class="st5" d="M852.53,1313.73l-3.44,23.44l-2.06,14.13l-14.81,101.53l-5.66,38.78l-5.03,34.6l-13.17,90.15l-9.15,62.54
						c-6.88,47.03-47.19,81.9-94.75,81.9h-206.8l0.26-2.65l6.72-68.78l0.95-9.68l144.16-27.78l19.36-140.63
						c-9.52-40.9-7.19-80.26-3.07-107.88c3.49-23.54,8.36-38.52,8.36-38.52l64.33-18.46L852.53,1313.73z"/>
					<path class="st11" d="M808.36,1616.36l-9.15,62.54c-6.88,47.03-47.19,81.9-94.75,81.9h-10.58
						C788.63,1743.84,770.11,1622.81,808.36,1616.36z"/>
					
						<rect x="396.9" y="1740.97" transform="matrix(0.528 -0.8493 0.8493 0.528 -1284.3625 1176.3851)" class="st0" width="38.41" height="5.29"/>
				</g>
				<path class="st11" d="M832.22,1452.82l-10.69,73.38c-29.78-8.52-69.06-51.09-69.06-51.09L832.22,1452.82z"/>
				<g>
					<path class="st11" d="M1051.33,1640.01c0,0-50.26,25.79-140.19,9.26l74.73-49.6L1051.33,1640.01z"/>
					<polygon class="st12" points="1023.67,1675.56 943.31,1677.36 942.84,1660 941.57,1612.44 1012.99,1617.73 1016.37,1636.09 
											"/>
					<polygon class="st13" points="1016.37,1636.09 942.84,1660 941.57,1612.44 1012.99,1617.73 					"/>
					<polygon class="st11" points="1114.82,1760.59 1026.21,1689.17 1023.69,1675.58 943.3,1677.36 945.53,1760.59 					"/>
					
						<rect x="1021.2" y="1718.7" transform="matrix(0.8482 -0.5297 0.5297 0.8482 -753.8973 812.116)" class="st0" width="37.43" height="5.29"/>
					<path class="st5" d="M674.4,1364.89l287.55-45.67c13.45-2.14,27.23-0.33,39.67,5.2h0c24.73,10.99,40.98,35.18,41.81,62.23
						l7.89,253.35c0,0-82-17.19-140.19,9.26L905.85,1476c-35.16,16.01-96.06,19.4-157.78,13.23L674.4,1364.89z"/>
					<path class="st7" d="M1010.82,1632.07h-5.29c0-43.84,1.06-80.23,1.99-112.34c2.27-78.19,3.52-121.25-16.4-139.48
						c-16.12-14.75-48.33-14.29-95.06-8.76c-50.08,5.84-70.05-47.48-70.25-48.02l4.97-1.8c0.74,2.05,18.74,50.1,64.65,44.57
						c49.46-5.84,81.57-6.07,99.25,10.12c21.71,19.86,20.5,61.19,18.11,143.54C1011.88,1551.96,1010.82,1588.31,1010.82,1632.07z"/>
					<path class="st7" d="M911.24,1617.35l-1.88-4.95c0.67-0.25,67.75-25.22,141.77-6.71l-1.28,5.13
						C977.51,1592.72,911.9,1617.1,911.24,1617.35z"/>
				</g>
				<path class="st7" d="M527.04,1761.55c-8.24-16.48,4.51-84.75,5.06-87.65l5.2,0.99c-3.63,19.25-11.71,71.93-5.52,84.3
					L527.04,1761.55z"/>
				<path class="st11" d="M823.91,1343.73c0,0-20.31,43.22-66.13,72.32c-15.55,9.84-30.84,14.34-44.54,14.39
					c-20.68,0.05-37.88-10-47.19-27.04c3.49-23.54,8.36-38.52,8.36-38.52l64.33-18.46l64.91-2.06L823.91,1343.73z"/>
			</g>
			<g>
				<polygon class="st9" points="772.27,1083.22 772.27,1144.45 832.23,1144.45 832.23,1091.49 				"/>
				<polygon class="st12" points="832.23,1053.62 772.27,1053.62 772.27,1083.22 832.23,1091.49 				"/>
				<path class="st11" d="M789.95,1062c1.32,0,14.46,20.61,42.28,29.49l-0.4-32.13L789.95,1062z"/>
				<path class="st12" d="M839.28,980.44c0,0,33.06,89.06-9.7,94.79c-42.76,5.73-49.38-13.67-49.38-13.67l-13.23-47.18l29.54-39.68
					L839.28,980.44z"/>
				
					<ellipse transform="matrix(0.0185 -0.9998 0.9998 0.0185 -188.461 1854.4225)" class="st12" cx="850.3" cy="1023.2" rx="9.26" ry="9.26"/>
				<path class="st11" d="M794.31,1022.76c0,0,2.2-47.62,44.97-42.33c0,0-28.78-36.96-66.7-22.63
					c-19.26,7.28-32.14,25.67-34.03,46.17c-2.44,26.5,13.04,56.7,34.64,61.99c0,0,7.05-16.31,18.91-37.03L794.31,1022.76z"/>
				
					<ellipse transform="matrix(0.905 -0.4254 0.4254 0.905 -361.1566 434.6697)" class="st12" cx="792.77" cy="1026.07" rx="13.01" ry="15.21"/>
				
					<ellipse transform="matrix(0.0143 -0.9999 0.9999 0.0143 -215.3895 1838.498)" class="st14" cx="824.78" cy="1028.49" rx="12.12" ry="12.12"/>
				<path class="st11" d="M795.46,1031.14c-0.73,0-1.32-0.59-1.32-1.32c0-0.31-0.15-7.69-8.34-8.83c-0.72-0.1-1.23-0.77-1.13-1.5
					c0.1-0.72,0.77-1.19,1.49-1.13c10.49,1.47,10.62,11.35,10.62,11.45C796.78,1030.54,796.19,1031.13,795.46,1031.14
					C795.46,1031.14,795.46,1031.14,795.46,1031.14z"/>
			</g>
			<g>
				<path class="st15" d="M995.79,995.87c0,0,46.25,3.53,71.42,33.07l-57.27,14.11L995.79,995.87z"/>
				<path class="st12" d="M1077.74,970.52c0.21,4.23-11.43,25.34-20,40.31c-5.03,8.62-8.94,15.18-8.94,15.18l-30.84,8.99
					l-22.01-33.17l-1.06-1.64c0,0,0.32-1.43,0.9-3.97v-0.05c0.05-0.05,0.05-0.16,0.11-0.32c3.7-15.71,16.82-69.26,24.39-71.05
					c6.67-1.53,2.75,27.78,2.75,27.78s16.45-47.67,26.19-45.71c7.78,1.53-7.46,47.25-7.46,47.25s5.45-5.71,10.95-3.91
					c5.87,1.96,6.61,7.46,6.61,7.46s3.91-2.75,7.83-0.42c3.91,2.38,3.54,9.79,3.54,9.79S1077.32,963.91,1077.74,970.52z"/>
				<path class="st9" d="M758.26,1122.95l-20.95,81.9l-32.48,126.98c-22.06,9.79-45.34,13.39-63.8,10.32
					c-21.43-3.55-36.4-16.03-35.39-38.09C608.28,1244.53,758.26,1122.95,758.26,1122.95z"/>
				<path class="st15" d="M754.24,1146.21l-16.93,58.64l-32.48,126.98c-22.06,9.79-45.34,13.39-63.8,10.32
					C688.11,1207.05,754.24,1146.21,754.24,1146.21z"/>
				<path class="st9" d="M885.17,1331.51c-43.64,2.96-181.19,116.71-214.26,43.33c0,0,4.6-273.74,145.91-268.66
					c25.02,0.9,46.98,17.57,54.54,41.43c3.39,10.79,6.77,24.87,9.42,42.96c2.7,18.36,4.71,40.9,5.4,68.36
					C886.76,1280.08,886.5,1304.15,885.17,1331.51z"/>
				<path class="st15" d="M886.18,1258.92c-21.85-14.13-44.65-56.72-44.65-56.72l39.25-11.64
					C883.48,1208.92,885.49,1231.46,886.18,1258.92z"/>
				<path class="st13" d="M1057.74,1010.84c-5.03,8.62-8.94,15.18-8.94,15.18l-30.84,8.99l-22.01-33.17l-0.16-5.61v-0.37h0.11
					L1057.74,1010.84z"/>
				<path class="st9" d="M816.83,1106.18c0,0,67.86,4.76,108.86,12.7l70.1-123.01c21.41,17.13,45.21,28.18,71.42,33.07
					l-61.35,144.55c-13.53,27.45-41.06,45.24-71.65,46.29l-105.07,3.59L816.83,1106.18z"/>
				<path class="st15" d="M925.69,1120.86c-0.12,0-0.24-0.01-0.36-0.03c-1.29-0.24-129.42-23.74-151.26-4.43
					c-0.82,0.72-2.07,0.65-2.8-0.18c-0.72-0.82-0.65-2.07,0.17-2.8c23.27-20.57,149.26,2.51,154.61,3.51
					c1.08,0.2,1.79,1.24,1.59,2.31C927.46,1120.19,926.63,1120.86,925.69,1120.86z"/>
			</g>
		</g>
		<g>
			<g>
				<polygon class="st11" points="2329.87,1647.06 2338.68,1759.93 2191.88,1759.93 2265.94,1708.79 2264.62,1638.24 				"/>
				<polygon class="st11" points="2546.33,1599 2586,1695.56 2485.49,1780.21 2500.04,1684.98 2480.2,1621.49 				"/>
				<path class="st5" d="M2368.68,1054.49c-1.32,3.7-2.54,8.47-3.7,14.07c-1.96,9.79-3.65,22.27-5.08,36.98
					c-4.66,48.04-6.61,119.41-7.14,195.23c-1.11,170.73,5.34,363.95,5.34,363.95l-26.87-0.42l-66.13-1.01l-23.38-0.37
					c-35.44-270.46-25.34-498.86-20-578.38c0.16-2.75,0.37-5.29,0.48-7.67c1.11-14.6,1.85-22.38,1.85-22.38H2368.68z"/>
				<path class="st5" d="M2571.45,1624.13l-13.44,3.33l-70.47,17.62l-43.06,10.79c0,0-51-189.25-91.73-355.11
					c-19.57-79.99-36.82-154.54-44.76-199.78c-2.75-15.98-4.39-28.31-4.6-35.92l61.58,3.49l77.77,4.44c0,0,1.91,11.16,5.61,31.22
					C2463.16,1184.16,2506.59,1405.52,2571.45,1624.13z"/>
				<path class="st11" d="M2448.35,1104.22c-31.32,2.59-61.16,2.7-88.45,1.32c-18.57-0.95-35.97-2.59-51.9-4.55
					c-39.36-4.92-69.73-12.06-86.28-16.45c-9.05-2.43-13.97-4.02-13.97-4.02l14.44-3.65l89.09-22.38h57.4
					c-1.32,3.7-2.54,8.47-3.7,14.07l77.77,4.44C2442.74,1073,2444.65,1084.17,2448.35,1104.22z"/>
				<path class="st7" d="M2355.5,1321.42c-4.28-17.94-24.49-102.89-27.12-117.28l-40.89-15.33l1.86-4.95l44.04,16.51v1.83
					c0.3,3.92,16.47,72.72,27.26,117.99L2355.5,1321.42z"/>
				<path class="st7" d="M2251.69,1398.85c-19.24,0-31.46-4.77-32.14-5.05l1.96-4.91c0.21,0.09,21.79,8.45,52.3,2.51l1.01,5.19
					C2266.35,1398.24,2258.57,1398.85,2251.69,1398.85z"/>
				<path class="st7" d="M2404.85,1395.13c-12.32,0-22.65-1.92-23.46-2.07l0.99-5.2c0.36,0.07,36.14,6.69,52.66-4.86l3.03,4.33
					C2429.26,1393.5,2416.21,1395.13,2404.85,1395.13z"/>
				
					<rect x="2273.65" y="1703.67" transform="matrix(0.6082 -0.7938 0.7938 0.6082 -470.8091 2479.6479)" class="st0" width="5.29" height="26.1"/>
				
					<rect x="2511.5" y="1675.48" transform="matrix(0.3763 -0.9265 0.9265 0.3763 1.6438 3383.8589)" class="st0" width="5.29" height="30.45"/>
			</g>
			<g>
				<path class="st9" d="M2291.07,765.28c0,0-90.82,11.46-113.74,113.75l27.33,121.69l-12.34,81.12c0,0,123.44,12.34,250.41-8.82
					l-38.57-206.78L2291.07,765.28z"/>
				<path class="st16" d="M2347.5,1024.52c0,0-27.33-20.06,8.38-108.02l23.81,86.63L2347.5,1024.52z"/>
				<path class="st11" d="M2240.99,913.97l-6.6-12.47l101.61-53.8c2.84-1.5,6.36-0.42,7.86,2.42l1.16,2.19
					c1.5,2.84,0.42,6.36-2.42,7.86L2240.99,913.97z"/>
				<path class="st12" d="M2370.42,995.87l-2.7-1.48l-35.07-18.94l-58.78-31.8c-1.06-7.09-0.26-13.12,3.97-17.25l-2.91-1.16
					c-4.76-2.01-8.25-6.3-9.21-11.43l-0.11-0.63c-1.53-5.13-0.79-9.89-0.32-12.54l1.38-1.8c3.44-4.5,4.97-6.77,9.42-10.32
					l-7.51,0.42c0,0-18.52,5.08-9.89-6.82c5.93-8.25,19.2-15.24,26.77-18.73c3.17-1.48,7.04-0.85,9.47,1.69
					c25.45,26.4,70.2,58.04,70.2,58.04l0.48,6.45l4.34,59.41L2370.42,995.87z"/>
				<g>
					<path class="st13" d="M2301.07,894.77l-16.01-7.82c-1.67-0.82-3.53-1.08-5.36-0.76l-17.05,2.97l-0.45-2.61l17.05-2.97
						c2.39-0.42,4.8-0.07,6.98,0.99l16.01,7.82L2301.07,894.77z"/>
					<path class="st13" d="M2298.09,909.81l-19.2-7.36c-0.85-0.33-1.75-0.49-2.67-0.49h-10.93v-2.64h10.93
						c1.24,0,2.46,0.22,3.62,0.67l19.2,7.36L2298.09,909.81z"/>
					<path class="st13" d="M2295.45,924.8l-17.44-6.59c-1.36-0.52-2.86-0.71-4.33-0.54l-7.14,0.81l-0.3-2.63l7.15-0.81
						c1.87-0.21,3.8,0.03,5.57,0.7l17.44,6.59L2295.45,924.8z"/>
				</g>
				<polygon class="st13" points="2369.95,988.99 2367.72,994.39 2332.65,975.45 2355.87,916.51 2365.61,929.57 				"/>
				<path class="st15" d="M2347.5,1024.52c0,0,52.47,49.82,95.22,48.5l-12.35-58.64L2347.5,1024.52z"/>
				<path class="st9" d="M2291.07,765.28c0,0,6.46-0.67,17.23-0.3c105.9,3.62,187.02,94.75,181.85,200.59
					c-2.14,43.75-13.5,87.19-50.07,88.06l-92.58-29.1c8.73-32.75,15.25-66.71,8.38-108.02l42.98,20.5L2291.07,765.28z"/>
				<polygon class="st4" points="2321.28,1020.47 2191.88,1023.64 2188.33,1012.69 2175.32,972.69 2137.65,856.99 2267.05,853.81 
									"/>
				<path class="st17" d="M2202.77,958.83c0,0-0.21,35.77-14.44,53.86l-13.01-40L2202.77,958.83z"/>
				<g>
					<path class="st12" d="M2140.01,956.04c4.08-13.16,11.5-25.31,19.67-36.27c2.6-3.49,8.25-12.06,13.68-10.76
						c11.02,2.65,0,22.04,0,22.04s10.58-15.87,14.55-7.94c3.97,7.94-1.76,16.75-1.76,16.75s16.75-11.02,10.58,11.02
						c0,0,13.67-1.76,5.29,13.23c-5.98,10.7-9.85,22.62-17.34,32.46c-7.54,9.9-21.72,15.46-33.5,9.81
						c-13.85-6.64-15.62-24.35-13.91-37.83C2137.81,964.29,2138.75,960.12,2140.01,956.04z"/>
					<path class="st13" d="M2163.77,952.55c-0.18,0-0.36-0.04-0.54-0.11c-0.67-0.3-0.97-1.08-0.67-1.75l12.56-28.44
						c0.29-0.67,1.08-0.97,1.74-0.68c0.67,0.3,0.97,1.08,0.67,1.75l-12.56,28.44C2164.76,952.25,2164.28,952.55,2163.77,952.55z"/>
					<path class="st13" d="M2176.67,963.13c-0.19,0-0.38-0.04-0.56-0.13c-0.66-0.31-0.95-1.1-0.64-1.76l11.9-25.46
						c0.32-0.66,1.11-0.94,1.76-0.64c0.66,0.31,0.95,1.1,0.64,1.76l-11.9,25.46C2177.64,962.85,2177.16,963.13,2176.67,963.13z"/>
					<path class="st13" d="M2186.58,971.73c-0.21,0-0.42-0.05-0.62-0.15c-0.64-0.34-0.9-1.14-0.55-1.79l10.25-19.51
						c0.35-0.64,1.14-0.89,1.79-0.55c0.64,0.34,0.9,1.14,0.55,1.79l-10.25,19.51C2187.52,971.47,2187.06,971.73,2186.58,971.73z"/>
				</g>
				<polygon class="st11" points="2229.35,865.36 2183.06,865.36 2175.12,849.49 2221.41,849.49 				"/>
				<path class="st15" d="M2289.81,816.96c-13.73,0-22.75-6.79-22.88-6.89c-0.87-0.67-1.02-1.91-0.36-2.78
					c0.67-0.86,1.91-1.03,2.78-0.36c0.76,0.57,18.71,13.93,42.74-0.57c0.93-0.57,2.16-0.26,2.72,0.67c0.56,0.94,0.26,2.16-0.68,2.72
					C2305.17,815.16,2296.87,816.96,2289.81,816.96z"/>
				<path class="st15" d="M2347.5,1026.51c-0.18,0-0.37-0.03-0.56-0.08c-1.05-0.31-1.65-1.42-1.34-2.47
					c19.02-64.41,8.47-106.53,8.36-106.95l-0.77-2.96l81.93,13.73c1.08,0.18,1.81,1.2,1.63,2.28c-0.18,1.09-1.26,1.82-2.28,1.63
					l-76.04-12.75c2.03,10.77,7.45,50.38-9.01,106.14C2349.15,1025.95,2348.36,1026.51,2347.5,1026.51z"/>
				<path class="st15" d="M2407.46,926.43c-0.04,0-0.08,0-0.12,0c-1.09-0.07-1.93-1.01-1.86-2.1c0.02-0.43,2.22-43.1-27.44-86.95
					c-0.61-0.91-0.37-2.14,0.53-2.75c0.91-0.61,2.14-0.38,2.76,0.53c30.44,45.01,28.14,88.97,28.11,89.41
					C2409.37,925.62,2408.5,926.43,2407.46,926.43z"/>
			</g>
			<g>
				<path class="st12" d="M2327.44,716.59v51.06c0,16.47-12.84,29.82-28.69,29.82c-15.85,0-28.69-13.35-28.69-29.82v-51.06H2327.44z
					"/>
				<path class="st11" d="M2300.33,723.4c0,0-2.98,31.55-30.26,40.67v-44.82L2300.33,723.4z"/>
				<path class="st12" d="M2248.41,658.39c0,0-8.9,71.62,19.02,80.11c27.92,8.5,53.41-16.18,53.41-16.18l-5.26-59.07l-41.27-24.28
					L2248.41,658.39z"/>
				<path class="st11" d="M2407.24,797.57l-55.07,3.65c-6.97-7.67-10.91-18.46-13.49-30.63c-2.33,12.53-0.49,22.94,5.66,31.16
					l-14.92,1.01c-13.23-19.79-24.34-63.59-11.22-101.05l1.53-8.84c0,0-9.42-28.52-23.07-29.73c0,0-46.82,31.59-67.66-3.65
					c-15.55-26.24-2.43-60.74,34.97-35.29c0,0,89.88-42.17,89.67,44.28c-0.05,15.5,5.77,30.74,17.25,41.11
					c0.95,0.95,2.01,1.85,3.12,2.7C2394.18,728.26,2415.92,760.11,2407.24,797.57z"/>
				
					<ellipse transform="matrix(0.3066 -0.9518 0.9518 0.3066 949.4493 2689.876)" class="st12" cx="2320.97" cy="693.27" rx="15.7" ry="13.43"/>
				<path class="st11" d="M2319.28,698.27c-0.73,0-1.32-0.59-1.32-1.32c0-5.71,4.51-10.75,9.85-11.02c0.02,0,0.05,0,0.07,0
					c0.7,0,1.28,0.55,1.32,1.26c0.04,0.73-0.53,1.35-1.26,1.39c-3.54,0.18-7.34,3.59-7.34,8.38
					C2320.61,697.67,2320.01,698.27,2319.28,698.27z"/>
				<path class="st11" d="M2258.22,685.7c0,1.83-1.48,3.31-3.31,3.31c-1.83,0-3.31-1.48-3.31-3.31c0-1.83,1.48-3.31,3.31-3.31
					C2256.74,682.39,2258.22,683.88,2258.22,685.7z"/>
				<path class="st11" d="M2278.17,684.05c0,1.83-1.48,3.31-3.31,3.31s-3.31-1.48-3.31-3.31c0-1.83,1.48-3.31,3.31-3.31
					S2278.17,682.22,2278.17,684.05z"/>
				<path class="st11" d="M2262.97,707.86c-0.33,0-0.67-0.12-0.92-0.38c-2.69-2.63-3.79-5.12-3.27-7.42
					c0.53-2.33,2.59-3.68,3.82-4.3l-0.29-6.53c-0.03-0.73,0.54-1.35,1.26-1.38c0.72,0,1.35,0.54,1.38,1.26l0.37,8.43l-0.93,0.32
					c-0.73,0.25-2.7,1.25-3.04,2.79c-0.37,1.66,1.17,3.6,2.54,4.93c0.52,0.51,0.53,1.35,0.02,1.87
					C2263.65,707.72,2263.31,707.86,2262.97,707.86z"/>
				<path class="st11" d="M2265.64,717.38c-1.1,0-1.8-0.1-1.89-0.12c-0.72-0.11-1.21-0.79-1.09-1.51c0.11-0.72,0.85-1.2,1.51-1.1
					c0.07,0.01,6.77,0.97,12.65-4.15c0.54-0.48,1.38-0.43,1.86,0.13c0.48,0.55,0.43,1.39-0.13,1.87
					C2273.67,716.74,2268.38,717.38,2265.64,717.38z"/>
				<circle class="st14" cx="2291.32" cy="699.18" r="8.68"/>
			</g>
		</g>
		<rect x="97.86" y="1757.29" class="st11" width="2823.14" height="5.29"/>
	</g>
</g>
</svg>
