<?xml version="1.0" encoding="utf-8"?>
<!-- Generator: Adobe Illustrator 25.3.0, SVG Export Plug-In . SVG Version: 6.00 Build 0)  -->
<svg version="1.1" xmlns="http://www.w3.org/2000/svg" xmlns:xlink="http://www.w3.org/1999/xlink" x="0px" y="0px"
	 viewBox="0 0 3710 3710" style="enable-background:new 0 0 3710 3710;" xml:space="preserve">
<style type="text/css">
	.st0{fill:#FFFFFF;}
	.st1{fill:#F4F7FA;}
	.st2{fill:#BFC6D1;}
	.st3{fill:#D8DEE8;}
	.st4{clip-path:url(#SVGID_2_);}
	.st5{clip-path:url(#SVGID_4_);fill:url(#SVGID_5_);}
	.st6{clip-path:url(#SVGID_4_);fill:#BEB8F2;}
	.st7{fill:url(#SVGID_6_);}
	.st8{clip-path:url(#SVGID_8_);fill:#FCFDFE;}
	.st9{fill:#97A6B7;}
	.st10{fill:url(#SVGID_9_);}
	.st11{fill:url(#SVGID_10_);}
	.st12{fill:url(#SVGID_11_);}
	.st13{opacity:0.3;fill:#D8DEE8;}
	.st14{fill:url(#SVGID_12_);}
	.st15{opacity:0.6;fill:#FFFFFF;}
	.st16{fill:url(#SVGID_13_);}
	.st17{fill:url(#SVGID_14_);}
	.st18{fill:url(#SVGID_15_);}
	.st19{fill:url(#SVGID_16_);}
	.st20{fill:url(#SVGID_17_);}
	.st21{fill:url(#SVGID_18_);}
	.st22{fill:url(#SVGID_19_);}
	.st23{fill:url(#SVGID_20_);}
	.st24{fill:url(#SVGID_21_);}
	.st25{fill:url(#SVGID_22_);}
	.st26{fill:url(#SVGID_23_);}
	.st27{fill:url(#SVGID_24_);}
	.st28{fill:url(#SVGID_25_);}
	.st29{fill:#9B305E;}
	.st30{fill:url(#SVGID_26_);}
	.st31{fill:url(#SVGID_27_);}
	.st32{fill:url(#SVGID_28_);}
	.st33{fill:url(#SVGID_29_);}
	.st34{opacity:0.3;}
	.st35{fill:url(#SVGID_30_);}
	.st36{fill:url(#SVGID_31_);}
	.st37{fill:url(#SVGID_32_);}
	.st38{fill:url(#SVGID_33_);}
	.st39{opacity:0.3;fill:url(#SVGID_34_);}
	.st40{opacity:0.3;fill:url(#SVGID_35_);}
	.st41{opacity:0.3;fill:url(#SVGID_36_);}
	.st42{opacity:0.3;fill:url(#SVGID_37_);}
	.st43{opacity:0.3;fill:url(#SVGID_38_);}
	.st44{opacity:0.3;fill:#FFFFFF;}
	.st45{fill:url(#SVGID_39_);}
	.st46{fill:url(#SVGID_40_);}
	.st47{fill:url(#SVGID_41_);}
	.st48{fill:url(#SVGID_42_);}
	.st49{fill:url(#SVGID_43_);}
	.st50{fill:url(#SVGID_44_);}
	.st51{fill:url(#SVGID_45_);}
	.st52{fill:url(#SVGID_46_);}
	.st53{fill:url(#SVGID_47_);}
	.st54{fill:url(#SVGID_48_);}
	.st55{fill:url(#SVGID_49_);}
	.st56{fill:url(#SVGID_50_);}
	.st57{fill:url(#SVGID_51_);}
	.st58{fill:url(#SVGID_52_);}
	.st59{fill:url(#SVGID_53_);}
	.st60{fill:url(#SVGID_54_);}
	.st61{fill:url(#SVGID_55_);}
	.st62{fill:url(#SVGID_56_);}
	.st63{fill:url(#SVGID_57_);}
	.st64{fill:url(#SVGID_58_);}
	.st65{fill:url(#SVGID_59_);}
	.st66{fill:url(#SVGID_60_);}
	.st67{fill:url(#SVGID_61_);}
	.st68{fill:url(#SVGID_62_);}
	.st69{fill:url(#SVGID_63_);}
	.st70{fill:url(#SVGID_64_);}
	.st71{fill:url(#SVGID_65_);}
	.st72{fill:url(#SVGID_66_);}
	.st73{fill:url(#SVGID_67_);}
	.st74{fill:url(#SVGID_68_);}
	.st75{fill:url(#SVGID_69_);}
	.st76{fill:url(#SVGID_70_);}
	.st77{fill:url(#SVGID_71_);}
	.st78{fill:url(#SVGID_72_);}
	.st79{fill:url(#SVGID_73_);}
	.st80{fill:url(#SVGID_74_);}
	.st81{fill:url(#SVGID_75_);}
	.st82{fill:url(#SVGID_76_);}
	.st83{fill:url(#SVGID_77_);}
	.st84{fill:url(#SVGID_78_);}
	.st85{fill:url(#SVGID_79_);}
	.st86{fill:url(#SVGID_80_);}
	.st87{fill:url(#SVGID_81_);}
	.st88{opacity:0.3;fill:url(#SVGID_82_);}
	.st89{fill:url(#SVGID_83_);}
	.st90{fill:url(#SVGID_84_);}
	.st91{fill:url(#SVGID_85_);}
	.st92{fill:url(#SVGID_86_);}
	.st93{fill:url(#SVGID_87_);}
	.st94{opacity:0.3;fill:url(#SVGID_88_);}
</style>
<g id="Background">
	<g>
		<g>
			<rect class="st0" width="3710" height="3710"/>
		</g>
	</g>
</g>
<g id="Illustration">
	<g>
		<path class="st1" d="M2361.42,514.72c-211.6-47.21-431.6-69.83-646.7-55.41c-190.65,12.78-406.76,47.67-560.18,172.65
			c-73.11,59.56-160.31,166.58-184.22,260.99c0,0.01-125.89,496.95-377.65,603.44c-251.77,106.49-426.6,1923.91,1482.62,1746.43
			c0,0,1121.37-46.51,1188.89-1386.11c16.31-323.61,7.2-679.36-188.2-949.95c-149.73-207.35-359.53-299.55-600.6-364.06
			C2437.72,532.61,2399.71,523.26,2361.42,514.72z"/>
		<g>
			<path class="st2" d="M2872.11,1175.07c29.34,2.47,55.29-21.28,57.97-53.05c2.67-31.77-18.94-59.52-48.28-61.99
				c-1.52-0.13-3.03-0.14-4.52-0.13c-1.4-16.41-3.96-32.48-7.64-48.1c1.39-0.57,2.78-1.16,4.15-1.87
				c26.75-13.74,38.41-48.19,26.06-76.94c-12.35-28.75-44.05-40.91-70.79-27.17c-1.4,0.72-2.73,1.53-4.05,2.35
				c-8.73-13.19-18.4-25.6-28.93-37.15c0.97-1.26,1.93-2.55,2.82-3.92c16.99-26.28,11.24-62.19-12.83-80.21
				c-24.07-18.02-57.35-11.33-74.34,14.94c-0.87,1.35-1.64,2.73-2.39,4.13c-13.59-6.56-27.77-11.99-42.46-16.24
				c0.26-1.6,0.5-3.21,0.64-4.86c2.68-31.77,8.46-67.63-20.91-69.64c-67.95-4.65-82.66,28.93-85.33,60.69
				c-0.14,1.65-0.17,3.27-0.18,4.89c-15.19,1.73-30.09,4.71-44.58,8.91c-0.51-1.5-1.04-2.99-1.67-4.47
				c-12.35-28.75-10.12-47.92-38.2-37.15c-61.22,23.49-71.01,58.18-58.66,86.92c0.65,1.5,1.37,2.93,2.12,4.34
				c-12.31,9.62-23.92,20.25-34.73,31.79c-1.16-1.04-2.33-2.05-3.59-3c-24.07-18.02-57.35-11.33-74.34,14.94
				c-16.99,26.28-11.24,62.19,12.83,80.21c1.23,0.92,2.5,1.74,3.78,2.53c-6.24,14.78-11.45,30.2-15.58,46.14
				c-1.48-0.26-2.96-0.5-4.48-0.62c-29.34-2.47-55.29,21.28-57.97,53.05c-2.68,31.77,18.94,59.52,48.28,61.99
				c1.52,0.13,3.03,0.14,4.52,0.13c1.4,16.41,3.96,32.48,7.64,48.1c-1.39,0.57-2.78,1.16-4.15,1.86
				c-26.75,13.75-38.41,48.19-26.06,76.94c12.35,28.75,44.05,40.91,70.79,27.17c1.4-0.72,2.73-1.52,4.04-2.35
				c8.73,13.19,18.4,25.6,28.93,37.15c-0.97,1.26-1.93,2.55-2.82,3.93c-16.99,26.27-11.24,62.19,12.82,80.21
				c24.07,18.02,76.17,9.78,93.16-16.5c0.87-1.35-17.18-1.18-16.43-2.57c13.59,6.56,27.77,11.99,42.46,16.24
				c-0.26,1.6-0.5,3.21-0.64,4.86c-2.68,31.77,18.94,59.52,48.28,61.99c29.34,2.47,55.29-21.28,57.97-53.05
				c0.14-1.64,0.17-3.27,0.18-4.89c15.19-1.73,30.09-4.71,44.58-8.9c0.51,1.5,1.04,2.99,1.67,4.47
				c12.35,28.75,44.05,40.91,70.79,27.16c26.74-13.74,38.41-48.19,26.06-76.93c-0.65-1.5-1.37-2.93-2.12-4.34
				c12.31-9.62,23.92-20.25,34.73-31.79c1.16,1.04,2.33,2.06,3.59,3c24.07,18.02,57.35,11.33,74.34-14.94
				c16.99-26.28,11.24-62.19-12.83-80.21c-1.23-0.92-2.5-1.74-3.78-2.53c6.24-14.78,11.45-30.2,15.58-46.14
				C2869.11,1174.71,2870.59,1174.94,2872.11,1175.07z M2570.47,1302.06c-106.52-8.97-185-109.74-175.28-225.08
				c9.71-115.34,103.94-201.57,210.46-192.59c106.52,8.97,185,109.74,175.28,225.08C2771.22,1224.8,2676.99,1311.03,2570.47,1302.06
				z"/>
			<path class="st2" d="M2873.79,1009.93c26.75-13.74,38.41-48.19,26.06-76.94c-12.35-28.75-44.05-40.91-70.79-27.17
				c-1.4,0.72-2.73,1.53-4.04,2.35c-8.73-13.19-18.4-25.6-28.93-37.15c0.97-1.26,1.93-2.55,2.82-3.93
				c16.99-26.27,30.04-78.39,4.25-93.85c-48.95-29.34-74.42,2.31-91.41,28.58c-0.87,1.35-1.64,2.73-2.39,4.12
				c-13.59-6.56-27.77-11.99-42.46-16.23c0.26-1.6,0.5-3.21,0.64-4.86c1.46-17.29-4.32-33.35-14.58-44.84
				c-6.54,49.67-12.7,99.39-18.37,149.16c91.42,23.01,155.17,115.64,146.35,220.26c-7.47,88.65-64.88,160.05-139.41,184.3
				c0.17,9.69,0.42,19.4,0.33,29.11c-0.24,26.33-1.95,52.72-3.69,79.08c7.23-1.46,14.38-3.2,21.43-5.24
				c0.51,1.5,1.04,2.99,1.67,4.47c12.35,28.75,39.95,46.22,89.16,23.13c27.22-12.77,20.05-44.15,7.7-72.9
				c-0.65-1.5-1.37-2.93-2.12-4.34c12.31-9.62,23.92-20.25,34.73-31.79c1.16,1.04,2.34,2.05,3.59,3
				c24.07,18.03,78.07,7.91,95.05-18.37c16.99-26.28-9.47-58.76-33.54-76.78c-1.23-0.92-2.5-1.74-3.78-2.53
				c6.24-14.78,11.45-30.2,15.58-46.14c1.48,0.26,2.96,0.5,4.48,0.62c29.34,2.47,55.29-21.28,57.97-53.05
				c2.68-31.77-18.94-59.52-48.28-61.99c-1.52-0.13-3.02-0.14-4.52-0.13c-1.4-16.41-3.96-32.48-7.64-48.1
				C2871.03,1011.23,2872.42,1010.64,2873.79,1009.93z"/>
			<path class="st3" d="M2899.48,1167.42c29.34,2.47,55.29-21.28,57.97-53.05c2.67-31.77-18.94-59.52-48.28-61.99
				c-1.52-0.13-3.02-0.14-4.52-0.13c-1.4-16.41-3.96-32.48-7.64-48.1c1.39-0.57,2.78-1.16,4.15-1.87
				c26.75-13.74,38.41-48.19,26.06-76.93c-12.35-28.75-44.05-40.91-70.79-27.17c-1.4,0.72-2.73,1.53-4.05,2.35
				c-8.73-13.19-18.4-25.6-28.93-37.15c0.97-1.27,1.93-2.55,2.82-3.93c16.99-26.27,11.24-62.19-12.83-80.21
				c-24.07-18.02-57.35-11.33-74.34,14.94c-0.87,1.35-1.64,2.73-2.39,4.13c-13.59-6.56-27.77-11.99-42.46-16.24
				c0.26-1.6,0.5-3.21,0.64-4.86c2.68-31.77-18.94-59.52-48.28-61.99c-29.34-2.47-55.29,21.28-57.97,53.05
				c-0.14,1.64-0.17,3.27-0.18,4.89c-15.19,1.73-30.09,4.71-44.58,8.9c-0.51-1.5-1.04-2.99-1.67-4.47
				c-12.35-28.75-44.05-40.91-70.79-27.17c-26.75,13.74-38.41,48.19-26.06,76.94c0.65,1.5,1.37,2.93,2.12,4.34
				c-12.31,9.62-23.92,20.25-34.73,31.79c-1.16-1.04-2.33-2.05-3.59-3c-24.07-18.02-57.35-11.33-74.34,14.94
				c-16.99,26.28-11.24,62.19,12.83,80.21c1.23,0.92,2.5,1.74,3.78,2.53c-6.24,14.78-11.45,30.2-15.58,46.14
				c-1.48-0.26-2.96-0.5-4.48-0.63c-29.34-2.47-55.29,21.28-57.97,53.05c-2.68,31.77,18.94,59.52,48.28,61.99
				c1.52,0.13,3.03,0.14,4.52,0.13c1.4,16.41,3.96,32.48,7.64,48.1c-1.39,0.57-2.78,1.16-4.15,1.87
				c-26.75,13.74-38.41,48.19-26.06,76.94c12.35,28.75,44.05,40.91,70.79,27.16c1.4-0.72,2.73-1.52,4.04-2.35
				c8.73,13.19,18.4,25.6,28.93,37.15c-0.97,1.27-1.93,2.55-2.82,3.93c-16.99,26.27-11.24,62.19,12.83,80.21
				c24.07,18.02,57.35,11.33,74.34-14.94c0.87-1.35,1.64-2.73,2.39-4.13c13.59,6.56,27.77,11.99,42.46,16.24
				c-0.26,1.6-0.5,3.21-0.64,4.86c-2.68,31.77,18.94,59.52,48.28,61.99c29.34,2.47,55.29-21.28,57.97-53.05
				c0.14-1.64,0.17-3.27,0.18-4.89c15.19-1.73,30.09-4.71,44.58-8.9c0.51,1.5,1.04,2.99,1.67,4.47
				c12.35,28.75,44.05,40.91,70.79,27.17c26.74-13.74,38.41-48.19,26.06-76.93c-0.65-1.5-1.37-2.93-2.12-4.34
				c12.31-9.62,23.92-20.25,34.73-31.79c1.16,1.04,2.34,2.05,3.59,3c24.07,18.02,57.35,11.34,74.34-14.94
				c16.99-26.28,11.24-62.19-12.83-80.21c-1.23-0.92-2.5-1.74-3.78-2.53c6.24-14.78,11.45-30.2,15.58-46.14
				C2896.47,1167.06,2897.96,1167.29,2899.48,1167.42z M2597.84,1294.41c-106.52-8.97-185-109.74-175.28-225.08
				c9.71-115.34,103.94-201.57,210.46-192.59c106.52,8.97,185,109.74,175.28,225.08
				C2798.58,1217.15,2704.36,1303.38,2597.84,1294.41z"/>
		</g>
		<g>
			<defs>
				<rect id="SVGID_1_" x="520.2" y="493.4" width="1472.54" height="2103.13"/>
			</defs>
			<clipPath id="SVGID_2_">
				<use xlink:href="#SVGID_1_"  style="overflow:visible;"/>
			</clipPath>
			<g class="st4">
				<g>
					<defs>
						<path id="SVGID_3_" d="M1343.97,3155.34c-189.59-390.06,76.75-573.63,179.17-672.98c154.45-149.82,239.4-373.02,15.93-484.77
							s7.22-560.24,283.96-753.54c270.81-189.16,160.05-946.26-455.95-609.29C999.2,836,1050.84,1352.6,1030.29,1619.99
							c-20.54,267.38-322.01,272.73-222.5,606.34c85,284.97,196.94,631.44,67.15,816.82S1436.89,3346.52,1343.97,3155.34z"/>
					</defs>
					<clipPath id="SVGID_4_">
						<use xlink:href="#SVGID_3_"  style="overflow:visible;"/>
					</clipPath>
					
						<linearGradient id="SVGID_5_" gradientUnits="userSpaceOnUse" x1="3179.0439" y1="-2391.9102" x2="2132.134" y2="-29.4796" gradientTransform="matrix(0.9995 0.0303 -0.0303 0.9995 483.486 -779.2384)">
						<stop  offset="0" style="stop-color:#AA80F9"/>
						<stop  offset="0.9964" style="stop-color:#6165D7"/>
					</linearGradient>
					<path class="st5" d="M1823.02,1244.05c-276.74,193.3-464.27,582.8-258.11,744.62c182.21,143.02,112.68,343.87-41.78,493.69
						c-76.87,74.57-246.09,196.59-245.56,417.74c-13.77-2.1,128.07,354.29,114.1,357.99c-62.29,16.51-186.02-36.61-188.88,44.96
						L832.84,3151.3c9.08-86.46,42.83-166.19,95.26-241.07c129.79-185.38-35.3-398.94-120.3-683.91
						c-99.51-333.61,201.96-338.96,222.5-606.34S999.2,836,1367.07,634.76C1983.07,297.78,2093.84,1054.88,1823.02,1244.05z"/>
					<path class="st6" d="M2032.02,735.67l-1.45-10.73c-280.14,56.52-501.26,245.31-657.22,561.11
						c-18.88,38.23-36.79,78.35-53.77,120.27c-25.68-358.68,79.89-847.96,80.97-852.93l-7.86-3.29
						c-1.1,5.06-110.02,509.84-80.12,871.8l0.84-0.09c-91.72,232.05-154.87,518.85-188.06,855.22
						c-6.66,67.53-11.86,134.84-15.85,201.35c-60.72-312.65-308.13-536.53-310.72-538.84l-4.44,8.95
						c2.66,2.37,265.63,240.39,313.07,566.5c-3.9,72.76-6.36,144.4-7.68,214.14c0,0.02-0.01,0.05-0.02,0.07l0.01,0
						c-2.35,124.5-1.07,242.93,2.21,350.74l8.1-2.15c-3.22-106.69-4.47-223.77-2.16-346.79
						c97.61-504.87,622.69-600.71,627.88-601.07l-0.12-10.84c-5-0.28-509.01,94.34-626.81,568.9
						c3.35-132.1,10.92-270.33,24.65-409.48c35.13-355.93,115.72-758.64,291.1-1065.83c276.42-208.03,530.25-85.69,532.8-84.42
						l2.69-10.14c-2.53-1.27-249.59-120.52-522.77,72.76C1573.45,961.95,1764.56,789.64,2032.02,735.67z M856.83,2958.09l-6.19,6.86
						c1.48,2.32,6.15,7.22,17.49,19.07c23.91,24.95,68.3,71.32,113.11,127.93l9.61-2.55c-46.46-59.39-92.99-107.98-117.77-133.84
						C864.93,2967.06,857.9,2959.72,856.83,2958.09z"/>
				</g>
			</g>
			<g class="st4">
				
					<linearGradient id="SVGID_6_" gradientUnits="userSpaceOnUse" x1="4109.5723" y1="1041.5438" x2="3552.9717" y2="3465.6843" gradientTransform="matrix(-1 0 0 1 4947.2104 0)">
					<stop  offset="0" style="stop-color:#FF9085"/>
					<stop  offset="1" style="stop-color:#FB6FBB"/>
				</linearGradient>
				<path class="st7" d="M1364.98,2561.44c-22.07-18.25,20.15,59.43-9.08,59.43c-60.09,0-30.03,55.04-195.88,17.32H696.46
					c33.96-139.71,141.93-281.82,178.78-356.05c77.75-156.63,98.09-225.66-63.12-549.41c-269.19-418.74-296.23-814.57-114.86-934.17
					c183.77-121.17,368.25,22.1,435.68,239.85c43.14,139.32,179.82,52.03,260.58,230.48c70.88,156.64-68.31,406.16-118.25,546.34
					C1144.81,2181.39,1310.53,2356.29,1364.98,2561.44z"/>
				<g>
					<defs>
						<path id="SVGID_7_" d="M1337.73,2868.23c175.73-395.17-250.25-525.93-62.47-1052.99c49.94-140.18,189.13-389.7,118.25-546.34
							c-80.75-178.46-217.43-91.17-260.58-230.48C1065.5,820.67,881.02,677.4,697.26,798.57
							c-181.37,119.59-154.33,515.43,114.86,934.17c161.21,323.74,140.88,392.77,63.12,549.41
							c-54.46,109.71-264.57,367.78-160.86,547.09C818.09,3008.55,1272.97,3013.87,1337.73,2868.23z"/>
					</defs>
					<clipPath id="SVGID_8_">
						<use xlink:href="#SVGID_7_"  style="overflow:visible;"/>
					</clipPath>
					<path class="st8" d="M1060.61,2039.57c-25.14-358.91,293.42-873.61,296.65-878.76l-6.54-4.65
						c-3.01,4.82-279.85,452.14-298.35,805.74c-9.43-83.23-21.14-165.3-35.18-245.97c-10.32-59.34-21.95-118-34.74-175.91l0.05-0.02
						c-0.03-0.07-0.07-0.15-0.1-0.22c-23.81-107.7-51.82-212.71-83.86-314.2l0.12-0.02c-24.4-198.72-6.86-413.52-1.09-484.1
						c1.39-17.09,1.87-23.1,1.69-25.23l-7.83,0.74c0.11,1.62-0.68,11.39-1.7,23.76c-5.36,65.59-20.85,255.31-3.62,441.57
						c0.08,0.91-1.17,1.16-1.45,0.29c-7.89-23.92-15.99-47.65-24.34-71.14c-47.28-133.12-101.17-258-160.18-371.16
						c-10.28-19.72-21.83-39.28-33-58.19c-14.88-25.2-30.27-51.25-42.77-77.9l-7.03,3.76c12.67,27.02,28.16,53.25,43.14,78.62
						c11.11,18.82,22.6,38.28,32.78,57.8c58.83,112.8,112.56,237.31,159.7,370.05c45.04,126.83,83.55,260,115.14,397.75
						c-94.4-156.99-390.34-273.28-403.61-278.43l-2.68,7.88c3.4,1.32,340.36,133.68,413.13,300.96
						c12.71,57.56,24.26,115.88,34.52,174.87c45.71,262.74,67.02,540.24,63.34,824.79c-0.41,31.83-1.24,63.84-2.28,95.94h7.86
						c1.04-32.06,1.86-64.04,2.28-95.83c2.21-170.68-4.63-338.8-20.24-502.77L1060.61,2039.57z M726.6,2483.75
						c1.42,1.41,63.84,64.09,132.66,154.44h9.97c-70.76-93.74-135.81-159.13-137.27-160.57L726.6,2483.75z"/>
				</g>
			</g>
		</g>
		<g>
			<g>
				<path class="st9" d="M2159.9,2984.96c-36.07-11.96-63.03-42.58-70.63-80.2l-52.5-259.83l-449.08,15.95l-55.27,270.68
					c-7.74,37.91,23.24,75.94,58.93,89.9l187.88,73.51c34.95,13.67,72.51,19.12,109.84,15.92l397.07-33.97
					c11.61-0.99,20.92-10.12,22.27-21.82c1.35-11.71,9.48-24.85-1.58-28.52L2159.9,2984.96z"/>
				<linearGradient id="SVGID_9_" gradientUnits="userSpaceOnUse" x1="1878.9835" y1="3472.0649" x2="1934.98" y2="2930.7617">
					<stop  offset="0" style="stop-color:#444B8C"/>
					<stop  offset="0.9964" style="stop-color:#26264F"/>
				</linearGradient>
				<path class="st10" d="M2164.34,2969.15c-36.03-11.81-62.96-42.04-70.56-79.19l-52.44-256.56l-438.13,15.76l-55.21,267.28
					c-7.73,37.43,12.73,74.97,48.38,88.76l187.7,72.59c34.91,13.5,72.44,18.88,109.73,15.72l396.67-33.54
					c11.6-0.98,20.9-9.99,22.25-21.55c1.35-11.56-5.63-22.47-16.68-26.09L2164.34,2969.15z"/>
			</g>
			<g>
				<g>
					<linearGradient id="SVGID_10_" gradientUnits="userSpaceOnUse" x1="1490.3767" y1="1961.728" x2="899.2968" y2="2030.1685">
						<stop  offset="0" style="stop-color:#444B8C"/>
						<stop  offset="0.3946" style="stop-color:#383C74"/>
						<stop  offset="0.9964" style="stop-color:#26264F"/>
					</linearGradient>
					<path class="st11" d="M670.06,2817.62c-48.7,2.9-88.54-28.69-88.54-70.44V1242.37c0-41.75,39.84-73.99,88.54-71.88
						l2252.16,97.58c35.75,1.55,64.7,31.69,64.7,67.2V2615.1c0,35.51-28.95,66.13-64.7,68.26L670.06,2817.62z"/>
					<linearGradient id="SVGID_11_" gradientUnits="userSpaceOnUse" x1="601.759" y1="1994.0983" x2="3007.1609" y2="1994.0983">
						<stop  offset="0" style="stop-color:#444B8C"/>
						<stop  offset="0.9964" style="stop-color:#26264F"/>
					</linearGradient>
					<path class="st12" d="M690.3,2817.62c-48.7,2.9-88.54-28.69-88.54-70.44V1242.37c0-41.75,39.84-73.99,88.54-71.88
						l2252.16,97.58c35.75,1.55,64.7,31.69,64.7,67.2V2615.1c0,35.51-28.95,66.13-64.7,68.26L690.3,2817.62z"/>
					<path class="st13" d="M2942.46,1298.19L690.3,1205.54c-26.03-1.07-47.2,16.13-47.2,38.43v1170.35v330.6
						c0,22.3,21.17,39.15,47.2,37.66l2252.16-129.33c19.16-1.1,34.66-17.43,34.66-36.49v-292.57v-990.08
						C2977.12,1315.06,2961.62,1298.98,2942.46,1298.19z"/>
					<linearGradient id="SVGID_12_" gradientUnits="userSpaceOnUse" x1="2470.4429" y1="924.5146" x2="-965.8685" y2="5963.6777">
						<stop  offset="3.597120e-03" style="stop-color:#E38DDD"/>
						<stop  offset="1" style="stop-color:#9571F6"/>
					</linearGradient>
					<path class="st14" d="M690.3,2654.73c-10.14,0.5-18.39-6.15-18.39-14.82V1245.08c0-8.67,8.26-15.4,18.39-15l2252.16,89.2
						c7.47,0.3,13.55,6.59,13.55,14.02v1195.95c0,7.43-6.08,13.79-13.55,14.16L690.3,2654.73z"/>
				</g>
				<path class="st15" d="M2707.34,2590.22c-189.47-117.2-57.13-450.44-269.92-617.88c-214.53-168.8-516.39,38.23-666.66-136.58
					c-111.89-130.17,19.03-287.34-87.8-409.75c-167.54-191.97-596.44,72.05-793.49-117.07c-27.98-26.85-56.21-67.59-72.28-132.95
					l-126.9-5.5c-48.7-2.11-88.54,30.13-88.54,71.88v1504.81c0,41.75,39.84,73.34,88.54,70.44l2252.16-134.26
					c35.75-2.13,64.7-32.75,64.7-68.26v-22.75C2857.62,2643.1,2766.2,2626.62,2707.34,2590.22z"/>
			</g>
			<g>
				<g>
					<path class="st0" d="M2590.83,2484.62V943.74l-1385.28-69.28v1687.62c0,35.41-25.66,65.61-60.61,71.32h0l1371.46-69.28
						C2558.27,2561.36,2590.83,2526.59,2590.83,2484.62z"/>
				</g>
				<g>
					<path class="st3" d="M2590.83,1255.27c-1.72,0-3.11-1.39-3.11-3.11V946.69l-1379.06-68.97v314.41c0,1.72-1.39,3.11-3.11,3.11
						c-1.72,0-3.11-1.39-3.11-3.11V871.19l3.27,0.16l1388.24,69.43v311.38C2593.94,1253.88,2592.55,1255.27,2590.83,1255.27z"/>
				</g>
				<g>
					<polygon class="st3" points="2502.06,1179.27 1341.35,1151.13 1341.35,999.26 2502.06,1035.39 					"/>
					<g>
						<g>
							<g>
								<path class="st3" d="M2502.06,1654.96l-1160.71-1.74V1265.8l1160.71,22.11V1654.96z M1362.14,1631.59l1115.67,2.77v-326.27
									l-1115.67-20.17V1631.59z"/>
							</g>
							<g>
								<polygon class="st3" points="1611.61,1640.25 1587.36,1640.25 1587.36,1279.71 1611.61,1280.12 								"/>
							</g>
							<g>
								<g>
									<polygon class="st3" points="2488.2,1425.78 1597.75,1414.65 1597.75,1393.21 2488.2,1405.21 									"/>
								</g>
								<g>
									<polygon class="st3" points="2488.2,1537.42 1597.75,1531.05 1597.75,1509.61 2488.2,1516.86 									"/>
								</g>
							</g>
						</g>
						<g>
							<polygon class="st3" points="2262.99,1651.6 2238.74,1651.57 2238.74,1291.81 2262.99,1292.21 							"/>
						</g>
					</g>
					<g>
						<g>
							<g>
								<path class="st3" d="M2502.06,2345l-1160.71,36.55v-387.41l1160.71-16.18V2345z M1362.14,2359.16l1115.67-34.06v-326.27
									l-1115.67,16.66V2359.16z"/>
							</g>
							<g>
								<polygon class="st3" points="1611.61,2360.77 1587.36,2361.57 1587.36,1999.93 1611.61,1999.53 								"/>
							</g>
							<g>
								<g>
									<polygon class="st3" points="2488.2,2116.22 1597.75,2134.49 1597.75,2113.05 2488.2,2095.66 									"/>
								</g>
								<g>
									<polygon class="st3" points="2488.2,2227.87 1597.75,2250.89 1597.75,2229.45 2488.2,2207.3 									"/>
								</g>
							</g>
						</g>
						<g>
							<polygon class="st3" points="2262.99,2349.6 2238.74,2350.28 2238.74,1990.52 2262.99,1990.21 							"/>
						</g>
					</g>
					<polygon class="st3" points="2502.06,1778.29 1341.35,1783.39 1341.35,1733.8 2502.06,1731.31 					"/>
					<polygon class="st3" points="2502.06,1889.87 1341.35,1901.16 1341.35,1851.57 2502.06,1842.89 					"/>
					<polygon class="st3" points="2502.06,2468.33 1341.35,2511.72 1341.35,2462.13 2502.06,2421.35 					"/>
				</g>
			</g>
		</g>
		<g>
			<g>
				
					<linearGradient id="SVGID_13_" gradientUnits="userSpaceOnUse" x1="1816.2507" y1="1784.0553" x2="1982.5173" y2="1993.24" gradientTransform="matrix(1 0 0 1 365.4937 0)">
					<stop  offset="0" style="stop-color:#FFC444"/>
					<stop  offset="0.9964" style="stop-color:#F36F56"/>
				</linearGradient>
				<path class="st16" d="M2306.64,1894.16l-31.63-34.52c-5.86-6.92-15.02-16.21-28.13-24.26c-25.45-15.61-60.47-23.26-65.72-14.35
					c-5.95,10.11,27.32,40.06,38.64,49.95c15.64,11.36,31.28,22.72,46.93,34.08L2306.64,1894.16z"/>
				
					<linearGradient id="SVGID_14_" gradientUnits="userSpaceOnUse" x1="2544.7507" y1="2110.3225" x2="2657.96" y2="1657.4838" gradientTransform="matrix(1 0 0 1 365.4937 0)">
					<stop  offset="0" style="stop-color:#FFC444"/>
					<stop  offset="0.9964" style="stop-color:#F36F56"/>
				</linearGradient>
				<path class="st17" d="M2982.38,1659.56c8.59,3.25,139.62,55.35,166.55,192.11c2.17,11.05,23.22,128.54-56.45,211.54
					c-89.35,93.07-261.39,90.77-329.68,12.96c-15.92-18.14-24.33-38.26-29.03-55.15l0,0l17.99-47.8
					c21.96-26.5,51.85-32.79,67.81-36.72c39.36-9.7,69.07,7.83,91.61-11.15c12.47-10.5,14.95-25.61,17.16-39.11
					c7.54-45.98-18.42-74.29-20.3-102.65c-1.41-21.2-8.83-67.65,18.84-97.94C2944.4,1666.46,2968.67,1661.24,2982.38,1659.56z"/>
				
					<linearGradient id="SVGID_15_" gradientUnits="userSpaceOnUse" x1="2315.1221" y1="3308.9429" x2="2368.8242" y2="3356.7112" gradientTransform="matrix(0.9902 -0.14 0.14 0.9902 262.6509 206.9384)">
					<stop  offset="0" style="stop-color:#444B8C"/>
					<stop  offset="0.9964" style="stop-color:#26264F"/>
				</linearGradient>
				<path class="st18" d="M3033.44,3183.63c1.53-8.42,28.72-16.04,42.18-4.76c6.68,5.6,11.29,16.95,7.42,22.07
					c-1.41,1.86,4.36,5.14-1.17,5.21C3063.55,3206.37,3031.92,3192,3033.44,3183.63z"/>
				
					<linearGradient id="SVGID_16_" gradientUnits="userSpaceOnUse" x1="1441.5867" y1="3356.7856" x2="1441.5867" y2="3263.2322" gradientTransform="matrix(0.9902 -0.14 0.14 0.9902 1178.8521 77.4224)">
					<stop  offset="0" style="stop-color:#FFC444"/>
					<stop  offset="0.9964" style="stop-color:#F36F56"/>
				</linearGradient>
				<path class="st19" d="M3061.93,3186.7l27.96-3.95c-12.95-15.6-10.56-65.26-10.56-65.26l-29.74,6.64c0,0,3.39,13.63,9.15,33.74
					C3060.73,3164.74,3061.61,3175.52,3061.93,3186.7z"/>
				
					<linearGradient id="SVGID_17_" gradientUnits="userSpaceOnUse" x1="2320.521" y1="3302.874" x2="2374.2234" y2="3350.6423" gradientTransform="matrix(0.9902 -0.14 0.14 0.9902 262.6509 206.9384)">
					<stop  offset="0" style="stop-color:#444B8C"/>
					<stop  offset="0.9964" style="stop-color:#26264F"/>
				</linearGradient>
				<path class="st20" d="M3059.45,3183.25c0,0,33.66-7.76,37.3-1.08c3.64,6.68,6.47,24.56-14.89,23.98
					C3060.51,3205.58,3057.56,3188.92,3059.45,3183.25z"/>
				
					<linearGradient id="SVGID_18_" gradientUnits="userSpaceOnUse" x1="2272.7351" y1="3189.03" x2="2326.4402" y2="3236.8008" gradientTransform="matrix(1 0 0 1 365.4937 0)">
					<stop  offset="0" style="stop-color:#444B8C"/>
					<stop  offset="0.9964" style="stop-color:#26264F"/>
				</linearGradient>
				<path class="st21" d="M2649.78,3215.2c2.69-8.12,30.68-11.86,42.43,1.19c5.83,6.48,8.8,18.36,4.26,22.89
					c-1.65,1.65,3.59,5.7-1.88,5C2676.42,3241.93,2647.1,3223.27,2649.78,3215.2z"/>
				
					<linearGradient id="SVGID_19_" gradientUnits="userSpaceOnUse" x1="1399.1567" y1="3236.8955" x2="1399.1567" y2="3143.3374" gradientTransform="matrix(1 0 0 1 1290.804 0)">
					<stop  offset="0" style="stop-color:#FFC444"/>
					<stop  offset="0.9964" style="stop-color:#F36F56"/>
				</linearGradient>
				<path class="st22" d="M2677.57,3222.22h28.24c-10.64-17.26-1.32-66.1-1.32-66.1l-30.37,2.41c0,0,1.45,13.97,4.34,34.69
					C2679.44,3200.32,2678.81,3211.11,2677.57,3222.22z"/>
				
					<linearGradient id="SVGID_20_" gradientUnits="userSpaceOnUse" x1="-315.9609" y1="2742.0186" x2="-1015.3901" y2="2569.4326" gradientTransform="matrix(-1 0 0 1 2143.2136 0)">
					<stop  offset="0" style="stop-color:#AB316D"/>
					<stop  offset="1" style="stop-color:#792D3D"/>
				</linearGradient>
				<path class="st23" d="M2604.38,2154.34c-13.08,43.2-31.76,112.92-43.79,200.4c-34.3,249.51,38.6,257.47,24.99,533.96
					c-4.35,88.26,76.46,291.76,83.58,296.26c3.45,0.33,7.19,0.56,11.18,0.44c7.03-0.21,16.94-1.29,28.46-4.74
					c12.8-2.21,58.95-127.2,48.25-201.53c-7.57-52.6-5.37-109.05-0.99-221.96c0.71-18.29,47.52-355.92,47.52-355.92l0,0
					c14.24,124.97,30.61,231.16,44.81,313.48c45.61,264.5,193.89,424.6,201.63,427.16c1.53,0.61,15.44,5.67,26.82-1.83
					c5.06-3.34,6.79-7.64,6.79-7.64c3.97-3.11-1.17-264.08-46.4-460.48c-65.65-285.08-37.06-351.78-57.86-479.11
					C2961.37,2082.65,2604.38,2154.34,2604.38,2154.34z"/>
				
					<linearGradient id="SVGID_21_" gradientUnits="userSpaceOnUse" x1="2792.7773" y1="2186.0618" x2="2041.0659" y2="1663.2737" gradientTransform="matrix(1 0 0 1 365.4937 0)">
					<stop  offset="0" style="stop-color:#FFC444"/>
					<stop  offset="0.9964" style="stop-color:#F36F56"/>
				</linearGradient>
				<path class="st24" d="M2869.56,1637.31c-43.59-1.28-143.77-16.67-198.95,32.98c-0.96,0.86,10.34,6.9,4.78,13.42
					c-5.17,6.05-22.89,27.25-38.96,55.9c-11.64,20.75-22.15,44.94-32.74,81c-18.69,63.58-24.06,117.72-25.85,141.31
					c-10.09,132.66-0.08,193.86,8.99,235.48c39.41,20.24,140.96,56.46,261.95,38.47c55.26-8.22,99.48-26.61,130.59-43.02
					c-31.4-95.06-6.76-145.93,4.86-192.81c16.57-66.85,16.84-61.8,30.48-114.91c22.51-87.63,26.2-177.17,10.74-195.49
					C2983.73,1640.24,2908.58,1638.46,2869.56,1637.31z"/>
				
					<linearGradient id="SVGID_22_" gradientUnits="userSpaceOnUse" x1="2278.1345" y1="3182.9614" x2="2331.8389" y2="3230.7317" gradientTransform="matrix(1 0 0 1 365.4937 0)">
					<stop  offset="0" style="stop-color:#444B8C"/>
					<stop  offset="0.9964" style="stop-color:#26264F"/>
				</linearGradient>
				<path class="st25" d="M2675.59,3218.47c0,0,34.42-2.97,37.09,4.15c2.67,7.12,2.97,25.22-18.1,21.66
					C2673.51,3240.72,2672.92,3223.81,2675.59,3218.47z"/>
				<g>
					
						<linearGradient id="SVGID_23_" gradientUnits="userSpaceOnUse" x1="-686.8044" y1="1661.3884" x2="-575.1189" y2="1443.2522" gradientTransform="matrix(-1 0 0 1 2143.2136 0)">
						<stop  offset="0" style="stop-color:#FFC444"/>
						<stop  offset="0.9964" style="stop-color:#F36F56"/>
					</linearGradient>
					<path class="st26" d="M2746.89,1587.33c-13.5-22.83-7.49-48.9-6.13-54.54c5.68-23.59,7.79-27.17,12.17-32.16l6.19-6.55
						c0,0,0.38-0.29,0.79-0.57c4.3-2.96,20.38-7.77,23.85-7.95c11.09-0.56,33.65,39.2,46.56,100.46c1.05,2.19,2.09,4.4,3.12,6.63
						c6.41,13.9,11.91,27.57,16.62,40.89c74.92,6.34,85.32,15.12,85.65,20.2c0.7,10.69-41.98,23.03-74.09,27.73
						c-70.02,10.25-141.98-8.21-141.66-21.27c0.14-5.68,14.06-13.09,73.41-20.86c-1.39-9.82-2.78-19.64-4.16-29.47
						C2784.4,1608.82,2756.83,1604.15,2746.89,1587.33z"/>
					<linearGradient id="SVGID_24_" gradientUnits="userSpaceOnUse" x1="2709.5425" y1="1536.5863" x2="2838.2986" y2="1485.6205">
						<stop  offset="0" style="stop-color:#444B8C"/>
						<stop  offset="0.9964" style="stop-color:#26264F"/>
					</linearGradient>
					<path class="st27" d="M2732.8,1482.72c5.05,18.7,19.2,36.34,24.55,38.35c0.69,0.26,4.64,1.97,8.75,5.6
						c0.56,0.49,1.1,1.1,1.66,1.93c7.24,10.7-7.81,29.58-2.78,33.9c3.65,3.13,15.03-5.39,17.42-2.49c2.26,2.73-6.61,12-4,15.3
						c1.97,2.49,7.81-1.82,13.07,1.39c2.62,1.6,2.47,3.47,6.4,9.45c2.22,3.39,5.02,6.99,6.95,8.9c9.4,9.26,28.79,8.39,31.14,3.06
						c0.65-1.49-0.46-2.29-0.56-6.67c0,0-0.09-4.06,1.39-9.17c2.11-7.31,10.06-14.25,17.52-23.36
						c13.81-16.87,15.66-28.6,16.11-32.51c0.16-1.4,0.21-2.43,0.25-3.18c0.77-14.98-4.62-35.25-14.14-46.06
						c-15.95-18.11-36.75-1.95-61.45-17.52c-28.49-17.96-24.01-54.1-36.98-54.5C2743.81,1404.7,2723.46,1448.15,2732.8,1482.72z"/>
					
						<linearGradient id="SVGID_25_" gradientUnits="userSpaceOnUse" x1="2337.821" y1="1475.323" x2="2628.6531" y2="1841.2268" gradientTransform="matrix(1 0 0 1 365.4937 0)">
						<stop  offset="0" style="stop-color:#FFC444"/>
						<stop  offset="0.9964" style="stop-color:#F36F56"/>
					</linearGradient>
					<path class="st28" d="M2770.54,1556.31c2.91-7.53,12.55-3.75,14.77,4.39c2.22,8.14-3.42,18.73-11.52,19.16
						C2765.69,1580.29,2766.62,1566.43,2770.54,1556.31z"/>
				</g>
				<path class="st29" d="M2965.2,2138.1l-0.73-6.55c-5.2-46.82,4.47-80.73,13-110.65c2.08-7.31,4.05-14.21,5.76-21.11
					c9.42-37.99,13.54-52.66,17.9-68.19c2.83-10.09,5.77-20.51,10.3-37.94l1.98,0.45L2965.2,2138.1z M3005.61,1923.17
					c-0.87,3.13-1.7,6.07-2.52,8.99c-4.36,15.51-8.48,30.17-17.89,68.13c-1.72,6.93-3.69,13.85-5.78,21.17
					c-8.06,28.25-17.14,60.08-13.6,103L3005.61,1923.17z"/>
				<linearGradient id="SVGID_26_" gradientUnits="userSpaceOnUse" x1="2731.5574" y1="1592.2028" x2="2860.314" y2="1541.2367">
					<stop  offset="0" style="stop-color:#444B8C"/>
					<stop  offset="0.9964" style="stop-color:#26264F"/>
				</linearGradient>
				<path class="st30" d="M2770.62,1541.67l-6.95,16.68c0,0-6.95,20.02-16.13,12.51c-7.5-6.13-8.87-5.59-9.12-5.18
					c-0.05,0.08-0.04,0.17-0.06,0.17c-0.1,0-0.21-3.99-0.28-7.51c-1.75,4.82-3.89,12.46-3.89,21.97c0,9.23,0,19.12,7.23,26.69
					c0.42,0.44,8.29,8.45,18.91,8.06c0,0,4.17-0.15,20.02-7.51c0,0-21.69-8.34-22.8-11.4c-3.02-8.32,7.56-16.07,11.68-35.87
					C2770.82,1552.66,2770.86,1546.11,2770.62,1541.67z"/>
				
					<linearGradient id="SVGID_27_" gradientUnits="userSpaceOnUse" x1="2784.9128" y1="2274.7332" x2="1938.6456" y2="1686.1853" gradientTransform="matrix(1 0 0 1 365.4937 0)">
					<stop  offset="0" style="stop-color:#FFC444"/>
					<stop  offset="0.9964" style="stop-color:#F36F56"/>
				</linearGradient>
				<path class="st31" d="M2289.14,1869.49c-15.76,11.03-24.22,26.01-28.6,35.57c11.59,27.2,37.87,77.71,92.27,114.93
					c89.2,61.03,219.99,63.08,311.09-6.52c108.84-83.15,127.02-242.6,81.31-310.89c-5.26-7.86-22.56-33.7-49.42-36.67
					c-16.96-1.87-40.05,5.12-76.53,47.83c-76.01,88.99-49.16,144.56-94.06,170.59C2457.86,1923.38,2357.8,1821.45,2289.14,1869.49z"
					/>
				<path class="st29" d="M2592.4,2051.6L2753,1889.5l-1.57,4.34c-25.05,69.11-66.02,108.12-95.97,128.67
					c-32.49,22.29-59.45,28.31-59.72,28.36L2592.4,2051.6z M2747.89,1897.55l-149,150.39
					C2617.58,2042.48,2704.7,2011.42,2747.89,1897.55z"/>
			</g>
		</g>
		<g>
			<linearGradient id="SVGID_28_" gradientUnits="userSpaceOnUse" x1="1073.1979" y1="4338.2656" x2="1090.9792" y2="3015.3972">
				<stop  offset="0" style="stop-color:#444B8C"/>
				<stop  offset="0.9964" style="stop-color:#26264F"/>
			</linearGradient>
			<path class="st32" d="M1456.64,2290.94l-2.35,796.73c-0.12,39.06-31.63,73.67-71.04,76.56l-568.85,41.69
				c-42.98,3.15-78.06-28.28-78.06-69.37v-838.43c0-38.92,31.12-71.02,70.71-74.91c2.53-0.25,5.1-0.34,7.69-0.35l571.01-2.73
				C1425.3,2219.95,1456.76,2251.6,1456.64,2290.94z"/>
			<linearGradient id="SVGID_29_" gradientUnits="userSpaceOnUse" x1="1115.8948" y1="4333.499" x2="1133.6394" y2="3013.3662">
				<stop  offset="0" style="stop-color:#AA80F9"/>
				<stop  offset="0.9964" style="stop-color:#6165D7"/>
			</linearGradient>
			<path class="st33" d="M1497.94,2290.45l-2.45,795.28c-0.12,38.99-29.88,73.41-69.14,76.29l-566.53,41.51
				c-42.8,3.14-79.5-28.1-79.5-69.12l0.11-836.81c0.01-38.84,31.88-70.89,71.3-74.77c2.52-0.25,5.96-0.34,8.54-0.35l568.71-2.72
				C1468.38,2219.58,1498.06,2251.18,1497.94,2290.45z"/>
			<g class="st34">
				<linearGradient id="SVGID_30_" gradientUnits="userSpaceOnUse" x1="780.4088" y1="2363.2661" x2="1497.9414" y2="2363.2661">
					<stop  offset="0" style="stop-color:#AA80F9"/>
					<stop  offset="0.9964" style="stop-color:#6165D7"/>
				</linearGradient>
				<path class="st35" d="M1497.94,2289.32l-0.61,199.89l-716.92,17.56l0.03-210.35c0.01-37.91,30.42-68.76,68.51-73.84
					c3.41-0.47,7.79-0.07,11.33-0.09l568.71-2.72C1468.38,2219.58,1498.06,2250.05,1497.94,2289.32z"/>
				<linearGradient id="SVGID_31_" gradientUnits="userSpaceOnUse" x1="780.4057" y1="2477.6189" x2="1497.5153" y2="2477.6189">
					<stop  offset="0" style="stop-color:#AA80F9"/>
					<stop  offset="0.9964" style="stop-color:#6165D7"/>
				</linearGradient>
				<path class="st36" d="M1497.52,2427.78l-0.26,83.06c-70.98,21.81-200.8,38.63-348.47,42.84c-64.79,1.84-127.17,1.1-183.34-1.85
					c-74.49-3.92-137.11-11.72-185.04-22.29l0.01-87.4c18.02-4.41,34.59-8.5,54.28-12.34c42.89-8.36,94.67-15.33,151.46-20.36
					c50.9-4.52,106.34-7.47,163.72-8.48c74.14-1.3,143.29,0.78,202.96,5.52c4.65,0.36,9.29,0.75,13.82,1.15
					c14.32,1.26,28.08,2.68,41.17,4.25c4.64,0.55,9.2,1.12,13.67,1.72c10.28,1.36,19.13,2.82,28.5,4.37
					C1467.98,2420.91,1483.94,2424.19,1497.52,2427.78z"/>
			</g>
			<path class="st0" d="M1462.08,2446.75c-0.03,11.87-9.69,21.71-21.58,21.99l-588.68,13.48c-12.96,0.3-23.47-9.53-23.47-21.95
				l0.05-140.74c0-12.43,10.53-22.62,23.5-22.75l589.1-5.87c11.9-0.12,21.5,9.42,21.47,21.31L1462.08,2446.75z"/>
			<path class="st1" d="M1448.43,2444.04c-0.02,7.51-6.13,13.72-13.65,13.89l-585.64,12.94c-8.18,0.18-14.82-6.03-14.82-13.87
				l0.05-140.12c0-7.85,6.65-14.28,14.84-14.37l586.02-6.07c7.52-0.08,13.6,5.95,13.58,13.46L1448.43,2444.04z"/>
			<g>
				<g>
					<g class="st34">
						<linearGradient id="SVGID_32_" gradientUnits="userSpaceOnUse" x1="1360.9554" y1="2311.0593" x2="1351.2601" y2="2532.1089">
							<stop  offset="0" style="stop-color:#311944"/>
							<stop  offset="1" style="stop-color:#A03976"/>
						</linearGradient>
						<path class="st37" d="M1366.12,2364.08c-0.01,3.71-3.05,6.13-6.78,6.18l-0.31,0c-3.74,0.04-6.77-2.25-6.76-5.97l0.07-27.6
							c0.01-3.72,3.05-6.51,6.79-6.56l0.31,0c3.74-0.05,6.76,2.67,6.75,6.39L1366.12,2364.08z"/>
						<linearGradient id="SVGID_33_" gradientUnits="userSpaceOnUse" x1="1416.1543" y1="2310.2554" x2="1406.4323" y2="2531.9126">
							<stop  offset="0" style="stop-color:#311944"/>
							<stop  offset="1" style="stop-color:#A03976"/>
						</linearGradient>
						<path class="st38" d="M1421.26,2363.35c-0.01,3.7-3.02,6.22-6.73,6.26l-0.31,0c-3.71,0.04-6.71-2.36-6.7-6.06l0.08-27.57
							c0.01-3.7,3.03-6.57,6.74-6.62l0.31,0c3.71-0.05,6.71,2.74,6.7,6.44L1421.26,2363.35z"/>
					</g>
					<g>
						<linearGradient id="SVGID_34_" gradientUnits="userSpaceOnUse" x1="1360.9158" y1="2369.9087" x2="1350.5314" y2="2606.6682">
							<stop  offset="0" style="stop-color:#311944"/>
							<stop  offset="1" style="stop-color:#A03976"/>
						</linearGradient>
						<path class="st39" d="M1365.97,2425.85c-0.01,3.71-3.05,7.44-6.78,7.47l-0.31,0c-3.74,0.03-6.76-3.49-6.76-7.2l0.07-28.4
							c0.01-3.72,3.05-7.36,6.79-7.4l0.31,0c3.74-0.04,6.76,3.45,6.75,7.16L1365.97,2425.85z"/>
						<linearGradient id="SVGID_35_" gradientUnits="userSpaceOnUse" x1="1416.2489" y1="2365.0356" x2="1405.1429" y2="2618.2488">
							<stop  offset="0" style="stop-color:#311944"/>
							<stop  offset="1" style="stop-color:#A03976"/>
						</linearGradient>
						<path class="st40" d="M1421.09,2425.09c-0.01,3.7-3.02,4.86-6.73,7.76l-0.31,0c-3.71,0.03-6.71-3.8-6.7-7.5l0.08-29.7
							c0.01-3.7,3.03-8.75,6.74-8.79l0.31,0c3.71-0.04,6.7,4.86,6.69,8.55L1421.09,2425.09z"/>
					</g>
				</g>
				<g>
					
						<linearGradient id="SVGID_36_" gradientUnits="userSpaceOnUse" x1="6168.6509" y1="-3665.0059" x2="6159.311" y2="-3452.0559" gradientTransform="matrix(0 1 -1 0 -2239 -3789)">
						<stop  offset="0" style="stop-color:#311944"/>
						<stop  offset="1" style="stop-color:#A03976"/>
					</linearGradient>
					<path class="st41" d="M1407.67,2377.77c0,3.7-3.12,6.77-6.84,6.84l-26.52,0.47c-3.73,0.06-5.36-2.89-5.36-6.6v-0.31
						c0-3.71,1.61-6.77,5.34-6.82l27.28-0.46c3.72-0.06,6.08,2.87,6.08,6.58V2377.77z"/>
					<g>
						
							<linearGradient id="SVGID_37_" gradientUnits="userSpaceOnUse" x1="6110.9561" y1="-3665.0139" x2="6101.6143" y2="-3452.021" gradientTransform="matrix(0 1 -1 0 -2239 -3789)">
							<stop  offset="0" style="stop-color:#311944"/>
							<stop  offset="1" style="stop-color:#A03976"/>
						</linearGradient>
						<path class="st42" d="M1407.67,2320.17c0,3.7-3.04,6.76-6.76,6.81l-26.56,0.35c-3.73,0.05-5.39-2.92-5.39-6.64v-0.31
							c0-3.71,1.68-6.75,5.42-6.79l27.25-0.34c3.72-0.04,6.04,2.91,6.04,6.61V2320.17z"/>
						
							<linearGradient id="SVGID_38_" gradientUnits="userSpaceOnUse" x1="6229.1602" y1="-3666.4062" x2="6219.1055" y2="-3437.1648" gradientTransform="matrix(0 1 -1 0 -2239 -3789)">
							<stop  offset="0" style="stop-color:#311944"/>
							<stop  offset="1" style="stop-color:#A03976"/>
						</linearGradient>
						<path class="st43" d="M1407.67,2438.09c0,3.7-3.2,6.78-6.92,6.86l-27.96,0.58c-3.73,0.08-6.8-2.87-6.8-6.58v-0.31
							c0-3.71,3.02-6.76,6.75-6.83l28.06-0.57c3.71-0.07,6.87,2.85,6.87,6.55V2438.09z"/>
					</g>
				</g>
			</g>
			<path class="st44" d="M1192.76,3128.03c-2.33,13.11-6.18,26.33-11.95,38.77c-2.05,4.42-4.37,9.02-6.92,13.72l-314.07,23.01
				c-42.8,3.14-79.5-28.1-79.5-69.12l0.11-838c0.01-37.91,30.42-69.4,68.51-74.47c0.93,0.27,2.3,0.56,3.24,0.85
				c40.17,12.4,84.05,35.58,110.3,78.97c16.42,27.11,26.19,62.19,24,107.65c-0.56,11.75-1.86,24.21-4.1,37.42
				c-1.3,7.67-2.6,15.51-3.93,23.5c-1.66,9.98-3.29,20.18-4.88,30.56c-2.53,16.61-4.85,33.65-6.72,50.87
				c-1.79,16.51-3.14,33.19-3.83,49.83c-0.12,3.21-0.23,6.44-0.31,9.65c-0.26,10.41-0.24,20.77,0.14,31.04
				c0.25,7.04,0.67,14.02,1.26,20.95c3.34,39,12.35,76.2,30.43,108.67c13.68,24.54,34.28,43.43,55.93,60.93
				c5.72,4.61,11.5,9.14,17.26,13.65c19.75,15.47,38.58,31.52,55.35,49.49c0.41,0.44,0.83,0.89,1.23,1.33
				c8.12,8.8,15.75,18.07,22.75,27.96c7.78,10.99,14.31,22.59,19.77,34.67c2.11,4.64,4.06,9.37,5.86,14.15
				c3.11,8.21,5.79,16.64,8.13,25.23c1.05,3.85,2.08,7.77,3.06,11.73c0.05,0.15,0.09,0.3,0.12,0.46
				c3.95,15.71,7.36,32.12,9.46,48.77C1196.3,3082.79,1196.72,3105.75,1192.76,3128.03z"/>
			<g>
				<g>
					<g>
						<linearGradient id="SVGID_39_" gradientUnits="userSpaceOnUse" x1="1500.6768" y1="2298.2334" x2="387.0732" y2="2917.7212">
							<stop  offset="0" style="stop-color:#444B8C"/>
							<stop  offset="0.9964" style="stop-color:#3E4177"/>
						</linearGradient>
						<path class="st45" d="M964.26,2651.17c-0.01,8.28-6.97,15.24-15.57,15.55l-104.58,3.77c-8.73,0.31-15.82-6.21-15.82-14.56
							l0.01-38.17c0-8.36,7.09-15.36,15.83-15.63l104.61-3.27c8.6-0.27,15.55,6.23,15.55,14.51L964.26,2651.17z"/>
						<linearGradient id="SVGID_40_" gradientUnits="userSpaceOnUse" x1="1530.4135" y1="2371.7527" x2="440.9098" y2="2977.834">
							<stop  offset="0" style="stop-color:#444B8C"/>
							<stop  offset="0.9964" style="stop-color:#3E4177"/>
						</linearGradient>
						<path class="st46" d="M1134.93,2645.2c-0.01,8.18-6.82,15.05-15.21,15.36l-102.08,3.68c-8.52,0.31-15.43-6.14-15.42-14.39
							l0.04-37.71c0.01-8.26,6.93-15.17,15.46-15.44l102.1-3.19c8.39-0.26,15.18,6.16,15.17,14.34L1134.93,2645.2z"/>
						<linearGradient id="SVGID_41_" gradientUnits="userSpaceOnUse" x1="1556.6267" y1="2442.1396" x2="489.6139" y2="3035.7095">
							<stop  offset="0" style="stop-color:#444B8C"/>
							<stop  offset="0.9964" style="stop-color:#3E4177"/>
						</linearGradient>
						<path class="st47" d="M1295.96,2639.57c-0.02,8.09-6.67,14.88-14.87,15.18l-99.74,3.59c-8.33,0.3-15.07-6.07-15.06-14.23
							l0.06-37.27c0.01-8.16,6.78-14.99,15.11-15.26l99.76-3.12c8.2-0.26,14.83,6.09,14.81,14.18L1295.96,2639.57z"/>
						<linearGradient id="SVGID_42_" gradientUnits="userSpaceOnUse" x1="1589.9899" y1="2509.4934" x2="545.4764" y2="3090.5469">
							<stop  offset="0" style="stop-color:#444B8C"/>
							<stop  offset="0.9964" style="stop-color:#3E4177"/>
						</linearGradient>
						<path class="st48" d="M1458.8,2633.88c-0.02,7.99-6.53,14.7-14.53,14.99l-97.4,3.51c-8.13,0.29-14.71-6.01-14.69-14.07
							l0.09-36.83c0.02-8.07,6.64-14.82,14.77-15.07l97.43-3.04c8.01-0.25,14.48,6.03,14.45,14.02L1458.8,2633.88z"/>
					</g>
					<g>
						<linearGradient id="SVGID_43_" gradientUnits="userSpaceOnUse" x1="1556.0067" y1="2389.3962" x2="438.781" y2="3010.8992">
							<stop  offset="0" style="stop-color:#444B8C"/>
							<stop  offset="0.9964" style="stop-color:#3E4177"/>
						</linearGradient>
						<path class="st49" d="M964.15,2772.56c-0.01,8.27-6.97,15.28-15.56,15.67l-104.53,4.66c-8.73,0.39-15.81-6.06-15.81-14.41
							l0.01-38.13c0-8.35,7.09-15.41,15.82-15.75l104.56-4.16c8.59-0.34,15.55,6.09,15.54,14.36L964.15,2772.56z"/>
						<linearGradient id="SVGID_44_" gradientUnits="userSpaceOnUse" x1="1584.0376" y1="2462.3501" x2="490.9902" y2="3070.4026">
							<stop  offset="0" style="stop-color:#444B8C"/>
							<stop  offset="0.9964" style="stop-color:#3E4177"/>
						</linearGradient>
						<path class="st50" d="M1134.74,2765.14c-0.01,8.17-6.81,15.1-15.2,15.47l-102.03,4.55c-8.52,0.38-15.42-6-15.42-14.25
							l0.04-37.67c0.01-8.25,6.93-15.22,15.45-15.56l102.05-4.06c8.39-0.33,15.17,6.02,15.16,14.2L1134.74,2765.14z"/>
						<linearGradient id="SVGID_45_" gradientUnits="userSpaceOnUse" x1="1608.6498" y1="2532.1997" x2="538.1685" y2="3127.699">
							<stop  offset="0" style="stop-color:#444B8C"/>
							<stop  offset="0.9964" style="stop-color:#3E4177"/>
						</linearGradient>
						<path class="st51" d="M1295.69,2758.14c-0.02,8.08-6.67,14.92-14.86,15.29l-99.69,4.44c-8.32,0.37-15.07-5.94-15.05-14.09
							l0.06-37.24c0.01-8.16,6.78-15.04,15.11-15.37l99.72-3.97c8.2-0.33,14.82,5.96,14.8,14.04L1295.69,2758.14z"/>
						<linearGradient id="SVGID_46_" gradientUnits="userSpaceOnUse" x1="1640.4319" y1="2598.99" x2="592.5234" y2="3181.9321">
							<stop  offset="0" style="stop-color:#444B8C"/>
							<stop  offset="0.9964" style="stop-color:#3E4177"/>
						</linearGradient>
						<path class="st52" d="M1458.46,2751.05c-0.02,7.98-6.52,14.74-14.53,15.1l-97.36,4.34c-8.13,0.36-14.71-5.88-14.69-13.93
							l0.09-36.8c0.02-8.06,6.63-14.86,14.76-15.18l97.38-3.88c8.01-0.32,14.47,5.9,14.45,13.89L1458.46,2751.05z"/>
					</g>
					<g>
						<linearGradient id="SVGID_47_" gradientUnits="userSpaceOnUse" x1="1611.626" y1="2477.4446" x2="490.8685" y2="3100.9121">
							<stop  offset="0" style="stop-color:#444B8C"/>
							<stop  offset="0.9964" style="stop-color:#3E4177"/>
						</linearGradient>
						<path class="st53" d="M964.05,2891c-0.01,8.26-6.97,15.33-15.55,15.78l-104.48,5.52c-8.72,0.46-15.8-5.93-15.8-14.27
							l0.01-38.09c0-8.34,7.09-15.45,15.81-15.87l104.51-5.03c8.59-0.41,15.54,5.95,15.53,14.22L964.05,2891z"/>
						<linearGradient id="SVGID_48_" gradientUnits="userSpaceOnUse" x1="1637.9591" y1="2549.8662" x2="541.4578" y2="3159.8403">
							<stop  offset="0" style="stop-color:#444B8C"/>
							<stop  offset="0.9964" style="stop-color:#3E4177"/>
						</linearGradient>
						<path class="st54" d="M1134.55,2882.17c-0.01,8.16-6.81,15.14-15.19,15.58l-101.98,5.39c-8.51,0.45-15.42-5.86-15.41-14.1
							l0.04-37.63c0.01-8.24,6.93-15.26,15.44-15.67l102.01-4.91c8.38-0.4,15.16,5.89,15.15,14.06L1134.55,2882.17z"/>
						<linearGradient id="SVGID_49_" gradientUnits="userSpaceOnUse" x1="1660.9758" y1="2619.2114" x2="587.112" y2="3216.5925">
							<stop  offset="0" style="stop-color:#444B8C"/>
							<stop  offset="0.9964" style="stop-color:#3E4177"/>
						</linearGradient>
						<path class="st55" d="M1295.43,2873.83c-0.02,8.07-6.67,14.96-14.86,15.4l-99.65,5.27c-8.32,0.44-15.06-5.81-15.04-13.95
							l0.06-37.2c0.01-8.15,6.78-15.08,15.1-15.48l99.67-4.8c8.19-0.39,14.81,5.83,14.8,13.91L1295.43,2873.83z"/>
						<linearGradient id="SVGID_50_" gradientUnits="userSpaceOnUse" x1="1691.181" y1="2685.4727" x2="639.9629" y2="3270.2559">
							<stop  offset="0" style="stop-color:#444B8C"/>
							<stop  offset="0.9964" style="stop-color:#3E4177"/>
						</linearGradient>
						<path class="st56" d="M1458.13,2865.4c-0.02,7.98-6.52,14.78-14.52,15.21l-97.31,5.15c-8.12,0.43-14.7-5.75-14.68-13.8
							l0.09-36.76c0.02-8.05,6.63-14.9,14.75-15.29l97.34-4.68c8-0.39,14.46,5.77,14.44,13.75L1458.13,2865.4z"/>
					</g>
					<linearGradient id="SVGID_51_" gradientUnits="userSpaceOnUse" x1="1667.5226" y1="2562.3933" x2="543.324" y2="3187.7749">
						<stop  offset="0" style="stop-color:#444B8C"/>
						<stop  offset="0.9964" style="stop-color:#3E4177"/>
					</linearGradient>
					<path class="st57" d="M963.94,3006.52c-0.01,8.25-6.96,15.37-15.55,15.89l-104.43,6.37c-8.72,0.53-15.79-5.79-15.79-14.12
						l0.01-38.06c0-8.34,7.08-15.49,15.81-15.98l104.46-5.88c8.59-0.48,15.53,5.82,15.52,14.08L963.94,3006.52z"/>
					<linearGradient id="SVGID_52_" gradientUnits="userSpaceOnUse" x1="1692.1639" y1="2634.3176" x2="592.2964" y2="3246.1643">
						<stop  offset="0" style="stop-color:#444B8C"/>
						<stop  offset="0.9964" style="stop-color:#3E4177"/>
					</linearGradient>
					<path class="st58" d="M1134.37,2996.3c-0.01,8.16-6.81,15.18-15.19,15.69l-101.93,6.22c-8.51,0.52-15.41-5.73-15.4-13.97
						l0.04-37.6c0.01-8.24,6.92-15.3,15.44-15.78l101.96-5.74c8.38-0.47,15.16,5.76,15.14,13.92L1134.37,2996.3z"/>
					<linearGradient id="SVGID_53_" gradientUnits="userSpaceOnUse" x1="1713.5938" y1="2703.1895" x2="636.4337" y2="3302.4041">
						<stop  offset="0" style="stop-color:#444B8C"/>
						<stop  offset="0.9964" style="stop-color:#3E4177"/>
					</linearGradient>
					<path class="st59" d="M1295.18,2986.66c-0.02,8.06-6.66,15-14.85,15.5l-99.6,6.08c-8.32,0.51-15.05-5.68-15.04-13.82
						l0.06-37.17c0.01-8.14,6.78-15.12,15.09-15.59l99.63-5.6c8.19-0.46,14.81,5.71,14.79,13.77L1295.18,2986.66z"/>
					<linearGradient id="SVGID_54_" gradientUnits="userSpaceOnUse" x1="1723.9248" y1="2655.429" x2="596.0397" y2="3282.8613">
						<stop  offset="0" style="stop-color:#444B8C"/>
						<stop  offset="0.9964" style="stop-color:#3E4177"/>
					</linearGradient>
					<path class="st60" d="M963.83,3130.36c-0.01,8.25-6.96,15.42-15.54,16.01l-104.38,7.28c-8.72,0.61-15.79-5.65-15.78-13.97
						l0.01-38.02c0-8.33,7.08-15.54,15.8-16.11l104.41-6.78c8.58-0.56,15.52,5.68,15.52,13.93L963.83,3130.36z"/>
					<linearGradient id="SVGID_55_" gradientUnits="userSpaceOnUse" x1="1746.8276" y1="2726.7795" x2="643.3537" y2="3340.6323">
						<stop  offset="0" style="stop-color:#444B8C"/>
						<stop  offset="0.9964" style="stop-color:#3E4177"/>
					</linearGradient>
					<path class="st61" d="M1134.17,3118.67c-0.01,8.15-6.81,15.23-15.18,15.81l-101.88,7.1c-8.51,0.59-15.4-5.59-15.39-13.82
						l0.04-37.56c0.01-8.23,6.92-15.35,15.43-15.9l101.91-6.62c8.38-0.54,15.15,5.62,15.14,13.77L1134.17,3118.67z"/>
					<linearGradient id="SVGID_56_" gradientUnits="userSpaceOnUse" x1="1766.6261" y1="2795.106" x2="685.9349" y2="3396.2849">
						<stop  offset="0" style="stop-color:#444B8C"/>
						<stop  offset="0.9964" style="stop-color:#3E4177"/>
					</linearGradient>
					<path class="st62" d="M1294.91,3107.63c-0.02,8.05-6.66,15.05-14.84,15.62l-99.55,6.94c-8.31,0.58-15.04-5.54-15.03-13.67
						l0.06-37.13c0.01-8.13,6.77-15.16,15.09-15.7l99.58-6.47c8.19-0.53,14.8,5.57,14.78,13.63L1294.91,3107.63z"/>
					<linearGradient id="SVGID_57_" gradientUnits="userSpaceOnUse" x1="1766.6001" y1="2814.9775" x2="712.6544" y2="3401.2781">
						<stop  offset="0" style="stop-color:#444B8C"/>
						<stop  offset="0.9964" style="stop-color:#3E4177"/>
					</linearGradient>
					<path class="st63" d="M1442.98,2926.92l-97.3,5.47c-8.12,0.46-14.24,9.54-14.26,17.58l-0.05,20.69l-0.04,17.27l-0.19,77.99
						l-0.06,22.94l-0.04,14.99c-0.02,8.03,6.05,15.42,14.17,14.85l97.23-6.78c7.99-0.56,14.98-8.78,15-16.74l0.04-14.85l0.07-22.73
						l0.23-77.28l0.05-17.12l0.06-20.5C1457.93,2934.74,1450.98,2926.47,1442.98,2926.92z"/>
				</g>
				<g>
					<g>
						<linearGradient id="SVGID_58_" gradientUnits="userSpaceOnUse" x1="905.4418" y1="2560.1692" x2="887.0339" y2="2979.8638">
							<stop  offset="0" style="stop-color:#444B8C"/>
							<stop  offset="0.9964" style="stop-color:#26264F"/>
						</linearGradient>
						<path class="st64" d="M970.11,2650.97c-0.01,8.28-6.97,15.23-15.56,15.54l-104.5,3.76c-8.73,0.31-15.8-6.2-15.8-14.56
							l0.01-38.15c0-8.36,7.09-15.35,15.82-15.63l104.52-3.27c8.59-0.27,15.54,6.23,15.53,14.5L970.11,2650.97z"/>
						<linearGradient id="SVGID_59_" gradientUnits="userSpaceOnUse" x1="1071.8003" y1="2555.5254" x2="1053.629" y2="2969.824">
							<stop  offset="0" style="stop-color:#444B8C"/>
							<stop  offset="0.9964" style="stop-color:#26264F"/>
						</linearGradient>
						<path class="st65" d="M1134.93,2645.2c-0.01,8.18-6.82,15.05-15.21,15.36l-102.08,3.68c-8.52,0.31-15.43-6.14-15.42-14.39
							l0.04-37.71c0.01-8.26,6.93-15.17,15.46-15.44l102.1-3.19c8.39-0.26,15.18,6.16,15.17,14.34L1134.93,2645.2z"/>
						<linearGradient id="SVGID_60_" gradientUnits="userSpaceOnUse" x1="1239.9614" y1="2550.8291" x2="1222.0288" y2="2959.6858">
							<stop  offset="0" style="stop-color:#444B8C"/>
							<stop  offset="0.9964" style="stop-color:#26264F"/>
						</linearGradient>
						<path class="st66" d="M1301.54,2639.38c-0.02,8.08-6.67,14.87-14.86,15.17l-99.66,3.59c-8.32,0.3-15.06-6.07-15.05-14.23
							l0.06-37.26c0.01-8.16,6.78-14.99,15.1-15.25l99.68-3.11c8.19-0.26,14.82,6.09,14.8,14.18L1301.54,2639.38z"/>
						<linearGradient id="SVGID_61_" gradientUnits="userSpaceOnUse" x1="1404.1617" y1="2546.2415" x2="1386.4618" y2="2949.7957">
							<stop  offset="0" style="stop-color:#444B8C"/>
							<stop  offset="0.9964" style="stop-color:#26264F"/>
						</linearGradient>
						<path class="st67" d="M1464.26,2633.69c-0.02,7.99-6.52,14.7-14.52,14.99l-97.32,3.51c-8.12,0.29-14.7-6.01-14.68-14.07
							l0.09-36.82c0.02-8.06,6.63-14.81,14.76-15.06l97.35-3.04c8-0.25,14.47,6.03,14.44,14.02L1464.26,2633.69z"/>
					</g>
					<g>
						<linearGradient id="SVGID_62_" gradientUnits="userSpaceOnUse" x1="905.4005" y1="2681.281" x2="886.7892" y2="3105.6121">
							<stop  offset="0" style="stop-color:#444B8C"/>
							<stop  offset="0.9964" style="stop-color:#26264F"/>
						</linearGradient>
						<path class="st68" d="M970,2772.3c-0.01,8.27-6.97,15.28-15.55,15.66l-104.44,4.65c-8.72,0.39-15.8-6.06-15.79-14.41
							l0.01-38.11c0-8.35,7.09-15.4,15.81-15.75l104.47-4.16c8.59-0.34,15.53,6.09,15.53,14.36L970,2772.3z"/>
						<linearGradient id="SVGID_63_" gradientUnits="userSpaceOnUse" x1="1071.6768" y1="2675.2393" x2="1053.3069" y2="3094.0657">
							<stop  offset="0" style="stop-color:#444B8C"/>
							<stop  offset="0.9964" style="stop-color:#26264F"/>
						</linearGradient>
						<path class="st69" d="M1134.74,2765.14c-0.01,8.17-6.81,15.1-15.2,15.47l-102.03,4.55c-8.52,0.38-15.42-6-15.42-14.25
							l0.04-37.67c0.01-8.25,6.93-15.22,15.45-15.56l102.05-4.06c8.39-0.33,15.17,6.02,15.16,14.2L1134.74,2765.14z"/>
						<linearGradient id="SVGID_64_" gradientUnits="userSpaceOnUse" x1="1239.7568" y1="2669.1294" x2="1221.6304" y2="3082.4055">
							<stop  offset="0" style="stop-color:#444B8C"/>
							<stop  offset="0.9964" style="stop-color:#26264F"/>
						</linearGradient>
						<path class="st70" d="M1301.28,2757.89c-0.02,8.08-6.66,14.92-14.85,15.28l-99.61,4.44c-8.32,0.37-15.05-5.94-15.04-14.09
							l0.06-37.22c0.01-8.15,6.78-15.03,15.09-15.36l99.64-3.96c8.19-0.33,14.81,5.96,14.79,14.04L1301.28,2757.89z"/>
						<linearGradient id="SVGID_65_" gradientUnits="userSpaceOnUse" x1="1403.8799" y1="2663.1611" x2="1385.9906" y2="3071.0308">
							<stop  offset="0" style="stop-color:#444B8C"/>
							<stop  offset="0.9964" style="stop-color:#26264F"/>
						</linearGradient>
						<path class="st71" d="M1463.91,2750.82c-0.02,7.98-6.52,14.74-14.52,15.09l-97.28,4.33c-8.12,0.36-14.7-5.87-14.68-13.93
							l0.09-36.78c0.02-8.06,6.63-14.85,14.75-15.17l97.3-3.87c8-0.32,14.46,5.9,14.44,13.88L1463.91,2750.82z"/>
					</g>
					<g>
						<linearGradient id="SVGID_66_" gradientUnits="userSpaceOnUse" x1="905.3604" y1="2799.4578" x2="886.5502" y2="3228.321">
							<stop  offset="0" style="stop-color:#444B8C"/>
							<stop  offset="0.9964" style="stop-color:#26264F"/>
						</linearGradient>
						<path class="st72" d="M969.89,2890.7c-0.01,8.26-6.96,15.32-15.54,15.78L849.96,2912c-8.72,0.46-15.79-5.92-15.79-14.26
							l0.01-38.08c0-8.34,7.08-15.44,15.8-15.86l104.42-5.03c8.58-0.41,15.53,5.95,15.52,14.21L969.89,2890.7z"/>
						<linearGradient id="SVGID_67_" gradientUnits="userSpaceOnUse" x1="1071.5564" y1="2792.0532" x2="1052.9923" y2="3215.3059">
							<stop  offset="0" style="stop-color:#444B8C"/>
							<stop  offset="0.9964" style="stop-color:#26264F"/>
						</linearGradient>
						<path class="st73" d="M1134.55,2882.17c-0.01,8.16-6.81,15.14-15.19,15.58l-101.98,5.39c-8.51,0.45-15.42-5.86-15.41-14.1
							l0.04-37.63c0.01-8.24,6.93-15.26,15.44-15.67l102.01-4.91c8.38-0.4,15.16,5.89,15.15,14.06L1134.55,2882.17z"/>
						<linearGradient id="SVGID_68_" gradientUnits="userSpaceOnUse" x1="1239.5571" y1="2784.5654" x2="1221.2412" y2="3202.1621">
							<stop  offset="0" style="stop-color:#444B8C"/>
							<stop  offset="0.9964" style="stop-color:#26264F"/>
						</linearGradient>
						<path class="st74" d="M1301.01,2873.54c-0.02,8.07-6.66,14.96-14.85,15.39l-99.56,5.27c-8.31,0.44-15.05-5.8-15.03-13.95
							l0.06-37.18c0.01-8.15,6.77-15.07,15.09-15.47l99.59-4.79c8.19-0.39,14.8,5.83,14.78,13.9L1301.01,2873.54z"/>
						<linearGradient id="SVGID_69_" gradientUnits="userSpaceOnUse" x1="1403.6049" y1="2777.2515" x2="1385.5306" y2="3189.3396">
							<stop  offset="0" style="stop-color:#444B8C"/>
							<stop  offset="0.9964" style="stop-color:#26264F"/>
						</linearGradient>
						<path class="st75" d="M1463.58,2865.11c-0.02,7.97-6.52,14.78-14.51,15.2l-97.24,5.14c-8.12,0.43-14.69-5.74-14.67-13.79
							l0.09-36.75c0.02-8.05,6.62-14.89,14.74-15.28l97.26-4.68c8-0.38,14.45,5.77,14.43,13.75L1463.58,2865.11z"/>
					</g>
					<linearGradient id="SVGID_70_" gradientUnits="userSpaceOnUse" x1="905.3212" y1="2914.7085" x2="886.3169" y2="3347.9988">
						<stop  offset="0" style="stop-color:#444B8C"/>
						<stop  offset="0.9964" style="stop-color:#26264F"/>
					</linearGradient>
					<path class="st76" d="M969.79,3006.17c-0.01,8.25-6.96,15.36-15.53,15.89l-104.34,6.37c-8.71,0.53-15.78-5.79-15.78-14.12
						l0.01-38.04c0-8.33,7.08-15.49,15.79-15.98l104.37-5.87c8.58-0.48,15.52,5.82,15.51,14.07L969.79,3006.17z"/>
					<linearGradient id="SVGID_71_" gradientUnits="userSpaceOnUse" x1="1071.439" y1="2905.9761" x2="1052.6853" y2="3333.5525">
						<stop  offset="0" style="stop-color:#444B8C"/>
						<stop  offset="0.9964" style="stop-color:#26264F"/>
					</linearGradient>
					<path class="st77" d="M1134.37,2996.3c-0.01,8.16-6.81,15.18-15.19,15.69l-101.93,6.22c-8.51,0.52-15.41-5.73-15.4-13.97
						l0.04-37.6c0.01-8.24,6.92-15.3,15.44-15.78l101.96-5.74c8.38-0.47,15.16,5.76,15.14,13.92L1134.37,2996.3z"/>
					<linearGradient id="SVGID_72_" gradientUnits="userSpaceOnUse" x1="1239.3625" y1="2897.1458" x2="1220.8616" y2="3318.9631">
						<stop  offset="0" style="stop-color:#444B8C"/>
						<stop  offset="0.9964" style="stop-color:#26264F"/>
					</linearGradient>
					<path class="st78" d="M1300.76,2986.33c-0.02,8.06-6.66,15-14.84,15.5l-99.52,6.07c-8.31,0.51-15.04-5.68-15.03-13.81
						l0.06-37.15c0.01-8.14,6.77-15.11,15.08-15.58l99.55-5.6c8.18-0.46,14.8,5.7,14.78,13.77L1300.76,2986.33z"/>
					<linearGradient id="SVGID_73_" gradientUnits="userSpaceOnUse" x1="905.2792" y1="3038.2686" x2="886.0665" y2="3476.3132">
						<stop  offset="0" style="stop-color:#444B8C"/>
						<stop  offset="0.9964" style="stop-color:#26264F"/>
					</linearGradient>
					<path class="st79" d="M969.67,3129.96c-0.01,8.24-6.95,15.41-15.53,16.01l-104.29,7.27c-8.71,0.61-15.77-5.65-15.77-13.97
						l0.01-38c0-8.32,7.07-15.53,15.79-16.1l104.32-6.78c8.57-0.56,15.51,5.68,15.5,13.92L969.67,3129.96z"/>
					<linearGradient id="SVGID_74_" gradientUnits="userSpaceOnUse" x1="1071.3131" y1="3028.114" x2="1052.3558" y2="3460.3342">
						<stop  offset="0" style="stop-color:#444B8C"/>
						<stop  offset="0.9964" style="stop-color:#26264F"/>
					</linearGradient>
					<path class="st80" d="M1134.17,3118.67c-0.01,8.15-6.81,15.23-15.18,15.81l-101.88,7.1c-8.51,0.59-15.4-5.59-15.39-13.82
						l0.04-37.56c0.01-8.23,6.92-15.35,15.43-15.9l101.91-6.62c8.38-0.54,15.15,5.62,15.14,13.77L1134.17,3118.67z"/>
					<linearGradient id="SVGID_75_" gradientUnits="userSpaceOnUse" x1="1239.1539" y1="3017.8459" x2="1220.4541" y2="3444.1956">
						<stop  offset="0" style="stop-color:#444B8C"/>
						<stop  offset="0.9964" style="stop-color:#26264F"/>
					</linearGradient>
					<path class="st81" d="M1300.48,3107.25c-0.02,8.05-6.66,15.04-14.83,15.61l-99.47,6.93c-8.3,0.58-15.03-5.54-15.02-13.67
						l0.06-37.11c0.01-8.13,6.77-15.16,15.07-15.7l99.5-6.46c8.18-0.53,14.79,5.57,14.77,13.62L1300.48,3107.25z"/>
					<linearGradient id="SVGID_76_" gradientUnits="userSpaceOnUse" x1="1408.3031" y1="2831.4702" x2="1360.9808" y2="3910.4031">
						<stop  offset="0" style="stop-color:#444B8C"/>
						<stop  offset="0.9964" style="stop-color:#26264F"/>
					</linearGradient>
					<path class="st82" d="M1448.64,2926.61l-97.22,5.47c-8.12,0.46-14.43,9.54-14.44,17.59l-0.05,20.68l-0.04,17.27l-0.19,77.96
						l-0.06,22.93l-0.04,14.98c-0.02,8.03,6.25,15.4,14.35,14.83l97.15-6.77c7.99-0.56,14.77-8.76,14.79-16.72l0.04-14.84
						l0.07-22.72l0.23-77.25l0.05-17.11l0.06-20.49C1463.37,2934.43,1456.63,2926.16,1448.64,2926.61z"/>
				</g>
			</g>
		</g>
		<g>
			<linearGradient id="SVGID_77_" gradientUnits="userSpaceOnUse" x1="953.3093" y1="1876.2667" x2="660.8239" y2="1970.134">
				<stop  offset="0" style="stop-color:#FCB148"/>
				<stop  offset="0.0521" style="stop-color:#FDBA46"/>
				<stop  offset="0.1424" style="stop-color:#FFC244"/>
				<stop  offset="0.3183" style="stop-color:#FFC444"/>
				<stop  offset="0.4849" style="stop-color:#FDB946"/>
				<stop  offset="0.7754" style="stop-color:#F99C4D"/>
				<stop  offset="0.8658" style="stop-color:#F8924F"/>
				<stop  offset="1" style="stop-color:#F8924F"/>
			</linearGradient>
			<path class="st83" d="M1290.02,1865.65c0,135.69-106.1,242.43-241.71,238.26c-141.13-4.33-259.82-126.22-259.82-272.07
				c0-145.86,118.69-251.74,259.82-237.04C1183.92,1608.92,1290.02,1729.97,1290.02,1865.65z"/>
			<linearGradient id="SVGID_78_" gradientUnits="userSpaceOnUse" x1="1189.913" y1="1585.1268" x2="928.8" y2="2161.1907">
				<stop  offset="0" style="stop-color:#FFDB44"/>
				<stop  offset="1" style="stop-color:#FEEF06"/>
			</linearGradient>
			<path class="st84" d="M1326.67,1853.95c0,135.69-106.1,242.43-241.71,238.26c-141.13-4.33-259.82-126.22-259.82-272.07
				c0-145.86,118.69-251.74,259.82-237.04C1220.57,1597.22,1326.67,1718.27,1326.67,1853.95z"/>
			<linearGradient id="SVGID_79_" gradientUnits="userSpaceOnUse" x1="1141.8811" y1="2193.387" x2="1091.4989" y2="1918.1504">
				<stop  offset="0" style="stop-color:#FCB148"/>
				<stop  offset="0.0521" style="stop-color:#FDBA46"/>
				<stop  offset="0.1424" style="stop-color:#FFC244"/>
				<stop  offset="0.3183" style="stop-color:#FFC444"/>
				<stop  offset="0.4849" style="stop-color:#FDB946"/>
				<stop  offset="0.7754" style="stop-color:#F99C4D"/>
				<stop  offset="0.8658" style="stop-color:#F8924F"/>
				<stop  offset="1" style="stop-color:#F8924F"/>
			</linearGradient>
			<path class="st85" d="M1316.02,1853.24c0,129.71-101.52,231.58-231.06,227.38c-134.57-4.36-247.56-120.68-247.56-259.65
				c0-138.97,112.99-240.06,247.56-226.27C1214.5,1607.97,1316.02,1723.52,1316.02,1853.24z"/>
			<linearGradient id="SVGID_80_" gradientUnits="userSpaceOnUse" x1="1035.0609" y1="1747.8862" x2="1242.693" y2="2188.6494">
				<stop  offset="0" style="stop-color:#FCB148"/>
				<stop  offset="0.0521" style="stop-color:#FDBA46"/>
				<stop  offset="0.1424" style="stop-color:#FFC244"/>
				<stop  offset="0.3183" style="stop-color:#FFC444"/>
				<stop  offset="0.4849" style="stop-color:#FDB946"/>
				<stop  offset="0.7754" style="stop-color:#F99C4D"/>
				<stop  offset="0.8658" style="stop-color:#F8924F"/>
				<stop  offset="1" style="stop-color:#F8924F"/>
			</linearGradient>
			<path class="st86" d="M1308.4,1852.72c0,125.43-98.23,223.82-223.44,219.61c-129.9-4.36-238.83-116.71-238.83-250.78
				s108.93-231.73,238.83-218.58C1210.17,1615.66,1308.4,1727.29,1308.4,1852.72z"/>
			<g>
				<linearGradient id="SVGID_81_" gradientUnits="userSpaceOnUse" x1="1026.7888" y1="1653.0397" x2="1131.1935" y2="2044.3297">
					<stop  offset="0" style="stop-color:#FFDB44"/>
					<stop  offset="1" style="stop-color:#FEEF06"/>
				</linearGradient>
				<path class="st87" d="M1083.68,1645.65L1083.68,1645.65c6.66,0.63,12.06,6.63,12.06,13.4v23.09c13.32,1.49,26.66,3.8,40.03,6.94
					c9.85,2.32,19.64,5.07,29.36,8.27c5.82,1.91,9.79,7.79,9.2,13.86l-2.84,28.96c-0.75,7.68-8.35,12.2-15.5,9.01
					c-6.4-2.85-12.97-5.3-19.69-7.34c-11.74-3.55-24.12-5.87-37.15-6.94l-3.41-0.28v66.14c34.76,9.72,60.28,22.81,76.78,39.26
					c16.42,16.38,24.6,36.78,24.6,61.29c0,26.5-9.04,47.71-27.2,63.71c-18.25,16.09-43.85,25.13-76.95,27.09v25.49
					c0,6.77-5.4,12.04-12.07,11.78l-0.21-0.01c-6.68-0.27-12.11-5.99-12.11-12.78v-25.14l-5.37-0.24
					c-15.52-0.7-30.38-2.28-44.58-4.75c-10.52-1.83-20.78-4.19-30.8-7.08c-6.06-1.75-10.22-7.52-9.66-13.72l3.34-37.23
					c0.72-8.05,8.81-12.73,16.46-9.71c8.92,3.52,17.95,6.48,27.09,8.89c14.25,3.76,28.68,6.17,43.31,7.24l0.21-73.57
					c-33.36-8.26-58.34-20.48-74.75-36.68c-16.49-16.27-24.76-37.1-24.76-62.42c0-26.2,8.97-46.43,26.84-60.63
					c17.78-14.12,43.06-21.15,75.67-21.13v-23.61C1071.58,1650.01,1077,1645.02,1083.68,1645.65z M1071.58,1733.94
					c-10.31,0.75-18.35,3.58-24.11,8.5c-5.76,4.93-8.65,11.54-8.65,19.85c0,7.87,2.67,14.45,8,19.73
					c5.32,5.27,13.58,9.48,24.76,12.63V1733.94z M1092.96,1867.16v67.47c11.21,0.02,19.8-2.65,25.8-8.02
					c5.99-5.36,8.98-12.93,8.98-22.71c0-8.92-2.78-16.32-8.35-22.2C1113.83,1875.8,1105.02,1870.95,1092.96,1867.16z"/>
			</g>
			<linearGradient id="SVGID_82_" gradientUnits="userSpaceOnUse" x1="973.9763" y1="1776.4103" x2="1181.1896" y2="2216.2847">
				<stop  offset="0" style="stop-color:#FCB148"/>
				<stop  offset="0.0521" style="stop-color:#FDBA46"/>
				<stop  offset="0.1424" style="stop-color:#FFC244"/>
				<stop  offset="0.3183" style="stop-color:#FFC444"/>
				<stop  offset="0.4849" style="stop-color:#FDB946"/>
				<stop  offset="0.7754" style="stop-color:#F99C4D"/>
				<stop  offset="0.8658" style="stop-color:#F8924F"/>
				<stop  offset="1" style="stop-color:#F8924F"/>
			</linearGradient>
			<path class="st88" d="M1044.53,1883.44c7.55-74.56,76.07-106.13,67.13-174.71c-5.51-42.27-37.55-77.9-73.29-105.71
				c-108.41,11.37-192.24,101.13-192.24,218.54c0,134.07,108.93,246.42,238.83,250.78c12.61,0.42,24.93-0.23,36.91-1.8
				C1070.28,2019.2,1038.04,1947.5,1044.53,1883.44z"/>
		</g>
		<g>
			<linearGradient id="SVGID_83_" gradientUnits="userSpaceOnUse" x1="934.4332" y1="1222.8696" x2="588.9999" y2="1333.7296">
				<stop  offset="0" style="stop-color:#FCB148"/>
				<stop  offset="0.0521" style="stop-color:#FDBA46"/>
				<stop  offset="0.1424" style="stop-color:#FFC244"/>
				<stop  offset="0.3183" style="stop-color:#FFC444"/>
				<stop  offset="0.4849" style="stop-color:#FDB946"/>
				<stop  offset="0.7754" style="stop-color:#F99C4D"/>
				<stop  offset="0.8658" style="stop-color:#F8924F"/>
				<stop  offset="1" style="stop-color:#F8924F"/>
			</linearGradient>
			<path class="st89" d="M1332.1,1210.34c0,160.25-125.31,286.31-285.46,281.39c-166.67-5.12-306.85-149.07-306.85-321.33
				c0-172.26,140.18-297.31,306.85-279.95C1206.79,907.13,1332.1,1050.08,1332.1,1210.34z"/>
			<linearGradient id="SVGID_84_" gradientUnits="userSpaceOnUse" x1="1213.8687" y1="879.0256" x2="905.4872" y2="1559.3727">
				<stop  offset="0" style="stop-color:#FFDB44"/>
				<stop  offset="1" style="stop-color:#FEEF06"/>
			</linearGradient>
			<path class="st90" d="M1375.38,1196.52c0,160.25-125.31,286.31-285.46,281.39c-166.67-5.12-306.85-149.07-306.85-321.33
				c0-172.26,140.18-297.31,306.85-279.95C1250.07,893.31,1375.38,1036.27,1375.38,1196.52z"/>
			<linearGradient id="SVGID_85_" gradientUnits="userSpaceOnUse" x1="1157.1417" y1="1597.3973" x2="1097.6389" y2="1272.3354">
				<stop  offset="0" style="stop-color:#FCB148"/>
				<stop  offset="0.0521" style="stop-color:#FDBA46"/>
				<stop  offset="0.1424" style="stop-color:#FFC244"/>
				<stop  offset="0.3183" style="stop-color:#FFC444"/>
				<stop  offset="0.4849" style="stop-color:#FDB946"/>
				<stop  offset="0.7754" style="stop-color:#F99C4D"/>
				<stop  offset="0.8658" style="stop-color:#F8924F"/>
				<stop  offset="1" style="stop-color:#F8924F"/>
			</linearGradient>
			<path class="st91" d="M1362.81,1195.67c0,153.19-119.9,273.5-272.89,268.55c-158.93-5.15-292.38-142.52-292.38-306.65
				c0-164.13,133.44-283.52,292.38-267.23C1242.91,906,1362.81,1042.48,1362.81,1195.67z"/>
			<linearGradient id="SVGID_86_" gradientUnits="userSpaceOnUse" x1="1030.9841" y1="1071.2488" x2="1276.2032" y2="1591.8021">
				<stop  offset="0" style="stop-color:#FCB148"/>
				<stop  offset="0.0521" style="stop-color:#FDBA46"/>
				<stop  offset="0.1424" style="stop-color:#FFC244"/>
				<stop  offset="0.3183" style="stop-color:#FFC444"/>
				<stop  offset="0.4849" style="stop-color:#FDB946"/>
				<stop  offset="0.7754" style="stop-color:#F99C4D"/>
				<stop  offset="0.8658" style="stop-color:#F8924F"/>
				<stop  offset="1" style="stop-color:#F8924F"/>
			</linearGradient>
			<path class="st92" d="M1353.8,1195.06c0,148.14-116.01,264.34-263.89,259.37c-153.41-5.15-282.07-137.83-282.07-296.18
				c0-158.34,128.65-273.68,282.07-258.15C1237.79,915.09,1353.8,1046.92,1353.8,1195.06z"/>
			<g>
				<linearGradient id="SVGID_87_" gradientUnits="userSpaceOnUse" x1="1021.2146" y1="959.2324" x2="1144.5193" y2="1421.3566">
					<stop  offset="0" style="stop-color:#FFDB44"/>
					<stop  offset="1" style="stop-color:#FEEF06"/>
				</linearGradient>
				<path class="st93" d="M1088.4,950.51L1088.4,950.51c7.87,0.75,14.24,7.83,14.24,15.82v27.28c15.73,1.76,31.49,4.49,47.27,8.2
					c11.63,2.73,23.19,5.99,34.67,9.76c6.88,2.26,11.56,9.21,10.86,16.37l-3.35,34.2c-0.89,9.07-9.86,14.4-18.3,10.64
					c-7.56-3.37-15.31-6.26-23.26-8.66c-13.86-4.2-28.48-6.93-43.87-8.2l-4.02-0.33v78.11c41.05,11.48,71.2,26.94,90.68,46.37
					c19.39,19.34,29.05,43.44,29.05,72.38c0,31.29-10.68,56.35-32.12,75.25c-21.56,19-51.79,29.68-90.87,32v30.1
					c0,7.99-6.37,14.22-14.25,13.91l-0.25-0.01c-7.89-0.31-14.3-7.07-14.3-15.1v-29.7l-6.34-0.29c-18.32-0.83-35.88-2.7-52.65-5.61
					c-12.42-2.16-24.55-4.95-36.38-8.37c-7.16-2.07-12.07-8.89-11.41-16.21l3.94-43.97c0.85-9.5,10.4-15.03,19.44-11.47
					c10.53,4.16,21.2,7.66,32,10.5c16.82,4.44,33.88,7.28,51.16,8.55l0.25-86.89c-39.4-9.75-68.9-24.19-88.29-43.32
					c-19.47-19.22-29.24-43.81-29.24-73.72c0-30.95,10.59-54.84,31.7-71.6c21-16.68,50.86-24.98,89.37-24.96v-27.88
					C1074.11,955.65,1080.52,949.76,1088.4,950.51z M1074.11,1054.78c-12.18,0.89-21.67,4.23-28.47,10.04
					c-6.81,5.82-10.22,13.63-10.22,23.45c0,9.3,3.15,17.07,9.45,23.3c6.29,6.23,16.04,11.2,29.24,14.92V1054.78z M1099.37,1212.11
					v79.68c13.24,0.03,23.39-3.13,30.48-9.47c7.07-6.33,10.61-15.27,10.61-26.82c0-10.54-3.28-19.28-9.86-26.22
					C1124.01,1222.31,1113.61,1216.59,1099.37,1212.11z"/>
			</g>
			<linearGradient id="SVGID_88_" gradientUnits="userSpaceOnUse" x1="958.8416" y1="1104.9365" x2="1203.566" y2="1624.4401">
				<stop  offset="0" style="stop-color:#FCB148"/>
				<stop  offset="0.0521" style="stop-color:#FDBA46"/>
				<stop  offset="0.1424" style="stop-color:#FFC244"/>
				<stop  offset="0.3183" style="stop-color:#FFC444"/>
				<stop  offset="0.4849" style="stop-color:#FDB946"/>
				<stop  offset="0.7754" style="stop-color:#F99C4D"/>
				<stop  offset="0.8658" style="stop-color:#F8924F"/>
				<stop  offset="1" style="stop-color:#F8924F"/>
			</linearGradient>
			<path class="st94" d="M1042.16,1231.34c8.92-88.06,89.85-125.34,79.28-206.34c-6.51-49.92-44.35-92-86.56-124.85
				c-128.03,13.43-227.04,119.44-227.04,258.1c0,158.34,128.65,291.03,282.07,296.18c14.9,0.5,29.44-0.27,43.59-2.13
				C1072.58,1391.68,1034.5,1306.99,1042.16,1231.34z"/>
		</g>
	</g>
</g>
</svg>
