<?xml version="1.0" encoding="utf-8"?>
<!-- Generator: Adobe Illustrator 25.3.0, SVG Export Plug-In . SVG Version: 6.00 Build 0)  -->
<svg version="1.1" id="Layer_1" xmlns="http://www.w3.org/2000/svg" xmlns:xlink="http://www.w3.org/1999/xlink" x="0px" y="0px"
	 viewBox="0 0 485.7 488.6" style="enable-background:new 0 0 485.7 488.6;" xml:space="preserve">
<style type="text/css">
	.st0{clip-path:url(#SVGID_2_);fill:#FDE4C4;}
	.st1{clip-path:url(#SVGID_2_);}
	.st2{fill:#F4B9B8;}
	.st3{fill:#F7BFBC;}
	.st4{fill:#F9CDCA;}
	.st5{fill:#602826;}
	.st6{fill:#355769;}
	.st7{fill:#97C6B7;}
	.st8{fill:#84B2A3;}
	.st9{fill:#BBDDD5;}
	.st10{fill:#EE7067;}
	.st11{fill:#EB5A53;}
	.st12{fill:#203C49;}
	.st13{fill:#EA5554;}
	.st14{fill:#F29290;}
	.st15{fill:#FFFFFF;}
	.st16{fill:#F9B03D;}
</style>
<g>
	<g>
		<defs>
			<circle id="SVGID_1_" cx="243" cy="246.2" r="226.7"/>
		</defs>
		<clipPath id="SVGID_2_">
			<use xlink:href="#SVGID_1_"  style="overflow:visible;"/>
		</clipPath>
		<circle class="st0" cx="243" cy="246.2" r="226.7"/>
		<g class="st1">
			<g>
				<g>
					<g>
						<path class="st2" d="M490.3,808.5c0.2,2.3,0.2,4.6,0.2,6.8c-0.1,6.1-0.4,12.2-0.5,18.3c0,2.6,0,5.3,0.8,7.9
							c0.8,2.5,2.3,4.9,4.7,6.1c2.4,1.2,5.6,0.8,7.2-1.3c1.5-1.8,1.4-4.4,1.4-6.7c-0.1-3-0.2-6.1-0.3-9.1c-0.1-4.1-0.3-8.2-0.6-12.3
							c-0.7-8.3-2.3-17-7.5-23.6c-1.6-2.1-9.5-7.4-9.5-1.4c0,2.3,1.9,4.9,2.6,7.1C489.5,803,490.1,805.7,490.3,808.5z"/>
					</g>
					<g>
						<path class="st3" d="M495.1,812.4c0.2,2.3,0.2,4.6,0.2,6.8c-0.1,6.1-0.4,12.2-0.5,18.3c0,2.6,0,5.3,0.8,7.9
							c0.8,2.5,2.3,4.9,4.7,6.1c2.4,1.2,5.6,0.8,7.2-1.3c1.5-1.8,1.4-4.4,1.4-6.7c-0.1-3-0.2-6.1-0.3-9.1c-0.1-4.1-0.3-8.2-0.6-12.3
							c-0.7-8.3-2.3-17-7.5-23.6c-1.6-2.1-9.5-7.4-9.5-1.4c0,2.3,1.9,4.9,2.6,7.1C494.3,806.9,494.9,809.6,495.1,812.4z"/>
					</g>
					<g>
						<path class="st4" d="M435.3,728.3c0.7-3.5,11.4-6.2,16.1-13c15,8.8,40.3,56.8,46.5,69.5c4.2,8.6,8.6,17.4,10.4,26.9
							c1.9,10,2.3,20.1,2.8,30.3c0.1,1.6,0.2,3.2-0.4,4.7c-0.9,2.7-4.4,4.5-6.9,2.6c-5.4-4-5.7-12.4-6.2-18.6
							c-0.5-5.7-0.6-11.5-2-17.1c-1.4-5.5-4.3-9.9-7.9-14.2c-2.6-3.1-5.1-6.2-7.9-9.3c-1-1.2-2.1-2.3-3.3-3.3
							c-1.6-1.4-3.4-2.4-5.5-2.7c-1.7-0.2-4.4,0-5.8,1.4c-1.4,1.4-0.7,3.7-0.3,5.4c0.4,2,1.3,3.9,2.2,5.8c1.5,3.2,3.5,6.4,4.1,9.9
							c0.1,0.6,0.2,1.2,0.2,1.8c0.2,6.5-6.3,14.4-11.8,7.3c-1.2-1.5-2-3.3-2.8-5.1c-3.9-8.4-9.6-15.9-12-24.9
							c-1.5-5.7-2.4-11.6-3.3-17.4C438.2,746,433.3,738.6,435.3,728.3z"/>
					</g>
					<g>
						<path class="st3" d="M476.6,786.6c-0.8-1.1-1.6-2.2-2.5-3.3c-1.6-1.9-3.5-3.6-5.8-4.4c-2.3-0.8-5.2-0.4-6.8,1.5
							c-1.4,1.6-1.6,3.8-1.3,5.9c0.7,5,4.1,9.2,7.1,13.3c1.5,2.1,3,4.3,4,6.8c-0.6-3.5-2.5-6.7-4.1-9.9c-0.9-1.9-1.8-3.8-2.2-5.8
							c-0.4-1.7-1.1-3.9,0.3-5.4c1.3-1.3,4-1.6,5.8-1.4C473.1,784.2,474.9,785.3,476.6,786.6z"/>
					</g>
				</g>
				<path class="st4" d="M459.7,1438.2l-10.9-8l-8.1-69.9c0,0-61.9,9.9-61.9,10.8c0,0.9,6.3,65.4,6.3,65.4l-4.5,17.9l45.7,3.6
					l26-6.3L459.7,1438.2z"/>
				<polygon class="st4" points="146.6,1455.7 143.9,1387.9 214.9,1387.1 201.7,1452.7 178.5,1474.7 				"/>
				<path class="st5" d="M227.7,1500.5c-1.8-5.8-20.9-39.5-25.5-47.9c-9.3,4-18.4,6.2-28.5,6.2c-9.3,0-19.6-0.9-27.1-6.5
					c-4.7,6.7-10.5,15.8-14.9,23.2c-4,6.7-9.5,13.7-12.4,21.2c-2.8,7.6-1.6,16.3,4.5,21.3c20,16.5,76.2,20.6,100.3,2.3
					C231.3,1514.8,228.9,1504.4,227.7,1500.5z"/>
				<g>
					<path class="st6" d="M327.7,333.5c-7.4,39.2-15.3,78.2-20.4,117.8c-4.8,37.5-9.4,75.1-15.3,112.4c-30.7,0.7-61.4-0.6-92.1-3
						c-30.5-2.4-60.7-6.6-89.4-17.8c-15.2-5.9-29.9-13.2-43.9-21.6c13.7-19.9,22.1-42.9,31.3-65.1c9.8-23.8,18.2-48.2,25.3-73
						c15.3-54.1,21.4-108.3,25-164.1c2.1-31.8,11.2-65.2,32.6-89.6c21.5-24.5,57.5-38.5,89.1-26.6c19.5,7.4,35.4,22.7,46.1,40.7
						c5.1,8.5,9,17.7,12,27.1c0.8,2.5,1.6,5.1,2.2,7.6c2.2,8,3.8,16.2,4.9,24.4c1.8,12.8,2.6,25.6,2.7,38.4
						C337.9,272.1,333.5,303.1,327.7,333.5z"/>
				</g>
				<g>
					<path class="st4" d="M302.1,339.9c-4.2,3.3-9.7,4.6-14.9,5.7c-6.3,1.4-12.6,2.8-19.1,3.3c-12.6,0.9-24.4-2.2-36.8-4.9
						c-0.6-7.2-1.2-14.5-1.9-21.7c-0.8-9.1-1.6-18.1-3.2-27.1c-0.5-2.7-1.1-5.5-1.8-8.2c-1.6-6.7-3.6-13.4-5.6-20
						c-1.6-5.5-3.3-10.9-4.9-16.4c3.6,2.7,6.8,4,11,5.8c17.7,7.3,35.6,13.9,53.6,20.3c5.4,1.9,10.9,3.8,16.6,4.5l3.7,31.6
						L302.1,339.9z"/>
				</g>
				<g>
					<path class="st3" d="M298.8,312.8c-19.7-2.7-39.1-8.3-57.1-16.9c-5.7-2.7-11.7-5.6-17.4-8.9c-1.6-6.7-3.6-13.4-5.6-20
						c-1.6-5.5-3.3-10.9-4.9-16.4c3.6,2.7,6.8,4,11,5.8c17.7,7.3,35.6,13.9,53.6,20.3c5.4,1.9,10.9,3.8,16.6,4.5L298.8,312.8z"/>
				</g>
				<g>
					<path class="st4" d="M329.1,262c-3.1,10.8-7.9,20.8-16.8,28c-7.9,6.3-17.9,10.1-28,10.8c-11.2,0.8-22.3-1.9-32.4-6.8
						c-5-2.4-9.8-5.4-14.3-8.8c-7.7-5.9-14.5-13-20.5-20.7c-9.7-12.5-18.1-27-23.1-42.4c-5.8-17.4-7.3-35.9-2-53.8
						c2.1-7.3,5.5-14.2,10-20.4c18.7-26.2,54.9-34.4,83.1-18.9c14.7,8.1,26.5,21.4,33.6,36.4c2.3,4.8,4.3,9.7,6.1,14.7
						C334.2,206.2,336.6,235.3,329.1,262z"/>
				</g>
				<g>
					<g>
						<path class="st7" d="M471.6,721.7c-3.6-8-9.3-14.9-15.5-21.1c-1.8-1.8-3.7-3.6-6-4.7c-6.2-2.9-13.7,2.6-18.8,5.8
							c-6.2,3.9-11.9,8.6-16.8,13.9c-1.6,1.8-3.3,3.8-3.5,6.2c-0.3,3,1.6,5.7,3.5,8.1c4.2,5.5,8.5,11,12.7,16.5
							c1.4,1.8,2.8,3.6,4.8,4.6c2.2,1,4.8,0.9,7.2,0.5c10.4-1.4,20.5-5.1,29.4-10.7c1.9-1.2,3.8-2.6,4.9-4.5c1.7-3,1-6.8,0-10.1
							C472.8,724.6,472.2,723.1,471.6,721.7z"/>
					</g>
					<g>
						<g>
							<g>
								<path class="st8" d="M435.9,749.4c-0.2,0-0.3,0-0.4-0.1c-1.6-1.1-2.9-2.5-4.1-4l-0.4-0.5c-2.6-3-5.4-5.8-8.4-8.4
									c-0.3-0.3-0.4-0.8-0.1-1.1c0.3-0.3,0.8-0.4,1.1-0.1c3,2.7,5.9,5.6,8.5,8.6l0.4,0.5c1.1,1.3,2.3,2.7,3.7,3.7
									c0.4,0.3,0.5,0.8,0.2,1.1C436.5,749.3,436.2,749.4,435.9,749.4z"/>
							</g>
						</g>
						<g>
							<g>
								<path class="st8" d="M442.2,747.8c-0.2,0-0.4-0.1-0.6-0.2c-1.2-1.1-2.2-2.4-3.3-3.7c-2.4-2.9-4.9-5.9-6.8-9.3
									c-0.2-0.4-0.8-1.5-0.2-2.4c0.2-0.3,0.6-0.4,1-0.2c0.4,0.2,0.5,0.7,0.4,1.1c0,0-0.1,0.2,0.3,0.7c1.9,3.2,4.3,6.2,6.6,9
									c1,1.2,2,2.5,3.1,3.5c0.3,0.3,0.3,0.8,0,1.1C442.6,747.7,442.4,747.8,442.2,747.8z"/>
							</g>
						</g>
						<g>
							<g>
								<path class="st8" d="M449.3,745.8c-0.3,0-0.5-0.1-0.7-0.4c-2-3.2-4.5-6.2-7.3-8.8c-0.5-0.5-1-0.9-1.5-1.4
									c-1.7-1.5-3.4-3.1-4.7-5c-0.3-0.4-0.2-0.9,0.2-1.1c0.4-0.3,0.9-0.2,1.1,0.2c1.2,1.8,2.8,3.2,4.5,4.7c0.5,0.5,1,0.9,1.5,1.4
									c2.9,2.7,5.4,5.8,7.5,9.1c0.2,0.4,0.1,0.9-0.2,1.1C449.6,745.7,449.5,745.8,449.3,745.8z"/>
							</g>
						</g>
						<g>
							<g>
								<path class="st8" d="M456.7,744.2c-0.2,0-0.5-0.1-0.6-0.3c-4.7-5.9-9.9-11.6-15.4-16.9c-0.3-0.3-0.3-0.8,0-1.1
									c0.3-0.3,0.8-0.3,1.1,0c5.6,5.3,10.8,11,15.6,17c0.3,0.3,0.2,0.9-0.1,1.1C457,744.2,456.9,744.2,456.7,744.2z"/>
							</g>
						</g>
						<g>
							<g>
								<path class="st8" d="M462.7,740.2c-0.2,0-0.5-0.1-0.6-0.3c-4.5-5.8-9.7-10.9-15.6-15.2c-0.4-0.3-0.4-0.8-0.2-1.1
									c0.3-0.4,0.8-0.4,1.1-0.2c6,4.4,11.4,9.6,15.9,15.5c0.3,0.4,0.2,0.9-0.1,1.1C463,740.2,462.8,740.2,462.7,740.2z"/>
							</g>
						</g>
						<g>
							<g>
								<path class="st8" d="M469.3,736.6c-0.2,0-0.3-0.1-0.5-0.2c-2.2-1.8-4-4-5.8-6.1c-0.5-0.7-1.1-1.3-1.6-2
									c-2.9-3.4-6.3-6.5-9.9-9.2c-0.4-0.3-0.4-0.8-0.2-1.1c0.3-0.4,0.8-0.4,1.1-0.2c3.7,2.8,7.2,6,10.2,9.5c0.6,0.7,1.1,1.3,1.7,2
									c1.7,2.1,3.4,4.2,5.5,5.9c0.4,0.3,0.4,0.8,0.1,1.1C469.8,736.5,469.6,736.6,469.3,736.6z"/>
							</g>
						</g>
						<g>
							<g>
								<path class="st8" d="M470.3,725.3c-0.2,0-0.4-0.1-0.6-0.2l-12.5-12.4c-0.3-0.3-0.3-0.8,0-1.1c0.3-0.3,0.8-0.3,1.1,0
									l12.5,12.4c0.3,0.3,0.3,0.8,0,1.1C470.7,725.3,470.5,725.3,470.3,725.3z"/>
							</g>
						</g>
					</g>
				</g>
				<path class="st6" d="M327.9,170.7c-8.8-13.1-17.7-26.7-29.4-37.1c-10.5-9.3-23.4-15.6-37.4-16.9c-26.5-2.4-57.5,7.6-74.3,29.1
					c-8.5,10.8-12.4,24.4-12.9,37.8c-0.6,13.5,2.2,25.4,5.6,38.5c25.6-2.4,48-18.7,61.2-39.1c9.9-15.2,15.2-32.5,18-50.3
					c7.9,10.3,16.7,19.9,27,27.7c12.9,9.8,28.3,16.8,44.5,17.9C329.5,175.8,328.8,173.2,327.9,170.7z"/>
				<path class="st9" d="M427.1,631.9c-8.3-11.8-26.3-34.7-26.3-34.7s11.2-149.6-19.6-213.4c-19.6-20.2-38.6-38.4-66.6-43.7
					c-20.5,34.4-26.7,65.4-30.1,105.2c-4.5,52.9-5.8,108.7,18.1,156.1c6.6,13.1,15,25.3,23.5,37.2c22.5,31.6,47.8,62,76,89.2
					c7.6,7.3,19,9,28.3,4l27.1-14.5c8.9-4.7,12.2-15.8,7.4-24.6C452.9,670.9,441,651.7,427.1,631.9z"/>
				<g>
					<path class="st7" d="M378.2,639.4c-0.5-0.9-1.1-1.7-1.6-2.6c-0.3-0.4-0.8-0.6-1.2-0.3c-0.4,0.3-0.6,0.8-0.3,1.2
						c0.5,0.9,1.1,1.8,1.6,2.7c0.7,1.2,1.5,2.3,2.2,3.4c0.2,0.3,0.5,0.4,0.7,0.4c0.2,0,0.3,0,0.5-0.1c0.4-0.3,0.5-0.8,0.3-1.2
						C379.7,641.7,378.9,640.5,378.2,639.4z"/>
					<path class="st7" d="M364.6,610.9c-0.2-0.5-0.7-0.7-1.2-0.5c-0.5,0.2-0.7,0.7-0.5,1.2c0.8,2.3,1.7,4.5,2.6,6.7
						c0.1,0.3,0.5,0.6,0.8,0.6c0.1,0,0.2,0,0.3-0.1c0.5-0.2,0.7-0.7,0.5-1.2C366.3,615.4,365.4,613.2,364.6,610.9z"/>
					<path class="st7" d="M360.1,597.4c-0.1-0.5-0.6-0.7-1.1-0.6c-0.5,0.1-0.7,0.6-0.6,1.1c0.7,2.3,1.4,4.7,2.2,6.9
						c0.1,0.4,0.5,0.6,0.9,0.6c0.1,0,0.2,0,0.3,0c0.5-0.2,0.7-0.7,0.6-1.1C361.5,602,360.8,599.7,360.1,597.4z"/>
					<path class="st7" d="M357.4,587.8c-0.5,0.5-1,0.9-1.5,1.2c0.2,0.7,0.4,1.4,0.5,2c0.1,0.4,0.5,0.7,0.9,0.7c0.1,0,0.2,0,0.2,0
						c0.5-0.1,0.8-0.6,0.6-1.1C357.8,589.6,357.6,588.7,357.4,587.8z"/>
					<path class="st7" d="M370,624.1c-0.2-0.5-0.7-0.6-1.2-0.4c-0.4,0.2-0.6,0.7-0.4,1.2c1,2.2,2.1,4.4,3.2,6.5
						c0.2,0.3,0.5,0.5,0.8,0.5c0.1,0,0.3,0,0.4-0.1c0.4-0.2,0.6-0.8,0.4-1.2C372.1,628.5,371,626.3,370,624.1z"/>
					<path class="st7" d="M428.5,705.2c-0.3-0.4-0.9-0.4-1.3-0.1c-0.4,0.3-0.4,0.9-0.1,1.3c1.5,1.8,3.1,3.7,4.6,5.5
						c0.2,0.2,0.4,0.3,0.7,0.3c0.2,0,0.4-0.1,0.6-0.2c0.4-0.3,0.4-0.9,0.1-1.3C431.6,708.8,430,707,428.5,705.2z"/>
					<path class="st7" d="M419.4,694.1c-0.3-0.4-0.9-0.4-1.3-0.1c-0.4,0.3-0.4,0.9-0.1,1.3c1.5,1.9,3,3.7,4.5,5.6
						c0.2,0.2,0.4,0.3,0.7,0.3c0.2,0,0.4-0.1,0.6-0.2c0.4-0.3,0.4-0.9,0.1-1.3C422.4,697.8,420.9,695.9,419.4,694.1z"/>
					<path class="st7" d="M384.5,648.7c-0.3-0.4-0.8-0.5-1.3-0.2c-0.4,0.3-0.5,0.8-0.2,1.3c1.4,1.9,2.8,3.9,4.2,5.8
						c0.2,0.2,0.4,0.4,0.7,0.4c0.2,0,0.4-0.1,0.5-0.2c0.4-0.3,0.5-0.9,0.2-1.3C387.3,652.5,385.8,650.6,384.5,648.7z"/>
					<path class="st7" d="M438.7,717.2l-1-1.1c-0.3-0.4-0.9-0.4-1.3-0.1c-0.4,0.3-0.4,0.9-0.1,1.3l1,1.1c0.2,0.2,0.4,0.3,0.7,0.3
						c0.2,0,0.4-0.1,0.6-0.2C439,718.2,439.1,717.6,438.7,717.2z"/>
					<path class="st7" d="M410.4,682.9c-0.3-0.4-0.9-0.5-1.3-0.1c-0.4,0.3-0.5,0.9-0.1,1.3c1.5,1.9,3,3.7,4.5,5.6
						c0.2,0.2,0.4,0.3,0.7,0.3c0.2,0,0.4-0.1,0.6-0.2c0.4-0.3,0.4-0.9,0.1-1.3C413.4,686.7,411.9,684.8,410.4,682.9z"/>
					<path class="st7" d="M393,660.2c-0.3-0.4-0.9-0.5-1.3-0.2c-0.4,0.3-0.5,0.9-0.2,1.3c1.4,1.9,2.9,3.8,4.3,5.7
						c0.2,0.2,0.4,0.4,0.7,0.4c0.2,0,0.4-0.1,0.5-0.2c0.4-0.3,0.5-0.9,0.2-1.3C395.8,664,394.4,662.1,393,660.2z"/>
					<path class="st7" d="M401.6,671.6c-0.3-0.4-0.9-0.5-1.3-0.2c-0.4,0.3-0.5,0.9-0.2,1.3c1.5,1.9,2.9,3.8,4.4,5.7
						c0.2,0.2,0.4,0.3,0.7,0.3c0.2,0,0.4-0.1,0.6-0.2c0.4-0.3,0.5-0.9,0.2-1.3C404.5,675.4,403.1,673.5,401.6,671.6z"/>
				</g>
				<path class="st4" d="M356.1,529.7c-8.1,32.1-16.1,64.2-24.2,96.2c-2.9,11.6-7.3,23.1-14,33.1c-20.7,6.4-41.8,12.8-63.5,12.9
					c-11.4,0.1-22.7-1.6-34-3.3c-18.1-2.7-36.4-6.9-52-16.4c-0.9-6.9-1.2-15-1.8-21.9c-2.2-26.2-4.3-52.5-6.5-78.7
					c4.3,2.1,10.2,2.4,14.9,1.9c8.8-1,17.6-2,26.4-2.9c32.1-3.6,64.2-7.2,96.2-10.8c12.2-1.4,24.3-2.7,36.5-4.1
					C342.9,534.7,348.3,533.6,356.1,529.7z"/>
				<path class="st10" d="M453.3,1397c0,0-22.5,9.1-49.3,12.9c-26.8,3.8-28.7,0.5-28.7,0.5l-48.8-322c0,0-13.6-35.4-31.9-83.1
					c-1.4-3.7-2.9-7.6-4.4-11.5c-18.4-47.9-40.5-105.7-58.2-152.4c-0.2-0.6-0.4-1.1-0.6-1.6c-18.2-47.8-31.6-83.6-31.5-84.5
					c0.3-2.1,6.7-59.5,9.4-83.3c0.4-4-1.8-18.8,1.1-20c18.8,4.5,43.3,2.9,61.9,0.9c32.3-3.6,52.9-7.2,52.9-7.2s44.7,99.2,62.8,158.7
					c17.9,59.2,46.6,289.6,46.6,289.6L453.3,1397z"/>
				<path class="st11" d="M294.6,1005.3c-1.4-3.7-2.9-7.6-4.4-11.5c-18.4-47.9-40.5-105.7-58.2-152.4c-0.2-0.6-0.4-1.1-0.6-1.6
					c6.2-39,13.3-77.9,11.2-117.2c29.7,50.6,40,110.2,44.8,168.7c1.7,21.5,2.8,43,4,64.4C292.2,972.3,293.1,988.8,294.6,1005.3z"/>
				<g>
					<path class="st10" d="M263.2,653.8c-23.3,0.9-32.2,0.2-54.7-5.4c-13.4-3.3-31.4-10.8-42.1-19.7c-17,30.5-41.9,76-47.5,131.8
						c-11.7,115.7,36.5,338.5,36.5,338.5s-15.3,211.2-24,325.9c19.1,7.7,19.1,8.1,40.3,8.1c23,0,24.5,0.3,45.8-7.2l54.8-329.6
						C270.7,953.2,269.2,796.6,263.2,653.8z"/>
				</g>
				<g>
					<g>
						<path class="st7" d="M345.5,564.2c-26.4,2.2-52.9-0.3-79.3-2.6c-16.9-1.5-33.8-3.3-50.6-5.4c-8.6-1.1-17.1-2.2-25.6-3.5
							c-6.5-1-14.7-2.8-21.1-0.3c-13.6,5.3-11.9,30.3-11.5,41.9c0.3,10.2,6.8,14.7,15.6,17.9c45.2,16,94.6,16.7,141.9,9.3
							c7.2-1.1,17.1-1,21.7-7.6c7.2-10.5,12-24.5,16.7-36.3C356,571,353.7,563.5,345.5,564.2z"/>
					</g>
					<g>
						<g>
							<g>
								<path class="st8" d="M162.2,603.4C162.2,603.4,162.2,603.4,162.2,603.4c-0.5-0.1-0.8-0.5-0.7-0.9l1.1-9.2
									c0.1-0.4,0.5-0.7,0.9-0.7c0.4,0.1,0.8,0.5,0.7,0.9l-1.1,9.2C163,603.1,162.6,603.4,162.2,603.4z"/>
							</g>
						</g>
						<g>
							<g>
								<path class="st8" d="M167.4,608.2c0,0-0.1,0-0.1,0c-0.4-0.1-0.7-0.5-0.6-1c0.8-3.7,1.5-7.4,2.1-11.1
									c0.1-0.4,0.5-0.7,0.9-0.7c0.4,0.1,0.7,0.5,0.7,0.9c-0.7,3.7-1.4,7.5-2.2,11.2C168.2,607.9,167.8,608.2,167.4,608.2z"/>
							</g>
						</g>
						<g>
							<g>
								<path class="st8" d="M173.8,611c0,0-0.1,0-0.1,0c-0.4-0.1-0.7-0.5-0.6-1c0.9-4,1.5-8.1,1.9-12.1c0-0.4,0.4-0.7,0.9-0.7
									c0.4,0,0.8,0.4,0.7,0.9c-0.4,4.1-1.1,8.3-2,12.3C174.5,610.7,174.2,611,173.8,611z"/>
							</g>
						</g>
						<g>
							<g>
								<path class="st8" d="M179.3,613.2c-0.1,0-0.1,0-0.2,0c-0.4-0.1-0.7-0.6-0.5-1c1.3-4.1,2.4-8.3,3.2-12.5
									c0.1-0.4,0.5-0.7,0.9-0.6c0.4,0.1,0.7,0.5,0.6,0.9c-0.8,4.3-1.9,8.5-3.3,12.7C180,613,179.6,613.2,179.3,613.2z"/>
							</g>
						</g>
						<g>
							<g>
								<path class="st8" d="M186.3,615c0,0-0.1,0-0.1,0c-0.4-0.1-0.7-0.5-0.6-1l2.6-11.6c0.1-0.4,0.5-0.7,1-0.6
									c0.4,0.1,0.7,0.5,0.6,1l-2.6,11.6C187.1,614.8,186.7,615,186.3,615z"/>
							</g>
						</g>
						<g>
							<g>
								<path class="st8" d="M193,616.5C193,616.5,192.9,616.5,193,616.5c-0.5-0.1-0.8-0.5-0.7-1l2.2-12.1c0.1-0.4,0.5-0.7,0.9-0.6
									c0.4,0.1,0.7,0.5,0.6,0.9l-2.2,12.1C193.8,616.3,193.4,616.6,193,616.5z"/>
							</g>
						</g>
						<g>
							<g>
								<path class="st8" d="M199.4,616.6C199.4,616.6,199.3,616.6,199.4,616.6c-0.5-0.1-0.8-0.5-0.7-1c0.7-3.3,1.5-6.7,2.6-9.9
									c0.1-0.4,0.6-0.7,1-0.5c0.4,0.1,0.7,0.6,0.5,1c-1,3.2-1.9,6.5-2.5,9.8C200.2,616.3,199.8,616.6,199.4,616.6z"/>
							</g>
						</g>
						<g>
							<g>
								<path class="st8" d="M205.7,619.7C205.7,619.7,205.6,619.7,205.7,619.7c-0.5-0.1-0.8-0.5-0.7-1l2.6-12.5
									c0.1-0.4,0.5-0.7,1-0.6c0.4,0.1,0.7,0.5,0.6,1l-2.6,12.5C206.5,619.5,206.1,619.8,205.7,619.7z"/>
							</g>
						</g>
						<g>
							<g>
								<path class="st8" d="M211.5,620.8c0,0-0.1,0-0.1,0c-0.4-0.1-0.7-0.5-0.6-1c0.9-3.8,1.7-7.7,2.5-11.6c0.1-0.4,0.5-0.7,1-0.6
									c0.4,0.1,0.7,0.5,0.6,1c-0.8,3.9-1.6,7.8-2.5,11.6C212.2,620.6,211.9,620.9,211.5,620.8z"/>
							</g>
						</g>
						<g>
							<g>
								<path class="st8" d="M217.8,620.9c-0.4,0-0.8-0.4-0.7-0.8c0.1-2.8,0.9-5.6,1.6-8l0.1-0.3c0.4-1.2,0.7-2.2,0.8-3.4
									c0-0.4,0.4-0.8,0.8-0.8c0.4,0,0.8,0.4,0.8,0.8c-0.1,1.3-0.5,2.6-0.8,3.8l-0.1,0.3c-0.8,2.4-1.5,4.9-1.5,7.5
									C218.6,620.5,218.3,620.9,217.8,620.9C217.8,620.9,217.8,620.9,217.8,620.9z"/>
							</g>
						</g>
						<g>
							<g>
								<path class="st8" d="M223.4,622.2C223.4,622.2,223.4,622.2,223.4,622.2c-0.5-0.1-0.8-0.5-0.7-0.9c0.6-4,1.4-8.1,2.4-12
									c0.1-0.4,0.5-0.7,1-0.6c0.4,0.1,0.7,0.5,0.6,1c-1,3.9-1.8,7.9-2.4,11.9C224.2,621.9,223.8,622.2,223.4,622.2z"/>
							</g>
						</g>
						<g>
							<g>
								<path class="st8" d="M230.6,622.3c0,0-0.1,0-0.1,0c-0.4-0.1-0.7-0.5-0.6-1c0.7-2.7,1.3-5.5,1.9-8.2c0.2-1.1,0.4-2.2,0.1-3.1
									c-0.1-0.4,0.2-0.9,0.6-1c0.4-0.1,0.9,0.2,1,0.6c0.3,1.3,0.1,2.6-0.1,3.8c-0.5,2.8-1.2,5.6-1.9,8.3
									C231.3,622.1,231,622.3,230.6,622.3z"/>
							</g>
						</g>
						<g>
							<g>
								<path class="st8" d="M237.5,623.6C237.5,623.6,237.4,623.6,237.5,623.6c-0.5-0.1-0.8-0.5-0.7-0.9l1.7-10.1
									c0.1-0.7,0.2-1.4,0.2-2.1c0-0.4,0.4-0.8,0.8-0.8c0.4,0,0.8,0.4,0.8,0.8c0,0.8-0.1,1.6-0.3,2.3l-1.7,10.1
									C238.3,623.3,237.9,623.6,237.5,623.6z"/>
							</g>
						</g>
						<g>
							<g>
								<path class="st8" d="M243.8,622.9C243.8,622.9,243.8,622.9,243.8,622.9c-0.5-0.1-0.8-0.5-0.7-0.9c0.4-3.9,1.1-7.8,1.9-11.7
									c0.1-0.4,0.5-0.7,1-0.6c0.4,0.1,0.7,0.5,0.6,1c-0.8,3.8-1.4,7.7-1.9,11.5C244.6,622.6,244.2,622.9,243.8,622.9z"/>
							</g>
						</g>
						<g>
							<g>
								<path class="st8" d="M249.8,624c0,0-0.1,0-0.1,0c-0.4-0.1-0.7-0.6-0.6-1c1-4,1.7-8.1,2-12.2c0-0.4,0.4-0.8,0.9-0.8
									c0.4,0,0.8,0.4,0.8,0.9c-0.3,4.2-1,8.4-2,12.5C250.6,623.8,250.2,624.1,249.8,624z"/>
							</g>
						</g>
						<g>
							<g>
								<path class="st8" d="M255.9,624.4C255.9,624.4,255.9,624.4,255.9,624.4c-0.5,0-0.8-0.4-0.7-0.9l1.1-11.4
									c0-0.4,0.4-0.8,0.9-0.7c0.4,0,0.8,0.4,0.7,0.9l-1.1,11.4C256.7,624.1,256.3,624.4,255.9,624.4z"/>
							</g>
						</g>
						<g>
							<g>
								<path class="st8" d="M262,623.4c-0.4,0-0.8-0.4-0.7-0.9l0.7-11.7c0-0.4,0.4-0.8,0.9-0.8c0.4,0,0.8,0.4,0.8,0.9l-0.7,11.7
									C262.9,623,262.5,623.4,262,623.4C262.1,623.4,262.1,623.4,262,623.4z"/>
							</g>
						</g>
						<g>
							<g>
								<path class="st8" d="M267.5,624.9C267.5,624.9,267.5,624.9,267.5,624.9c-0.5-0.1-0.8-0.5-0.7-0.9l1.7-13.1
									c0.1-0.4,0.5-0.8,0.9-0.7c0.4,0.1,0.8,0.5,0.7,0.9l-1.7,13.1C268.4,624.6,268,624.9,267.5,624.9z"/>
							</g>
						</g>
						<g>
							<g>
								<path class="st8" d="M274.1,621.8C274.1,621.8,274.1,621.8,274.1,621.8c-0.5-0.1-0.8-0.5-0.7-0.9l1.3-10.5
									c0.1-0.4,0.5-0.7,0.9-0.7c0.4,0.1,0.8,0.5,0.7,0.9l-1.3,10.5C275,621.6,274.6,621.9,274.1,621.8z"/>
							</g>
						</g>
						<g>
							<g>
								<path class="st8" d="M280.4,622.2C280.4,622.2,280.4,622.2,280.4,622.2c-0.5-0.1-0.8-0.5-0.7-0.9l1.7-11.9
									c0.1-0.4,0.5-0.7,0.9-0.7c0.4,0.1,0.7,0.5,0.7,0.9l-1.7,11.9C281.2,622,280.8,622.3,280.4,622.2z"/>
							</g>
						</g>
						<g>
							<g>
								<path class="st8" d="M286.8,621.9c-0.3,0-0.6-0.2-0.7-0.6c-0.2-0.4-0.1-0.8,0-1.1l2.4-10.2c0.1-0.4,0.5-0.7,1-0.6
									c0.4,0.1,0.7,0.5,0.6,1l-2.4,10.2c0,0.1,0,0.2,0,0.2c0.2,0.4-0.1,0.9-0.5,1C287,621.9,286.9,621.9,286.8,621.9z"/>
							</g>
						</g>
						<g>
							<g>
								<path class="st8" d="M294.1,620.7c-0.4,0-0.8-0.4-0.7-0.9c0.3-3.9,0.9-7.7,1.8-11.5c0.1-0.4,0.5-0.7,1-0.6
									c0.4,0.1,0.7,0.5,0.6,1c-0.8,3.7-1.4,7.5-1.7,11.3C295,620.4,294.6,620.8,294.1,620.7C294.1,620.7,294.1,620.7,294.1,620.7z
									"/>
							</g>
						</g>
						<g>
							<g>
								<path class="st8" d="M300.9,620C300.9,620,300.9,620,300.9,620c-0.5-0.1-0.8-0.5-0.7-0.9l1.9-11.9c0.1-0.4,0.5-0.8,0.9-0.7
									c0.4,0.1,0.7,0.5,0.7,0.9l-1.9,11.9C301.7,619.7,301.3,620,300.9,620z"/>
							</g>
						</g>
						<g>
							<g>
								<path class="st8" d="M307.3,619.9C307.3,619.9,307.3,619.9,307.3,619.9c-0.5-0.1-0.8-0.5-0.7-0.9l1.7-12.5
									c0.1-0.4,0.5-0.8,0.9-0.7c0.4,0.1,0.8,0.5,0.7,0.9l-1.7,12.5C308.1,619.6,307.7,619.9,307.3,619.9z"/>
							</g>
						</g>
						<g>
							<g>
								<path class="st8" d="M313.7,618.5c-0.1,0-0.2,0-0.3-0.1c-0.3-0.1-0.5-0.5-0.4-1l1.7-7.7c0.3-1.3,0.6-2.6,0.5-3.9
									c0-0.4,0.3-0.8,0.8-0.8c0.4,0,0.8,0.3,0.8,0.8c0.1,1.5-0.3,2.9-0.6,4.3l-1.6,7.4c0.1,0.3,0,0.7-0.2,0.9
									C314.2,618.5,313.9,618.6,313.7,618.5z M314.5,617.8L314.5,617.8C314.5,617.8,314.5,617.8,314.5,617.8z"/>
							</g>
						</g>
						<g>
							<g>
								<path class="st8" d="M320.6,618.4C320.5,618.4,320.5,618.4,320.6,618.4c-0.5,0-0.8-0.4-0.7-0.9c0.5-4.4,1.2-8.9,2.2-13.3
									c0.1-0.4,0.5-0.7,1-0.6c0.4,0.1,0.7,0.5,0.6,1c-1,4.3-1.7,8.7-2.1,13.1C321.4,618.1,321,618.4,320.6,618.4z"/>
							</g>
						</g>
						<g>
							<g>
								<path class="st8" d="M325.9,616.8c-0.1,0-0.1,0-0.2,0c-0.4-0.1-0.7-0.5-0.6-1c1-4.4,2.1-8.8,3.3-13.1c0.1-0.4,0.6-0.7,1-0.6
									c0.4,0.1,0.7,0.6,0.6,1c-1.1,4-2.2,8.2-3.1,12.3c0,0.1,0,0.3,0,0.4l-0.2,0.5C326.6,616.7,326.3,616.9,325.9,616.8z"/>
							</g>
						</g>
						<g>
							<g>
								<path class="st8" d="M333.4,612.5c-0.1,0-0.2,0-0.2-0.1c-0.4-0.2-0.6-0.6-0.4-1.1c1.3-3.2,2.5-6.5,3.5-9.9
									c0.1-0.4,0.6-0.7,1-0.5c0.4,0.1,0.7,0.6,0.5,1c-1,3.4-2.2,6.7-3.6,10C334.1,612.3,333.8,612.5,333.4,612.5z"/>
							</g>
						</g>
					</g>
				</g>
				<path class="st4" d="M281.4,746.3c0,0-31.5-13.7-31.5-13.7c-4.6-2-9.4-3.7-14-5.9c-2.3-1.1-4.6-2.3-6.6-3.8
					c-1.9-1.3-4.4-3.2-1-3.7c2.3-0.4,4.7,0,7,0.1c3.5,0.2,7.5,0.3,11-0.7c2-0.6,3.8-1.8,4.6-3.7c0.9-2.5-0.5-5.3-2.6-6.9
					c-0.1-0.1-0.2-0.1-0.2-0.2c-2.2-1.6-5-2.1-7.7-2.4c-8.7-1.3-17.7-1.4-26.2-3.3c-4.9-1.1-9.3-3-14.4-3.6
					c-4.1-0.5-8.3-0.5-12.5-0.2l-5.8-6c0.2-0.3,0.3-0.5,0.3-0.5c-1.8-1.9-3.6-3.8-5.3-5.7c-6.7,11.3-13.3,22.5-20,33.8
					c4.5,3.3,7.4,5.3,7.4,5.2c0,0,0-0.1,0.1-0.2c3.6,15.3,15,30.9,27.8,38.3c1.3,0.8,2.7,1.5,3.8,2.5c0.8,0.8,1.5,1.8,2.1,2.8
					c3.7,5.8,7.1,11.7,10.3,17.8c2,3.8,4.7,12.9,10.1,12.8c3.7,0,6.2-4.2,4.4-7.4c-3.2-5.9-6.5-11.7-9.9-17.4
					c-1.3-2.2-2.7-4.2-3.7-6.5c-0.3-0.7-1.2-2.4-0.8-3.2c2.1-4.2,8.1,3.3,9.6,4.9c2.8,3,5.6,6,8.5,9c4,4.2,8.1,8.4,12.2,12.5
					c2.6,2.6,5.9,7.7,10.2,5.6c3-1.4,3.8-5.6,1.5-7.9c-1.3-1.3-2.6-2.6-3.9-3.9c-0.2-0.5-0.5-1-0.9-1.4c-4.4-4.8-8.7-9.6-12.9-14.6
					c-2.1-2.5-4.1-5-6.2-7.5c-0.9-1.1-5.9-4.9-4.3-6.5c1.9-1.9,7.4,3.6,8.8,4.5c4,2.5,8,5,12.1,7.5c5.4,3.4,10.7,6.9,16,10.3
					c3.4,2.1,9.1,7.4,12.9,3.5c2-2,1.8-5.8-0.5-7.5c-0.2-0.3-0.5-0.5-0.7-0.8c-6.8-6.2-14.5-11.5-22-16.8c-3.7-2.6-7.4-5.2-11-8
					c-1.8-1.4-3.7-2.9-5.4-4.5c-0.7-0.6-2.9-1.9-2.1-3c0.8-1.1,3.3-0.1,4.2,0.2c2.5,0.8,4.7,2.6,7.1,3.3c4.1,1.3,8.3,2.7,12.4,4
					c5.8,1.9,11.5,3.8,17.2,5.8c3.4,1.2,8.6,4.7,12,1.5C285.2,752.3,284.5,747.6,281.4,746.3z"/>
				<g>
					<path class="st7" d="M184.9,688c-2.7-3.4-6.7-5.8-10.5-8c-2.9-1.7-5.9-3.2-9-4.5c-0.9-0.4-9.2-3.9-9.6-3.3
						c0,0-23.8,38.4-23.8,38.4c-0.6,1,20.6,14.2,22.4,15.3c2.6,1.6,5.5,3,8.6,2.8c5.2-0.2,9.3-4.3,12.3-8.2
						c5.7-7.3,14.8-16.7,12.3-27.1C187.2,691.4,186.2,689.6,184.9,688z"/>
					<path class="st8" d="M163.3,724.1c-5-3.7-10.2-7.2-15.5-10.4c-1-0.6-1.8,1-0.8,1.6c5.2,3.2,10.2,6.6,15.1,10.2
						C163,726.1,164.2,724.8,163.3,724.1z"/>
					<path class="st8" d="M168.3,720.5c-5.4-3.9-10.8-7.8-16.3-11.6c-0.9-0.7-2.2,0.6-1.2,1.3c5.4,3.9,10.8,7.8,16.3,11.6
						C168,722.5,169.3,721.2,168.3,720.5z"/>
					<path class="st8" d="M181.7,695.8c-5.4-3.9-10.8-7.8-16.3-11.6c-0.9-0.7-2.2,0.6-1.2,1.3c5.4,3.9,10.8,7.8,16.3,11.6
						C181.4,697.8,182.7,696.5,181.7,695.8z"/>
					<path class="st8" d="M173.8,714.1c-6.5-3.9-13.1-7.6-19.8-11c-1-0.5-1.9,1.1-0.8,1.6c6.7,3.4,13.3,7.1,19.8,11
						C174,716.3,174.8,714.7,173.8,714.1z"/>
					<path class="st8" d="M176.7,708c-3.1-2-6.2-4.1-9.3-6.1c-2.9-1.9-5.7-3.9-8.2-6.3c-0.8-0.8-1.9,0.7-1.1,1.4
						c2.5,2.4,5.3,4.4,8.2,6.3c3.1,2.1,6.2,4.1,9.3,6.1C176.6,710.1,177.6,708.7,176.7,708z"/>
					<path class="st8" d="M185,691.6c-3.1-2-6.2-4.1-9.3-6.1c-2.9-1.9-5.7-3.9-8.2-6.3c-0.8-0.8-1.9,0.7-1.1,1.4
						c2.5,2.4,5.3,4.4,8.2,6.3c3.1,2.1,6.2,4.1,9.3,6.1C184.9,693.7,186,692.2,185,691.6z"/>
					<path class="st8" d="M180.9,702.5c-6.2-4.1-12.6-7.9-19.2-11.5c-1-0.6-1.9,1-0.8,1.6c6.5,3.6,12.9,7.4,19.2,11.5
						C181,704.7,181.9,703.1,180.9,702.5z"/>
				</g>
				<path class="st9" d="M345.5,358.3c-1.5-4-13.6-12.6-13.6-12.6s-72.6-14.6-107-10.3c-17.2,2.2-34.2,6-50.7,11.5
					c-18.1,6-33.9,13.2-48.8,25.2c-15.2,12.3-28.7,26.6-41.4,41.4c-6.2,7.1-12.2,14.4-18.1,21.7c-17.1,21-35.1,42-49.5,65.1
					c-20.7,33.3-35.7,75.9-15.7,113.1c12,22.3,31.6,39.5,51,55.3c23,18.7,48.3,35.6,75.3,48.1c7.6,3.5,16.7,0.9,21-6.3
					c5.8-9.5,10.6-19.6,15-29.8c2.7-6.2,2.2-13.3-1.2-19.2c-18.3-32.1-41.1-62.2-69.2-91.5c20.7-19.7,41.2-40.5,57.9-63.5
					c1.6,19.8,2.2,39.7,1.2,59.5c-0.3,5.7-0.6,11.8,2.1,16.8c3.5,6.4,10.9,9.3,17.8,11.5c50.3,16,105,17.9,156.4,6.1
					c10.4-2.4,21.3-5.8,27.8-14.8c5.9-8.2,7.3-18.8,9-28.5c2.8-16.6,4.5-33.3,5.1-50.1C371.5,456.6,363.3,405.7,345.5,358.3z"/>
				<g>
					<path class="st5" d="M535.6,1499.7c-11.5,2-23.8,1.1-35.5,1.1c-33.3,0-66.6-1.6-99.8-3.2c-5.3-0.3-10.7-0.6-15.6-2.7
						c-3.8-1.7-7.1-4.5-9.3-8.1c-1.4-2.1-2.4-4.6-2.6-7.1c-0.1-0.9-0.1-1.8-0.1-2.6c0.2-3.5,1.5-7,2.8-10.3
						c2.4-6.1,3.5-10.6,5.9-16.7c26.4,0,52.7-4.9,78.2-11.9c2.5,1.3,5.1,2.6,7.6,3.9l44.2,22.2c6,3,11.9,6,17.9,9
						c1.4,0.7,2.9,1.4,4.3,2.2c4.2,2.1,10.2,3.5,13.3,7.3c0.7,0.9,1.3,1.9,1.6,3.1C551.1,1494.8,542.9,1498.5,535.6,1499.7z"/>
				</g>
				<g>
					<g>
						<path class="st7" d="M316.1,332.9c-0.4-1.5-0.9-3.1-1.2-4.6c-1.2-6.1-0.1-13.8-6.8-18c-3.3-2.1-7.3-1.7-11.2-1.8
							c-4.5-0.1-9,0-13.4-0.1c-9.4-0.2-18.8-1.2-28.1-2.8c-4.7-0.9-9.4-1.9-14-3.2c-4.2-1.1-8.4-3-12.7-3.4
							c-3.1-0.3-6.5,0.5-8.3,2.6c-1.2,1.4-1.5,3.1-1.8,4.9c-1.6,8.6-3.1,17.4-1.8,26.1c0.4,2.7,1.2,5.5,3.4,7.5
							c4.9,4.6,15.7,6,22.3,7.4c21.9,4.7,45.3,5.3,65.9-2.3c2.5-0.9,5-2,6.7-3.8C317.6,339,316.9,335.9,316.1,332.9z"/>
					</g>
					<g>
						<g>
							<path class="st8" d="M226.9,341.6c-0.4,0-0.6-0.3-0.7-0.6c-2.3-12.8-2.5-25.8-0.6-38.5c0.1-0.4,0.5-0.6,0.9-0.6c0,0,0,0,0,0
								c0.4,0.1,0.8,0.4,0.7,0.8c-1.9,12.6-1.8,25.4,0.6,38.1c0.1,0.4-0.2,0.7-0.7,0.8C227.1,341.7,227,341.7,226.9,341.6z"/>
						</g>
						<g>
							<path class="st8" d="M233.8,344.1C233.8,344.1,233.8,344.1,233.8,344.1c-0.5-0.1-0.8-0.4-0.7-0.8c0.9-5.8,0.8-11.9,0.6-17.7
								l-0.4-19.4c0-0.6-0.1-0.7-0.2-0.8c-0.4-0.2-0.5-0.7-0.2-1c0.2-0.3,0.7-0.4,1.1-0.2c0.9,0.5,0.9,1.5,0.9,1.9l0.4,19.4
								c0.1,5.9,0.3,12-0.6,17.9C234.6,343.9,234.2,344.1,233.8,344.1z"/>
						</g>
						<g>
							<path class="st8" d="M242.2,345.8c-0.4-0.1-0.7-0.4-0.7-0.7c-0.1-12.6,0.3-25.3,1.1-37.8c0-0.4,0.4-0.7,0.9-0.6
								c0.4,0,0.8,0.4,0.8,0.8c-0.8,12.5-1.2,25.2-1.1,37.8C243.1,345.5,242.8,345.8,242.2,345.8
								C242.3,345.8,242.3,345.8,242.2,345.8z"/>
						</g>
						<g>
							<path class="st8" d="M249.1,347.2c-0.4-0.1-0.7-0.4-0.7-0.8c1-12.4,1.2-25,0.6-37.5c0-0.4,0.3-0.7,0.8-0.7
								c0.4,0,0.8,0.3,0.8,0.7c0.6,12.5,0.4,25.2-0.6,37.6C250,347,249.6,347.3,249.1,347.2C249.1,347.2,249.1,347.2,249.1,347.2z"
								/>
						</g>
						<g>
							<path class="st8" d="M256.7,349.4L256.7,349.4c-0.4-0.1-0.8-0.4-0.7-0.8c0.7-5.6,0.9-11.8,0.6-19.9l0-0.8
								c-0.1-2.8-0.3-5.6,0.1-8.4c0.1-1,0.3-1.9,0.5-2.9c0.4-1.8,0.8-3.6,0.7-5.3c0-0.4,0.3-0.7,0.8-0.7c0.4,0,0.8,0.3,0.8,0.7
								c0.1,1.9-0.3,3.8-0.7,5.6c-0.2,0.9-0.4,1.9-0.5,2.8c-0.4,2.7-0.3,5.5-0.1,8.2l0,0.8c0.4,8.2,0.2,14.4-0.6,20.1
								C257.6,349.2,257.2,349.4,256.7,349.4z"/>
						</g>
						<g>
							<path class="st8" d="M263.4,348.8C263.3,348.8,263.3,348.8,263.4,348.8c-0.5-0.1-0.8-0.4-0.7-0.8c2-11.8,2.7-23.8,2-35.8
								c0-0.4,0.3-0.7,0.8-0.7c0.5,0,0.8,0.3,0.8,0.7c0.7,12.1,0.1,24.2-2,36C264.2,348.6,263.8,348.8,263.4,348.8z"/>
						</g>
						<g>
							<path class="st8" d="M272.2,348.5C272.2,348.5,272.2,348.5,272.2,348.5c-0.5-0.1-0.8-0.4-0.7-0.8c0.5-2.7,0.2-5.6-0.1-8.3
								c-0.1-1.3-0.3-2.6-0.3-4c-0.1-2.9,0.2-5.9,0.4-8.8c0.4-4.8,0.9-9.7-0.5-14.4c-0.1-0.4,0.2-0.7,0.6-0.8c0.4-0.1,0.9,0.2,1,0.5
								c1.4,4.9,1,10,0.5,14.9c-0.3,2.8-0.5,5.8-0.4,8.6c0.1,1.3,0.2,2.6,0.3,3.9c0.3,2.8,0.6,5.8,0,8.6
								C273,348.3,272.6,348.5,272.2,348.5z"/>
						</g>
						<g>
							<path class="st8" d="M279.2,348c-0.4-0.1-0.7-0.4-0.7-0.8c1.1-11.6,1.4-23.4,1-35.1c0-0.4,0.3-0.7,0.8-0.7
								c0.4,0,0.8,0.3,0.8,0.7c0.4,11.7,0.1,23.6-1,35.2C280.1,347.7,279.7,348,279.2,348C279.2,348,279.2,348,279.2,348z"/>
						</g>
						<g>
							<path class="st8" d="M287.1,346.2c-0.4-0.1-0.8-0.4-0.7-0.8c1.1-10.6,2.3-21.5,0.2-32.2c-0.1-0.4,0.2-0.7,0.7-0.8
								c0.4,0,0.9,0.2,0.9,0.6c2.1,10.9,1,21.9-0.2,32.6C287.9,346,287.5,346.3,287.1,346.2C287.1,346.2,287.1,346.2,287.1,346.2z"
								/>
						</g>
						<g>
							<path class="st8" d="M293.9,347.4c-0.4-0.1-0.7-0.4-0.7-0.7l0.1-33.4c0-0.4,0.4-0.7,0.8-0.7c0.4,0,0.8,0.3,0.8,0.7l-0.1,33.4
								C294.8,347.1,294.4,347.4,293.9,347.4C294,347.4,293.9,347.4,293.9,347.4z"/>
						</g>
						<g>
							<path class="st8" d="M302,345.3c-0.4-0.1-0.7-0.4-0.7-0.7c0.4-10.4,0.1-20.9-0.8-31.3c0-0.4,0.3-0.7,0.7-0.7
								c0.4,0,0.8,0.3,0.9,0.7c1,10.5,1.3,21,0.8,31.5C302.9,345,302.5,345.3,302,345.3C302.1,345.3,302,345.3,302,345.3z"/>
						</g>
						<g>
							<path class="st8" d="M309.9,342.2c-0.1,0-0.1,0-0.2,0c-0.4-0.1-0.7-0.5-0.5-0.9c1-2.5,0.5-5.2,0.1-8.1
								c-0.2-1.3-0.4-2.7-0.5-4c-0.1-1.1,0-2.1,0-3.2c0-1,0.1-2.1,0-3.2c-0.2-3.4-1.5-6.8-2.8-10.1c-0.1-0.4,0.1-0.8,0.5-0.9
								c0.4-0.1,0.9,0.1,1,0.5c1.3,3.4,2.6,6.9,2.8,10.5c0.1,1.1,0,2.2,0,3.3c0,1-0.1,2.1,0,3.1c0.1,1.3,0.3,2.6,0.5,3.9
								c0.5,2.9,1,5.9-0.1,8.7C310.6,342.1,310.2,342.3,309.9,342.2z"/>
						</g>
					</g>
				</g>
				<g>
					<g>
						<path class="st4" d="M224.6,259.4c-8.1,7.1-20,9.5-30.2,6c-8.6-3-15.6-10.1-18.5-18.7c-0.5-1.6-0.9-3.1-1.2-4.8
							c-0.5-2.9-0.5-5.8,0.2-8.6c1.7-7,7.9-12.4,15-13.7c7.1-1.3,14.6,1.5,19.5,6.7l5.9,12.7L224.6,259.4z"/>
					</g>
				</g>
				<path class="st7" d="M340.6,596.8c4-2.3,8.1-4.3,11.8-6.6c3.7-2.3,7.1-5.1,9.2-8.7c1.1-1.8,1.8-3.8,2.4-5.9
					c0.5-2.1,0.8-4.1,0.5-6.2c-0.2-2.1-0.6-4.4-0.9-6.7c-0.3-2.3-0.6-4.5-0.8-6.8c-0.4-4.5-0.7-9.1-0.8-13.6
					c-0.2-4.5-0.2-9.1-0.1-13.6c0.2-9.1,0.7-18.1,1.2-27.2c1-18.1,2.4-36.2,2-54.3c-0.3-18.1-1.8-36.2-4.5-54.1
					c3,17.9,4.7,36,5.4,54.1c0.7,18.1-0.4,36.3-1.1,54.4c-0.4,9-0.7,18.1-0.7,27.1c0,4.5,0,9,0.3,13.5c0.2,4.5,0.5,9,1.1,13.5
					c0.3,2.2,0.6,4.5,0.9,6.7c0.3,2.2,0.8,4.4,1.1,6.8c0.3,2.4,0.1,4.9-0.5,7.2c-0.5,2.3-1.4,4.6-2.6,6.7c-1.2,2.1-2.7,4.1-4.5,5.7
					c-1.8,1.7-3.7,3.1-5.6,4.3c-3.9,2.5-8,4.5-11.8,6.8L340.6,596.8z"/>
				<path class="st7" d="M150,366.7c4.4,3.2,8.1,7.4,11.1,12c3,4.7,5.1,9.8,6.8,15.1c1.7,5.3,2.7,10.7,3.4,16.2
					c0.7,5.4,1,10.9,1.1,16.4c0.1,5.5-0.2,11-0.6,16.4c-0.5,5.5-1.2,10.9-2.3,16.2c-2,10.7-5.3,21.3-10.4,30.9
					c3.7-10.2,6.2-20.7,7.7-31.4c0.7-5.3,1.3-10.7,1.7-16.1c0.4-5.4,0.6-10.7,0.4-16.1c0-5.4-0.3-10.7-0.9-16.1
					c-0.3-2.7-0.6-5.3-1.1-8c-0.5-2.6-1-5.2-1.6-7.8c-0.7-2.6-1.4-5.1-2.4-7.6c-0.4-1.3-1-2.5-1.5-3.7c-0.6-1.2-1.1-2.4-1.7-3.6
					C157.2,374.8,153.9,370.5,150,366.7z"/>
				<g>
					<g>
						<path class="st7" d="M215.9,347.2c-0.4,0-0.7-0.2-0.8-0.6c-0.2-0.5,0.1-1,0.5-1.1c1.1-0.4,2.3-0.8,3.4-1.2
							c0.5-0.2,1,0.1,1.1,0.5c0.2,0.5-0.1,1-0.5,1.1c-1.1,0.4-2.3,0.8-3.4,1.2C216.1,347.2,216,347.2,215.9,347.2z"/>
					</g>
					<g>
						<path class="st7" d="M137.4,698.2c-0.2,0-0.3,0-0.5-0.1c-2-1.3-4-2.6-6.1-3.9c-0.4-0.3-0.5-0.8-0.3-1.2
							c0.3-0.4,0.8-0.5,1.2-0.3c2,1.3,4,2.6,6.1,3.9c0.4,0.3,0.5,0.8,0.3,1.2C138,698.1,137.7,698.2,137.4,698.2z M125.3,690.3
							c-0.2,0-0.3,0-0.5-0.1c-2-1.3-4-2.7-6-4c-0.4-0.3-0.5-0.8-0.2-1.2c0.3-0.4,0.8-0.5,1.2-0.2c2,1.3,4,2.7,6,4
							c0.4,0.3,0.5,0.8,0.3,1.2C125.9,690.2,125.6,690.3,125.3,690.3z M113.4,682.3c-0.2,0-0.4-0.1-0.5-0.2c-2-1.4-4-2.7-5.9-4.1
							c-0.4-0.3-0.5-0.8-0.2-1.2c0.3-0.4,0.8-0.5,1.2-0.2c2,1.4,3.9,2.7,5.9,4.1c0.4,0.3,0.5,0.8,0.2,1.2
							C113.9,682.2,113.6,682.3,113.4,682.3z M101.6,674c-0.2,0-0.4-0.1-0.5-0.2c-2-1.4-3.9-2.8-5.8-4.3c-0.4-0.3-0.5-0.9-0.2-1.3
							c0.3-0.4,0.9-0.5,1.3-0.2c1.9,1.4,3.9,2.9,5.8,4.3c0.4,0.3,0.5,0.9,0.2,1.3C102.1,673.9,101.8,674,101.6,674z M90,665.4
							c-0.2,0-0.4-0.1-0.5-0.2c-1.9-1.5-3.8-3-5.7-4.5c-0.4-0.3-0.4-0.9-0.1-1.3c0.3-0.4,0.9-0.4,1.3-0.1c1.8,1.5,3.7,3,5.6,4.5
							c0.4,0.3,0.5,0.9,0.2,1.3C90.5,665.3,90.3,665.4,90,665.4z M78.8,656.3c-0.2,0-0.4-0.1-0.6-0.2c-1.9-1.6-3.7-3.2-5.5-4.7
							c-0.4-0.3-0.4-0.9-0.1-1.3c0.3-0.4,0.9-0.4,1.3-0.1c1.8,1.6,3.6,3.1,5.4,4.7c0.4,0.3,0.4,0.9,0.1,1.3
							C79.3,656.2,79.1,656.3,78.8,656.3z M68,646.7c-0.2,0-0.4-0.1-0.6-0.2c-1.8-1.6-3.5-3.2-5.3-4.9c-0.4-0.3-0.4-0.9,0-1.3
							c0.3-0.4,0.9-0.4,1.3,0c1.8,1.6,3.5,3.3,5.3,4.9c0.4,0.3,0.4,0.9,0.1,1.3C68.5,646.6,68.3,646.7,68,646.7z M57.5,636.9
							c-0.2,0-0.4-0.1-0.6-0.3c-1.8-1.7-3.5-3.5-5.2-5.1c-0.3-0.4-0.3-0.9,0-1.3c0.4-0.3,0.9-0.3,1.3,0c1.6,1.6,3.3,3.3,5.1,5.1
							c0.4,0.3,0.4,0.9,0,1.3C57.9,636.8,57.7,636.9,57.5,636.9z M47.3,626.6c-0.2,0-0.5-0.1-0.7-0.3c-1.7-1.8-3.3-3.6-4.8-5.4
							c-0.3-0.4-0.3-0.9,0.1-1.3c0.4-0.3,0.9-0.3,1.3,0.1c1.5,1.7,3.1,3.5,4.8,5.4c0.3,0.4,0.3,0.9,0,1.3
							C47.8,626.6,47.5,626.6,47.3,626.6z M37.9,615.7c-0.3,0-0.5-0.1-0.7-0.3c-1.5-2-3-3.9-4.3-5.8c-0.3-0.4-0.2-1,0.2-1.2
							c0.4-0.3,1-0.2,1.2,0.2c1.3,1.9,2.7,3.8,4.2,5.8c0.3,0.4,0.2,1-0.2,1.3C38.3,615.6,38.1,615.7,37.9,615.7z M29.8,603.8
							c-0.3,0-0.6-0.2-0.8-0.4c-1.3-2.1-2.4-4.3-3.5-6.4c-0.2-0.4,0-1,0.4-1.2c0.4-0.2,1,0,1.2,0.4c1,2.1,2.2,4.2,3.4,6.3
							c0.3,0.4,0.1,1-0.3,1.2C30.1,603.8,29.9,603.8,29.8,603.8z M23.5,590.9c-0.4,0-0.7-0.2-0.8-0.6c-0.9-2.3-1.6-4.6-2.2-6.9
							c-0.1-0.5,0.2-1,0.6-1.1c0.5-0.1,1,0.2,1.1,0.6c0.6,2.2,1.3,4.5,2.2,6.8c0.2,0.5-0.1,1-0.5,1.2
							C23.7,590.8,23.6,590.9,23.5,590.9z M19.8,576.9c-0.4,0-0.8-0.3-0.9-0.8c0-0.3-0.1-0.6-0.1-0.9c-0.3-2.1-0.4-4.2-0.4-6.4
							c0-0.5,0.4-0.9,0.9-0.9c0.5,0,0.9,0.4,0.9,0.9c0,2.1,0.2,4.1,0.4,6.2c0,0.3,0.1,0.6,0.1,0.9c0.1,0.5-0.3,0.9-0.8,1
							C19.9,576.9,19.9,576.9,19.8,576.9z M19.6,562.5C19.6,562.5,19.6,562.5,19.6,562.5c-0.6-0.1-0.9-0.5-0.9-1
							c0.2-2.4,0.6-4.8,1.1-7.2c0.1-0.5,0.6-0.8,1.1-0.7c0.5,0.1,0.8,0.6,0.7,1.1c-0.5,2.4-0.9,4.7-1.1,7
							C20.5,562.2,20.1,562.5,19.6,562.5z M22.6,548.4c-0.1,0-0.2,0-0.3,0c-0.5-0.1-0.7-0.6-0.6-1.1c0.7-2.2,1.5-4.6,2.4-6.9
							c0.2-0.5,0.7-0.7,1.2-0.5c0.5,0.2,0.7,0.7,0.5,1.2c-0.9,2.3-1.7,4.6-2.3,6.8C23.3,548.2,23,548.4,22.6,548.4z M27.7,535
							c-0.1,0-0.3,0-0.4-0.1c-0.4-0.2-0.6-0.7-0.4-1.2c1-2.1,2-4.3,3.2-6.5c0.2-0.4,0.8-0.6,1.2-0.4c0.4,0.2,0.6,0.8,0.4,1.2
							c-1.1,2.2-2.2,4.4-3.1,6.4C28.4,534.8,28.1,535,27.7,535z M34.3,522.2c-0.1,0-0.3,0-0.4-0.1c-0.4-0.2-0.6-0.8-0.3-1.2
							c1.1-2,2.3-4,3.7-6.2c0.3-0.4,0.8-0.6,1.2-0.3c0.4,0.3,0.6,0.8,0.3,1.2c-1.3,2.2-2.5,4.2-3.6,6.2
							C34.9,522,34.6,522.2,34.3,522.2z M41.7,509.8c-0.2,0-0.3,0-0.5-0.1c-0.4-0.3-0.5-0.8-0.3-1.2c1.3-2,2.6-4.1,3.9-6.1
							c0.3-0.4,0.8-0.5,1.2-0.3c0.4,0.3,0.5,0.8,0.3,1.2c-1.3,2-2.6,4-3.9,6.1C42.3,509.6,42,509.8,41.7,509.8z M49.6,497.7
							c-0.2,0-0.3,0-0.5-0.1c-0.4-0.3-0.5-0.8-0.3-1.2c1.3-2,2.7-4,4-6c0.3-0.4,0.8-0.5,1.2-0.2c0.4,0.3,0.5,0.8,0.2,1.2
							c-1.3,2-2.7,4-4,6C50.1,497.5,49.8,497.7,49.6,497.7z M57.7,485.7c-0.2,0-0.4-0.1-0.5-0.2c-0.4-0.3-0.5-0.8-0.2-1.2
							c1.4-2,2.8-3.9,4.2-5.9c0.3-0.4,0.8-0.5,1.3-0.2c0.4,0.3,0.5,0.8,0.2,1.3c-1.4,2-2.8,3.9-4.1,5.9
							C58.2,485.6,57.9,485.7,57.7,485.7z M66,474c-0.2,0-0.4-0.1-0.5-0.2c-0.4-0.3-0.5-0.9-0.2-1.3c1.4-1.9,2.8-3.9,4.3-5.8
							c0.3-0.4,0.9-0.5,1.3-0.2c0.4,0.3,0.5,0.9,0.2,1.3c-1.4,1.9-2.8,3.9-4.3,5.8C66.6,473.8,66.3,474,66,474z M74.6,462.4
							c-0.2,0-0.4-0.1-0.5-0.2c-0.4-0.3-0.5-0.9-0.2-1.3c1.4-1.9,2.9-3.8,4.4-5.8c0.3-0.4,0.9-0.5,1.3-0.2c0.4,0.3,0.5,0.9,0.2,1.3
							c-1.5,1.9-2.9,3.8-4.4,5.7C75.1,462.3,74.9,462.4,74.6,462.4z M83.3,450.9c-0.2,0-0.4-0.1-0.5-0.2c-0.4-0.3-0.5-0.9-0.2-1.3
							c1.5-1.9,3-3.8,4.4-5.7c0.3-0.4,0.9-0.5,1.3-0.2c0.4,0.3,0.5,0.9,0.2,1.3c-1.5,1.9-3,3.8-4.4,5.7
							C83.9,450.8,83.6,450.9,83.3,450.9z M92.3,439.6c-0.2,0-0.4-0.1-0.6-0.2c-0.4-0.3-0.5-0.9-0.1-1.3c1.5-1.9,3-3.8,4.5-5.6
							c0.3-0.4,0.9-0.4,1.3-0.1c0.4,0.3,0.4,0.9,0.1,1.3c-1.5,1.9-3,3.8-4.5,5.6C92.8,439.5,92.5,439.6,92.3,439.6z M101.3,428.3
							c-0.2,0-0.4-0.1-0.6-0.2c-0.4-0.3-0.4-0.9-0.1-1.3c1.5-1.9,3-3.7,4.5-5.6c0.3-0.4,0.9-0.4,1.3-0.1c0.4,0.3,0.4,0.9,0.1,1.3
							c-1.5,1.9-3,3.7-4.5,5.6C101.8,428.2,101.5,428.3,101.3,428.3z M110.4,417.1c-0.2,0-0.4-0.1-0.6-0.2c-0.4-0.3-0.4-0.9-0.1-1.3
							c1.5-1.9,3-3.7,4.6-5.6c0.3-0.4,0.9-0.4,1.3-0.1c0.4,0.3,0.4,0.9,0.1,1.3c-1.5,1.9-3,3.7-4.6,5.6
							C110.9,417,110.6,417.1,110.4,417.1z M119.5,406c-0.2,0-0.4-0.1-0.6-0.2c-0.4-0.3-0.4-0.9-0.1-1.3l4.6-5.6
							c0.3-0.4,0.9-0.4,1.3-0.1c0.4,0.3,0.4,0.9,0.1,1.3l-4.6,5.6C120,405.8,119.8,406,119.5,406z M128.7,394.8
							c-0.2,0-0.4-0.1-0.6-0.2c-0.4-0.3-0.4-0.9-0.1-1.3c1.7-2,3.3-3.8,4.8-5.4c0.3-0.4,0.9-0.4,1.3-0.1c0.4,0.3,0.4,0.9,0.1,1.3
							c-1.5,1.6-3,3.4-4.7,5.4C129.2,394.7,128.9,394.8,128.7,394.8z M138.5,384.2c-0.2,0-0.5-0.1-0.6-0.3c-0.3-0.4-0.3-0.9,0-1.3
							c1.8-1.8,3.6-3.4,5.4-4.9c0.4-0.3,0.9-0.3,1.3,0.1c0.3,0.4,0.3,0.9-0.1,1.3c-1.7,1.4-3.5,3.1-5.3,4.8
							C138.9,384.2,138.7,384.2,138.5,384.2z M149.6,375.1c-0.3,0-0.6-0.1-0.7-0.4c-0.3-0.4-0.2-1,0.2-1.2c1.9-1.3,4-2.6,6.2-3.8
							c0.4-0.2,1-0.1,1.2,0.3c0.2,0.4,0.1,1-0.3,1.2c-2.1,1.2-4.2,2.5-6.1,3.8C149.9,375,149.8,375.1,149.6,375.1z M162.1,368
							c-0.3,0-0.7-0.2-0.8-0.5c-0.2-0.4,0-1,0.4-1.2c2-1,4.2-2,6.6-3c0.5-0.2,1,0,1.2,0.5c0.2,0.5,0,1-0.5,1.2c-2.4,1-4.5,2-6.5,3
							C162.4,367.9,162.2,368,162.1,368z M175.4,362.3c-0.4,0-0.7-0.2-0.8-0.6c-0.2-0.5,0-1,0.5-1.2c1.6-0.6,3.1-1.2,4.7-1.8
							l2.1-0.8c0.5-0.2,1,0.1,1.2,0.5c0.2,0.5-0.1,1-0.5,1.2l-2.1,0.8c-1.6,0.6-3.1,1.2-4.7,1.8
							C175.6,362.3,175.5,362.3,175.4,362.3z M188.8,357.1c-0.4,0-0.7-0.2-0.8-0.6c-0.2-0.5,0.1-1,0.5-1.2c2.3-0.8,4.5-1.7,6.8-2.5
							c0.5-0.2,1,0.1,1.2,0.5c0.2,0.5-0.1,1-0.5,1.2c-2.3,0.8-4.5,1.7-6.8,2.5C189,357.1,188.9,357.1,188.8,357.1z M202.4,352.1
							c-0.4,0-0.7-0.2-0.8-0.6c-0.2-0.5,0.1-1,0.5-1.1c2.3-0.8,4.5-1.6,6.8-2.5c0.5-0.2,1,0.1,1.1,0.5c0.2,0.5-0.1,1-0.5,1.1
							c-2.3,0.8-4.5,1.6-6.8,2.5C202.6,352.1,202.5,352.1,202.4,352.1z"/>
					</g>
					<g>
						<path class="st7" d="M146.6,704c-0.2,0-0.3,0-0.5-0.1l-3-1.9c-0.4-0.3-0.5-0.8-0.3-1.2c0.3-0.4,0.8-0.5,1.2-0.3l3,1.9
							c0.4,0.3,0.5,0.8,0.3,1.2C147.2,703.9,146.9,704,146.6,704z"/>
					</g>
				</g>
				<path class="st12" d="M268.7,218.8c-0.8-5-4.2-8.7-7.5-8.1c-3.3,0.6-5.3,5.1-4.4,10.1c0.8,5,4.2,8.7,7.5,8.1
					C267.6,228.4,269.5,223.9,268.7,218.8z"/>
				<path class="st12" d="M314.3,214.4c-0.8-4.9-4.1-8.5-7.3-7.9c-3.2,0.5-5.1,5-4.3,9.9c0.8,4.9,4.1,8.5,7.3,7.9
					C313.2,223.7,315.1,219.3,314.3,214.4z"/>
				<g>
					<path class="st12" d="M250.5,199.4c-0.5,0-1-0.2-1.4-0.7c-0.6-0.8-0.5-1.9,0.3-2.5c4.9-3.9,11.9-4.8,17.6-2.3
						c0.9,0.4,1.3,1.5,0.9,2.4c-0.4,0.9-1.5,1.3-2.4,0.9c-4.5-2-10.1-1.3-13.9,1.8C251.3,199.3,250.9,199.4,250.5,199.4z"/>
				</g>
				<g>
					<path class="st12" d="M297.4,195.2c-0.5,0-1.1-0.3-1.4-0.7c-0.6-0.8-0.4-1.9,0.4-2.5c4.6-3.4,11.1-4,16.3-1.6
						c0.9,0.4,1.3,1.5,0.8,2.4c-0.4,0.9-1.5,1.3-2.4,0.8c-4-1.9-9.1-1.4-12.6,1.2C298.2,195.1,297.8,195.2,297.4,195.2z"/>
				</g>
				<path class="st12" d="M286.5,230.9c1.2-1.3,3.2-1.9,5.1-1.6c1.9,0.3,3.7,1.7,4.6,3.5c1,1.7,1.1,4,0.2,5.8
					c-0.8,1.8-2.4,3.1-4.2,3.4c1.2-1.2,1.9-2.6,2.2-4c0.3-1.4,0-2.7-0.6-3.9c-0.6-1.2-1.6-2.1-2.8-2.7
					C289.8,230.8,288.2,230.6,286.5,230.9z"/>
				<g>
					<path class="st13" d="M313.4,248.5l0,0.1c0.9,5.5-0.3,11-3.2,15.4c-3.4,5.3-8.9,9.2-15.7,10.3c-7.3,1.2-14.3-1.1-19.2-5.6
						c-3.5-3.2-6.1-7.6-6.9-12.6l0-0.1L313.4,248.5z"/>
					<path class="st14" d="M310.3,264.1c-3.4,5.3-8.9,9.2-15.7,10.3c-7.3,1.2-14.3-1.1-19.2-5.6c1.7-1,3.5-1.9,5.3-2.7
						c7-3,14.7-4.8,22.2-3.8C305.4,262.6,307.9,263.2,310.3,264.1z"/>
					<path class="st15" d="M309.2,249.2c-0.5,0.6-1.1,1.1-1.6,1.6c-8.4,7.8-24.9,12.6-34.3,4.4L309.2,249.2z"/>
				</g>
				<path class="st15" d="M264.1,216.1c-2.8,0-2.8,4.3,0,4.3C266.9,220.4,266.9,216.1,264.1,216.1z"/>
				<path class="st15" d="M309.9,211.3c-2.8,0-2.8,4.3,0,4.3C312.7,215.6,312.7,211.3,309.9,211.3z"/>
			</g>
		</g>
	</g>
	<g>
		<path class="st16" d="M243,489c-0.7,0-1.3-0.6-1.3-1.3c0-0.7,0.6-1.3,1.3-1.3c2.3,0,4.6,0,6.9-0.1c0.7,0,1.3,0.5,1.3,1.3
			c0,0.7-0.5,1.3-1.3,1.3C247.6,489,245.3,489,243,489z M236.1,488.9C236.1,488.9,236.1,488.9,236.1,488.9c-2.3-0.1-4.7-0.2-7-0.3
			c-0.7,0-1.3-0.6-1.2-1.4c0-0.7,0.6-1.3,1.4-1.2c2.3,0.1,4.6,0.2,6.9,0.3c0.7,0,1.3,0.6,1.3,1.3
			C237.3,488.4,236.8,488.9,236.1,488.9z M256.8,488.6c-0.7,0-1.2-0.5-1.3-1.2c0-0.7,0.5-1.3,1.2-1.4c2.3-0.1,4.6-0.3,6.8-0.5
			c0.7-0.1,1.3,0.5,1.4,1.2c0.1,0.7-0.5,1.3-1.2,1.4C261.5,488.4,259.1,488.5,256.8,488.6C256.8,488.6,256.8,488.6,256.8,488.6z
			 M222.3,488.2c0,0-0.1,0-0.1,0c-2.3-0.2-4.6-0.4-6.9-0.7c-0.7-0.1-1.2-0.7-1.1-1.4c0.1-0.7,0.7-1.2,1.4-1.1
			c2.3,0.3,4.6,0.5,6.8,0.7c0.7,0.1,1.2,0.7,1.2,1.4C223.5,487.7,223,488.2,222.3,488.2z M270.5,487.5c-0.6,0-1.2-0.5-1.3-1.1
			c-0.1-0.7,0.4-1.3,1.1-1.4c2.3-0.3,4.5-0.6,6.8-0.9c0.7-0.1,1.4,0.4,1.5,1.1s-0.4,1.4-1.1,1.5c-2.3,0.3-4.6,0.6-6.9,0.9
			C270.6,487.5,270.6,487.5,270.5,487.5z M208.6,486.6c-0.1,0-0.1,0-0.2,0c-2.3-0.3-4.6-0.7-6.9-1.1c-0.7-0.1-1.2-0.8-1.1-1.5
			c0.1-0.7,0.8-1.2,1.5-1.1c2.2,0.4,4.5,0.7,6.8,1.1c0.7,0.1,1.2,0.8,1.1,1.5C209.8,486.2,209.2,486.6,208.6,486.6z M284.2,485.5
			c-0.6,0-1.2-0.4-1.3-1.1c-0.1-0.7,0.4-1.4,1.1-1.5c2.2-0.4,4.5-0.8,6.7-1.3c0.7-0.1,1.4,0.3,1.5,1c0.1,0.7-0.3,1.4-1,1.5
			c-2.3,0.5-4.6,0.9-6.8,1.3C284.3,485.5,284.3,485.5,284.2,485.5z M195,484.3c-0.1,0-0.2,0-0.3,0c-2.3-0.5-4.5-0.9-6.8-1.5
			c-0.7-0.2-1.1-0.9-1-1.5c0.2-0.7,0.9-1.1,1.5-1c2.2,0.5,4.5,1,6.7,1.4c0.7,0.1,1.2,0.8,1,1.5C196.1,483.9,195.6,484.3,195,484.3z
			 M297.7,482.8c-0.6,0-1.1-0.4-1.3-1c-0.2-0.7,0.3-1.4,1-1.5c2.2-0.5,4.5-1.1,6.7-1.6c0.7-0.2,1.4,0.2,1.6,0.9
			c0.2,0.7-0.2,1.4-0.9,1.6c-2.2,0.6-4.5,1.1-6.7,1.7C297.9,482.8,297.8,482.8,297.7,482.8z M181.5,481.2c-0.1,0-0.2,0-0.3,0
			c-2.2-0.6-4.5-1.2-6.7-1.9c-0.7-0.2-1.1-0.9-0.9-1.6c0.2-0.7,0.9-1.1,1.6-0.9c2.2,0.6,4.4,1.3,6.6,1.8c0.7,0.2,1.1,0.9,0.9,1.6
			C182.6,480.8,182.1,481.2,181.5,481.2z M311.1,479.3c-0.6,0-1.1-0.4-1.2-0.9c-0.2-0.7,0.2-1.4,0.9-1.6c2.2-0.6,4.4-1.3,6.6-2
			c0.7-0.2,1.4,0.1,1.6,0.8c0.2,0.7-0.2,1.4-0.8,1.6c-2.2,0.7-4.4,1.4-6.6,2C311.3,479.3,311.2,479.3,311.1,479.3z M168.3,477.3
			c-0.1,0-0.3,0-0.4-0.1c-2.2-0.7-4.4-1.5-6.6-2.2c-0.7-0.2-1-1-0.8-1.6c0.2-0.7,1-1,1.6-0.8c2.1,0.8,4.3,1.5,6.5,2.2
			c0.7,0.2,1,0.9,0.8,1.6C169.3,477,168.8,477.3,168.3,477.3z M324.2,475c-0.5,0-1-0.3-1.2-0.9c-0.2-0.7,0.1-1.4,0.8-1.6
			c2.1-0.8,4.3-1.6,6.4-2.4c0.7-0.3,1.4,0.1,1.7,0.7c0.3,0.7-0.1,1.4-0.7,1.7c-2.1,0.8-4.3,1.7-6.5,2.4
			C324.5,475,324.3,475,324.2,475z M155.3,472.7c-0.2,0-0.3,0-0.5-0.1c-2.2-0.8-4.3-1.7-6.4-2.6c-0.7-0.3-1-1-0.7-1.7
			c0.3-0.7,1-1,1.7-0.7c2.1,0.9,4.2,1.8,6.4,2.6c0.7,0.3,1,1,0.7,1.7C156.3,472.4,155.8,472.7,155.3,472.7z M337,470
			c-0.5,0-1-0.3-1.2-0.8c-0.3-0.7,0-1.4,0.7-1.7c2.1-0.9,4.2-1.8,6.3-2.8c0.6-0.3,1.4,0,1.7,0.6c0.3,0.6,0,1.4-0.6,1.7
			c-2.1,1-4.2,1.9-6.3,2.8C337.4,470,337.2,470,337,470z M142.5,467.3c-0.2,0-0.4,0-0.5-0.1c-2.1-1-4.2-2-6.3-3
			c-0.6-0.3-0.9-1.1-0.6-1.7c0.3-0.6,1.1-0.9,1.7-0.6c2,1,4.1,2,6.2,2.9c0.6,0.3,0.9,1.1,0.6,1.7C143.5,467,143,467.3,142.5,467.3z
			 M349.5,464.3c-0.5,0-0.9-0.3-1.2-0.7c-0.3-0.6-0.1-1.4,0.6-1.7c2-1,4.1-2.1,6.1-3.1c0.6-0.3,1.4-0.1,1.7,0.5
			c0.3,0.6,0.1,1.4-0.5,1.7c-2,1.1-4.1,2.1-6.2,3.1C349.9,464.2,349.7,464.3,349.5,464.3z M130.1,461.2c-0.2,0-0.4,0-0.6-0.1
			c-2-1.1-4.1-2.2-6.1-3.3c-0.6-0.4-0.8-1.1-0.5-1.8c0.4-0.6,1.1-0.8,1.8-0.5c2,1.1,4,2.2,6,3.3c0.6,0.3,0.9,1.1,0.5,1.7
			C131,460.9,130.6,461.2,130.1,461.2z M361.7,457.9c-0.4,0-0.9-0.2-1.1-0.7c-0.4-0.6-0.1-1.4,0.5-1.8c2-1.1,4-2.3,5.9-3.5
			c0.6-0.4,1.4-0.2,1.8,0.4c0.4,0.6,0.2,1.4-0.4,1.8c-2,1.2-4,2.4-6,3.5C362.1,457.8,361.9,457.9,361.7,457.9z M118.1,454.4
			c-0.2,0-0.5-0.1-0.7-0.2c-2-1.2-4-2.4-5.9-3.7c-0.6-0.4-0.8-1.2-0.4-1.8c0.4-0.6,1.2-0.8,1.8-0.4c1.9,1.2,3.9,2.5,5.8,3.6
			c0.6,0.4,0.8,1.2,0.4,1.8C118.9,454.1,118.5,454.4,118.1,454.4z M373.5,450.7c-0.4,0-0.8-0.2-1.1-0.6c-0.4-0.6-0.2-1.4,0.4-1.8
			c1.9-1.2,3.8-2.5,5.7-3.8c0.6-0.4,1.4-0.3,1.8,0.3c0.4,0.6,0.3,1.4-0.3,1.8c-1.9,1.3-3.8,2.6-5.8,3.8
			C374,450.7,373.7,450.7,373.5,450.7z M106.5,446.9c-0.3,0-0.5-0.1-0.7-0.2c-1.9-1.3-3.8-2.6-5.7-4c-0.6-0.4-0.7-1.2-0.3-1.8
			c0.4-0.6,1.2-0.7,1.8-0.3c1.8,1.3,3.7,2.7,5.6,4c0.6,0.4,0.7,1.2,0.3,1.8C107.3,446.7,106.9,446.9,106.5,446.9z M384.9,442.9
			c-0.4,0-0.8-0.2-1-0.5c-0.4-0.6-0.3-1.4,0.3-1.8c1.8-1.3,3.7-2.7,5.5-4.1c0.6-0.4,1.4-0.3,1.8,0.2c0.4,0.6,0.3,1.4-0.2,1.8
			c-1.8,1.4-3.7,2.8-5.5,4.2C385.4,442.9,385.1,442.9,384.9,442.9z M95.3,438.8c-0.3,0-0.6-0.1-0.8-0.3c-1.8-1.4-3.6-2.9-5.4-4.3
			c-0.6-0.5-0.6-1.3-0.2-1.8c0.5-0.6,1.3-0.6,1.8-0.2c1.8,1.4,3.6,2.9,5.4,4.3c0.6,0.4,0.7,1.2,0.2,1.8
			C96.1,438.6,95.7,438.8,95.3,438.8z M395.8,434.5c-0.4,0-0.7-0.2-1-0.5c-0.5-0.6-0.4-1.4,0.2-1.8c1.8-1.4,3.5-2.9,5.2-4.4
			c0.5-0.5,1.4-0.4,1.8,0.1c0.5,0.5,0.4,1.4-0.1,1.8c-1.7,1.5-3.5,3-5.3,4.5C396.3,434.4,396.1,434.5,395.8,434.5z M84.6,430
			c-0.3,0-0.6-0.1-0.8-0.3c-1.7-1.5-3.5-3.1-5.2-4.6c-0.5-0.5-0.6-1.3-0.1-1.8c0.5-0.5,1.3-0.6,1.8-0.1c1.7,1.5,3.4,3.1,5.1,4.6
			c0.5,0.5,0.6,1.3,0.1,1.8C85.3,429.9,85,430,84.6,430z M406.2,425.5c-0.3,0-0.7-0.1-1-0.4c-0.5-0.5-0.4-1.3,0.1-1.8
			c1.7-1.5,3.4-3.1,5-4.7c0.5-0.5,1.3-0.5,1.8,0c0.5,0.5,0.5,1.3,0,1.8c-1.6,1.6-3.3,3.2-5,4.8C406.8,425.4,406.5,425.5,406.2,425.5
			z M74.4,420.7c-0.3,0-0.6-0.1-0.9-0.4c-1.7-1.6-3.3-3.3-4.9-4.9c-0.5-0.5-0.5-1.3,0-1.8c0.5-0.5,1.3-0.5,1.8,0
			c1.6,1.6,3.2,3.3,4.9,4.9c0.5,0.5,0.5,1.3,0,1.8C75.1,420.6,74.8,420.7,74.4,420.7z M416.1,415.9c-0.3,0-0.6-0.1-0.9-0.4
			c-0.5-0.5-0.5-1.3,0-1.8c1.6-1.6,3.2-3.3,4.7-5c0.5-0.5,1.3-0.6,1.8-0.1c0.5,0.5,0.6,1.3,0.1,1.8c-1.6,1.7-3.2,3.4-4.8,5
			C416.8,415.8,416.4,415.9,416.1,415.9z M64.8,410.8c-0.3,0-0.7-0.1-1-0.4c-1.6-1.7-3.1-3.4-4.6-5.2c-0.5-0.5-0.4-1.4,0.1-1.8
			c0.5-0.5,1.4-0.4,1.8,0.1c1.5,1.7,3,3.4,4.6,5.1c0.5,0.5,0.4,1.3-0.1,1.8C65.4,410.7,65.1,410.8,64.8,410.8z M425.4,405.7
			c-0.3,0-0.6-0.1-0.8-0.3c-0.5-0.5-0.6-1.3-0.1-1.8c1.5-1.7,3-3.5,4.4-5.2c0.5-0.6,1.3-0.6,1.8-0.2c0.6,0.5,0.6,1.3,0.2,1.8
			c-1.5,1.8-3,3.6-4.5,5.3C426.2,405.6,425.8,405.7,425.4,405.7z M55.8,400.4c-0.4,0-0.7-0.2-1-0.5c-1.5-1.8-2.9-3.6-4.3-5.4
			c-0.4-0.6-0.3-1.4,0.2-1.8c0.6-0.4,1.4-0.3,1.8,0.2c1.4,1.8,2.8,3.6,4.3,5.4c0.5,0.6,0.4,1.4-0.2,1.8
			C56.4,400.3,56.1,400.4,55.8,400.4z M434.2,395c-0.3,0-0.6-0.1-0.8-0.3c-0.6-0.4-0.7-1.2-0.2-1.8c1.4-1.8,2.8-3.7,4.1-5.5
			c0.4-0.6,1.2-0.7,1.8-0.3c0.6,0.4,0.7,1.2,0.3,1.8c-1.4,1.9-2.8,3.7-4.2,5.6C435,394.9,434.6,395,434.2,395z M47.4,389.5
			c-0.4,0-0.8-0.2-1-0.5c-1.4-1.9-2.7-3.8-4-5.7c-0.4-0.6-0.3-1.4,0.3-1.8c0.6-0.4,1.4-0.3,1.8,0.3c1.3,1.9,2.6,3.8,4,5.6
			c0.4,0.6,0.3,1.4-0.3,1.8C47.9,389.4,47.6,389.5,47.4,389.5z M442.3,383.9c-0.3,0-0.5-0.1-0.7-0.2c-0.6-0.4-0.7-1.2-0.3-1.8
			c1.3-1.9,2.6-3.8,3.8-5.7c0.4-0.6,1.2-0.8,1.8-0.4c0.6,0.4,0.8,1.2,0.4,1.8c-1.2,1.9-2.5,3.9-3.8,5.8
			C443.1,383.7,442.7,383.9,442.3,383.9z M39.6,378.1c-0.4,0-0.8-0.2-1.1-0.6c-1.2-1.9-2.5-3.9-3.7-5.9c-0.4-0.6-0.2-1.4,0.4-1.8
			c0.6-0.4,1.4-0.2,1.8,0.4c1.2,1.9,2.4,3.9,3.6,5.8c0.4,0.6,0.2,1.4-0.4,1.8C40.1,378,39.8,378.1,39.6,378.1z M449.8,372.3
			c-0.2,0-0.5-0.1-0.7-0.2c-0.6-0.4-0.8-1.2-0.4-1.8c1.2-1.9,2.3-3.9,3.5-5.9c0.4-0.6,1.1-0.8,1.8-0.5c0.6,0.4,0.8,1.1,0.5,1.8
			c-1.1,2-2.3,4-3.5,6C450.7,372,450.2,372.3,449.8,372.3z M32.4,366.3c-0.4,0-0.9-0.2-1.1-0.7c-1.1-2-2.3-4-3.3-6.1
			c-0.3-0.6-0.1-1.4,0.5-1.7c0.6-0.3,1.4-0.1,1.7,0.5c1.1,2,2.2,4,3.3,6c0.4,0.6,0.1,1.4-0.5,1.8C32.9,366.3,32.7,366.3,32.4,366.3z
			 M456.6,360.2c-0.2,0-0.4,0-0.6-0.2c-0.6-0.3-0.9-1.1-0.5-1.7c1.1-2,2.1-4.1,3.1-6.1c0.3-0.6,1.1-0.9,1.7-0.6
			c0.6,0.3,0.9,1.1,0.6,1.7c-1,2.1-2.1,4.2-3.2,6.2C457.5,360,457.1,360.2,456.6,360.2z M26,354.1c-0.5,0-0.9-0.3-1.2-0.7
			c-1-2.1-2-4.2-3-6.2c-0.3-0.6,0-1.4,0.6-1.7c0.6-0.3,1.4,0,1.7,0.6c0.9,2.1,1.9,4.1,2.9,6.2c0.3,0.6,0.1,1.4-0.6,1.7
			C26.4,354.1,26.2,354.1,26,354.1z M462.7,347.8c-0.2,0-0.4,0-0.5-0.1c-0.6-0.3-0.9-1.1-0.6-1.7c0.9-2.1,1.9-4.2,2.8-6.3
			c0.3-0.7,1-1,1.7-0.7c0.7,0.3,1,1,0.7,1.7c-0.9,2.1-1.8,4.3-2.8,6.4C463.7,347.6,463.2,347.8,462.7,347.8z M20.3,341.6
			c-0.5,0-1-0.3-1.2-0.8c-0.9-2.1-1.8-4.3-2.6-6.4c-0.3-0.7,0.1-1.4,0.7-1.7c0.7-0.3,1.4,0.1,1.7,0.7c0.8,2.1,1.7,4.2,2.6,6.3
			c0.3,0.7,0,1.4-0.7,1.7C20.6,341.6,20.4,341.6,20.3,341.6z M468.1,335.1c-0.2,0-0.3,0-0.5-0.1c-0.7-0.3-1-1-0.7-1.7
			c0.8-2.1,1.6-4.3,2.4-6.4c0.2-0.7,1-1,1.6-0.8c0.7,0.2,1,1,0.8,1.6c-0.8,2.2-1.6,4.4-2.4,6.5C469.1,334.8,468.6,335.1,468.1,335.1
			z M15.3,328.8c-0.5,0-1-0.3-1.2-0.9c-0.8-2.2-1.5-4.4-2.2-6.6c-0.2-0.7,0.1-1.4,0.8-1.6c0.7-0.2,1.4,0.1,1.6,0.8
			c0.7,2.2,1.5,4.4,2.2,6.5c0.2,0.7-0.1,1.4-0.8,1.6C15.6,328.8,15.4,328.8,15.3,328.8z M472.8,322c-0.1,0-0.3,0-0.4-0.1
			c-0.7-0.2-1-0.9-0.8-1.6c0.7-2.2,1.4-4.4,2-6.6c0.2-0.7,0.9-1.1,1.6-0.9c0.7,0.2,1.1,0.9,0.9,1.6c-0.6,2.2-1.3,4.4-2,6.6
			C473.8,321.7,473.3,322,472.8,322z M11,315.7c-0.6,0-1.1-0.4-1.2-0.9c-0.6-2.2-1.3-4.5-1.9-6.7c-0.2-0.7,0.2-1.4,0.9-1.6
			c0.7-0.2,1.4,0.2,1.6,0.9c0.6,2.2,1.2,4.4,1.8,6.6c0.2,0.7-0.2,1.4-0.9,1.6C11.2,315.7,11.1,315.7,11,315.7z M476.7,308.8
			c-0.1,0-0.2,0-0.3,0c-0.7-0.2-1.1-0.9-0.9-1.6c0.6-2.2,1.1-4.4,1.6-6.7c0.2-0.7,0.9-1.1,1.5-1c0.7,0.2,1.1,0.9,1,1.5
			c-0.5,2.2-1.1,4.5-1.7,6.7C477.7,308.4,477.2,308.8,476.7,308.8z M7.5,302.3c-0.6,0-1.1-0.4-1.3-1c-0.5-2.2-1-4.5-1.5-6.8
			c-0.1-0.7,0.3-1.4,1-1.5c0.7-0.1,1.4,0.3,1.5,1c0.5,2.2,0.9,4.5,1.5,6.7c0.2,0.7-0.3,1.4-1,1.5C7.7,302.3,7.6,302.3,7.5,302.3z
			 M479.8,295.4c-0.1,0-0.2,0-0.3,0c-0.7-0.1-1.2-0.8-1-1.5c0.5-2.2,0.9-4.5,1.3-6.7c0.1-0.7,0.8-1.2,1.5-1.1
			c0.7,0.1,1.2,0.8,1.1,1.5c-0.4,2.3-0.8,4.6-1.3,6.8C480.9,294.9,480.4,295.4,479.8,295.4z M4.7,288.8c-0.6,0-1.2-0.4-1.3-1.1
			c-0.4-2.3-0.8-4.6-1.1-6.9c-0.1-0.7,0.4-1.4,1.1-1.5c0.7-0.1,1.4,0.4,1.5,1.1c0.3,2.3,0.7,4.5,1.1,6.8c0.1,0.7-0.3,1.4-1.1,1.5
			C4.9,288.8,4.8,288.8,4.7,288.8z M482.1,281.8c-0.1,0-0.1,0-0.2,0c-0.7-0.1-1.2-0.8-1.1-1.5c0.3-2.2,0.6-4.5,0.9-6.8
			c0.1-0.7,0.7-1.2,1.4-1.1c0.7,0.1,1.2,0.7,1.1,1.4c-0.3,2.3-0.6,4.6-0.9,6.9C483.3,281.3,482.7,281.8,482.1,281.8z M2.8,275.1
			c-0.6,0-1.2-0.5-1.3-1.1c-0.3-2.3-0.5-4.6-0.7-6.9c-0.1-0.7,0.5-1.3,1.2-1.4c0.7-0.1,1.3,0.5,1.4,1.2c0.2,2.3,0.4,4.6,0.7,6.8
			c0.1,0.7-0.4,1.3-1.1,1.4C2.9,275.1,2.8,275.1,2.8,275.1z M483.7,268.1c0,0-0.1,0-0.1,0c-0.7-0.1-1.2-0.7-1.2-1.4
			c0.2-2.3,0.4-4.6,0.5-6.8c0-0.7,0.7-1.3,1.4-1.2c0.7,0,1.3,0.6,1.2,1.4c-0.1,2.3-0.3,4.6-0.5,6.9
			C484.9,267.5,484.3,268.1,483.7,268.1z M1.6,261.4c-0.7,0-1.2-0.5-1.3-1.2c-0.1-2.3-0.2-4.6-0.3-6.9c0-0.7,0.5-1.3,1.3-1.3
			c0.7,0,1.3,0.5,1.3,1.3c0.1,2.3,0.2,4.6,0.3,6.9C2.9,260.7,2.4,261.4,1.6,261.4C1.6,261.4,1.6,261.4,1.6,261.4z M484.4,254.3
			C484.4,254.3,484.4,254.3,484.4,254.3c-0.7,0-1.3-0.6-1.3-1.3c0.1-2.3,0.1-4.6,0.1-6.9l0-0.4c0-0.7,0.6-1.3,1.3-1.3c0,0,0,0,0,0
			c0.7,0,1.3,0.6,1.3,1.3l0,0.5c0,2.3,0,4.6-0.1,6.9C485.7,253.7,485.1,254.3,484.4,254.3z M1.2,247.6c-0.7,0-1.3-0.6-1.3-1.3v-0.2
			c0-2.2,0-4.5,0.1-6.7c0-0.7,0.6-1.3,1.3-1.3c0.7,0,1.3,0.6,1.3,1.3c-0.1,2.2-0.1,4.4-0.1,6.6v0.2C2.5,247,1.9,247.6,1.2,247.6z
			 M484.4,240c-0.7,0-1.3-0.6-1.3-1.3c-0.1-2.3-0.2-4.6-0.3-6.9c0-0.7,0.5-1.3,1.2-1.4c0.7,0,1.3,0.5,1.4,1.2
			c0.1,2.3,0.2,4.6,0.3,6.9C485.7,239.4,485.2,240,484.4,240C484.4,240,484.4,240,484.4,240z M1.6,233.8
			C1.6,233.8,1.5,233.8,1.6,233.8c-0.8,0-1.3-0.6-1.3-1.4c0.1-2.3,0.3-4.6,0.5-6.9c0.1-0.7,0.7-1.2,1.4-1.2c0.7,0.1,1.2,0.7,1.2,1.4
			c-0.2,2.3-0.3,4.6-0.5,6.8C2.8,233.3,2.3,233.8,1.6,233.8z M483.6,226.2c-0.7,0-1.2-0.5-1.3-1.2c-0.2-2.3-0.4-4.6-0.7-6.8
			c-0.1-0.7,0.4-1.3,1.1-1.4c0.7-0.1,1.3,0.4,1.4,1.1c0.3,2.3,0.5,4.6,0.7,6.9c0.1,0.7-0.5,1.3-1.2,1.4
			C483.7,226.2,483.7,226.2,483.6,226.2z M2.7,220.1c0,0-0.1,0-0.1,0c-0.7-0.1-1.2-0.7-1.1-1.4c0.3-2.3,0.6-4.6,0.9-6.9
			c0.1-0.7,0.7-1.2,1.5-1.1c0.7,0.1,1.2,0.8,1.1,1.5c-0.3,2.2-0.6,4.5-0.9,6.8C3.9,219.6,3.4,220.1,2.7,220.1z M482,212.5
			c-0.6,0-1.2-0.5-1.3-1.1c-0.3-2.3-0.7-4.5-1.1-6.8c-0.1-0.7,0.3-1.4,1.1-1.5c0.7-0.1,1.4,0.3,1.5,1.1c0.4,2.3,0.8,4.6,1.1,6.9
			c0.1,0.7-0.4,1.4-1.1,1.5C482.2,212.5,482.1,212.5,482,212.5z M4.7,206.4c-0.1,0-0.1,0-0.2,0c-0.7-0.1-1.2-0.8-1.1-1.5
			c0.4-2.3,0.8-4.6,1.3-6.8c0.1-0.7,0.8-1.1,1.5-1c0.7,0.1,1.2,0.8,1,1.5c-0.4,2.2-0.9,4.5-1.3,6.7C5.8,206,5.3,206.4,4.7,206.4z
			 M479.7,198.9c-0.6,0-1.1-0.4-1.3-1c-0.5-2.2-0.9-4.5-1.5-6.7c-0.2-0.7,0.3-1.4,1-1.6c0.7-0.2,1.4,0.3,1.5,1
			c0.5,2.2,1,4.5,1.5,6.8c0.1,0.7-0.3,1.4-1,1.5C479.8,198.9,479.8,198.9,479.7,198.9z M7.4,192.9c-0.1,0-0.2,0-0.3,0
			c-0.7-0.2-1.1-0.9-1-1.5c0.5-2.3,1.1-4.5,1.7-6.7c0.2-0.7,0.9-1.1,1.6-0.9c0.7,0.2,1.1,0.9,0.9,1.6c-0.6,2.2-1.1,4.4-1.6,6.7
			C8.5,192.5,8,192.9,7.4,192.9z M476.5,185.5c-0.6,0-1.1-0.4-1.2-1c-0.6-2.2-1.2-4.4-1.8-6.6c-0.2-0.7,0.2-1.4,0.9-1.6
			c0.7-0.2,1.4,0.2,1.6,0.9c0.7,2.2,1.3,4.5,1.9,6.7c0.2,0.7-0.2,1.4-0.9,1.6C476.8,185.5,476.6,185.5,476.5,185.5z M10.9,179.5
			c-0.1,0-0.2,0-0.4-0.1c-0.7-0.2-1.1-0.9-0.9-1.6c0.6-2.2,1.3-4.4,2-6.6c0.2-0.7,0.9-1,1.6-0.8c0.7,0.2,1,0.9,0.8,1.6
			c-0.7,2.2-1.4,4.4-2,6.6C11.9,179.1,11.4,179.5,10.9,179.5z M472.6,172.3c-0.5,0-1-0.3-1.2-0.9c-0.7-2.2-1.5-4.3-2.2-6.5
			c-0.2-0.7,0.1-1.4,0.8-1.6c0.7-0.2,1.4,0.1,1.6,0.8c0.8,2.2,1.5,4.4,2.2,6.6c0.2,0.7-0.1,1.4-0.8,1.6
			C472.9,172.2,472.8,172.3,472.6,172.3z M15.1,166.4c-0.1,0-0.3,0-0.4-0.1c-0.7-0.2-1-1-0.8-1.6c0.8-2.2,1.6-4.4,2.4-6.5
			c0.3-0.7,1-1,1.7-0.7c0.7,0.3,1,1,0.7,1.7c-0.8,2.1-1.6,4.3-2.4,6.5C16.1,166,15.6,166.4,15.1,166.4z M468,159.3
			c-0.5,0-1-0.3-1.2-0.8c-0.8-2.1-1.7-4.2-2.6-6.3c-0.3-0.7,0-1.4,0.7-1.7c0.7-0.3,1.4,0,1.7,0.7c0.9,2.1,1.8,4.3,2.6,6.4
			c0.3,0.7-0.1,1.4-0.7,1.7C468.3,159.3,468.1,159.3,468,159.3z M20.1,153.5c-0.2,0-0.3,0-0.5-0.1c-0.7-0.3-1-1-0.7-1.7
			c0.9-2.1,1.8-4.3,2.8-6.4c0.3-0.6,1.1-0.9,1.7-0.6c0.6,0.3,0.9,1.1,0.6,1.7c-0.9,2.1-1.9,4.2-2.8,6.3
			C21.1,153.2,20.6,153.5,20.1,153.5z M462.6,146.6c-0.5,0-1-0.3-1.2-0.8c-1-2.1-1.9-4.1-2.9-6.2c-0.3-0.6-0.1-1.4,0.6-1.7
			c0.6-0.3,1.4-0.1,1.7,0.6c1,2.1,2,4.2,3,6.2c0.3,0.6,0,1.4-0.6,1.7C463,146.6,462.8,146.6,462.6,146.6z M25.9,140.9
			c-0.2,0-0.4,0-0.6-0.1c-0.6-0.3-0.9-1.1-0.6-1.7c1-2.1,2.1-4.2,3.2-6.2c0.3-0.6,1.1-0.9,1.7-0.5c0.6,0.3,0.9,1.1,0.5,1.7
			c-1.1,2-2.1,4.1-3.1,6.1C26.8,140.6,26.3,140.9,25.9,140.9z M456.5,134.3c-0.5,0-0.9-0.2-1.1-0.7c-1.1-2-2.2-4-3.3-6
			c-0.4-0.6-0.1-1.4,0.5-1.8c0.6-0.4,1.4-0.1,1.8,0.5c1.1,2,2.3,4,3.3,6.1c0.3,0.6,0.1,1.4-0.5,1.7
			C456.9,134.2,456.7,134.3,456.5,134.3z M32.3,128.7c-0.2,0-0.4-0.1-0.6-0.2c-0.6-0.4-0.8-1.1-0.5-1.8c1.1-2,2.3-4,3.5-6
			c0.4-0.6,1.2-0.8,1.8-0.4c0.6,0.4,0.8,1.2,0.4,1.8c-1.2,2-2.3,4-3.5,5.9C33.2,128.4,32.8,128.7,32.3,128.7z M449.7,122.3
			c-0.4,0-0.9-0.2-1.1-0.6c-1.2-1.9-2.4-3.9-3.6-5.8c-0.4-0.6-0.2-1.4,0.4-1.8c0.6-0.4,1.4-0.2,1.8,0.4c1.2,1.9,2.5,3.9,3.7,5.9
			c0.4,0.6,0.2,1.4-0.4,1.8C450.2,122.2,449.9,122.3,449.7,122.3z M39.5,116.8c-0.2,0-0.5-0.1-0.7-0.2c-0.6-0.4-0.8-1.2-0.4-1.8
			c1.2-1.9,2.5-3.9,3.8-5.8c0.4-0.6,1.2-0.7,1.8-0.3c0.6,0.4,0.7,1.2,0.3,1.8c-1.3,1.9-2.6,3.8-3.8,5.7
			C40.3,116.6,39.9,116.8,39.5,116.8z M442.2,110.7c-0.4,0-0.8-0.2-1.1-0.6c-1.3-1.9-2.6-3.8-4-5.6c-0.4-0.6-0.3-1.4,0.3-1.8
			c0.6-0.4,1.4-0.3,1.8,0.3c1.4,1.9,2.7,3.8,4,5.7c0.4,0.6,0.3,1.4-0.3,1.8C442.7,110.7,442.5,110.7,442.2,110.7z M47.3,105.4
			c-0.3,0-0.5-0.1-0.8-0.2c-0.6-0.4-0.7-1.2-0.3-1.8c1.4-1.9,2.8-3.7,4.2-5.6c0.4-0.6,1.2-0.7,1.8-0.2c0.6,0.4,0.7,1.2,0.2,1.8
			c-1.4,1.8-2.8,3.7-4.1,5.5C48.1,105.2,47.7,105.4,47.3,105.4z M434.1,99.6c-0.4,0-0.8-0.2-1-0.5c-1.4-1.8-2.8-3.6-4.3-5.4
			c-0.5-0.6-0.4-1.4,0.2-1.8c0.6-0.5,1.4-0.4,1.8,0.2c1.5,1.8,2.9,3.6,4.3,5.4c0.4,0.6,0.3,1.4-0.2,1.8
			C434.7,99.5,434.4,99.6,434.1,99.6z M55.7,94.5c-0.3,0-0.6-0.1-0.8-0.3c-0.6-0.5-0.6-1.3-0.2-1.8c1.5-1.8,3-3.6,4.5-5.3
			c0.5-0.5,1.3-0.6,1.8-0.1c0.5,0.5,0.6,1.3,0.1,1.8c-1.5,1.7-3,3.5-4.4,5.3C56.4,94.3,56.1,94.5,55.7,94.5z M425.4,88.9
			c-0.4,0-0.7-0.2-1-0.4c-1.5-1.7-3-3.4-4.6-5.1c-0.5-0.5-0.4-1.3,0.1-1.8c0.5-0.5,1.3-0.4,1.8,0.1c1.6,1.7,3.1,3.4,4.6,5.2
			c0.5,0.5,0.4,1.4-0.1,1.8C426,88.8,425.7,88.9,425.4,88.9z M64.7,84.1c-0.3,0-0.6-0.1-0.9-0.3c-0.5-0.5-0.6-1.3-0.1-1.8
			c1.6-1.7,3.2-3.4,4.8-5c0.5-0.5,1.3-0.5,1.8,0c0.5,0.5,0.5,1.3,0,1.8c-1.6,1.6-3.2,3.3-4.7,5C65.4,83.9,65.1,84.1,64.7,84.1z
			 M416,78.8c-0.3,0-0.7-0.1-0.9-0.4c-1.6-1.6-3.2-3.3-4.9-4.8c-0.5-0.5-0.5-1.3,0-1.8c0.5-0.5,1.3-0.5,1.8,0
			c1.6,1.6,3.3,3.2,4.9,4.9c0.5,0.5,0.5,1.3,0,1.8C416.7,78.7,416.3,78.8,416,78.8z M74.4,74.2c-0.3,0-0.7-0.1-0.9-0.4
			c-0.5-0.5-0.5-1.3,0-1.8c1.6-1.6,3.3-3.2,5-4.8c0.5-0.5,1.3-0.4,1.8,0.1c0.5,0.5,0.4,1.3-0.1,1.8c-1.7,1.5-3.4,3.1-5,4.7
			C75,74,74.7,74.2,74.4,74.2z M406.1,69.2c-0.3,0-0.6-0.1-0.9-0.3c-1.7-1.5-3.4-3.1-5.1-4.6c-0.5-0.5-0.6-1.3-0.1-1.8
			c0.5-0.5,1.3-0.6,1.8-0.1c1.7,1.5,3.5,3.1,5.2,4.6c0.5,0.5,0.6,1.3,0.1,1.8C406.8,69,406.5,69.2,406.1,69.2z M84.5,64.8
			c-0.4,0-0.7-0.2-1-0.4c-0.5-0.5-0.4-1.4,0.1-1.8c1.7-1.5,3.5-3,5.3-4.5c0.6-0.5,1.4-0.4,1.8,0.2c0.5,0.6,0.4,1.4-0.2,1.8
			c-1.8,1.4-3.5,2.9-5.2,4.4C85.1,64.7,84.8,64.8,84.5,64.8z M395.7,60.1c-0.3,0-0.6-0.1-0.8-0.3c-1.8-1.4-3.6-2.9-5.4-4.3
			c-0.6-0.4-0.7-1.2-0.2-1.8c0.4-0.6,1.2-0.7,1.8-0.2c1.8,1.4,3.7,2.9,5.4,4.3c0.6,0.5,0.6,1.3,0.2,1.8
			C396.4,60,396,60.1,395.7,60.1z M95.2,56.1c-0.4,0-0.8-0.2-1-0.5c-0.4-0.6-0.3-1.4,0.2-1.8c1.8-1.4,3.7-2.8,5.5-4.2
			c0.6-0.4,1.4-0.3,1.8,0.3c0.4,0.6,0.3,1.4-0.3,1.8c-1.8,1.3-3.7,2.7-5.5,4.1C95.7,56,95.5,56.1,95.2,56.1z M384.7,51.7
			c-0.3,0-0.5-0.1-0.8-0.2c-1.8-1.3-3.7-2.7-5.6-4c-0.6-0.4-0.7-1.2-0.3-1.8c0.4-0.6,1.2-0.7,1.8-0.3c1.9,1.3,3.8,2.6,5.7,4
			c0.6,0.4,0.7,1.2,0.3,1.8C385.5,51.5,385.1,51.7,384.7,51.7z M106.3,48c-0.4,0-0.8-0.2-1.1-0.6c-0.4-0.6-0.3-1.4,0.3-1.8
			c1.9-1.3,3.8-2.6,5.8-3.8c0.6-0.4,1.4-0.2,1.8,0.4c0.4,0.6,0.2,1.4-0.4,1.8c-1.9,1.2-3.8,2.5-5.7,3.8
			C106.8,47.9,106.6,48,106.3,48z M373.3,43.9c-0.2,0-0.5-0.1-0.7-0.2c-1.9-1.2-3.9-2.5-5.8-3.6c-0.6-0.4-0.8-1.2-0.4-1.8
			c0.4-0.6,1.2-0.8,1.8-0.4c2,1.2,4,2.4,5.9,3.7c0.6,0.4,0.8,1.2,0.4,1.8C374.2,43.7,373.7,43.9,373.3,43.9z M117.9,40.5
			c-0.4,0-0.9-0.2-1.1-0.6c-0.4-0.6-0.2-1.4,0.4-1.8c2-1.2,4-2.4,6-3.5c0.6-0.4,1.4-0.1,1.8,0.5c0.4,0.6,0.1,1.4-0.5,1.8
			c-2,1.1-4,2.3-5.9,3.5C118.4,40.4,118.1,40.5,117.9,40.5z M361.5,36.8c-0.2,0-0.4-0.1-0.6-0.2c-2-1.1-4-2.2-6-3.3
			c-0.6-0.3-0.9-1.1-0.5-1.7c0.3-0.6,1.1-0.9,1.7-0.5c2,1.1,4.1,2.2,6.1,3.3c0.6,0.3,0.8,1.1,0.5,1.8
			C362.4,36.5,361.9,36.8,361.5,36.8z M129.9,33.7c-0.5,0-0.9-0.2-1.1-0.7c-0.3-0.6-0.1-1.4,0.5-1.7c2-1.1,4.1-2.1,6.2-3.2
			c0.6-0.3,1.4-0.1,1.7,0.6c0.3,0.6,0.1,1.4-0.6,1.7c-2,1-4.1,2.1-6.1,3.1C130.3,33.6,130.1,33.7,129.9,33.7z M349.3,30.3
			c-0.2,0-0.4,0-0.6-0.1c-2-1-4.1-2-6.2-2.9c-0.6-0.3-0.9-1.1-0.6-1.7c0.3-0.6,1.1-0.9,1.7-0.6c2.1,1,4.2,2,6.3,3
			c0.6,0.3,0.9,1.1,0.6,1.7C350.2,30.1,349.7,30.3,349.3,30.3z M142.2,27.6c-0.5,0-1-0.3-1.2-0.8c-0.3-0.6,0-1.4,0.6-1.7
			c2.1-1,4.2-1.9,6.3-2.8c0.7-0.3,1.4,0,1.7,0.7c0.3,0.7,0,1.4-0.7,1.7c-2.1,0.9-4.2,1.8-6.3,2.8C142.6,27.6,142.4,27.6,142.2,27.6z
			 M336.7,24.6c-0.2,0-0.3,0-0.5-0.1c-2.1-0.9-4.3-1.8-6.4-2.6c-0.7-0.3-1-1-0.7-1.7c0.3-0.7,1-1,1.7-0.7c2.2,0.8,4.3,1.7,6.4,2.6
			c0.7,0.3,1,1,0.7,1.7C337.7,24.3,337.2,24.6,336.7,24.6z M154.9,22.2c-0.5,0-1-0.3-1.2-0.8c-0.3-0.7,0.1-1.4,0.7-1.7
			c2.1-0.8,4.3-1.7,6.5-2.4c0.7-0.2,1.4,0.1,1.6,0.8c0.2,0.7-0.1,1.4-0.8,1.6c-2.1,0.8-4.3,1.6-6.4,2.4
			C155.2,22.2,155,22.2,154.9,22.2z M323.8,19.6c-0.1,0-0.3,0-0.4-0.1c-2.2-0.8-4.3-1.5-6.5-2.2c-0.7-0.2-1.1-0.9-0.8-1.6
			c0.2-0.7,0.9-1.1,1.6-0.8c2.2,0.7,4.4,1.5,6.6,2.2c0.7,0.2,1,1,0.8,1.6C324.8,19.3,324.3,19.6,323.8,19.6z M167.9,17.6
			c-0.5,0-1-0.3-1.2-0.9c-0.2-0.7,0.1-1.4,0.8-1.6c2.2-0.7,4.4-1.4,6.6-2.1c0.7-0.2,1.4,0.2,1.6,0.9c0.2,0.7-0.2,1.4-0.9,1.6
			c-2.2,0.6-4.4,1.3-6.6,2C168.1,17.6,168,17.6,167.9,17.6z M310.6,15.3c-0.1,0-0.2,0-0.4-0.1c-2.2-0.6-4.4-1.2-6.6-1.8
			c-0.7-0.2-1.1-0.9-0.9-1.6c0.2-0.7,0.9-1.1,1.6-0.9c2.2,0.6,4.5,1.2,6.7,1.8c0.7,0.2,1.1,0.9,0.9,1.6
			C311.7,15,311.2,15.3,310.6,15.3z M181.1,13.7c-0.6,0-1.1-0.4-1.2-1c-0.2-0.7,0.2-1.4,0.9-1.6c2.2-0.6,4.5-1.1,6.7-1.7
			c0.7-0.2,1.4,0.3,1.5,1c0.2,0.7-0.3,1.4-1,1.5c-2.2,0.5-4.5,1.1-6.7,1.7C181.3,13.7,181.2,13.7,181.1,13.7z M297.3,11.9
			c-0.1,0-0.2,0-0.3,0c-2.2-0.5-4.5-1-6.7-1.4c-0.7-0.1-1.2-0.8-1-1.5c0.1-0.7,0.8-1.2,1.5-1c2.3,0.4,4.5,0.9,6.8,1.5
			c0.7,0.2,1.1,0.9,1,1.5C298.4,11.5,297.9,11.9,297.3,11.9z M194.5,10.5c-0.6,0-1.1-0.4-1.3-1c-0.1-0.7,0.3-1.4,1-1.5
			c2.3-0.5,4.6-0.9,6.8-1.3c0.7-0.1,1.4,0.3,1.5,1.1c0.1,0.7-0.3,1.4-1.1,1.5c-2.2,0.4-4.5,0.8-6.7,1.3
			C194.7,10.5,194.6,10.5,194.5,10.5z M283.7,9.2c-0.1,0-0.1,0-0.2,0c-2.2-0.4-4.5-0.7-6.8-1.1c-0.7-0.1-1.2-0.8-1.1-1.5
			c0.1-0.7,0.8-1.2,1.5-1.1c2.3,0.3,4.6,0.7,6.9,1.1c0.7,0.1,1.2,0.8,1.1,1.5C284.9,8.7,284.4,9.2,283.7,9.2z M208.1,8.2
			c-0.6,0-1.2-0.5-1.3-1.1c-0.1-0.7,0.4-1.4,1.1-1.5c2.3-0.3,4.6-0.6,6.9-0.9c0.7-0.1,1.3,0.4,1.4,1.1c0.1,0.7-0.4,1.3-1.1,1.4
			c-2.3,0.3-4.6,0.6-6.8,0.9C208.3,8.2,208.2,8.2,208.1,8.2z M270.1,7.2c0,0-0.1,0-0.1,0c-2.3-0.3-4.6-0.5-6.8-0.7
			c-0.7-0.1-1.2-0.7-1.2-1.4c0.1-0.7,0.7-1.2,1.4-1.2c2.3,0.2,4.6,0.4,6.9,0.7c0.7,0.1,1.2,0.7,1.1,1.4
			C271.3,6.7,270.7,7.2,270.1,7.2z M221.8,6.6c-0.7,0-1.2-0.5-1.3-1.2c-0.1-0.7,0.5-1.3,1.2-1.4c2.3-0.2,4.6-0.4,6.9-0.5
			c0.7,0,1.3,0.5,1.4,1.2c0,0.7-0.5,1.3-1.2,1.4c-2.3,0.1-4.6,0.3-6.8,0.5C221.9,6.6,221.9,6.6,221.8,6.6z M256.3,6.1
			C256.3,6.1,256.3,6.1,256.3,6.1c-2.3-0.1-4.6-0.2-6.9-0.3c-0.7,0-1.3-0.6-1.3-1.3c0-0.7,0.6-1.3,1.3-1.3c2.3,0.1,4.6,0.2,6.9,0.3
			c0.7,0,1.3,0.6,1.2,1.4C257.6,5.5,257,6.1,256.3,6.1z M235.6,5.8c-0.7,0-1.3-0.6-1.3-1.3c0-0.7,0.5-1.3,1.3-1.3
			c2.3-0.1,4.6-0.1,6.9-0.1c0,0,0,0,0,0c0.7,0,1.3,0.6,1.3,1.3c0,0.7-0.6,1.3-1.3,1.3C240.3,5.7,237.9,5.7,235.6,5.8
			C235.6,5.8,235.6,5.8,235.6,5.8z"/>
	</g>
</g>
</svg>
