<?xml version="1.0" encoding="utf-8"?>
<!-- Generator: Adobe Illustrator 25.3.0, SVG Export Plug-In . SVG Version: 6.00 Build 0)  -->
<svg version="1.1" xmlns="http://www.w3.org/2000/svg" xmlns:xlink="http://www.w3.org/1999/xlink" x="0px" y="0px"
	 viewBox="0 0 500 500" style="enable-background:new 0 0 500 500;" xml:space="preserve">
<style type="text/css">
	.st0{fill:#F0F0F0;}
	.st1{fill:#E0E0E0;}
	.st2{fill:#2F1160;}
	.st3{fill:#FFFFFF;}
	.st4{opacity:0.15;}
	.st5{fill:#27DEBF;}
	.st6{fill:#FAFAFA;}
	.st7{opacity:0.2;}
	.st8{opacity:0.6;}
	.st9{fill:#263238;}
	.st10{fill:#FFA8A7;}
	.st11{opacity:0.6;fill:#FFFFFF;}
	.st12{opacity:0.1;}
	.st13{fill:#B16668;}
	.st14{fill:#455A64;}
	.st15{fill:#F28F8F;}
	.st16{fill:#37474F;}
</style>
<g id="Floor">
	<ellipse id="Floor_1_" class="st0" cx="250" cy="341.91" rx="235.59" ry="136.02"/>
</g>
<g id="Shadow">
	<ellipse id="Shadow_2_" class="st1" cx="201.25" cy="398.08" rx="81.24" ry="46.9"/>
</g>
<g id="Plants_1_">
	<g id="Plants_11_">
		<g id="XMLID_594_">
			<path id="XMLID_596_" class="st2" d="M438.27,342.83l-6.78-3.91c0,0-1.15-14,5.71-31.01c5.98-14.81,20.8-27.09,28.26-24.51
				c7.46,2.58,7.27,7.87,3.64,13.42C465.46,302.37,443.34,315.59,438.27,342.83z"/>
			<path id="XMLID_595_" class="st3" d="M434.69,341.35L434.69,341.35c0.32,0,0.58-0.26,0.58-0.58
				c-0.13-31.19,29.15-52.27,29.45-52.48c0.26-0.18,0.32-0.54,0.14-0.8c-0.18-0.26-0.54-0.32-0.8-0.14
				c-0.3,0.21-30.07,21.64-29.94,53.43C434.11,341.09,434.37,341.35,434.69,341.35z"/>
		</g>
		<g id="Plants_2_">
			<g id="XMLID_1_">
				<path id="XMLID_3_" class="st2" d="M431.16,341.28l-5.11-4.68c0,0-0.87-16.74,4.3-37.08c4.5-17.71,15.68-32.4,21.3-29.31
					c5.62,3.09,5.48,9.41,2.74,16.05C451.66,292.88,434.99,308.7,431.16,341.28z"/>
				<path id="XMLID_2_" class="st3" d="M428.47,339.5L428.47,339.5c0.24,0,0.44-0.31,0.43-0.69c-0.1-37.3,21.97-62.52,22.2-62.77
					c0.2-0.22,0.24-0.65,0.1-0.96c-0.14-0.31-0.41-0.39-0.61-0.16c-0.23,0.25-22.67,25.89-22.56,63.9
					C428.04,339.19,428.23,339.5,428.47,339.5z"/>
			</g>
		</g>
	</g>
	<g id="Plants_8_">
		<g id="XMLID_493_">
			<g id="XMLID_553_">
				<path id="XMLID_592_" class="st2" d="M79.66,327.15l8.8-5.94c0,0,3.87-23.05,0.27-43.29c-5.06-28.46-24.69-37.93-31.69-34.96
					c-7,2.97-8.5,11.46,4.57,27.71C69.32,280.26,79.39,300.65,79.66,327.15z"/>
			</g>
			<g id="XMLID_496_" class="st4">
				<path id="XMLID_497_" class="st2" d="M79.66,327.15l8.8-5.94c0,0,3.87-23.05,0.27-43.29c-5.06-28.46-24.69-37.93-31.69-34.96
					c-7,2.97-8.5,11.46,4.57,27.71C69.32,280.26,79.39,300.65,79.66,327.15z"/>
			</g>
			<g id="XMLID_494_">
				<path id="XMLID_495_" class="st3" d="M82.68,315.75c-0.03,0-0.06,0-0.09,0c-0.35-0.04-0.6-0.36-0.56-0.71
					c3.18-26.8-8.14-55.87-20.44-67.44c-0.26-0.24-0.27-0.64-0.03-0.9c0.24-0.25,0.64-0.27,0.9-0.03
					C75,258.44,86.52,287.99,83.3,315.18C83.26,315.5,82.99,315.74,82.68,315.75z"/>
			</g>
		</g>
		<g id="XMLID_259_">
			<g id="XMLID_488_">
				<path id="XMLID_490_" class="st2" d="M56.62,342.69c-1.4,0.84-5.48-2.19-6.61-2.92c-1.93-1.24-3.51-3.03-4.58-5.06
					c-1.24-2.36-1.59-4.92-1.27-7.56c0.17-1.37,0.53-2.71,0.88-4.05c0.35-1.31,0.7-2.62,1.05-3.94c0.35-1.29,0.69-2.63,0.5-3.96
					c-0.39-2.67-2.81-4.5-5-6.08c-2.42-1.74-4.96-4.06-5.01-7.28c-0.04-2.49,1.21-4.82,2.71-6.8c1.5-1.98,3.3-3.74,4.65-5.83
					c0.97-1.5,1.72-3.26,1.53-5.04c-0.12-1.11-0.6-2.14-1.15-3.11c-1.18-2.08-2.72-3.97-3.55-6.21c-0.83-2.24-0.77-5.05,0.96-6.69
					c1.42-1.35,3.56-1.58,5.52-1.49c1.81,0.08,3.59,0.87,5.19,1.72c5.17,2.75,8.21,8.75,13.68,10.84c2.11,0.8,4.41,0.94,6.6,1.48
					c2.19,0.53,4.44,1.61,5.49,3.61c2.07,3.94-1.53,8.92-0.05,13.12c1.31,3.72,4.97,5.08,7.08,8.41c0.92,1.46,1.16,3.16,1.05,4.88
					c-0.19,2.91-0.57,5.05-1.9,8.31c-1.1,2.69-4.37,7.87-4.37,7.87S56.83,342.56,56.62,342.69z"/>
			</g>
			<g id="XMLID_420_">
				<path id="XMLID_486_" class="st3" d="M70.14,334.4c-0.01,0-0.02,0-0.02,0c-0.36-0.01-0.64-0.3-0.63-0.65
					c0.56-25.32-11.89-53.01-20.72-60.96c-0.26-0.24-0.28-0.64-0.05-0.9c0.24-0.26,0.64-0.28,0.9-0.05
					c9,8.11,21.71,36.26,21.14,61.94C70.76,334.12,70.48,334.39,70.14,334.4z"/>
			</g>
			<g id="XMLID_398_">
				<path id="XMLID_418_" class="st3" d="M65.47,303.55c-0.06,0-0.13-0.01-0.19-0.03c-8.18-2.36-18.31-2.6-18.42-2.6
					c-0.35-0.01-0.63-0.3-0.62-0.65c0.01-0.35,0.27-0.63,0.65-0.62c0.1,0,10.4,0.25,18.74,2.66c0.34,0.1,0.53,0.45,0.44,0.79
					C65.99,303.37,65.75,303.55,65.47,303.55z"/>
			</g>
		</g>
	</g>
</g>
<g id="Speech_Bubble">
	<g id="Speach_Bubble_1_">
		<g id="XMLID_557_">
			<path id="XMLID_2921_" class="st2" d="M301.16,309.74l-3.79-2.19c-1.2-0.69-2.16-2.37-2.16-3.75l0-157.52
				c0-1.38,0.97-3.06,2.17-3.75l105.35-60.82c1.2-0.69,3.13-0.69,4.33,0l3.79,2.19c1.2,0.69,2.17,2.37,2.17,3.75v157.52
				c0,1.38-0.97,3.06-2.17,3.75l-105.35,60.83C304.29,310.44,302.35,310.44,301.16,309.74z"/>
			<path id="XMLID_2933_" class="st2" d="M412.98,87.3c-0.15-1.12-1.06-1.53-2.15-0.9l-105.34,60.83c-0.6,0.35-1.13,0.93-1.53,1.61
				l-8.13-4.69c0.39-0.68,0.93-1.27,1.53-1.62l105.35-60.82c1.19-0.69,3.13-0.69,4.33,0l3.79,2.19
				C411.93,84.53,412.84,86,412.98,87.3z"/>
			<path id="XMLID_2932_" class="st2" d="M305.12,309.92c-1.2,0.51-2.88,0.45-3.96-0.17l-3.8-2.2c-1.19-0.69-2.16-2.37-2.16-3.75
				V146.28c0-0.69,0.24-1.45,0.63-2.13l8.13,4.69c-0.4,0.68-0.64,1.45-0.64,2.14V308.5C303.32,309.74,304.1,310.31,305.12,309.92z"
				/>
			<path id="XMLID_560_" class="st2" d="M303.32,150.98V308.5c0,1.38,0.97,1.94,2.17,1.25l105.35-60.83
				c1.2-0.69,2.17-2.37,2.17-3.75V87.65c0-1.38-0.97-1.94-2.17-1.25l-105.35,60.83C304.29,147.92,303.32,149.6,303.32,150.98z"/>
			<path id="XMLID_2955_" class="st2" d="M278.72,211.02c-1.36-0.81-7.67-4.4-8-4.59c-1-0.61-1.36-2.09-0.43-3.09l24.91-26.72
				l8.12,4.66l-24.9,26.73C277.52,208.97,277.81,210.36,278.72,211.02z"/>
			<path id="XMLID_2927_" class="st2" d="M303.32,181.29l-24.9,26.72c-1.25,1.34-0.19,3.51,1.63,3.36l23.27-1.92L303.32,181.29z"/>
		</g>
		<g id="XMLID_492_">
			<path id="XMLID_3091_" class="st5" d="M358.16,133.2c12.28-7.09,22.23-1.34,22.23,12.83c0,14.18-9.95,31.42-22.23,38.5
				c-12.28,7.09-22.23,1.34-22.23-12.84C335.93,157.53,345.88,140.29,358.16,133.2z"/>
			<path id="XMLID_3076_" class="st3" d="M358.01,144.36c3.98-2.3,7.21-0.44,7.21,4.16c0,4.6-3.23,10.19-7.21,12.49
				c-3.98,2.3-7.21,0.44-7.21-4.16C350.79,152.25,354.02,146.66,358.01,144.36z"/>
			<path id="XMLID_3075_" class="st3" d="M372.22,168.88c0-7.56-5.31-10.62-11.85-6.84l-4.09,2.36
				c-6.54,3.78-11.85,12.97-11.85,20.52v2.06c1.18,0.39,2.46,0.59,3.82,0.59c2.98,0.01,6.35-0.98,9.91-3.04
				c5.33-3.08,10.23-8.08,14.06-13.91V168.88z"/>
		</g>
		<path id="XMLID_3178_" class="st5" d="M344.08,254.73l28.17-16.26c1.2-0.69,2.17-0.13,2.17,1.25l0,9.07
			c0,1.38-0.97,3.06-2.17,3.75l-28.17,16.26c-1.2,0.69-2.17,0.13-2.17-1.25l0-9.07C341.91,257.1,342.88,255.42,344.08,254.73z"/>
		<path class="st6" d="M330.29,234.47l55.73-32.18c1.43-0.83,2.6-0.16,2.6,1.5l0,3.38c0,1.66-1.16,3.67-2.6,4.5l-55.73,32.18
			c-1.43,0.83-2.6,0.16-2.6-1.5v-3.38C327.7,237.31,328.86,235.29,330.29,234.47z"/>
		<g>
			<path class="st6" d="M336.81,211.18c0.76-0.44,1.35-0.5,1.77-0.2c0.42,0.31,0.63,0.99,0.63,2.05c0,1.06-0.21,1.99-0.63,2.8
				c-0.42,0.8-1.01,1.42-1.77,1.86l-1.5,0.87v3.23c0,0.11-0.03,0.21-0.08,0.32c-0.05,0.11-0.11,0.18-0.18,0.22l-0.76,0.44
				c-0.07,0.04-0.13,0.04-0.18-0.01c-0.05-0.05-0.08-0.12-0.08-0.23v-9.35c0-0.11,0.03-0.21,0.08-0.32
				c0.05-0.11,0.11-0.18,0.18-0.22L336.81,211.18z M335.31,216.75l1.46-0.84c0.36-0.21,0.64-0.48,0.86-0.82
				c0.21-0.34,0.32-0.78,0.32-1.32s-0.11-0.85-0.32-0.94c-0.21-0.08-0.5-0.02-0.86,0.18l-1.46,0.84V216.75z"/>
			<path class="st6" d="M343.4,207.37c0.1-0.06,0.18-0.06,0.23-0.01c0.05,0.05,0.09,0.15,0.13,0.29l2.3,7.82
				c0.01,0.03,0.01,0.06,0.01,0.1c0,0.11-0.03,0.21-0.08,0.32c-0.05,0.11-0.11,0.18-0.18,0.22l-0.68,0.39
				c-0.12,0.07-0.21,0.08-0.26,0.03c-0.05-0.05-0.08-0.11-0.1-0.18l-0.4-1.37l-2.97,1.72l-0.4,1.84c-0.02,0.09-0.05,0.19-0.1,0.3
				c-0.05,0.11-0.14,0.2-0.26,0.28l-0.68,0.39c-0.07,0.04-0.13,0.04-0.18-0.01c-0.05-0.05-0.08-0.12-0.08-0.23
				c0-0.04,0-0.07,0.01-0.11l2.3-10.48c0.04-0.19,0.08-0.33,0.13-0.45c0.05-0.11,0.12-0.2,0.23-0.25L343.4,207.37z M343.92,213.43
				l-1.03-3.53l-1.03,4.72L343.92,213.43z"/>
			<path class="st6" d="M349.57,203.66c0.42-0.24,0.79-0.37,1.11-0.38c0.32-0.01,0.59,0.05,0.8,0.19c0.21,0.14,0.37,0.33,0.48,0.58
				c0.11,0.25,0.17,0.51,0.18,0.78c0.01,0.11-0.02,0.22-0.07,0.32c-0.05,0.1-0.12,0.17-0.18,0.21l-0.66,0.38
				c-0.11,0.06-0.19,0.08-0.24,0.04c-0.05-0.03-0.1-0.09-0.15-0.17c-0.09-0.19-0.24-0.32-0.43-0.38c-0.19-0.07-0.48,0.01-0.85,0.22
				c-0.16,0.09-0.32,0.21-0.46,0.35c-0.15,0.14-0.28,0.29-0.39,0.46c-0.11,0.16-0.2,0.34-0.26,0.52c-0.06,0.18-0.09,0.36-0.09,0.55
				c0,0.22,0.03,0.39,0.09,0.49c0.06,0.11,0.16,0.17,0.3,0.19c0.14,0.02,0.33,0.01,0.56-0.04c0.23-0.05,0.52-0.11,0.87-0.2
				c0.38-0.09,0.7-0.13,0.97-0.12c0.27,0.01,0.49,0.09,0.67,0.22c0.17,0.14,0.3,0.34,0.39,0.6c0.08,0.26,0.13,0.59,0.13,0.98
				c0,0.43-0.06,0.87-0.19,1.32c-0.12,0.44-0.3,0.87-0.54,1.26c-0.23,0.4-0.52,0.77-0.86,1.12c-0.34,0.35-0.72,0.65-1.14,0.89
				c-0.35,0.2-0.69,0.33-1.01,0.38c-0.32,0.05-0.6,0.03-0.85-0.07c-0.25-0.1-0.45-0.29-0.6-0.55c-0.15-0.26-0.23-0.6-0.25-1.01
				c-0.01-0.11,0.02-0.22,0.07-0.32c0.05-0.1,0.11-0.17,0.18-0.21l0.66-0.38c0.11-0.06,0.19-0.08,0.24-0.05
				c0.06,0.03,0.1,0.08,0.14,0.18c0.04,0.1,0.1,0.2,0.16,0.29c0.06,0.09,0.15,0.15,0.25,0.19c0.11,0.04,0.24,0.04,0.4,0.01
				c0.16-0.03,0.36-0.11,0.6-0.25c0.19-0.11,0.37-0.23,0.55-0.38c0.17-0.14,0.33-0.31,0.46-0.48c0.13-0.18,0.24-0.36,0.32-0.56
				c0.08-0.2,0.12-0.41,0.12-0.63c0-0.21-0.04-0.36-0.13-0.44c-0.09-0.08-0.22-0.12-0.4-0.12c-0.18,0.01-0.4,0.04-0.66,0.11
				c-0.26,0.06-0.57,0.13-0.91,0.19c-0.31,0.07-0.59,0.09-0.82,0.06c-0.24-0.02-0.43-0.11-0.58-0.25c-0.15-0.14-0.27-0.35-0.34-0.62
				c-0.08-0.27-0.11-0.62-0.11-1.06c0-0.43,0.06-0.87,0.19-1.31c0.12-0.44,0.3-0.85,0.52-1.24c0.22-0.39,0.48-0.74,0.79-1.07
				C348.9,204.13,349.22,203.87,349.57,203.66z"/>
			<path class="st6" d="M356.14,199.88c0.42-0.24,0.79-0.37,1.11-0.38c0.32-0.01,0.59,0.05,0.8,0.19c0.21,0.14,0.37,0.33,0.48,0.58
				c0.11,0.25,0.17,0.51,0.18,0.78c0.01,0.11-0.02,0.22-0.07,0.32c-0.05,0.1-0.12,0.17-0.18,0.21l-0.66,0.38
				c-0.11,0.06-0.19,0.08-0.24,0.04c-0.05-0.03-0.1-0.09-0.15-0.17c-0.09-0.19-0.24-0.32-0.43-0.38c-0.19-0.07-0.47,0.01-0.85,0.22
				c-0.16,0.09-0.32,0.21-0.46,0.35c-0.15,0.14-0.28,0.29-0.39,0.45c-0.11,0.16-0.2,0.34-0.26,0.52c-0.06,0.18-0.09,0.36-0.09,0.55
				c0,0.22,0.03,0.39,0.09,0.49c0.06,0.11,0.16,0.17,0.3,0.19c0.14,0.02,0.33,0.01,0.56-0.04c0.23-0.05,0.52-0.11,0.87-0.2
				c0.38-0.09,0.7-0.13,0.97-0.12c0.27,0.01,0.5,0.08,0.67,0.22c0.17,0.14,0.3,0.34,0.39,0.6c0.08,0.26,0.13,0.59,0.13,0.98
				c0,0.43-0.06,0.87-0.19,1.32c-0.12,0.44-0.3,0.87-0.54,1.26c-0.23,0.4-0.52,0.77-0.86,1.12c-0.34,0.35-0.72,0.65-1.14,0.89
				c-0.35,0.2-0.69,0.33-1.01,0.39c-0.32,0.05-0.6,0.03-0.85-0.07c-0.25-0.1-0.45-0.28-0.6-0.55c-0.15-0.26-0.24-0.6-0.25-1.01
				c-0.01-0.11,0.02-0.22,0.07-0.32c0.05-0.1,0.11-0.17,0.18-0.21l0.66-0.38c0.11-0.06,0.19-0.08,0.24-0.05
				c0.06,0.02,0.1,0.08,0.14,0.18c0.04,0.1,0.1,0.2,0.16,0.29c0.06,0.09,0.15,0.15,0.25,0.19c0.11,0.04,0.24,0.04,0.4,0.01
				c0.16-0.03,0.36-0.11,0.6-0.25c0.19-0.11,0.37-0.23,0.54-0.38c0.17-0.14,0.33-0.3,0.46-0.48c0.13-0.18,0.24-0.36,0.32-0.56
				c0.08-0.2,0.12-0.41,0.12-0.63c0-0.21-0.04-0.36-0.13-0.45c-0.09-0.08-0.22-0.12-0.4-0.12c-0.18,0.01-0.4,0.04-0.66,0.11
				c-0.26,0.07-0.57,0.13-0.91,0.19c-0.31,0.06-0.59,0.09-0.82,0.06c-0.23-0.02-0.43-0.11-0.58-0.25c-0.15-0.14-0.27-0.35-0.34-0.62
				c-0.08-0.27-0.11-0.62-0.11-1.06c0-0.43,0.06-0.87,0.19-1.31c0.12-0.44,0.3-0.85,0.52-1.24c0.22-0.39,0.48-0.74,0.79-1.07
				C355.46,200.34,355.79,200.08,356.14,199.88z"/>
			<path class="st6" d="M363.43,201.13l-0.81,4.8c-0.03,0.16-0.07,0.3-0.12,0.42c-0.05,0.12-0.12,0.21-0.21,0.26l-0.76,0.44
				c-0.09,0.05-0.17,0.05-0.22-0.01c-0.05-0.06-0.09-0.16-0.11-0.29l-1.21-8.44c-0.01-0.04-0.01-0.08-0.01-0.11
				c0-0.11,0.03-0.21,0.08-0.32c0.05-0.11,0.11-0.18,0.18-0.22l0.7-0.4c0.06-0.04,0.12-0.04,0.18-0.02c0.06,0.03,0.09,0.1,0.11,0.24
				l0.79,5.68l0.7-4.27c0.01-0.08,0.04-0.18,0.09-0.31c0.05-0.13,0.13-0.23,0.24-0.3l0.77-0.45c0.11-0.07,0.19-0.06,0.24,0.02
				s0.08,0.15,0.09,0.21l0.7,3.46l0.79-6.59c0.02-0.16,0.06-0.28,0.11-0.37c0.06-0.09,0.12-0.15,0.18-0.19l0.7-0.4
				c0.07-0.04,0.13-0.04,0.18,0.01c0.05,0.05,0.08,0.12,0.08,0.23c0,0.03,0,0.07-0.01,0.12l-1.2,9.83
				c-0.02,0.16-0.05,0.29-0.11,0.42c-0.05,0.12-0.13,0.21-0.22,0.27l-0.76,0.44c-0.09,0.05-0.17,0.05-0.21-0.01
				c-0.05-0.07-0.09-0.16-0.12-0.29L363.43,201.13z"/>
			<path class="st6" d="M368.11,196.89c0.02-0.55,0.09-1.1,0.2-1.64c0.12-0.54,0.29-1.06,0.51-1.54c0.23-0.48,0.51-0.93,0.85-1.33
				c0.34-0.4,0.74-0.74,1.21-1.01c0.46-0.26,0.86-0.39,1.19-0.39c0.34,0.01,0.62,0.12,0.85,0.35c0.23,0.23,0.4,0.54,0.52,0.95
				c0.12,0.41,0.19,0.88,0.21,1.42c0.01,0.18,0.01,0.38,0.01,0.6c0,0.22,0,0.45,0,0.68s0,0.47,0,0.69c0,0.22-0.01,0.43-0.01,0.62
				c-0.02,0.55-0.09,1.1-0.2,1.64c-0.12,0.54-0.29,1.06-0.51,1.54c-0.23,0.48-0.51,0.92-0.85,1.32c-0.34,0.4-0.74,0.73-1.2,1
				c-0.46,0.27-0.87,0.4-1.21,0.39c-0.34-0.01-0.62-0.12-0.85-0.34c-0.23-0.22-0.4-0.54-0.51-0.95c-0.12-0.41-0.18-0.88-0.2-1.41
				c-0.01-0.18-0.01-0.38-0.01-0.6c0-0.22,0-0.45,0-0.68c0-0.24,0-0.47,0-0.69C368.1,197.28,368.1,197.07,368.11,196.89z
				 M372.37,194.5c-0.03-0.68-0.17-1.13-0.44-1.36c-0.27-0.23-0.62-0.21-1.06,0.04c-0.44,0.25-0.79,0.65-1.06,1.18
				c-0.27,0.54-0.41,1.16-0.44,1.87c-0.01,0.37-0.02,0.79-0.02,1.24c0,0.45,0.01,0.85,0.02,1.21c0.02,0.68,0.17,1.13,0.44,1.35
				c0.27,0.22,0.62,0.21,1.06-0.05c0.44-0.25,0.79-0.65,1.06-1.17c0.27-0.53,0.41-1.15,0.44-1.86c0.01-0.37,0.02-0.79,0.02-1.23
				S372.38,194.86,372.37,194.5z"/>
			<path class="st6" d="M378.03,187.38c0.78-0.45,1.38-0.52,1.79-0.19c0.41,0.33,0.61,0.98,0.61,1.98c0,0.71-0.1,1.37-0.31,1.98
				c-0.21,0.62-0.52,1.17-0.93,1.64l1.3,2.83c0.02,0.05,0.03,0.09,0.03,0.14c0,0.09-0.02,0.17-0.06,0.26
				c-0.04,0.09-0.09,0.14-0.15,0.18l-0.8,0.46c-0.12,0.07-0.22,0.08-0.28,0.02c-0.06-0.06-0.1-0.12-0.13-0.18l-1.23-2.66l-1.25,0.72
				v3.37c0,0.11-0.03,0.21-0.08,0.32c-0.05,0.11-0.11,0.18-0.18,0.22l-0.76,0.44c-0.07,0.04-0.13,0.04-0.18-0.01
				c-0.05-0.05-0.08-0.12-0.08-0.23v-9.35c0-0.11,0.02-0.21,0.08-0.32c0.05-0.11,0.11-0.18,0.18-0.22L378.03,187.38z M376.62,192.76
				l1.36-0.79c0.36-0.21,0.64-0.47,0.86-0.78c0.21-0.32,0.32-0.74,0.32-1.29c0-0.54-0.11-0.84-0.32-0.9
				c-0.21-0.06-0.5,0.01-0.86,0.22l-1.36,0.79V192.76z"/>
			<path class="st6" d="M384.7,183.53c0.46-0.27,0.87-0.41,1.21-0.42c0.34-0.01,0.63,0.09,0.86,0.31c0.23,0.21,0.4,0.53,0.53,0.96
				c0.12,0.42,0.2,0.93,0.22,1.52c0.03,0.7,0.03,1.41,0,2.14c-0.03,0.62-0.1,1.22-0.22,1.78c-0.12,0.56-0.3,1.08-0.52,1.56
				c-0.23,0.48-0.51,0.91-0.84,1.29c-0.33,0.38-0.73,0.7-1.18,0.96l-2.37,1.37c-0.07,0.04-0.13,0.04-0.18-0.01
				c-0.05-0.05-0.08-0.12-0.08-0.23v-9.35c0-0.11,0.03-0.21,0.08-0.32c0.05-0.11,0.11-0.18,0.18-0.22L384.7,183.53z M386.24,186.63
				c-0.01-0.3-0.05-0.57-0.12-0.79c-0.07-0.23-0.16-0.4-0.29-0.53c-0.13-0.12-0.29-0.18-0.48-0.18c-0.2,0-0.43,0.08-0.7,0.24
				l-1.26,0.73v6.52l1.31-0.75c0.26-0.15,0.48-0.33,0.67-0.55c0.19-0.22,0.34-0.46,0.47-0.73c0.12-0.27,0.22-0.55,0.29-0.86
				c0.07-0.31,0.1-0.62,0.12-0.94C386.27,188.05,386.27,187.34,386.24,186.63z"/>
		</g>
	</g>
</g>
<g id="Question_Marks_1_">
	<g id="Question_Marks">
		<g>
			<path class="st2" d="M247.38,38.39c1.75,0.39,3.4,1.01,4.94,1.86c1.55,0.85,2.86,1.89,3.93,3.12c1.07,1.23,1.85,2.63,2.32,4.2
				c0.47,1.57,0.51,3.26,0.1,5.08c-0.33,1.49-0.85,2.73-1.55,3.72c-0.71,0.99-1.52,1.85-2.44,2.56c-0.92,0.71-1.89,1.34-2.9,1.87
				c-1.02,0.54-1.98,1.05-2.88,1.53c-0.91,0.48-1.73,1.01-2.46,1.59c-0.73,0.58-1.25,1.27-1.54,2.06c-0.17,0.39-0.41,0.71-0.74,0.95
				c-0.33,0.24-0.69,0.31-1.1,0.22l-4.24-0.94c-0.41-0.09-0.74-0.32-0.99-0.69c-0.25-0.37-0.31-0.75-0.18-1.15
				c0.4-1.43,0.98-2.64,1.77-3.62c0.78-0.98,1.65-1.82,2.61-2.52c0.96-0.7,1.95-1.31,2.98-1.83c1.03-0.51,1.99-1.01,2.88-1.5
				c0.89-0.49,1.64-1,2.27-1.54c0.63-0.54,1.03-1.21,1.2-1.99c0.31-1.41-0.02-2.71-1.01-3.88c-0.99-1.17-2.47-1.98-4.44-2.42
				c-3.16-0.7-5.83,0.37-8.02,3.2c-0.28,0.37-0.54,0.63-0.79,0.79c-0.25,0.16-0.62,0.19-1.1,0.08l-4.52-1
				c-0.33-0.07-0.6-0.25-0.79-0.53c-0.19-0.28-0.25-0.6-0.17-0.97c0.32-1.29,1.02-2.53,2.08-3.72c1.06-1.19,2.36-2.19,3.88-3
				c1.53-0.81,3.23-1.38,5.12-1.7C243.48,37.9,245.41,37.96,247.38,38.39z M242.59,70.57c0.41,0.09,0.73,0.32,0.96,0.68
				c0.23,0.36,0.3,0.75,0.21,1.16l-1.09,4.91c-0.09,0.41-0.32,0.73-0.68,0.96c-0.36,0.23-0.75,0.3-1.16,0.21l-4.8-1.06
				c-0.41-0.09-0.73-0.32-0.96-0.68c-0.23-0.36-0.3-0.75-0.21-1.16l1.09-4.91c0.09-0.41,0.32-0.73,0.68-0.96
				c0.36-0.23,0.75-0.3,1.16-0.21L242.59,70.57z"/>
		</g>
		<g>
			<path class="st5" d="M252.72,85.3c1.22-0.2,2.43-0.23,3.64-0.08c1.21,0.15,2.32,0.48,3.32,0.99c1,0.52,1.86,1.22,2.56,2.1
				c0.71,0.88,1.16,1.96,1.37,3.23c0.17,1.04,0.15,1.97-0.04,2.79c-0.2,0.82-0.5,1.57-0.91,2.27c-0.41,0.69-0.87,1.34-1.38,1.94
				c-0.51,0.6-1,1.17-1.46,1.72c-0.46,0.54-0.85,1.09-1.17,1.65c-0.32,0.56-0.47,1.13-0.46,1.71c-0.01,0.3-0.08,0.56-0.23,0.8
				c-0.15,0.24-0.37,0.38-0.65,0.43l-2.96,0.48c-0.29,0.05-0.56-0.02-0.81-0.19c-0.25-0.17-0.39-0.4-0.41-0.69
				c-0.11-1.02-0.04-1.94,0.21-2.77c0.25-0.83,0.59-1.59,1.02-2.29c0.43-0.7,0.91-1.34,1.44-1.93c0.53-0.59,1.02-1.16,1.46-1.7
				c0.44-0.54,0.8-1.06,1.06-1.57c0.26-0.51,0.35-1.04,0.26-1.58c-0.16-0.98-0.71-1.73-1.64-2.23c-0.93-0.5-2.09-0.64-3.46-0.41
				c-2.21,0.36-3.65,1.73-4.32,4.1c-0.08,0.31-0.18,0.54-0.3,0.71c-0.12,0.17-0.35,0.28-0.68,0.33l-3.15,0.52
				c-0.23,0.04-0.45-0.01-0.64-0.13c-0.19-0.13-0.31-0.32-0.35-0.58c-0.12-0.91,0-1.88,0.38-2.92c0.38-1.03,0.95-2.01,1.72-2.92
				c0.77-0.91,1.72-1.71,2.84-2.4C250.09,85.99,251.34,85.53,252.72,85.3z M257.88,107.15c0.29-0.05,0.55,0.02,0.79,0.19
				c0.24,0.17,0.38,0.4,0.43,0.69l0.56,3.43c0.05,0.29-0.02,0.55-0.19,0.79c-0.17,0.24-0.4,0.38-0.69,0.43l-3.35,0.55
				c-0.29,0.05-0.55-0.02-0.79-0.19c-0.24-0.17-0.39-0.4-0.43-0.69l-0.56-3.43c-0.05-0.28,0.02-0.55,0.19-0.79
				c0.17-0.24,0.4-0.39,0.69-0.43L257.88,107.15z"/>
		</g>
		<g class="st7">
			<path class="st2" d="M252.72,85.3c1.22-0.2,2.43-0.23,3.64-0.08c1.21,0.15,2.32,0.48,3.32,0.99c1,0.52,1.86,1.22,2.56,2.1
				c0.71,0.88,1.16,1.96,1.37,3.23c0.17,1.04,0.15,1.97-0.04,2.79c-0.2,0.82-0.5,1.57-0.91,2.27c-0.41,0.69-0.87,1.34-1.38,1.94
				c-0.51,0.6-1,1.17-1.46,1.72c-0.46,0.54-0.85,1.09-1.17,1.65c-0.32,0.56-0.47,1.13-0.46,1.71c-0.01,0.3-0.08,0.56-0.23,0.8
				c-0.15,0.24-0.37,0.38-0.65,0.43l-2.96,0.48c-0.29,0.05-0.56-0.02-0.81-0.19c-0.25-0.17-0.39-0.4-0.41-0.69
				c-0.11-1.02-0.04-1.94,0.21-2.77c0.25-0.83,0.59-1.59,1.02-2.29c0.43-0.7,0.91-1.34,1.44-1.93c0.53-0.59,1.02-1.16,1.46-1.7
				c0.44-0.54,0.8-1.06,1.06-1.57c0.26-0.51,0.35-1.04,0.26-1.58c-0.16-0.98-0.71-1.73-1.64-2.23c-0.93-0.5-2.09-0.64-3.46-0.41
				c-2.21,0.36-3.65,1.73-4.32,4.1c-0.08,0.31-0.18,0.54-0.3,0.71c-0.12,0.17-0.35,0.28-0.68,0.33l-3.15,0.52
				c-0.23,0.04-0.45-0.01-0.64-0.13c-0.19-0.13-0.31-0.32-0.35-0.58c-0.12-0.91,0-1.88,0.38-2.92c0.38-1.03,0.95-2.01,1.72-2.92
				c0.77-0.91,1.72-1.71,2.84-2.4C250.09,85.99,251.34,85.53,252.72,85.3z M257.88,107.15c0.29-0.05,0.55,0.02,0.79,0.19
				c0.24,0.17,0.38,0.4,0.43,0.69l0.56,3.43c0.05,0.29-0.02,0.55-0.19,0.79c-0.17,0.24-0.4,0.38-0.69,0.43l-3.35,0.55
				c-0.29,0.05-0.55-0.02-0.79-0.19c-0.24-0.17-0.39-0.4-0.43-0.69l-0.56-3.43c-0.05-0.28,0.02-0.55,0.19-0.79
				c0.17-0.24,0.4-0.39,0.69-0.43L257.88,107.15z"/>
		</g>
		<g>
			<path class="st5" d="M280.99,90.69c0.28,0.2,0.45,0.47,0.51,0.82c0.06,0.35-0.01,0.66-0.21,0.94l-2.38,3.35
				c-0.2,0.28-0.47,0.45-0.82,0.51c-0.35,0.06-0.66-0.01-0.94-0.21l-3.27-2.33c-0.28-0.2-0.45-0.47-0.51-0.82
				c-0.06-0.35,0.01-0.66,0.21-0.94l2.38-3.35c0.2-0.28,0.47-0.45,0.82-0.51c0.35-0.06,0.66,0.01,0.94,0.21L280.99,90.69z
				 M294.84,67.98c1.19,0.85,2.24,1.84,3.13,2.97c0.89,1.13,1.55,2.33,1.97,3.6c0.42,1.27,0.55,2.57,0.41,3.9
				c-0.14,1.33-0.66,2.62-1.54,3.86c-0.72,1.02-1.51,1.79-2.36,2.31c-0.85,0.52-1.73,0.91-2.65,1.15c-0.92,0.25-1.85,0.41-2.78,0.49
				c-0.94,0.08-1.82,0.16-2.66,0.23c-0.84,0.07-1.62,0.21-2.36,0.42c-0.74,0.2-1.34,0.56-1.81,1.06c-0.25,0.24-0.54,0.4-0.86,0.48
				c-0.32,0.08-0.62,0.02-0.9-0.18l-2.89-2.06c-0.28-0.2-0.46-0.48-0.53-0.83c-0.07-0.36,0-0.66,0.23-0.93
				c0.76-0.95,1.58-1.67,2.48-2.16c0.9-0.49,1.82-0.84,2.77-1.07c0.94-0.23,1.89-0.37,2.83-0.43c0.94-0.06,1.82-0.13,2.64-0.21
				c0.82-0.08,1.56-0.23,2.2-0.44c0.64-0.21,1.16-0.58,1.54-1.11c0.69-0.96,0.84-2.05,0.47-3.25c-0.37-1.2-1.23-2.28-2.57-3.23
				c-2.16-1.53-4.51-1.58-7.06-0.15c-0.33,0.19-0.61,0.3-0.85,0.34c-0.24,0.04-0.52-0.06-0.85-0.29l-3.09-2.19
				c-0.23-0.16-0.37-0.38-0.43-0.65c-0.06-0.27,0.01-0.53,0.19-0.79c0.66-0.87,1.57-1.58,2.75-2.14c1.18-0.56,2.47-0.9,3.88-1.02
				c1.41-0.13,2.87-0.01,4.4,0.35C292.06,66.36,293.5,67.02,294.84,67.98z"/>
		</g>
		<g class="st8">
			<path class="st2" d="M280.99,90.69c0.28,0.2,0.45,0.47,0.51,0.82c0.06,0.35-0.01,0.66-0.21,0.94l-2.38,3.35
				c-0.2,0.28-0.47,0.45-0.82,0.51c-0.35,0.06-0.66-0.01-0.94-0.21l-3.27-2.33c-0.28-0.2-0.45-0.47-0.51-0.82
				c-0.06-0.35,0.01-0.66,0.21-0.94l2.38-3.35c0.2-0.28,0.47-0.45,0.82-0.51c0.35-0.06,0.66,0.01,0.94,0.21L280.99,90.69z
				 M294.84,67.98c1.19,0.85,2.24,1.84,3.13,2.97c0.89,1.13,1.55,2.33,1.97,3.6c0.42,1.27,0.55,2.57,0.41,3.9
				c-0.14,1.33-0.66,2.62-1.54,3.86c-0.72,1.02-1.51,1.79-2.36,2.31c-0.85,0.52-1.73,0.91-2.65,1.15c-0.92,0.25-1.85,0.41-2.78,0.49
				c-0.94,0.08-1.82,0.16-2.66,0.23c-0.84,0.07-1.62,0.21-2.36,0.42c-0.74,0.2-1.34,0.56-1.81,1.06c-0.25,0.24-0.54,0.4-0.86,0.48
				c-0.32,0.08-0.62,0.02-0.9-0.18l-2.89-2.06c-0.28-0.2-0.46-0.48-0.53-0.83c-0.07-0.36,0-0.66,0.23-0.93
				c0.76-0.95,1.58-1.67,2.48-2.16c0.9-0.49,1.82-0.84,2.77-1.07c0.94-0.23,1.89-0.37,2.83-0.43c0.94-0.06,1.82-0.13,2.64-0.21
				c0.82-0.08,1.56-0.23,2.2-0.44c0.64-0.21,1.16-0.58,1.54-1.11c0.69-0.96,0.84-2.05,0.47-3.25c-0.37-1.2-1.23-2.28-2.57-3.23
				c-2.16-1.53-4.51-1.58-7.06-0.15c-0.33,0.19-0.61,0.3-0.85,0.34c-0.24,0.04-0.52-0.06-0.85-0.29l-3.09-2.19
				c-0.23-0.16-0.37-0.38-0.43-0.65c-0.06-0.27,0.01-0.53,0.19-0.79c0.66-0.87,1.57-1.58,2.75-2.14c1.18-0.56,2.47-0.9,3.88-1.02
				c1.41-0.13,2.87-0.01,4.4,0.35C292.06,66.36,293.5,67.02,294.84,67.98z"/>
		</g>
	</g>
</g>
<g id="Character">
	<g id="Character_3_">
		<g id="XMLID_285_">
			<path id="XMLID_286_" class="st2" d="M206.53,179.21H171V93.13c0-15.57,12.62-28.19,28.19-28.19h3.28
				c15.57,0,28.19,12.62,28.19,28.19v61.95C230.66,168.41,219.85,179.21,206.53,179.21z"/>
		</g>
		<g id="XMLID_2226_">
			<g id="XMLID_283_">
				<path id="XMLID_284_" class="st9" d="M167.54,386.44c-0.29,2.16-0.91,4.69-1.03,10.8c-0.12,6.56-1.33,8.89-1.49,14.27
					c-0.18,6.15,0.88,8.45,3.38,11.91c2.5,3.46,9.05,6.59,11.81,0.75c2.8-5.91,2.41-9.67,1.53-15.7c-0.92-6.24-1.03-9.68-1.56-14.44
					c-0.47-4.19-1.03-7.38-1.03-7.38L167.54,386.44z"/>
				<path id="XMLID_2235_" class="st10" d="M186.16,342.87l-21.6-0.39c0.32,14.42,2.61,30.43,2.99,43.96
					c0.07,2.55-0.06,19.79,0.9,25.03c1.44,7.87,10.79,6.81,11.29,2.1c0.5-4.71-0.6-24.85-0.57-26.92
					c-0.08-8.68,3.98-23.33,6.12-38.91C185.38,346.98,186.06,343.62,186.16,342.87z"/>
			</g>
			<g id="XMLID_266_">
				<path id="XMLID_282_" class="st9" d="M213.91,375.22c0,0-0.85-0.46-1.03,0.45c-0.21,1.08-0.52,3.32-0.97,5.09
					c-0.63,2.47-1.14,6.54-0.77,8.55c0.37,2.01,5.07,4.61,8.12,5.54c4.5,1.38,7.58,3.63,10.04,5.95c3.02,2.84,9.53,5.52,13.97,5.49
					c5.25-0.04,8.91-1.75,10.64-4.56c1.81-2.93-1.58-3.15-7.57-7.04c-1.36-0.88-2.91-1.88-4.66-3.02
					c-9.5-6.21-12.98-9.53-15.67-15.74L213.91,375.22z"/>
				<path id="XMLID_269_" class="st10" d="M226.08,371.37c-0.16-4.47,2.9-42.35,2.9-42.35l-20.52,9.35
					c4.39,26.22,5.33,32.41,5.41,36.7l0,0c-0.03,0.1-0.12,0.46-0.12,1.1c0.02,5.09,5.77,7.84,10.25,11.24
					c1.77,1.34,6.92,5.3,12.13,7.92c3.26,1.64,9.88,1.79,10.7-0.31c-5.46-4.17-13.4-10.41-17.74-15.16
					C227.03,377.59,226.24,375.84,226.08,371.37z"/>
			</g>
			<path id="XMLID_261_" class="st2" d="M173.41,202.16c-7.88,17.3-7.88,30.67-6.57,52.74c1.19,20.24,3.1,38.07,3.1,38.07
				c-0.3,3.59-5.3,10.6-5.94,26.48c-0.6,14.84,1.02,33.71,1.02,33.71s11.21,6.21,19.5-0.05c0,0,8-38.19,10.34-56.77
				c2.05-16.21,5.6-36.93,5.6-36.93l7.53,36.84c0,0-2.86,9.08-3.53,16c-1.06,10.93,5.05,32.39,5.05,32.39s11.58,3.46,18.65-2.82
				c0,0,2.65-34.89,3.63-48.05c1.32-17.63-1.46-65.35-3.63-90.62L173.41,202.16z"/>
			<path id="XMLID_2227_" class="st9" d="M200.45,259.41l3.11-27.73c0,0,13.94-1.86,20.26-7.8c0,0-4.74,8.69-16.43,10.38l-4.5,25.81
				l5.09,36.19L200.45,259.41z"/>
		</g>
		<g id="XMLID_2194_">
			<path id="XMLID_610_" class="st10" d="M256.9,195.34c0.87-8.5,0.83-14.16,0.76-15.25c-0.3-4.4-1.09-5.12-7.24-12.91
				c-8.31-10.53-15.4-19.99-22.89-29.4c-5.35-6.72-10.98-7.76-16.48-7.45c-3.84,0.21,3.65,18.68,7.43,29.61l21.55,23.18
				c0.66,0.92,0.97,2.04,0.86,3.17l-1.32,19.73l6.45,8.63C246.01,214.65,255.78,206.22,256.9,195.34z"/>
			<path id="XMLID_2220_" class="st5" d="M190.28,130.92L190.28,130.92c-4.17,0.29-11.75,0.95-11.75,0.95
				c-4.37,2.44-5.48,4.44-6.29,10.25c-0.35,2.47,1.67,9.06,3.4,18.43l3.28,17.37l-0.36,8.62c-1.7,5.26-5.56,11.79-8.95,21.42
				c16.7,9.32,30.7,9.66,43.4,8.03c9.68-1.24,14.81-3.59,16.52-5.9c-0.36-9.52-1.03-15.39-1.19-25.33
				c-0.07-4.18,0.18-8.39,0.34-13.19c6.5-5.34,6.57-14.21,3.03-19.95c-8.23-13.33-16.24-21.72-21.54-21.29L190.28,130.92z"/>
			<path id="XMLID_564_" class="st11" d="M190.28,130.92L190.28,130.92c-4.17,0.29-11.75,0.95-11.75,0.95
				c-4.37,2.44-5.48,4.44-6.29,10.25c-0.35,2.47,1.67,9.06,3.4,18.43l3.28,17.37l-0.36,8.62c-1.7,5.26-5.56,11.79-8.95,21.42
				c16.7,9.32,30.7,9.66,43.4,8.03c9.68-1.24,14.81-3.59,16.52-5.9c-0.36-9.52-1.03-15.39-1.19-25.33
				c-0.07-4.18,0.18-8.39,0.34-13.19c6.5-5.34,6.57-14.21,3.03-19.95c-8.23-13.33-16.24-21.72-21.54-21.29L190.28,130.92z"/>
			<path class="st12" d="M215.75,171.72c0,0-7.63,5.92-16.33,2.83c-8.7-3.09-9.97-10.69-9.97-10.69s-0.92,9.95,10.05,13.34
				C210.1,180.47,215.75,171.72,215.75,171.72z"/>
			<g id="XMLID_2195_">
				<g id="XMLID_2209_">
					<path class="st10" d="M226.09,103.61c-0.33,14.44-5.01,18.01-7.36,19.03c-2.35,1.03-6.88,0.4-11.28-0.33v8.66
						c0,0,5.08,5.32,4.7,9.29c-0.39,3.98-7.98,4.42-13.68,0.53c-4.16-2.83-7.13-6.07-8.43-7.61c-0.47-0.56-0.73-1.26-0.73-1.99
						v-20.39c0,0-2.41,2.55-6.68-0.37c-4.26-2.91-4.62-8.35-2.02-11.42c1.86-2.18,6.57-2.34,8.84,1.06
						c1.27,2.49,1.45,4.99,2.87,3.96c3.8-2.74,1.76-8.96,6.36-12.04c0.01,0,0.01-0.01,0.02-0.01c1.37-0.74,2.93-1.44,4.68-2.04
						c8.19-2.83,15.29-5.21,17-10.81C223.61,81.05,226.49,86.58,226.09,103.61z"/>
				</g>
				<circle class="st13" cx="209.94" cy="114.61" r="1.9"/>
				<g id="XMLID_2206_">
					<path id="XMLID_2207_" class="st9" d="M208.68,101.42c0.06,1.14-0.79,2.11-1.89,2.17c-1.1,0.05-2.04-0.83-2.1-1.98
						c-0.06-1.14,0.79-2.11,1.89-2.17C207.68,99.39,208.62,100.28,208.68,101.42z"/>
				</g>
				<g id="XMLID_2200_">
					<path id="XMLID_2201_" class="st9" d="M223.83,101.62c0.05,1.04-0.72,1.92-1.72,1.97c-1.1,0.05-1.85-0.65-1.91-1.8
						c-0.05-1.04,0.72-1.92,1.72-1.97C222.92,99.77,223.78,100.58,223.83,101.62z"/>
				</g>
				<g>
					<path class="st14" d="M206.11,106.56c-3.59,0-6.5-2.92-6.5-6.5c0-4.42,4.56-4.42,6.5-4.42c1.95,0,6.5,0,6.5,4.42
						C212.61,103.64,209.69,106.56,206.11,106.56z M206.11,96.66c-3.94,0-5.48,0.95-5.48,3.4c0,3.02,2.46,5.48,5.48,5.48
						s5.48-2.46,5.48-5.48C211.59,97.61,210.05,96.66,206.11,96.66z"/>
				</g>
				<g>
					<path class="st14" d="M222.62,106.56c-3.59,0-6.5-2.92-6.5-6.5c0-4.42,4.56-4.42,6.5-4.42c1.95,0,6.5,0,6.5,4.42
						C229.12,103.64,226.2,106.56,222.62,106.56z M222.62,96.66c-3.94,0-5.48,0.95-5.48,3.4c0,3.02,2.46,5.48,5.48,5.48
						s5.48-2.46,5.48-5.48C228.1,97.61,226.56,96.66,222.62,96.66z"/>
				</g>
				<g id="XMLID_2198_">
					<polygon id="XMLID_2199_" class="st15" points="213.62,97.96 213.94,110.11 220.33,108.13 					"/>
				</g>
				<g id="XMLID_2196_">
					<path id="XMLID_2197_" class="st15" d="M207.44,122.31c-4.64-0.61-14.19-3.35-15.68-7.13c0,0,0.5,2.37,3.35,4.82
						c2.85,2.45,12.33,5.2,12.33,5.2V122.31z"/>
				</g>
				<path id="XMLID_405_" class="st9" d="M207.67,92.06l-4.24,2.58c-0.69-1.22-0.31-2.79,0.86-3.5
					C205.46,90.43,206.97,90.84,207.67,92.06z"/>
				<path id="XMLID_382_" class="st9" d="M224.92,94.94l-4.72-1.65c0.41-1.33,1.8-2.04,3.1-1.59
					C224.61,92.16,225.33,93.61,224.92,94.94z"/>
				<g>
					<path class="st14" d="M212.1,100.58c-0.28,0-0.51-0.23-0.51-0.52c0-0.83,1.65-1.37,3.12-1.37s2.43,0.54,2.43,1.37
						c0,0.28-0.23,0.51-0.51,0.51c-0.28,0-0.51-0.23-0.51-0.51c-0.05-0.09-0.52-0.34-1.41-0.34c-0.89,0-2.05,0.25-2.1,0.35
						C212.61,100.35,212.38,100.58,212.1,100.58z"/>
				</g>
				<g>
					<path class="st14" d="M200.13,100.14c-0.02,0-0.04,0-0.06,0l-11.43-1.04c-0.21-0.19-0.75-0.75-1.87-1.22l13.42,1.24
						c0.28,0.03,0.48,0.29,0.45,0.57C200.61,99.95,200.39,100.14,200.13,100.14z"/>
				</g>
			</g>
		</g>
		<g>
			<path class="st10" d="M153.2,112.06c3.74-4.99,6.29-8.77,9.7-13.05c1.94-2.43,3.18-4.17,5.04-6.66c1.28-1.72,2.03-3.16,3.46-3.7
				c1.6-0.6,3.14-1.78,4.17-2.86c0.74-0.77,1.34-1.66,1.97-2.52c2.14-2.88,4.69-5.45,7.55-7.61c3.01-2.27,6.35-4,9.44-6.16
				c1.84-1.29,3.82-3.43,1.58-5.43c-0.67-0.6-1.52-0.95-2.39-1.14c-5.44-1.19-10.19,0.69-15.51,2.05c-2.31,0.59-4.59,1.33-6.78,2.29
				c-1.06,0.46-2.12,0.97-3,1.72c-1.37,1.17-2.19,2.84-3.08,4.41c-2.39,4.22-7.35,7.94-10.84,11.22
				c-4.09,3.85-7.75,7.38-12.42,11.63c-4.2,3.82-8.31,7.35-12.17,11.52c-3.19,3.45-2.03,6.16-1.57,7.09
				c2.6,5.34,5.51,7.26,8.98,10.57c6.02,5.73,26.75,22.23,33.63,27.67c1.47,1.17,2.63,2.68,3.37,4.4l1.31,3.05
				c7.84,1.44,13.07-10.33,6.58-24.5c-1.05-2.3-2.72-4.26-4.77-5.75C169.26,124.34,153.2,112.06,153.2,112.06z"/>
			<path class="st15" d="M153.2,112.06c0,0-3.54,4.74-9.58,6.6c0,0,5,1.28,11.85-4.87L153.2,112.06z"/>
		</g>
		<g id="XMLID_2739_">
			<g id="XMLID_2725_">
				<g id="XMLID_2695_">
					<path id="XMLID_563_" class="st14" d="M254.86,184.91l0.03,0l-1.28-1.1l0,0.02c-0.29-0.23-0.74-0.3-1.32-0.15l-13.88,3.78
						c-1.29,0.35-2.68,1.66-3.12,2.92l-9.99,28.83c-0.23,0.67-0.14,1.18,0.18,1.47l-0.01,0l1.32,1.14l0-0.02
						c0.29,0.24,0.74,0.32,1.33,0.16l13.88-3.78c1.29-0.35,2.68-1.66,3.12-2.92c1.96-5.67,8.03-23.16,9.99-28.83
						C255.36,185.72,255.24,185.18,254.86,184.91z"/>
					<path id="XMLID_2696_" class="st5" d="M226.57,220.3l9.99-28.83c0.44-1.26,1.83-2.57,3.12-2.92l13.89-3.78
						c1.29-0.35,1.98,0.39,1.54,1.65c-1.96,5.67-8.03,23.16-9.99,28.83c-0.44,1.26-1.83,2.57-3.12,2.92l-13.88,3.78
						C226.83,222.3,226.14,221.56,226.57,220.3z"/>
					<path id="XMLID_2726_" class="st16" d="M238.18,189.36c-0.72,0.57-1.34,1.36-1.61,2.12l-10,28.82
						c-0.22,0.65-0.15,1.15,0.14,1.45l-1.24-1.07l0.01-0.01c-0.33-0.29-0.42-0.8-0.19-1.47l10-28.83c0.24-0.71,0.81-1.43,1.48-2
						L238.18,189.36z"/>
				</g>
				<path id="XMLID_2549_" class="st15" d="M251.05,198.05c-0.98,2.94-4.47,4.9-10.2,6.26c-5.73,1.36-8.91,7.45-7.99,9.3
					c0.93,1.85,10.19,3.57,13.9,3.04c3.71-0.53,7.44-5.89,8.56-7.55c1.12-1.66,2.43-13.24,1.24-14.83c-1.19-1.59-3.7-1.34-3.7-1.34
					L251.05,198.05z"/>
			</g>
		</g>
	</g>
</g>
</svg>
