<?xml version="1.0" encoding="utf-8"?>
<!-- Generator: Adobe Illustrator 25.3.0, SVG Export Plug-In . SVG Version: 6.00 Build 0)  -->
<svg version="1.1" xmlns="http://www.w3.org/2000/svg" xmlns:xlink="http://www.w3.org/1999/xlink" x="0px" y="0px"
	 viewBox="0 0 500 500" style="enable-background:new 0 0 500 500;" xml:space="preserve">
<style type="text/css">
	.st0{fill:#FFFFFF;}
	.st1{fill:#ADBEC4;}
	.st2{fill:#0E3944;}
	.st3{fill:#EF6E4B;}
	.st4{fill:#FF8B66;}
	.st5{fill:#164353;}
	.st6{fill:#CFD8DC;}
	.st7{fill:#DB614D;}
	.st8{fill:#1A4850;}
	.st9{fill:#6097B2;}
	.st10{fill:#205260;}
	.st11{fill:#8B383E;}
	.st12{fill:#662C33;}
	.st13{fill:#CE364C;}
	.st14{fill:#F24052;}
	.st15{fill:#A02E44;}
	.st16{fill:#FFB878;}
	.st17{fill:#0C476B;}
	.st18{fill:#105E99;}
	.st19{fill:#225866;}
	.st20{fill:#8BBDDB;}
	.st21{fill:#3E6575;}
</style>
<g id="BACKGROUND">
	<g>
		<rect y="0" class="st0" width="500" height="500"/>
	</g>
</g>
<g id="OBJECTS">
	<g>
		<path class="st1" d="M110.79,411.33h-55.1c-0.97,0-1.75-0.78-1.75-1.75v-0.96c0-0.97,0.78-1.75,1.75-1.75h55.1
			c0.97,0,1.75,0.78,1.75,1.75v0.96C112.54,410.55,111.75,411.33,110.79,411.33z"/>
		<path class="st1" d="M459.94,411.33h-15.08c-0.97,0-1.75-0.78-1.75-1.75v-0.96c0-0.97,0.78-1.75,1.75-1.75h15.08
			c0.97,0,1.75,0.78,1.75,1.75v0.96C461.69,410.55,460.91,411.33,459.94,411.33z"/>
		<path class="st1" d="M214.48,411.33h-55.1c-0.97,0-1.75-0.78-1.75-1.75v-0.96c0-0.97,0.78-1.75,1.75-1.75h55.1
			c0.97,0,1.75,0.78,1.75,1.75v0.96C216.24,410.55,215.45,411.33,214.48,411.33z"/>
		<path class="st1" d="M295.39,411.33h-55.1c-0.97,0-1.75-0.78-1.75-1.75v-0.96c0-0.97,0.78-1.75,1.75-1.75h55.1
			c0.97,0,1.75,0.78,1.75,1.75v0.96C297.14,410.55,296.36,411.33,295.39,411.33z"/>
		<path class="st1" d="M394.48,411.33h-75.11c-0.97,0-1.75-0.78-1.75-1.75v-0.96c0-0.97,0.78-1.75,1.75-1.75h75.11
			c0.97,0,1.75,0.78,1.75,1.75v0.96C396.23,410.55,395.45,411.33,394.48,411.33z"/>
	</g>
	<g>
		<path class="st2" d="M129.26,161.06c0,0-5.82-3.96-14.33-0.91c-8.51,3.05-10.42,14.51-8.33,23.82c2.1,9.3-9.62,41.06-9.62,41.06
			s6.09,8.57,27.38,5.29c0,0,15.87-28.85,14.69-49.56S129.26,161.06,129.26,161.06z"/>
		<path class="st3" d="M135.98,196.85c8-2.56,12.9,4.1,17.48,16.5c4.58,12.4,6.13,13.64,6.13,13.64l17.69,11.37l-1.47,6.63
			c0,0-16.84-6.59-20.91-10.79c-4.07-4.19-15.78-25.44-15.78-25.44L135.98,196.85z"/>
		<path class="st4" d="M96.98,276.94c0,0-3.47,17.58-2.9,44.04c0,0-13.68,20.17-2.39,77.72h5.92c0,0,4.84-48.96,8.54-62.23
			c3.7-13.27,17.37-17.34,18.11-57.68L96.98,276.94z"/>
		<path class="st4" d="M69.92,328.63c-3.44-11.34-12.28-30.33-34.97-56.07c0,0-1.35-0.7-3.18,0.42c-1.93,1.18-1.93,2.57-1.93,2.57
			s11.38,24.79,18.63,42.95c2.44,6.11,8.35,10.13,14.93,10.13H69.92z"/>
		<path class="st5" d="M111.22,350.56c0,0,0.08,8.46-5.47,8.6c-7.84,0.21-8.13-8.33-17.01-8.05c-8.88,0.28-27.2,2.5-33.03-11.38
			c-3.01-7.17,1.11-16.38-8.6-23.32c-9.71-6.94-5-14.71,0-18.87c5-4.15-2.15-8.7,3.05-10.82c1.24-0.5,2.46-0.44,3.6-0.07
			c0.67,0.23,1.29,0.56,1.89,0.95c2.75,1.83,4.69,5.02,4.69,5.02c14.71-40.29,40.9-45.61,40.9-45.61l25.9,8.94
			C127.76,318.64,111.22,350.56,111.22,350.56z"/>
		<path class="st6" d="M135.98,196.85c0,0-6.04,2.04-14.64,0.73c-8.6-1.31-11.39-6.7-17.43-3.23c-9.07,5.21-4.83,23.16-2.55,32.5
			c0.85,3.48,1.93,12.62-0.12,20.17c0,0,12.08,9.4,25.9,8.93l7.54-16.4C134.68,239.54,151.08,219.92,135.98,196.85z"/>
		<path class="st3" d="M120.63,181.79c0,0,1.01,8.49-2.14,16.22c0,0,4.48,6.62,8.76,2.26c0,0,0.39-7.78,5.2-16.59
			C135.67,177.79,120.63,181.79,120.63,181.79z"/>
		<g>
			<path class="st4" d="M113.75,182.08c0,0-3.78-2.39-3.36,1.3c0.5,4.28,4.67,5.11,5.11,3.62
				C115.95,185.5,113.75,182.08,113.75,182.08z"/>
			<path class="st4" d="M135.46,177.45c0,0,2.4-3.78,3.59-0.26c1.38,4.08-2.04,6.61-3.08,5.45
				C134.93,181.48,135.46,177.45,135.46,177.45z"/>
			<path class="st4" d="M127.65,194.87c-6.86,1.54-11.74-2.08-14.75-15.52c-1.55-6.93,1.02-11.98,8.71-13.7
				c7.69-1.72,11.87,1.81,13.43,8.74C138.27,188.83,134.73,193.28,127.65,194.87z"/>
			<path class="st7" d="M133.83,179.69c0.27,0.66-0.17,1.48-1,1.82c-0.83,0.34-1.72,0.08-2-0.58c-0.27-0.66,0.17-1.48,1-1.82
				C132.67,178.77,133.56,179.03,133.83,179.69z"/>
			<path class="st7" d="M119.81,183.23c0.11,0.71-0.52,1.4-1.4,1.53c-0.89,0.14-1.7-0.32-1.81-1.03c-0.11-0.71,0.52-1.4,1.4-1.53
				C118.89,182.06,119.7,182.52,119.81,183.23z"/>
			<g>
				<path class="st2" d="M129.06,173.43c-0.07,0-0.13-0.02-0.19-0.06c-1.17-0.78-2.84-0.37-2.85-0.36
					c-0.19,0.05-0.38-0.07-0.43-0.25c-0.05-0.19,0.07-0.38,0.25-0.43c0.08-0.02,1.99-0.5,3.42,0.46c0.16,0.11,0.2,0.33,0.1,0.49
					C129.28,173.37,129.17,173.43,129.06,173.43z"/>
			</g>
			<g>
				<path class="st2" d="M116.14,176.32c-0.06,0-0.12-0.02-0.18-0.05c-0.17-0.1-0.22-0.32-0.12-0.48c0.89-1.48,2.82-1.86,2.9-1.87
					c0.19-0.03,0.37,0.09,0.41,0.28c0.04,0.19-0.09,0.37-0.28,0.41c-0.02,0-1.7,0.34-2.43,1.55
					C116.37,176.26,116.26,176.32,116.14,176.32z"/>
			</g>
			<path class="st8" d="M129.36,177.19c0.19,0.85-0.04,1.63-0.51,1.73c-0.47,0.11-1.01-0.5-1.2-1.35c-0.19-0.85,0.04-1.63,0.51-1.73
				C128.63,175.74,129.17,176.34,129.36,177.19z"/>
			<path class="st8" d="M119.82,179.25c0.19,0.85-0.04,1.63-0.51,1.73c-0.47,0.11-1.01-0.5-1.2-1.35c-0.19-0.85,0.04-1.63,0.51-1.73
				C119.1,177.79,119.63,178.39,119.82,179.25z"/>
			<path class="st8" d="M122.91,187.31c0,0,4.41-0.36,6.35-2c0,0-0.53,3.44-2.93,3.68C123.93,189.24,122.91,187.31,122.91,187.31z"
				/>
			<path class="st8" d="M126.96,177.29c0,0,0.16-2.24,1.01-2.27c0.86-0.03,1.89,1.62,1.89,1.62l1.07-0.92l-1.18,0.43
				c0,0-1.05-1.73-1.87-1.55C126.71,174.85,126.96,177.29,126.96,177.29z"/>
			<path class="st8" d="M120.35,179.04c0,0-1.1-1.96-1.89-1.62c-0.79,0.34-1.01,2.27-1.01,2.27l-1.36-0.37l1.25-0.11
				c0,0,0.21-2.02,1.03-2.2C119.53,176.73,120.35,179.04,120.35,179.04z"/>
			<g>
				<path class="st7" d="M125.13,183.34l-0.35-0.67c0.57-0.3,0.62-0.71,0.56-0.99c-0.08-0.41-0.41-0.73-0.65-0.75
					c-0.14-0.01-0.26,0.11-0.35,0.35l-0.71-0.26c0.3-0.82,0.88-0.86,1.11-0.85c0.6,0.05,1.19,0.64,1.34,1.35
					C126.23,182.26,125.88,182.95,125.13,183.34z"/>
			</g>
			<path class="st2" d="M114.3,184.5c0,0-2.12-7.79-0.86-13.29c0,0,5.97-8.31,17.49-4.2c0,0,3.42,5.5,5.11,13.2
				c0,0,0.43-2.77-0.72-8.93c-1.15-6.16-6.61-9.99-14.11-8.75C113.72,163.76,105.7,171.21,114.3,184.5z"/>
		</g>
		<path class="st2" d="M126.38,165.28c0,0,0.46,2.03-1.52,7.27c0,0-1.42-1.49-3.09,0c-1.67,1.49-5.05,0.99-6.2,1.79
			c-1.15,0.8-1.15,2.64-1.15,2.64s-1-2.29,0-5.03c0,0-2.25,2.86-1.95,6.38c0,0-3.05-0.49-2.91-5.52c0.14-5.03,7.28-13.16,15.3-12.63
			c8.02,0.53,9.92,13.22,9.92,13.22s-0.73-0.57-1.88-0.32c0,0-0.18-2.69-1.98-6.07c0,0,0.83,2.44,0,5.08c0,0-2.23-1.17-3.99-0.8
			C126.94,171.28,128.02,169.15,126.38,165.28z"/>
		<path class="st4" d="M101.87,195.96c3.9-3.08,6.94,0.84,7.68,6.25c0.74,5.41-6.31,37.33-11.75,36.15
			c-2.1-0.45-2.96-8.82-2.96-8.82s2.13-8.97,3.5-22.48C98.98,200.85,99.84,197.56,101.87,195.96z"/>
		<path class="st4" d="M90.52,233.84c-5.25-5.01-14.67-21.61-17.06-30.07l3.99-1.6c0,0,12,17.17,17.47,21.5
			c5.47,4.33,7.4,9.15,4.95,13.28C97.43,241.08,91.62,234.9,90.52,233.84z"/>
		<g>
			<path class="st4" d="M75.1,192.7c-0.28,5.43,4.15,6.72,2.19,10.89c-0.41,0.86-1.02,1.32-1.66,1.54
				c-1.22,0.43-2.57,0.02-3.47-0.89c-2.1-2.13-5.36-4.38-7.09-5.37c-1.97-1.14-0.85-1.45-0.85-1.45c-0.19-0.09-0.38-0.16-0.56-0.24
				c-1.4-0.59-2.53-0.81-1.51-1.43c1.15-0.71,5.21,0.77,5.21,0.77c-5.29-3.52-6.72-2.66-5.76-3.41c1.32-1.02,6.34,1.33,6.49,1.4
				c-2.79-2.64-4.82-3.24-3.71-3.64c1.12-0.4,6.65,3.6,8.67,5.1c0.45,0.34,0.73,0.55,0.73,0.55C73.7,192.09,75.1,192.7,75.1,192.7z"
				/>
			<path class="st3" d="M73.04,195.97c0.45,0.34,0.73,0.55,0.73,0.55s-0.95,1.59,0.28,3.65C74.05,200.18,71.8,198.71,73.04,195.97z"
				/>
			<path class="st3" d="M68.4,199.09c-0.47-0.26-3.14-1.76-4.2-1.67c-0.19-0.09-0.38-0.16-0.56-0.24
				C64.36,196.24,67.87,198.71,68.4,199.09z"/>
		</g>
		<g>
			<path class="st9" d="M89.37,279.67c0,0.59-0.48,1.07-1.07,1.07c-0.59,0-1.07-0.48-1.07-1.07s0.48-1.07,1.07-1.07
				C88.89,278.6,89.37,279.08,89.37,279.67z"/>
			<path class="st9" d="M108.41,287.01c0,0.59-0.48,1.07-1.07,1.07s-1.07-0.48-1.07-1.07s0.48-1.07,1.07-1.07
				S108.41,286.42,108.41,287.01z"/>
			<path class="st9" d="M124.63,290.95c0,0.59-0.48,1.07-1.07,1.07s-1.07-0.48-1.07-1.07c0-0.59,0.48-1.07,1.07-1.07
				S124.63,290.36,124.63,290.95z"/>
			<path class="st9" d="M99.7,265.73c0,0.59-0.48,1.07-1.07,1.07s-1.07-0.48-1.07-1.07c0-0.59,0.48-1.07,1.07-1.07
				S99.7,265.14,99.7,265.73z"/>
			<circle class="st9" cx="102.23" cy="275.87" r="1.07"/>
			<path class="st9" d="M120.18,281.65c0,0.59-0.48,1.07-1.07,1.07s-1.07-0.48-1.07-1.07s0.48-1.07,1.07-1.07
				S120.18,281.06,120.18,281.65z"/>
			<path class="st9" d="M122.49,264.16c0,0.59-0.48,1.07-1.07,1.07s-1.07-0.48-1.07-1.07c0-0.59,0.48-1.07,1.07-1.07
				S122.49,263.57,122.49,264.16z"/>
			<circle class="st9" cx="110.37" cy="260.52" r="1.07"/>
			<path class="st9" d="M79.92,300.49c0,0.59-0.48,1.07-1.07,1.07s-1.07-0.48-1.07-1.07s0.48-1.07,1.07-1.07
				S79.92,299.9,79.92,300.49z"/>
			<path class="st9" d="M64.71,295.95c0,0.59-0.48,1.07-1.07,1.07c-0.59,0-1.07-0.48-1.07-1.07c0-0.59,0.48-1.07,1.07-1.07
				C64.23,294.88,64.71,295.36,64.71,295.95z"/>
			<path class="st9" d="M55.64,287.6c-0.19,0.29-0.52,0.48-0.9,0.48c-0.59,0-1.07-0.48-1.07-1.07c0-0.13,0.02-0.26,0.08-0.37
				C54.42,286.88,55.04,287.21,55.64,287.6z"/>
			<circle class="st9" cx="84.3" cy="314.41" r="1.07"/>
			<path class="st9" d="M58.07,329.53c0,0.59-0.48,1.07-1.07,1.07s-1.07-0.48-1.07-1.07s0.48-1.07,1.07-1.07
				S58.07,328.94,58.07,329.53z"/>
			<circle class="st9" cx="68.16" cy="320.36" r="1.07"/>
			<circle class="st9" cx="51.55" cy="312.25" r="1.07"/>
			<path class="st9" d="M66.02,344.2c0,0.59-0.48,1.07-1.07,1.07c-0.59,0-1.07-0.48-1.07-1.07c0-0.59,0.48-1.07,1.07-1.07
				C65.54,343.13,66.02,343.61,66.02,344.2z"/>
			<path class="st9" d="M76.18,288.08c0,0.59-0.48,1.07-1.07,1.07c-0.59,0-1.07-0.48-1.07-1.07c0-0.59,0.48-1.07,1.07-1.07
				C75.71,287.01,76.18,287.49,76.18,288.08z"/>
			<path class="st9" d="M86.44,270.11c0,0.59-0.48,1.07-1.07,1.07c-0.59,0-1.07-0.48-1.07-1.07s0.48-1.07,1.07-1.07
				C85.96,269.04,86.44,269.52,86.44,270.11z"/>
			<path class="st9" d="M98.04,255.15c0,0.59-0.48,1.07-1.07,1.07c-0.59,0-1.07-0.48-1.07-1.07c0-0.59,0.48-1.07,1.07-1.07
				C97.56,254.08,98.04,254.56,98.04,255.15z"/>
			<path class="st9" d="M74.53,276.94c0,0.59-0.48,1.07-1.07,1.07s-1.07-0.48-1.07-1.07c0-0.59,0.48-1.07,1.07-1.07
				S74.53,276.35,74.53,276.94z"/>
			<path class="st9" d="M87.51,259.45c0,0.59-0.48,1.07-1.07,1.07s-1.07-0.48-1.07-1.07c0-0.59,0.48-1.07,1.07-1.07
				S87.51,258.86,87.51,259.45z"/>
			<path class="st9" d="M67.09,307.51c0,0.59-0.48,1.07-1.07,1.07c-0.59,0-1.07-0.48-1.07-1.07s0.48-1.07,1.07-1.07
				C66.61,306.44,67.09,306.92,67.09,307.51z"/>
			<path class="st9" d="M53.68,298.08c0,0.59-0.48,1.07-1.07,1.07s-1.07-0.48-1.07-1.07s0.48-1.07,1.07-1.07
				S53.68,297.49,53.68,298.08z"/>
			<circle class="st9" cx="91.5" cy="294.88" r="1.07"/>
			<circle class="st9" cx="113.57" cy="300.49" r="1.07"/>
			<path class="st9" d="M113.57,270.11c0,0.59-0.48,1.07-1.07,1.07s-1.07-0.48-1.07-1.07s0.48-1.07,1.07-1.07
				S113.57,269.52,113.57,270.11z"/>
			<path class="st9" d="M126.4,272.34c0,0.59-0.48,1.07-1.07,1.07s-1.07-0.48-1.07-1.07c0-0.59,0.48-1.07,1.07-1.07
				S126.4,271.75,126.4,272.34z"/>
			<path class="st9" d="M100.77,308.58c0,0.59-0.48,1.07-1.07,1.07s-1.07-0.48-1.07-1.07s0.48-1.07,1.07-1.07
				S100.77,307.99,100.77,308.58z"/>
			<circle class="st9" cx="90.43" cy="327.56" r="1.07"/>
			<circle class="st9" cx="74.05" cy="330.6" r="1.07"/>
			<circle class="st9" cx="119.11" cy="314.41" r="1.07"/>
			<path class="st9" d="M105.43,322.5c0,0.59-0.48,1.07-1.07,1.07s-1.07-0.48-1.07-1.07s0.48-1.07,1.07-1.07
				S105.43,321.91,105.43,322.5z"/>
			<path class="st9" d="M83.24,346.33c0,0.59-0.48,1.07-1.07,1.07c-0.59,0-1.07-0.48-1.07-1.07c0-0.59,0.48-1.07,1.07-1.07
				C82.76,345.27,83.24,345.74,83.24,346.33z"/>
			<circle class="st9" cx="98.63" cy="340.77" r="1.07"/>
			<circle class="st9" cx="114.49" cy="334.49" r="1.07"/>
			<path class="st9" d="M108.41,352.85c0,0.59-0.48,1.07-1.07,1.07s-1.07-0.48-1.07-1.07s0.48-1.07,1.07-1.07
				S108.41,352.26,108.41,352.85z"/>
		</g>
		<g>
			<path class="st5" d="M107.24,409.06H89.71c-1.14-3.26,0.97-6.54,0.61-9.42c-0.61-4.86,2.22-2.18,2.22-2.18
				c0.5-5.23,7.85-6.22,7.77-3.89c-0.12,3.43,0.54,5.55,1.52,6.97c1.98,2.85,5.22,2.83,5.77,4.87c0.06,0.2,0.1,0.4,0.13,0.58
				C108.28,408.56,107.24,409.06,107.24,409.06z"/>
			<path class="st10" d="M107.74,406c-3.63,0.84-12-0.26-12.33-2.36c-0.32-2.04,4.19-3,6.43-3.09c1.98,2.85,5.22,2.83,5.77,4.87
				C107.66,405.62,107.7,405.82,107.74,406z"/>
		</g>
		<g>
			<path class="st5" d="M35.17,273.26c-1.87-1.7-4.9,1.11-4.9,1.11s1.63,2.42,0.58,3.4c-1.05,0.98-2.28-1.25-4.35-0.28
				c-0.17,0.08-0.34,0.18-0.51,0.29c-1.62,0.97-3.31,3-4.67,4.54c-0.28,0.31-0.54,0.6-0.79,0.85c-1.59,1.67-5.68,2.64-6.45-1.8
				c-0.77-4.44,4.23-9.65,9.71-14.43c5.48-4.79,9.03-1.94,9.03-1.94s1.24,2.01,1.24,3.26c0,1.24,1.11,1.87,1.73,3.05
				C36.41,272.49,35.17,273.26,35.17,273.26z"/>
			<path class="st10" d="M25.99,277.78c-1.62,0.97-3.31,3-4.67,4.54c-2.05,0.49-3.9,0.34-4.19-1.59c-0.7-4.66,8.6-10.59,7.86-7.32
				C24.61,275.06,25.26,276.62,25.99,277.78z"/>
		</g>
	</g>
	<g>
		<path class="st6" d="M350.62,401.47c-0.86-0.45-1.66-1.45-2.38-2.71c0,0-0.62-3.73,0-7.65c0.62-3.92-1.09-7.12-6.64-8.33
			c-5.4-1.17-8.6,1.43-7.35,12.28c0,0,0,0,0,0c-0.82,4.51-0.99,9.65,0.88,13.99h16.61C351.74,409.06,354.36,403.44,350.62,401.47z"
			/>
		<path class="st4" d="M365.19,343c0,0,0,10.82-6.11,21.93c-6.22,11.31-13.91,26.82-13.91,26.82s-5.12,5-8.38-3.28
			c0,0,2.3-28.82,7.57-39.36C349.65,338.55,365.19,343,365.19,343z"/>
		<path class="st4" d="M444.86,307.74c0,0,9.89,41.61,16.19,52.59c0,0-1.45,4.59-8.26,5.98c0,0-21.53-31.64-22.91-44.97
			C428.48,308.02,444.86,307.74,444.86,307.74z"/>
		<g>
			<path class="st11" d="M449.64,317.53c-2.63,6.34-22.96,6.68-22.96,6.68l-1.55-2.29l-0.41-0.6l-3.18-4.69
				c0,0-33.69-33.04-40.25-30.27h-0.01c-0.19,0.09-0.38,0.19-0.56,0.32c-4.51,3.22-4.93,20.86-10.26,50.47
				c-0.51,2.81-1.64,6.08-2.5,8.35c-0.1,0.24-0.19,0.48-0.28,0.7c-0.49,1.25-0.83,2.05-0.83,2.05c-20.56,8.33-27.35-8.13-27.35-8.13
				s0.24-0.48,0.6-1.24c0.08-0.17,0.17-0.36,0.26-0.56c1.08-2.38,2.8-6.49,2.78-8.67c-0.02-2.39-0.04-4.69-0.06-6.89
				c0-0.2,0-0.39-0.01-0.58c-0.03-7.12-0.02-13.3,0.02-18.67v-0.57c0.02-2.34,0.06-4.53,0.1-6.57v-0.58
				c0.18-9.36,0.48-15.61,0.8-19.77c0.01-0.19,0.03-0.39,0.04-0.57c0.57-7.01,1.17-7.69,1.17-7.69l-4.12-28.63h44.94
				c0,0,6.75,6.76,15.51,15.69c0.19,0.18,0.37,0.36,0.54,0.54c3.18,3.23,6.61,6.74,10.05,10.3c0.14,0.14,0.28,0.28,0.4,0.41
				c1.35,1.4,2.71,2.8,4.05,4.19c0.17,0.17,0.32,0.34,0.49,0.51c4.51,4.67,8.88,9.28,12.62,13.31c0.13,0.13,0.26,0.27,0.38,0.4
				c5.12,5.54,9.02,9.97,10.36,12.04c3.56,5.45,6.34,12.55,7.87,16.93c0,0,0,0,0,0.01c0.08,0.2,0.14,0.38,0.21,0.57
				C449.24,316.17,449.64,317.53,449.64,317.53z"/>
			<g>
				<path class="st12" d="M351.94,272.06c-1.83,2.17-4.5,3.5-7.94,3.97c0.01-0.19,0.03-0.39,0.04-0.57
					c3.24-0.47,5.75-1.73,7.47-3.77c3.09-3.64,2.59-8.56,2.58-8.6l0.56-0.07C354.67,263.23,355.18,268.23,351.94,272.06z"/>
				<path class="st12" d="M402.09,255.37c-0.18,0.01-0.34,0.02-0.52,0.02c-5,0-10.21-5.46-10.48-5.74l0.4-0.39
					c0.07,0.08,5.26,5.52,10.06,5.56C401.73,255.01,401.91,255.19,402.09,255.37z"/>
				<path class="st12" d="M367.97,345.52c-0.1,0.24-0.19,0.48-0.28,0.7c-3.33,1.22-6.38,1.72-9.17,1.72
					c-8.88,0-15.03-5.14-18.41-9.04c0.08-0.17,0.17-0.36,0.26-0.56C344.69,343.41,353.91,350.88,367.97,345.52z"/>
				<path class="st12" d="M380.04,276.06c0.74,3.19,1.22,6.66,1.24,10.31c-0.19,0.09-0.38,0.19-0.56,0.32
					c-0.02-16.76-9.73-29.84-9.84-29.99l0.44-0.33c0.09,0.11,5.84,7.88,8.56,19.11c1.13-0.74,1.9-1.81,2.22-3.19
					c1.4-5.88-4.96-15.5-5.02-15.6l0.46-0.31c0.27,0.41,6.55,9.91,5.11,16.03C382.28,274.02,381.39,275.23,380.04,276.06z"/>
				<path class="st12" d="M430.08,284.5c-1.65,1.8-3.21,3.33-3.35,3.46l-0.3,0.3l-0.14-0.4c-2.18-5.7-16.17-18.04-16.31-18.16
					l-0.17-0.16l2.33-3.86c0.14,0.14,0.28,0.28,0.4,0.41l-1.95,3.24c2.72,0.94,4.65,1.11,6.01,0.94c0.17,0.17,0.32,0.34,0.49,0.51
					c-0.46,0.08-0.94,0.12-1.45,0.12c-1.25,0-2.69-0.26-4.3-0.74c3.18,2.86,13.05,12.01,15.31,17.11c0.88-0.87,1.99-2.01,3.06-3.18
					C429.83,284.23,429.96,284.36,430.08,284.5z"/>
				<path class="st12" d="M353.32,322.68l-0.22,0.04c-0.21,0.06-2.73,0.58-5.63,0.58c-1.45,0-2.99-0.13-4.37-0.52
					c0-0.2,0-0.39-0.01-0.58c3.66,1.05,8.56,0.24,9.67,0.03l-0.93-23.1c-0.52,1.27-1.55,3-3.49,3.95c-0.92,0.47-1.95,0.69-3.09,0.69
					c-0.68,0-1.39-0.08-2.14-0.24v-0.57c1.92,0.44,3.59,0.32,4.97-0.38c2.35-1.17,3.29-3.66,3.58-4.65
					c-1.85,0.28-5.6-0.67-8.45-1.54v-0.58c3.08,0.93,7.24,2.01,8.74,1.49l0.36-0.12L353.32,322.68z"/>
				<path class="st12" d="M448.52,314.04c-3.23,3.19-9.85,8.06-20.03,8.06c-1.08,0-2.2-0.06-3.36-0.18l-0.41-0.6
					c12.38,1.42,20.14-4.39,23.59-7.85C448.39,313.67,448.45,313.85,448.52,314.04z"/>
			</g>
		</g>
		<path class="st13" d="M394.34,117.41c0,0-1.24-2.84-6.45-2.85c-4.02,0-5.56,2.22-5.56,2.22c-2.41,7.03-4.99,33.96-5.92,34.91
			c-0.47,0.49-30.3,20.57-30.3,20.57c16.19,0.3,26.29,20.25,26.29,20.25c0.52-6.56,18.8-32.54,19-34.85
			C391.77,153.3,399.5,133.78,394.34,117.41z"/>
		<path class="st13" d="M342.56,258.18c0,0-0.15,5.62,1.67,5.99c1.82,0.37,16.62,4.75,33.64-2.99
			c17.02-7.74,19.98-13.48,14.99-17.73C387.86,239.19,342.56,258.18,342.56,258.18z"/>
		<path class="st14" d="M335.74,176.16c0,0-15.49-1.83-24.37,2.01c0,0-2.48,10.99,9.73,35.59c12.2,24.6,9.37,40.09,23.13,45.92
			c12.2,5.17,48.17-10.22,49.3-15.32c2.84-12.85-19.15-35.39-20.54-48.46C371.6,182.84,358.83,163.2,335.74,176.16z"/>
		<path class="st13" d="M311.37,178.16c-10.82,3.84-23,16-23.02,21.86c-0.02,5.86,10.16,8.12,10.16,8.12l16.68-8.12
			c0,0,4.77-3.33,1.73-13.04C313.88,177.27,311.37,178.16,311.37,178.16z"/>
		<g>
			<path class="st6" d="M355.85,189c-3.23,0-7.25-1.17-9.74-2.94c-1.37-0.98-2.19-2.08-2.37-3.19c-0.61-3.85,3.13-5.8,3.29-5.88
				l0.5,0.99c-0.13,0.07-3.18,1.68-2.7,4.72c0.13,0.81,0.79,1.66,1.92,2.46c2.79,1.99,7.62,3.16,10.76,2.6
				c1.42-0.25,2.34-0.76,2.75-1.51c0.5-0.92,0.07-1.97,0.07-1.98l1.02-0.44c0.03,0.06,0.65,1.53-0.11,2.93
				c-0.58,1.07-1.77,1.78-3.54,2.09C357.13,188.95,356.5,189,355.85,189z"/>
		</g>
		<g>
			<path class="st6" d="M342.12,200.71c-2.4,0-6.37-1-6.93-4.93c-0.28-2-0.1-3.67,0.06-5.14c0.24-2.17,0.42-3.88-0.84-5.93
				c-2.09-3.39-4.93-3.61-5.05-3.62l0.07-1.11c0.14,0.01,3.52,0.25,5.92,4.15c1.46,2.38,1.24,4.45,1,6.64
				c-0.16,1.48-0.33,3-0.06,4.87c0.6,4.24,6.01,3.98,6.24,3.96l0.07,1.11C342.44,200.71,342.28,200.71,342.12,200.71z"/>
		</g>
		<path class="st13" d="M345.49,180.78c0,0,8.19-5.58,6.25-11.61c-1.94-6.04-28.31-5.62-35.11,1.6
			c-6.8,7.22,14.71,12.01,14.71,12.01C333,179.42,343.64,179.05,345.49,180.78z"/>
		<path class="st15" d="M330.77,179.84c-3.89-1.32-6.19-4.12-5.36-7.36c0.83-3.24,17.54-3.32,20.7-0.74
			C349.28,174.33,344.82,184.61,330.77,179.84z"/>
		<path class="st3" d="M328.92,170.74c0,0,3.44,5.87,1.85,9.1c0,0,11.79,4.07,11.79-2.53c0,0-2.22-4.95-1.38-8.14L328.92,170.74z"/>
		<g>
			<path class="st16" d="M324.98,165.61c0,0-5.79-9.28-5.26-18.14c0.27-4.43,2.55-6.17,2.55-6.17s-1.84-2.56,0.13-6.47
				c0,0,2.73,3.16,12.31,2.16c9.24-0.96,10.16,5.62,10.16,5.62c6.6,0.98,2.15,20.95-2.46,22.99H324.98z"/>
			<path class="st4" d="M322.53,157.04c0,0-3.33-3.32-3.74,0.56c-0.48,4.5,3.61,6.31,4.41,4.88
				C324,161.05,322.53,157.04,322.53,157.04z"/>
			<path class="st4" d="M345.85,157.28c0,0,3.33-3.32,3.74,0.56c0.47,4.5-3.61,6.31-4.41,4.88
				C344.38,161.29,345.85,157.28,345.85,157.28z"/>
			<path class="st4" d="M333.84,173.34c-7.39,0-11.56-4.83-11.56-19.3c0-7.47,3.8-12.05,12.08-12.05c8.28,0,11.76,4.58,11.76,12.05
				C346.11,169.6,341.47,173.34,333.84,173.34z"/>
			<path class="st7" d="M343.67,159.21c0.13,0.74-0.52,1.48-1.45,1.64c-0.93,0.16-1.79-0.31-1.92-1.05
				c-0.13-0.74,0.52-1.48,1.45-1.64C342.68,157.99,343.54,158.46,343.67,159.21z"/>
			<path class="st7" d="M328.47,159.61c-0.05,0.75-0.85,1.31-1.79,1.25c-0.94-0.06-1.66-0.72-1.61-1.47
				c0.05-0.75,0.85-1.31,1.79-1.25C327.79,158.2,328.52,158.86,328.47,159.61z"/>
			<g>
				<path class="st16" d="M340.41,151.44c-0.1,0.01-0.2-0.01-0.28-0.07c-1.18-0.9-2.94-0.58-2.97-0.58
					c-0.2,0.03-0.39-0.09-0.43-0.29c-0.04-0.2,0.09-0.39,0.29-0.43c0.08-0.02,2.12-0.38,3.55,0.72c0.16,0.12,0.19,0.36,0.07,0.52
					C340.59,151.38,340.5,151.43,340.41,151.44z"/>
			</g>
			<g>
				<path class="st16" d="M326.27,151.5c-0.09-0.01-0.18-0.06-0.24-0.13c-0.13-0.16-0.11-0.39,0.05-0.52
					c1.4-1.15,3.45-0.84,3.53-0.83c0.2,0.03,0.34,0.22,0.31,0.42c-0.03,0.2-0.23,0.34-0.42,0.31c-0.01,0-1.81-0.26-2.95,0.67
					C326.47,151.48,326.37,151.51,326.27,151.5z"/>
			</g>
			<path class="st8" d="M339.65,155.61c0,0.92-0.41,1.66-0.92,1.66c-0.51,0-0.92-0.74-0.92-1.66c0-0.92,0.41-1.66,0.92-1.66
				C339.24,153.95,339.65,154.7,339.65,155.61z"/>
			<path class="st8" d="M329.78,155.61c0,0.92-0.41,1.66-0.92,1.66c-0.51,0-0.92-0.74-0.92-1.66c0-0.92,0.41-1.66,0.92-1.66
				S329.78,154.7,329.78,155.61z"/>
			<path class="st16" d="M324.54,143.6c0,0,7.87,2.88,19.16,2.07c0,0,2.41,3,2.12,13.59c0,0,6.61-19.07-12.69-19.07
				s-10.6,18.65-10.6,18.65S320.95,147.17,324.54,143.6z"/>
			<g>
				<path class="st7" d="M334.3,160.55l-0.55-0.56l1.46-1.45c-1.42-2-1.41-6.64-1.41-6.85l0.79,0c0,0.05-0.01,5.04,1.44,6.61
					l0.26,0.28L334.3,160.55z"/>
			</g>
			<path class="st8" d="M329.4,162.97c0,0,7.27,0.31,10.94-0.66c0,0,0.65,5.29-4.99,5.55C329.4,168.13,329.4,162.97,329.4,162.97z"
				/>
		</g>
		<path class="st6" d="M360.48,182.96c1.39-0.26,1.25,3.37,0,2.32C359.23,184.23,359.09,183.22,360.48,182.96z"/>
		<path class="st6" d="M343.74,200.56c-0.21,1.4-3.6,0.07-2.19-0.76C342.95,198.96,343.95,199.16,343.74,200.56z"/>
		<path class="st3" d="M328.84,208.14c0,0-2.2,5.65-2.08,8.84c0.13,3.19,1.17,2.78,1.17,2.78s-1.67,0.66-1.99,2.5
			c-0.32,1.84,4.33,3.19,4.65,3.19c0.32,0,3.6-1.25,3.6-1.25l0.69-10.44l-2.9-1.82L328.84,208.14z"/>
		<path class="st4" d="M330.6,207.41c0,0,4.01,2.5,5.57,4.02c1.55,1.53,0.67,13.32,0,13.88c-0.67,0.56-5.78,1.7-6.76,1.06
			c-0.98-0.64,0.38-4.11,0.38-4.11s2.57-0.56,2.2,0.42c-0.37,0.97,0,1.8,0,1.8l1.05-0.42c0,0-0.52-2.64,0-4.58
			c0.52-1.94-3.62-3.99-4.12-7.55C328.42,208.38,330.6,207.41,330.6,207.41z"/>
		<path class="st13" d="M289.01,201.66c-1.28-5.55,4.22-7.51,11.88-6.56c8.88,1.1,27.12,3.42,31.09,13.04c0,0,1.3,3.79-2.06,5.62
			C320.55,218.85,291.43,212.08,289.01,201.66z"/>
		<path class="st15" d="M316.8,197.98c0,0-10.59-4.4-15.86-4.84C295.66,192.69,308.23,197.3,316.8,197.98z"/>
		<g>
			<path class="st4" d="M396.15,102.68c-0.8,0.91-2.12,4.45-2.12,4.45c-0.56,2.98-0.88,4.62-1.92,5.98
				c-1.03,1.37-0.49,3.77-0.49,3.77s-4.04,2.08-7.44-0.49c0,0,0.36-2.39,0-3.06c-0.7-1.35-2.94-2.08-3.71-4.81
				c-0.77-2.74-3.06-5.8-3.06-5.8s0.66-1.42,1.85-0.56c1.21,0.88,1.98,3.06,2.63,3.29c0.13,0.04,0.27,0.08,0.4,0.09
				c0,0,0.01,0,0.03,0.01c0.5,0.07,1.01-0.04,1.32-0.34c0.02-0.01,0.06-0.03,0.08-0.07c1.1-1.28,1.35-5.03,1.31-6.71
				c-0.07-2.33,0.02-5.55,1.44-5.01c1.42,0.54,0.12,1.84,1.22,6.98l0.53,0.07c0.1,0.37,1.08-3.12,1.31-6.4
				c0.17-2.25,1.64-1.42,1.97-0.71c0.33,0.71-0.17,2.95-0.27,4.59c-0.08,1.08-0.17,2.2-0.22,2.86l0.62,0.34
				c2.24-3.91,1.48-5.53,2.79-5.61c1.3-0.08,0.83,3.22,0.13,4.47c-0.3,0.54-0.59,1.68-0.82,2.79c2.3-2.65,2.04-4.04,3.1-3.87
				C397.92,99.14,396.95,101.77,396.15,102.68z"/>
			<path class="st3" d="M386.22,108.8c-0.78-2.14-3.55-3.12-3.9-3.23c0.5,0.07,1.01-0.04,1.32-0.34
				C386.37,106.44,386.22,108.8,386.22,108.8z"/>
		</g>
		<g>
			<path class="st6" d="M337.99,392.77c0,0-1.54-3.14-0.17-4.48c1.37-1.35,2.98,1.15,5.32,0.6c2.34-0.56,2.88-2.22,3.49,0.05
				C347.25,391.2,346.51,398.32,337.99,392.77z"/>
			<path class="st1" d="M346.8,392.63c0,0-6.28,2.23-9.54,0l0.83,2.72c0,0,6.83,0.72,7.77-1L346.8,392.63z"/>
			<path class="st1" d="M346.71,396.01c0,0-5.75-0.8-8.53,0.63v1.35c0,0,7.5-1.75,9.93,0L346.71,396.01z"/>
			<path class="st1" d="M337.91,400.79c0,0,1.12-2.72,4.62-2.91c3.5-0.2,5.86,1.73,5.86,1.73S342.84,397.32,337.91,400.79z"/>
		</g>
		<g>
			<path class="st6" d="M486,363.01c-11.05,14.74-26.08,17.58-26.08,17.58c-4.36-3.49-4.47-7.62-4.47-7.62s-4.21-3.75-4.76-5.55
				c-0.56-1.8,3.61-7.22,6.11-6.66c1.72,0.38,2.72,1.75,3.18,2.56c-2.07-4.65-0.41-6.27,2.52-5.87c3.05,0.41,0.17,1.13,2.35,3.59
				c0.16,0.18,0.33,0.32,0.52,0.46c0.4,0.28,0.88,0.47,1.42,0.57c0.48,0.09,1.01,0.11,1.57,0.08c0.29-0.01,0.59-0.04,0.89-0.09
				c0.57-0.09,1.14-0.23,1.74-0.42c0.92-0.29,1.88-0.7,2.81-1.21c3.82-2.09,5.43-2.8,8.34-2.05c2.9,0.73,2.85,2.93,2.85,2.93
				L486,363.01z"/>
			<path class="st1" d="M486,363.01c-11.05,14.74-26.08,17.58-26.08,17.58c7.67-3.3,14.72-7.62,19.54-12.93
				C484.27,362.34,486,363.01,486,363.01z"/>
			<g>
				<path class="st1" d="M465.36,361.49c0.4,0.28,0.88,0.47,1.42,0.57c-2.92,0.59-3.13,3.2-3.13,3.2l-1.24-0.4
					C462.68,361.73,465.15,361.5,465.36,361.49z"/>
				<path class="st1" d="M467.33,365.57l-1.3,0.04c-0.49-1.84,0.14-2.94,0.75-3.55c0.48,0.09,1.01,0.11,1.57,0.08
					C466.81,363.66,467.33,365.57,467.33,365.57z"/>
				<path class="st1" d="M470.54,364.86l-1.29,0.17c-0.5-1.31-0.36-2.29-0.01-2.98c0.57-0.09,1.14-0.23,1.74-0.42
					C469.91,363.21,470.54,364.86,470.54,364.86z"/>
			</g>
		</g>
		<path class="st13" d="M346.91,227.95c0,0,2.85,15.39-2.91,21.52c-5.77,6.13-1.95,1.09-0.23-6.81
			C345.49,234.75,344.18,226.42,346.91,227.95z"/>
		<path class="st13" d="M373.52,221.08c0,0,9.09,2.99,13.84,11.38C387.36,232.46,381.02,218.79,373.52,221.08z"/>
	</g>
	<g>
		<g>
			<path class="st4" d="M137.47,106.77c1.21,0.02,4.72,1.42,4.72,1.42c2.58,1.59,4.01,2.45,5.72,2.59c1.71,0.15,2.4,3.08,2.4,3.08
				s6.72,1.47,7.1-2.77c0,0-3.76-5.32-4.02-6.04c-0.53-1.43,0.44-3.57-1.07-5.98c-1.52-2.41-2.24-6.16-2.24-6.16s-1.49-0.47-1.66,1
				c-0.16,1.49,0.94,3.52,0.67,4.16c-0.06,0.13-0.12,0.25-0.2,0.36c0,0-0.01,0.01-0.01,0.03c-0.29,0.41-0.71,0.72-1.14,0.75
				c-0.02,0.01-0.06,0.02-0.1,0.01c-1.68-0.04-4.64-2.37-5.85-3.53c-1.68-1.61-4.13-3.71-4.68-2.29c-0.55,1.42,1.28,1.33,4.36,5.59
				l-0.31,0.44c0.2,0.32-3.04-1.3-5.62-3.32c-1.78-1.39-2.16,0.26-1.85,0.98c0.3,0.72,2.3,1.86,3.58,2.88
				c0.85,0.67,1.74,1.35,2.27,1.76l-0.16,0.69c-4.4-0.96-5.09-2.62-6.03-1.7c-0.93,0.91,1.83,2.78,3.23,3.1
				c0.6,0.14,1.64,0.69,2.62,1.26c-3.51-0.08-4.37-1.2-4.95-0.31C133.66,105.71,136.26,106.75,137.47,106.77z"/>
			<path class="st3" d="M148.67,103.52c-1.07-2.01,0.07-4.73,0.22-5.06c-0.29,0.41-0.71,0.72-1.14,0.75
				C146.83,102.04,148.67,103.52,148.67,103.52z"/>
		</g>
		<g>
			<path class="st4" d="M335.33,106.77c-1.21,0.02-4.72,1.42-4.72,1.42c-2.58,1.59-4.01,2.45-5.72,2.59
				c-1.71,0.15-2.4,3.08-2.4,3.08s-6.72,1.47-7.1-2.77c0,0,3.76-5.32,4.02-6.04c0.53-1.43-0.44-3.57,1.07-5.98
				c1.52-2.41,2.24-6.16,2.24-6.16s1.49-0.47,1.66,1c0.16,1.49-0.94,3.52-0.67,4.16c0.06,0.13,0.12,0.25,0.2,0.36
				c0,0,0.01,0.01,0.01,0.03c0.29,0.41,0.71,0.72,1.14,0.75c0.02,0.01,0.06,0.02,0.1,0.01c1.68-0.04,4.64-2.37,5.85-3.53
				c1.68-1.61,4.13-3.71,4.68-2.29c0.55,1.42-1.28,1.33-4.36,5.59l0.31,0.44c-0.2,0.32,3.04-1.3,5.62-3.32
				c1.78-1.39,2.16,0.26,1.85,0.98c-0.3,0.72-2.3,1.86-3.58,2.88c-0.85,0.67-1.74,1.35-2.27,1.76l0.16,0.69
				c4.4-0.96,5.09-2.62,6.03-1.7c0.93,0.91-1.83,2.78-3.23,3.1c-0.6,0.14-1.64,0.69-2.62,1.26c3.51-0.08,4.37-1.2,4.95-0.31
				C339.15,105.71,336.54,106.75,335.33,106.77z"/>
			<path class="st3" d="M324.13,103.52c1.07-2.01-0.07-4.73-0.22-5.06c0.29,0.41,0.71,0.72,1.14,0.75
				C325.97,102.04,324.13,103.52,324.13,103.52z"/>
		</g>
		<path class="st2" d="M276.23,310.61l-12.92-79.99l-25.87,2.89l-25.87-2.89l-12.92,79.99l-6.2,77.58c0,0,1.97,6.43,14.88,1.99
			c0,0,9.57-71.96,11.05-73.54c1.48-1.58,16.68-48.59,16.68-48.59h4.76c0,0,15.2,47,16.68,48.59c1.48,1.58,11.05,73.54,11.05,73.54
			c12.9,4.44,14.88-1.99,14.88-1.99L276.23,310.61z"/>
		<path class="st17" d="M229.29,153.16c1.63,1.59,9.67,4.46,13.92,0l2.88,2.83c0,0-3.28,7.72-9.04,7.99
			c-5.76,0.27-9.92-6.87-9.92-6.87L229.29,153.16z"/>
		<path class="st17" d="M252.06,152.29c9.62-4.14,40.71-15.15,40.71-15.15s20.9-26.18,25.16-30.07c0,0,4.63,0.83,5.98,6.59
			c0,0-13.46,28.81-20.77,37.06c-7.31,8.25-44.36,26.09-44.36,26.09L252.06,152.29z"/>
		<path class="st16" d="M218.38,151.69c2.86-1.81,17.23,7.8,17.23,7.8s18.68-9.92,23.07-8c0,0,3.95,5.29,5.54,18.88
			c1.59,13.59,1.69,69.54,1.69,69.54s-12.56,4.44-29.55,4.44c-19.37,0-29.79-5.55-29.79-5.55S203.12,161.35,218.38,151.69z"/>
		<path class="st3" d="M230.05,150.24c0,0,2.07,6.51,0,9.02c0,0,2.15,4.51,6.01,4.71c4.46,0.23,6.01-4.71,6.01-4.71
			s-2.36-6.29,0-8.5L230.05,150.24z"/>
		<g>
			<path class="st11" d="M224.89,143.83c0,0-4.35-8.38-3.49-17.34c0.86-8.96,14.36-11.01,23.45-6.61c0,0-2.7-2.64-1.64-3.37
				c1.06-0.73,2.88,3.96,2.88,3.96s2.87-0.88,3.31,0c0.44,0.88-2.94,1.36-2.94,1.36s5.87,3.25,0.39,20.58L224.89,143.83z"/>
			<path class="st4" d="M224.24,138.53c0,0-3.25-3.24-3.65,0.55c-0.46,4.39,3.52,6.16,4.3,4.76
				C225.67,142.44,224.24,138.53,224.24,138.53z"/>
			<path class="st4" d="M246.98,138.75c0,0,3.25-3.24,3.65,0.55c0.46,4.39-3.52,6.16-4.3,4.76
				C245.54,142.67,246.98,138.75,246.98,138.75z"/>
			<path class="st4" d="M235.27,154.42c-7.2,0-11.27-4.71-11.27-18.82c0-7.28,3.7-11.75,11.77-11.75c8.07,0,11.47,4.47,11.47,11.75
				C247.24,150.77,242.71,154.42,235.27,154.42z"/>
			<path class="st7" d="M244.85,140.64c0.13,0.72-0.51,1.44-1.41,1.6s-1.74-0.3-1.87-1.03c-0.13-0.72,0.51-1.44,1.41-1.6
				C243.89,139.45,244.73,139.91,244.85,140.64z"/>
			<path class="st7" d="M230.03,141.03c-0.05,0.73-0.83,1.28-1.75,1.22c-0.92-0.06-1.62-0.7-1.57-1.44
				c0.05-0.73,0.83-1.28,1.75-1.22C229.38,139.65,230.08,140.3,230.03,141.03z"/>
			<g>
				<path class="st11" d="M241.56,133.31c-0.1,0-0.19-0.04-0.26-0.11c-1-1.05-2.75-1-2.77-1c-0.19,0-0.36-0.15-0.37-0.35
					c-0.01-0.2,0.15-0.36,0.35-0.37c0.08,0,2.1-0.05,3.32,1.23c0.14,0.14,0.13,0.37-0.01,0.51
					C241.74,133.28,241.65,133.31,241.56,133.31z"/>
			</g>
			<g>
				<path class="st11" d="M227.99,133.31c-0.09,0-0.18-0.03-0.25-0.1c-0.14-0.14-0.15-0.37-0.01-0.51c1.22-1.28,3.24-1.23,3.32-1.23
					c0.2,0.01,0.35,0.17,0.35,0.37c-0.01,0.2-0.18,0.35-0.37,0.35c-0.01,0-1.78-0.04-2.77,1
					C228.18,133.27,228.09,133.31,227.99,133.31z"/>
			</g>
			<path class="st8" d="M240.93,137.13c0,0.89-0.4,1.62-0.9,1.62c-0.5,0-0.9-0.73-0.9-1.62c0-0.89,0.4-1.62,0.9-1.62
				C240.53,135.51,240.93,136.24,240.93,137.13z"/>
			<path class="st8" d="M231.31,137.13c0,0.89-0.4,1.62-0.9,1.62c-0.5,0-0.9-0.73-0.9-1.62c0-0.89,0.4-1.62,0.9-1.62
				C230.91,135.51,231.31,136.24,231.31,137.13z"/>
			<path class="st8" d="M231.31,146.71c0,0,6.35,0.82,9.62-0.75c0,0-1.85,4.33-5.32,3.94C232.15,149.51,231.31,146.71,231.31,146.71
				z"/>
			<path class="st11" d="M246.49,140.35c0,0-0.22-7.84-3.28-13.86c0,0-5.38,2.49-6.56,1.9c-1.18-0.59,1.13-1.9,1.13-1.9
				s-8.87,2.93-9.41,2.34c-0.53-0.59,2.94-2.34,2.94-2.34l-5.53,1.9c0,0-1.7,7.05-1,11.96c0,0-2.38-4.1-2.67-6.93
				c-0.29-2.83,0.95-10.9,9.28-11.49c8.33-0.59,13,1.3,15.07,5.13C248.52,130.89,248.27,135.59,246.49,140.35z"/>
			<g>
				<path class="st7" d="M236.52,144.44c-0.7,0-1.41-0.18-1.63-0.24l0.2-0.74c0.76,0.21,1.94,0.33,2.2,0.03
					c0.09-0.11,0.05-0.35-0.1-0.67c-1.04-2.21-1.26-7.82-1.27-8.06l0.77-0.03c0,0.06,0.22,5.69,1.19,7.76
					c0.3,0.63,0.29,1.14-0.01,1.49C237.59,144.34,237.06,144.44,236.52,144.44z"/>
			</g>
		</g>
		<path class="st18" d="M244.49,155.22c0,0,13.04,40.48,14.28,73.42c0,0,4.71,1.3,10.01-5.92c5.3-7.22,2.15-64.38-8.01-73.9
			C260.78,148.82,256.17,147.77,244.49,155.22z"/>
		<path class="st17" d="M246.62,162.3c0,0,2.33-5.42,1.3-9.14s-4.7,0-4.7,0S244.69,159.25,246.62,162.3z"/>
		<path class="st17" d="M220.45,152.29c-9.62-4.14-40.71-15.15-40.71-15.15s-20.95-26.95-25.21-30.83c0,0-5.27,2.98-5.63,9.16
			c0,0,13.16,27.01,20.48,35.26c7.31,8.25,44.36,26.09,44.36,26.09L220.45,152.29z"/>
		<path class="st18" d="M228.01,155.22c0,0-13.04,40.48-14.28,73.42c0,0-4.71,1.3-10.01-5.92c-5.3-7.22-2.15-64.38,8.01-73.9
			C211.73,148.82,216.34,147.77,228.01,155.22z"/>
		<path class="st17" d="M225.89,162.3c0,0-2.33-5.42-1.3-9.14c1.04-3.72,4.7,0,4.7,0S227.81,159.25,225.89,162.3z"/>
		<g>
			<path class="st12" d="M293.94,409.06h-25.89c-1.81-10.29,1.08-20.6,1.08-20.6l11.84-2.03c1.08,6.51,2.38,9.07,4.17,10.39
				c0.01,0,0.01,0,0.01,0c1.31,0.95,2.88,1.27,4.83,1.94c2.23,0.78,3.41,2.19,4,3.72C295.14,405.53,293.94,409.06,293.94,409.06z"/>
			<path class="st11" d="M293.97,402.48c-6.38,0.8-20.41,2.16-19.55-1.53c0.71-3.09,6.63-3.92,10.71-4.13c0.01,0,0.01,0,0.01,0
				c1.31,0.95,2.88,1.27,4.83,1.94C292.21,399.54,293.38,400.95,293.97,402.48z"/>
		</g>
		<g>
			<path class="st12" d="M207.23,409.06h-25.89c0,0-0.82-2.42-0.44-4.98c0.31-2.09,1.42-4.27,4.41-5.31
				c2.24-0.78,3.96-1.07,5.37-2.39c1.53-1.44,2.68-4.11,3.64-9.95l11.84,2.03C206.15,388.46,209.03,398.76,207.23,409.06z"/>
			<path class="st11" d="M180.89,404.07c0.31-2.09,1.42-4.27,4.41-5.31c2.24-0.78,3.96-1.07,5.37-2.39
				c3.28,1.01,7.86,2.86,9.28,5.67C201.93,405.9,186.8,405.29,180.89,404.07z"/>
		</g>
	</g>
	<g>
		<g>
			<path class="st5" d="M393.11,407.2c0,1.09-0.11,1.85-0.11,1.85h-31.45c0-0.62,0.01-1.24,0.04-1.85
				c0.36-8.23,2.95-15.37,2.95-15.37l7.86-3.38c0.68,4.05,2.42,6.64,4.61,8.33c0.58,0.46,1.18,0.83,1.8,1.15
				c0.29,0.16,0.58,0.3,0.88,0.43c0.66,0.3,1.33,0.54,2.01,0.74c2.78,0.84,5.58,1.02,7.55,1.32
				C392.6,400.96,393.11,404.84,393.11,407.2z"/>
			<path class="st19" d="M393.11,407.2c0,1.09-0.11,1.85-0.11,1.85h-31.45c0-0.62,0.01-1.24,0.04-1.85H393.11z"/>
			<path class="st19" d="M378.81,397.94l-4.36,1.4l-0.92-1.6l3.49-0.95C377.59,397.24,378.18,397.62,378.81,397.94z"/>
			<path class="st19" d="M381.69,399.12l-2.94,1.95l-1.81-0.71l2.74-1.99C380.34,398.67,381.02,398.92,381.69,399.12z"/>
		</g>
		<g>
			<path class="st5" d="M272.93,407.2c-0.08,1.07-0.36,1.85-0.36,1.85h-20.95c-0.27-0.61-0.46-1.22-0.59-1.85
				c-2.07-10.03,11.86-22.29,11.86-22.29l4.42,5.9c0,0-0.51,9.44,3.23,11.4C272.79,403.38,273.08,405.6,272.93,407.2z"/>
			<path class="st19" d="M251.04,407.2h21.89c-0.08,1.07-0.36,1.85-0.36,1.85h-20.95C251.36,408.45,251.17,407.83,251.04,407.2z"/>
			<path class="st19" d="M269.59,401.45c0,0-8.83-2.01-12.85,0.59v-1.46C256.74,400.59,264.16,396.98,269.59,401.45z"/>
			<path class="st19" d="M267.84,399.21c0,0-5.64-2.58-11.1,0l0.62-1.47C257.36,397.74,263.89,395.28,267.84,399.21z"/>
		</g>
		<path class="st20" d="M383.61,318.07c0.01,8.43-7.47,77.13-7.47,77.13c-7.48,0.74-13.48-0.76-13.48-0.76
			c-2.05-34.82-2.25-64.76-2.25-64.76l-35.86-26.88l-0.09-0.07c0,0-0.13,0.61-0.38,1.7c-1.78,7.88-9.29,40.9-12.42,48.46
			c-3.56,8.62-42.53,44.85-42.53,44.85c-7.24-1-13.38-6.24-13.38-6.24c13.99-23.2,33.06-46.48,33.06-46.48
			c1.49-8.36,2.55-26.96,3.19-40.86c0.01-0.21,0.02-0.43,0.03-0.64c0.42-9.42,0.63-16.52,0.63-16.52l-6.57-13.48l41.76-15.34
			l9.36,11.98c0,0,2.14,1.99,5.52,5.16c0.16,0.14,0.31,0.29,0.47,0.43C355.72,287.58,383.61,314.3,383.61,318.07z"/>
		<g>
			<path class="st9" d="M292,304.17c0.01-0.21,0.02-0.43,0.03-0.64c8.79-4.77,7.32-12.39,7.29-12.47l0.54-0.11
				C299.89,291.02,301.47,299.21,292,304.17z"/>
			<path class="st9" d="M323.9,297.42c0.3,1.67,0.52,3.46,0.64,5.38l-0.09-0.07c0,0-0.13,0.61-0.38,1.7
				c-0.39-13.06-5.77-20.77-5.84-20.86l0.46-0.32c0.06,0.07,3.45,4.97,5.1,13.53c6.35-5.64,0.13-17.2,0.07-17.31l0.49-0.27
				C324.42,279.33,331,291.57,323.9,297.42z"/>
			<path class="st9" d="M343.19,275.76c-0.01,0.01-0.03,0.01-0.04,0.02c-0.26,0.1-0.56,0.14-0.87,0.14c-3.08,0-8.24-4.31-8.48-4.52
				l0.37-0.42c1.68,1.42,6.35,4.83,8.56,4.34C342.88,275.47,343.03,275.61,343.19,275.76z"/>
		</g>
		<path class="st1" d="M289.01,201.66c0,0,12.7-2.04,19.07,2.01c6.36,4.06,14.72,14.65,14.72,14.65s-9.92,1.31-11.04,8.05
			C311.76,226.37,304.55,209.2,289.01,201.66z"/>
		<path class="st6" d="M269.9,208.28c-5.37,2.9-14.35,13.81-14.76,20.52c-0.4,6.54,4.45,12.56,7.72,17.67
			c10.19,15.96,20.93,30.06,25.49,48.78c0.03,0.12,23.31,9.36,50.64-23.49c0,0-15.44-20.78-20.78-38.47
			c-2.17-7.2-4.38-14.85-8.55-21.19c-4.59-6.99-12.46-11.1-20.65-10.44C282.09,202.22,275.2,205.42,269.9,208.28z"/>
		<path class="st3" d="M267.65,201.59c0,0,3.44,5.87,1.85,9.1c0,0,11.79,4.07,11.79-2.53c0,0-2.22-4.95-1.39-8.14L267.65,201.59z"/>
		<path class="st3" d="M293.85,241.8c0,0-6.56,1.86-8.21,4.19s-3.13,7.53-3.13,7.53h11.34l2.13-3.92l2.5-5.23L293.85,241.8z"/>
		<g>
			<path class="st5" d="M283.01,195.04c0,0,4.61-1.93,1.63-15.78c-1.97-9.18-4.82-10.55-6.65-10.63c0,0-2.25-3.39-10.05-1.77
				c-5.34,1.11-9.6,4.35-11.48,10.36c-1.96,6.26,1.96,19.69,7.12,21.03L283.01,195.04z"/>
			<path class="st4" d="M284.1,185.68c0,0,2.9-4.04,4-0.06c1.27,4.61-2.68,7.21-3.76,5.85C283.26,190.12,284.1,185.68,284.1,185.68z
				"/>
			<path class="st4" d="M259.82,189.94c0,0-4.05-2.89-3.8,1.23c0.28,4.78,4.86,5.96,5.44,4.33
				C262.04,193.87,259.82,189.94,259.82,189.94z"/>
			<path class="st4" d="M275.11,204.63c7.71-1.27,11.23-7.02,8.74-22.12c-1.29-7.79-6.04-11.91-14.67-10.49
				c-8.63,1.42-11.48,6.8-10.2,14.59C261.66,202.84,267.15,205.95,275.11,204.63z"/>
			<path class="st7" d="M262.42,191.58c-0.01,0.8,0.8,1.45,1.79,1.46c1,0.01,1.81-0.63,1.82-1.43c0.01-0.8-0.79-1.45-1.79-1.46
				C263.24,190.14,262.43,190.78,262.42,191.58z"/>
			<path class="st7" d="M278.34,189.38c0.18,0.78,1.11,1.22,2.08,1c0.97-0.23,1.61-1.04,1.43-1.81c-0.18-0.78-1.11-1.22-2.09-1
				C278.8,187.79,278.16,188.61,278.34,189.38z"/>
			<g>
				<path class="st8" d="M264.59,183.16c-0.08,0-0.15-0.02-0.22-0.07c-0.18-0.12-0.22-0.36-0.1-0.54c1.08-1.58,3.24-1.88,3.33-1.9
					c0.23-0.03,0.41,0.12,0.44,0.34c0.03,0.21-0.12,0.41-0.33,0.44c-0.02,0-1.91,0.27-2.79,1.56
					C264.84,183.1,264.71,183.16,264.59,183.16z"/>
			</g>
			<g>
				<path class="st8" d="M279.1,180.77c-0.08,0-0.16-0.03-0.24-0.08c-1.25-0.94-3.12-0.59-3.14-0.58c-0.21,0.05-0.42-0.1-0.46-0.31
					c-0.04-0.21,0.1-0.42,0.31-0.46c0.09-0.02,2.24-0.43,3.76,0.73c0.17,0.13,0.21,0.37,0.08,0.55
					C279.34,180.72,279.22,180.77,279.1,180.77z"/>
			</g>
			<path class="st8" d="M265.99,187.14c0.16,0.96,0.72,1.66,1.25,1.57c0.53-0.09,0.83-0.93,0.68-1.89
				c-0.16-0.96-0.72-1.66-1.25-1.57C266.14,185.33,265.84,186.18,265.99,187.14z"/>
			<path class="st8" d="M276.29,185.44c0.16,0.96,0.72,1.66,1.25,1.57c0.53-0.09,0.83-0.93,0.68-1.89
				c-0.16-0.96-0.72-1.66-1.25-1.57C276.43,183.64,276.13,184.48,276.29,185.44z"/>
			<path class="st8" d="M279.18,194.13c0,0-6.69,1.79-10.4,1.08c0,0,2.56,3.23,6.22,2.3C278.66,196.58,279.18,194.13,279.18,194.13z
				"/>
			<path class="st2" d="M279.49,175.5c0,0-8.7,6.3-19.62,6.78l0.31,9.72c0,0-10.18-18.75,9.95-22.08
				c20.13-3.32,14.27,17.63,14.27,17.63S283.78,178.52,279.49,175.5z"/>
			<g>
				<path class="st7" d="M272.38,191.52l-0.06-0.84c0.01,0,1.17-0.09,1.47-0.81c0.12-0.3-0.37-1.24-0.81-2.07
					c-0.61-1.16-1.36-2.6-1.68-4.19l0.83-0.17c0.3,1.48,1.02,2.86,1.6,3.97c0.65,1.23,1.11,2.13,0.84,2.79
					C274.07,191.4,272.45,191.51,272.38,191.52z"/>
			</g>
			<path class="st13" d="M284.21,175.52c-14.63-6.35-28.44,6.82-28.44,6.82s-1.61-10.67,1.21-13.17c0.73-0.66,1.52-1.23,2.34-1.74
				c6.46-4.07,15.05-4,19-2.6c0.81,0.29,1.43,0.63,1.79,1C282.44,168.25,284.21,175.52,284.21,175.52z"/>
			<path class="st6" d="M282.44,173.15c0,0-12.29-2.43-23.75,5.15c0,0-0.73-6.88,0.63-10.87c6.46-4.07,15.05-4,19-2.6
				C280.62,167.45,282.44,173.15,282.44,173.15z"/>
			<path class="st15" d="M256.98,181.09c0,0,1.95-8.27,4.57-10.61c4.37-3.88,16.64-5.21,23.08-2.88s0,9.38,0,9.38
				S274.36,169.62,256.98,181.09z"/>
		</g>
		<path class="st4" d="M275.96,236.07c0,0,5.02,7.78,13.58,12.36c0,0,10.7-9.29,24.58-8.45c0,0-11.5,20.75-21.38,23.05
			c-5.19,1.21-23.95-11.22-23.95-11.22S272.53,238.6,275.96,236.07z"/>
		<path class="st1" d="M257.46,221.97c4.6-7.48,15.2,3.58,18.81,11.48c3.61,7.9,6.24,9.58,6.24,9.58s-10.6,4.43-10.52,12.37
			C271.99,255.39,247.43,238.3,257.46,221.97z"/>
		<path class="st3" d="M289.53,245.01c0,0,6.45-6.33,27.68-14.6l-2.74-8.62c2.43-3.2,6.91-3.2,6.91-3.2s10.87,15.35,9,19.94
			C329.21,241.4,306.53,244.4,289.53,245.01z"/>
		<path class="st4" d="M312.77,232.49c0,0,0.17-0.91,0.95-2.01c0.78-1.11,0.57-3.12,0.85-3.75c0.28-0.62,1.95-3.18,3.06-3.67
			c1.11-0.5,2.56-1.31,2.87,0.1c0.31,1.41-1.99,1.01-3.01,3.03c0,0,2.25-0.73,4.04-0.31c1.79,0.42,2.29,2.06,0.09,2
			c-1.76-0.04-4.03,1.21-4.03,1.21s2.3,0.35,1.93,1.4C319,231.96,316.2,231.06,312.77,232.49z"/>
	</g>
	<g>
		<path class="st21" d="M155.82,261.39c1.9,4.86,9.67,13.18,9.67,13.18s18.98-11.38,27.74-6.59c8.76,4.79,15.72,7.71,21.4,5.62
			c5.68-2.09-18.68-46.38-18.68-46.38l-31.58-12.05c0,0-0.69,7.99-4.3,9.41c-3.61,1.42-7.46,14.6-7.2,17.1
			C153.14,244.18,155.82,261.39,155.82,261.39z"/>
		<path class="st3" d="M191.35,274.87c0,0-8.14,15.96-24.95,36.4c0,0-1.72,24.31-46.18,62.56l-4.65-3.66
			c0,0,26.47-41.47,31.77-54.19c5.3-12.72-2.93-24.37,21.44-56.53L191.35,274.87z"/>
		<path class="st12" d="M165.43,246.62c-7.01,13.43-9.36,30.59-9.36,30.59l-3.19,8.05c0,0,11.32,6.11,24.4,8.33l5.24-13.88
			L165.43,246.62z"/>
		<path class="st4" d="M201.99,273.61c0,0,3.47,17.58,2.9,44.04c0,0,13.68,20.17,2.39,77.72h-5.92c0,0-4.84-48.96-8.54-62.23
			c-3.7-13.27-17.37-17.34-18.11-57.68L201.99,273.61z"/>
		<g>
			<path class="st11" d="M205.46,292.48c0,0-11.14,2-30.75,1.08l-0.31-2.21l-0.08-0.57l-2.03-14.3c0,0-1.89-2.33-3.83-6.13
				c-0.23-0.44-0.46-0.9-0.68-1.38c-2.64-5.63-4.99-13.81-2.35-22.35l4.14,0.19l0.58,0.03l13.86,0.63l0.59,0.03l4.55,0.21l0.71,0.03
				l2.95,0.13c0,0,15.01,13.51,12.33,38.49l0.19,3.48l0.02,0.57L205.46,292.48z"/>
			<g>
				<path class="st12" d="M170.14,246.85c-0.39,1.14-3.01,9.63-1.69,23.5c-0.23-0.44-0.46-0.9-0.68-1.38
					c-0.99-12.69,1.29-20.61,1.79-22.16c0.07-0.19,0.1-0.28,0.1-0.29l0.52,0.19C170.19,246.73,170.17,246.77,170.14,246.85z"/>
				<path class="st12" d="M205.35,290.42c-3.94,1.01-10.63,1.29-16.98,1.29c-5.7,0-11.1-0.23-13.98-0.37l-0.08-0.57
					c4.99,0.24,18.11,0.76,26.57-0.17l-0.54-8.94c0.13-10.43-3.02-19.33-6.06-25.48c-7.71-1.4-9.83-7.11-10.28-8.72
					c-0.07-0.26-0.1-0.41-0.1-0.42l0.54-0.09c0,0.01,0.04,0.21,0.14,0.54c0.5,1.67,2.56,6.63,9.37,8.05c-2.05-4.01-4-6.75-4.82-7.84
					c-0.24-0.33-0.4-0.52-0.41-0.53l0.42-0.36c0.02,0.02,0.28,0.33,0.7,0.92c2.58,3.5,11.27,16.65,11.05,33.9l0.54,8.89
					c1.48-0.18,2.8-0.4,3.89-0.69L205.35,290.42z"/>
			</g>
		</g>
		<path class="st20" d="M176.98,186.39c-4.42-2.43-36.26,10.05-36.26,10.05s-4.71,8.4-1.77,11.7c2.94,3.29,13.36,1.84,16.55,0
			c3.19-1.84,11.65-3.24,11.65-3.24L176.98,186.39z"/>
		<path class="st14" d="M205.14,159.88c0,0,6.58,2.54,8.98,10.12c2.41,7.58-4.79,26.76-2.3,35.58c2.49,8.82,2.1,25.47-5.66,28.99
			c-7.76,3.52-23.69-2.78-27.11-12.4c-3.42-9.62-1.94-46.08,4.63-58.47C190.26,151.29,203.56,157.54,205.14,159.88z"/>
		<path class="st20" d="M197.58,192.57c1.73,1.87,6.2-1.46,6.2-1.46s-0.09,16.54-4.9,17.8c-4.81,1.27-17.06-13.03-16.55-16.91
			C182.84,188.11,193.74,188.42,197.58,192.57z"/>
		<path class="st2" d="M179.06,188.44c0,0,4.86,4.13,13.33,6.09c8.47,1.96,13.06-2.02,17.39,3.44c6.5,8.2-4.08,23.31-9.64,31.14
			c-2.07,2.92-6.45,11.02-7.34,18.78c0,0-14.7,4.27-27.37-1.27l-0.95-18.03C164.49,228.59,156.5,204.29,179.06,188.44z"/>
		<path class="st20" d="M194.25,205.98c0,0,6.71-16,8.66-17.02c1.94-1.02,6.88,1.43,7.87,3.62c0.99,2.19,0,6.96,0,6.96
			S205.48,193.49,194.25,205.98z"/>
		<path class="st9" d="M226.41,273.6c-3.05,6.25-10.55,8.05-10.55,8.05s-0.57-0.87-1.52-2.42c-0.1-0.16-0.21-0.33-0.31-0.51
			c-5.9-9.56-23.91-40.15-23.56-56.06c0.41-19.01,12.81-29.44,12.81-29.44c6.3,1.5,8.28,3.22,8.28,3.22s2.12,10.81,0.18,23.83
			c-1.94,13-5.47,16.44-3.7,17.42c1.77,0.97,0,2.91,0,2.91s10.45,14.56,12.4,19.09c1.27,2.95,3.42,7.97,4.76,11.1
			c0.09,0.22,0.18,0.44,0.27,0.64C226.05,272.75,226.41,273.6,226.41,273.6z"/>
		<path class="st4" d="M208.27,196.44c0,0-7.48,5.55-3.12,14.02l20.73,21.47c-11.38,12.13-12.51,17.11-20.73,22.7l3.12,4.84
			c0,0,28.81-22.14,28.85-27.53C237.14,229.61,219.52,201.71,208.27,196.44z"/>
		<path class="st4" d="M204.69,254.62c0,0-3.95,0.44-6.44,1.06c-2.49,0.62-5.81,1.24-5.91,1.76c-0.1,0.52,5.5,0,5.5,0
			s-4.56,1.87-4.67,2.6s5.81-0.52,5.81-0.52s-3.73,2.28-3.53,2.9c0.21,0.62,4.81-0.93,4.81-0.93s-0.86,2.18-1.74,3.21
			c0,0,0.89,0.49,2.7-1.52c1.81-2.01,4.69-1.36,6.98-3.14C210.47,258.26,206.77,254.35,204.69,254.62z"/>
		<path class="st9" d="M183.5,191.1c0,0-5.69,3.68-9.29,12.56c-3.59,8.88-14.94,25.6-17.59,29.91c-2.66,4.32-0.81,27.82-0.81,27.82
			s-3.33-14.25-4.81-19.8c-1.48-5.55,4.78-19.27,5.72-20c0.94-0.73,5.75,0.6,4.83-4.97s11.98-29.57,15.43-30.24
			C176.98,186.39,182.5,187.42,183.5,191.1z"/>
		<path class="st9" d="M165.9,192.3c-0.1,0.19-0.21,0.38-0.34,0.56c-1.29,1.85-3.69,3.33-3.69,3.33s-4.34,6.08-4.39,6.78
			c-0.04,0.6-7.54,6.04-10.87,5.93h-0.01c-0.46-0.01-0.83-0.13-1.1-0.38c-1.98-1.87,6.73-17.52,8.65-20.9
			c0.12-0.22,0.22-0.39,0.29-0.5c0.04-0.09,0.08-0.14,0.08-0.14s-1.53-5.71,4.86-4.64c5.32,0.88,6.37,5.11,6.93,7.94
			C166.45,190.96,166.26,191.65,165.9,192.3z"/>
		<path class="st4" d="M143.57,198.22c4.39-5.77,19.85-16.97,27.99-20.29l2.04,3.78c0,0-15.73,13.83-19.43,19.75
			c-3.7,5.92-8.27,8.36-12.65,6.39C137.15,205.88,142.65,199.43,143.57,198.22z"/>
		<path class="st20" d="M164.37,191.11l-0.83,0.95l-0.42,0.49l-1.38,1.58c0,0-3.46,4.2-3.33,5.88c0.1,1.21-6.57,6.63-11.79,8.88
			c-2.12,0.92-4.01,1.32-5.11,0.69c-3.77-2.18-2.93-8.72-0.79-13.15c1.87-3.86,10.11-8.85,12.24-10.07
			c0.27-0.17,0.43-0.27,0.49-0.29c0.01-0.01,0.01-0.01,0.01-0.01l0.79-3.06c0,0,2.88-1.73,5.14-0.67c0,0-5,0.21-4.17,2.15
			C156.06,186.45,162.98,191.05,164.37,191.11z"/>
		<g>
			<path class="st4" d="M182.51,175.09c-5.03,2.07-4.31,6.62-8.92,6.62c-2.85,0-3.23-3.26-3.23-3.26c1.29-2.79,2.11-7.54,2.29-9.8
				c0.19-2.26,0.94-1.39,0.94-1.39c0-0.21-0.01-0.41-0.02-0.61c-0.07-1.52-0.34-2.63,0.65-1.98c1.13,0.73,1.52,5.04,1.52,5.04
				c0.93-6.28-0.46-7.22,0.63-6.66c1.49,0.76,1.5,6.31,1.5,6.47c1.2-3.65,0.88-5.74,1.71-4.91c0.84,0.84-0.42,7.55-0.92,10.01
				c-0.11,0.56-0.19,0.9-0.19,0.9C182.47,173.57,182.51,175.09,182.51,175.09z"/>
			<path class="st3" d="M178.67,174.63c-0.11,0.56-0.19,0.9-0.19,0.9s-1.84-0.18-3.19,1.81
				C175.3,177.33,175.67,174.67,178.67,174.63z"/>
			<path class="st3" d="M173.88,171.76c0.03-0.53,0.26-3.59-0.28-4.51c0-0.21-0.01-0.41-0.02-0.61
				C174.73,166.89,174,171.12,173.88,171.76z"/>
		</g>
		<path class="st20" d="M177,198.25c0,0,3.4-9.21,4.48-11.27c1.08-2.06,6.71-1.7,10.98-0.91c4.26,0.8,5.13,6.5,5.13,6.5
			S184.62,186.45,177,198.25z"/>
		<path class="st3" d="M198.88,180.12c0,0-4.07,7.52-4.01,15.86c0,0-6.61,4.5-8.98-1.14c0,0,2.51-7.38,1.3-17.33
			C186.38,170.84,198.88,180.12,198.88,180.12z"/>
		<g>
			<path class="st4" d="M185.89,169.69c0,0-1.21-4.31-3.36-1.28c-2.49,3.51,0.05,6.92,1.38,6.11
				C185.24,173.7,185.89,169.69,185.89,169.69z"/>
			<path class="st4" d="M205.12,180.77c0,0,4.31-1.2,2.84,2.21c-1.71,3.95-5.94,3.55-5.94,1.99
				C202.03,183.41,205.12,180.77,205.12,180.77z"/>
			<path class="st4" d="M187.66,188.48c-6.13-3.45-7.33-9.4-0.57-21.4c3.49-6.19,8.77-8.21,15.64-4.35
				c6.86,3.86,7.61,9.29,4.13,15.48C199.59,191.11,193.99,192.05,187.66,188.48z"/>
			<path class="st7" d="M202.41,181.35c-0.24,0.68-1.12,0.98-1.96,0.68c-0.85-0.3-1.34-1.09-1.1-1.77c0.24-0.68,1.12-0.98,1.96-0.68
				C202.16,179.88,202.65,180.67,202.41,181.35z"/>
			<path class="st7" d="M189.62,174.59c-0.39,0.6-1.32,0.69-2.07,0.2c-0.75-0.49-1.04-1.37-0.65-1.98c0.39-0.6,1.32-0.69,2.07-0.2
				C189.72,173.1,190.01,173.99,189.62,174.59z"/>
			<g>
				<path class="st8" d="M203.29,173.59c-0.16,0-0.3-0.11-0.34-0.27c-0.35-1.37-1.86-2.17-1.88-2.18c-0.17-0.09-0.24-0.3-0.15-0.47
					c0.09-0.17,0.3-0.24,0.47-0.15c0.07,0.04,1.81,0.96,2.23,2.63c0.05,0.19-0.07,0.38-0.25,0.43
					C203.35,173.59,203.32,173.59,203.29,173.59z"/>
			</g>
			<g>
				<path class="st8" d="M194.87,167.6c-0.06,0-0.12-0.02-0.18-0.05c-0.01-0.01-1.49-0.89-2.84-0.47c-0.19,0.06-0.38-0.05-0.44-0.23
					c-0.06-0.19,0.05-0.38,0.23-0.44c1.65-0.5,3.34,0.5,3.41,0.55c0.17,0.1,0.22,0.32,0.12,0.48
					C195.11,167.54,194.99,167.6,194.87,167.6z"/>
			</g>
			<path class="st8" d="M200.76,176.5c-0.43,0.76-1.12,1.18-1.54,0.95c-0.42-0.24-0.42-1.05,0.01-1.81
				c0.43-0.76,1.12-1.18,1.54-0.95C201.19,174.93,201.19,175.74,200.76,176.5z"/>
			<path class="st8" d="M192.17,171.89c-0.43,0.76-1.12,1.18-1.54,0.95c-0.42-0.24-0.42-1.05,0.01-1.81
				c0.43-0.76,1.12-1.18,1.54-0.95C192.6,170.32,192.6,171.13,192.17,171.89z"/>
			<path class="st8" d="M189.19,179.7c0,0,3.52,2.68,6.06,2.76c0,0-2.7,2.2-4.64,0.77C188.66,181.81,189.19,179.7,189.19,179.7z"/>
			<path class="st8" d="M198.91,174.96c0,0,1.61-1.56,2.27-1.01c0.66,0.55,0.31,2.47,0.31,2.47l1.41,0.04l-1.17-0.47
				c0,0,0.38-1.99-0.35-2.41C200.36,172.99,198.91,174.96,198.91,174.96z"/>
			<path class="st8" d="M192.83,171.84c0,0,0.5-2.19-0.31-2.47c-0.81-0.28-2.27,1.01-2.27,1.01l-0.76-1.19l1.01,0.75
				c0,0,1.51-1.36,2.24-0.95C193.77,169.58,192.83,171.84,192.83,171.84z"/>
			<path class="st14" d="M204.35,165.3c0,0-2.19-3.05-5.23-0.63c-3.03,2.42-9.87,6.3-13.23,5.02c-3.36-1.28,7.36-15.61,16.67-11.41
				c9.31,4.2,8.47,17.86,4.6,22.2c-3.87,4.34-2.04,0.3-2.04,0.3s0.26-6.16,1.55-10.25C207.97,166.44,204.35,165.3,204.35,165.3z"/>
			<g>
				<path class="st7" d="M194.03,178.3c-0.17,0-0.35-0.02-0.53-0.07l0.19-0.74c0.63,0.16,0.93-0.11,1.08-0.36
					c0.21-0.36,0.18-0.82,0.01-0.99c-0.1-0.1-0.26-0.09-0.49,0.03l-0.35-0.67c0.77-0.4,1.23-0.05,1.39,0.12
					c0.42,0.44,0.46,1.27,0.09,1.9C195.13,178.03,194.63,178.3,194.03,178.3z"/>
			</g>
		</g>
		<g>
			<path class="st20" d="M238.9,231.07c-0.37,5.38-13.69,22.92-15.91,23.54c-0.58,0.16-1.17,0.48-1.72,0.85
				c-0.23,0.17-0.47,0.34-0.69,0.52c-1.27,1.02-2.22,2.2-2.22,2.2c-3.89-0.26-14.8-5.31-11.29-6.42c0.21-0.07,0.44-0.19,0.7-0.37
				c0.14-0.1,0.3-0.21,0.46-0.36c4.13-3.46,12.17-17.52,12.22-18.59c0.04-1.17,1.43-1.39,1.43-1.39s-7.58-11.14-11.98-12.48
				c-4.4-1.34-6.62-6.66-6.62-6.66c-4.34-18.37,8.28-15.49,8.28-15.49C220.87,201.98,239.27,225.67,238.9,231.07z"/>
			<g>
				<path class="st21" d="M221.27,255.46c-0.23,0.17-0.47,0.34-0.69,0.52c-5.96-0.41-10.96-3.34-12.81-4.59
					c0.14-0.1,0.3-0.21,0.46-0.36C210.21,252.34,215.3,255.24,221.27,255.46z"/>
			</g>
		</g>
		<g>
			<path class="st21" d="M165.9,192.3c-0.1,0.19-0.21,0.38-0.34,0.56c-0.85-0.03-1.67-0.13-2.44-0.3c-3.94-0.8-6.97-3.01-8.96-4.93
				c-0.46-0.44-0.85-0.87-1.2-1.25c0.27-0.17,0.43-0.27,0.49-0.29c0.29,0.32,0.62,0.68,1,1.04c1.98,1.94,5.05,4.21,9.09,4.94
				C164.29,192.21,165.08,192.29,165.9,192.3z"/>
		</g>
		<g>
			<path class="st21" d="M225.48,271.43c-1.83,3.1-5.22,6.84-11.14,7.81c-0.1-0.16-0.21-0.33-0.31-0.51
				c6.07-0.91,9.44-4.85,11.18-7.94C225.3,271.01,225.39,271.23,225.48,271.43z"/>
		</g>
		<g>
			<path class="st6" d="M124.44,372.45c0,0-1.39,1.37-2.83,3.87c-1.44,2.51,0.14,4.82-6.84,10.64c0,0-14.09-8.25-20.45-18.85
				c0,0,0.11-3.03,3.19-3.74c1.65-0.38,6.21,1.75,10.58,2.58c0.62,0.11,1.24,0.21,1.85,0.26c0.77,0.07,1.52,0.08,2.24-0.01
				c0.67-0.07,1.3-0.21,1.89-0.46h0.01c1.49-0.61,2.66-1.82,3.28-3.94c0,0,3.74,2.13,1.24,5.74
				C118.6,368.53,123.04,366.59,124.44,372.45z"/>
			<path class="st1" d="M114.77,386.96c0,0-14.09-8.25-20.45-18.85c0,0,2.36-0.5,4.32,3.01
				C100.59,374.64,115.91,382.62,114.77,386.96z"/>
			<path class="st1" d="M114.82,370.29c-1.14,1.81-1.12-1.53-2.64-3.1c0.67-0.07,1.3-0.21,1.89-0.46h0.01
				C114.75,367.47,115.72,368.88,114.82,370.29z"/>
			<path class="st1" d="M110.39,370.39c-1.21,1.14-1.6-1.84-2.31-3.44c0.62,0.11,1.24,0.21,1.85,0.26
				C110.65,368.17,111.31,369.51,110.39,370.39z"/>
		</g>
		<g>
			<path class="st6" d="M211.11,409.06h-19.93c0,0-0.83-2.78,0-5.83c0.36-1.32,2.42-2.55,4.34-4.27c0.53-0.48,1.04-0.98,1.52-1.54
				c0.38-0.44,0.72-0.93,1.01-1.45c0.37-0.63,0.66-1.32,0.82-2.08c0.32-1.51,0.2-3.29-0.67-5.42c0,0,6.78-1.42,9.2,2.28
				c0,0,0.23-1.71,2.39-0.57c0,0-0.31,3.43,0.11,6.31C210.34,399.34,213.01,400.17,211.11,409.06z"/>
			<path class="st1" d="M205.93,397.05c-0.18,0.2-0.42,0.3-0.67,0.3c-0.21,0-0.41-0.07-0.59-0.2c-1.03-0.82-3.31-2.1-6.62-1.2
				c0.37-0.63,0.66-1.32,0.82-2.08c1.33-0.49,3.84-0.78,6.94,1.87C206.22,396.08,206.27,396.67,205.93,397.05z"/>
			<path class="st1" d="M204.25,400.36l-0.11,0.17c-0.27,0.41-0.8,0.54-1.22,0.3c-1.35-0.8-4.4-2.31-7.39-1.88
				c0.53-0.48,1.04-0.98,1.52-1.54c1.48-0.34,4.26-0.53,7.01,1.74C204.41,399.45,204.51,399.97,204.25,400.36z"/>
		</g>
	</g>
</g>
<g id="DESIGNED_BY_FREEPIK">
</g>
</svg>
