<?xml version="1.0" encoding="utf-8"?>
<!-- Generator: Adobe Illustrator 25.3.0, SVG Export Plug-In . SVG Version: 6.00 Build 0)  -->
<svg version="1.1" id="Layer_1" xmlns="http://www.w3.org/2000/svg" xmlns:xlink="http://www.w3.org/1999/xlink" x="0px" y="0px"
	 viewBox="0 0 612 792" style="enable-background:new 0 0 612 792;" xml:space="preserve">
<style type="text/css">
	.st0{fill:#5793CE;}
	.st1{fill:#C5D9E9;}
	.st2{fill:#D5ECFB;}
	.st3{fill:#1A3E78;}
	.st4{fill:#FFFFFF;}
	.st5{fill:#3A6DAC;}
	.st6{fill:#D3D0CF;}
	.st7{fill:#F2F2F2;}
	.st8{fill:#30245C;}
	.st9{fill:#F8C0B0;}
	.st10{fill:#EB9D93;}
	.st11{fill:#E93E8F;}
	.st12{fill:#284F8A;}
	.st13{fill:#CA2586;}
</style>
<g>
	<polygon class="st0" points="137.24,601.34 138.02,597.71 129.08,595.01 128.29,598.64 	"/>
	<polygon class="st0" points="141.8,606.58 142.59,602.95 133.64,600.25 132.85,603.88 	"/>
	<polygon class="st0" points="146.37,611.82 147.16,608.19 138.21,605.5 137.42,609.12 	"/>
	<polygon class="st0" points="150.93,617.06 151.72,613.44 142.77,610.74 141.98,614.36 	"/>
</g>
<g>
	<path class="st1" d="M304.77,275.03l4.38,21.29l3.97,2.74l13.02,0.11l-0.31,8.11l12.2,0.1l-0.31,8.11l12.2,0.1l-0.31,8.11l12.2,0.1
		l-0.31,8.11l12.2,0.1l-0.33,8.66l11.59,8c-8.17,13.65-4.14,29.94,12.14,41.18c13.44,9.28,32.08,12.95,49.55,10.94
		c4.49-0.51,8.9-1.4,13.13-2.67c5.98-1.79,11.59-4.33,16.52-7.63c21.96-14.68,22.11-38.78,0.32-53.82
		c-17.91-12.36-45.04-14.74-66.33-7.05l-84-58L304.77,275.03z M444.6,368.6c5.72-3.82,14.95-3.75,20.62,0.17
		c5.67,3.92,5.63,10.19-0.08,14.01c-5.72,3.82-14.95,3.74-20.62-0.17C438.85,378.7,438.89,372.42,444.6,368.6z"/>
	<path class="st1" d="M280.37,638.51l113.28-76.65c7.63-5.18,6.67-14.23-2.14-20.22l-109.95-74.7c-8.81-5.98-22.13-6.63-29.76-1.45
		l-113.28,76.65c-7.63,5.18-6.67,14.23,2.14,20.22l109.95,74.7C259.42,643.04,272.74,643.69,280.37,638.51z"/>
	<g>
		<g>
			<path class="st0" d="M147.56,464.72l19.58-13.31l-72.21-49.06c-3.41-2.32-3.41-6.09,0-8.4l73.77-50.12
				c3.41-2.32,8.96-2.32,12.37,0l72.21,49.06l19.58-13.31l-72.21-49.06c-14.21-9.65-37.33-9.65-51.54,0l-73.77,50.12
				c-14.21,9.65-14.21,25.36,0,35.02L147.56,464.72z"/>
		</g>
		<g>
			<path class="st2" d="M115.96,470.58c0-12.32,6.37-26.63,14.22-31.97l130.83-88.89c3.52-2.39,6.73-2.56,9.21-0.93l0.01-0.01
				l156.21,106.82L275.38,589.57L121.48,484.45c-0.48-0.25-0.94-0.55-1.36-0.93l0,0l0,0C117.55,481.23,115.96,476.74,115.96,470.58z
				"/>
			<path class="st3" d="M275.38,589.57L121.48,484.45c-0.48-0.26-0.94-0.55-1.36-0.93l0,0l0,0c-2.57-2.29-4.16-6.78-4.16-12.94
				c0-5.88,1.46-12.21,3.83-17.81l175.43,119.19L275.38,589.57z"/>
			<path class="st0" d="M285.21,589.09l130.83-88.89c7.85-5.34,14.22-19.65,14.22-31.97l0,0c0-12.32-6.37-17.98-14.22-12.65
				l-130.83,88.89c-7.85,5.34-14.22,19.65-14.22,31.97l0,0C271,588.77,277.36,594.43,285.21,589.09z"/>
		</g>
		<path class="st4" d="M304.81,559.12l15.73-10.68c1.57-1.06,2.83-3.92,2.83-6.37l0,0c0-2.46-1.27-3.58-2.83-2.52l-15.73,10.68
			c-1.57,1.06-2.83,3.92-2.83,6.37l0,0C301.98,559.05,303.24,560.18,304.81,559.12z"/>
	</g>
	<g>
		<g>
			<polygon class="st5" points="422.92,246.09 396.04,264.06 368.61,245.13 368.68,236.89 368.92,237.05 368.94,236.47 
				356.74,236.37 356.81,228.26 344.85,228.16 344.92,220.05 332.96,219.95 333.03,211.84 321.07,211.74 321.14,203.63 
				308.36,203.52 304.38,200.78 300,179.49 300.07,171.25 302.19,179.14 321.54,176.1 			"/>
			<g>
				<g>
					<g>
						<g>
							<g>
								<polygon class="st2" points="396.11,255.83 368.68,236.89 369.01,228.23 356.81,228.13 357.12,220.02 344.92,219.92 
									345.23,211.81 333.03,211.71 333.34,203.6 321.14,203.5 321.45,195.39 308.43,195.28 304.46,192.54 300.07,171.25 
									321.62,167.86 422.99,237.86 								"/>
							</g>
						</g>
						<g>
							<g>
								<path class="st5" d="M377.85,243.21c2.76-4.61,6.91-8.93,12.46-12.64c3.91-2.61,8.26-4.73,12.88-6.4l19.81,13.68
									l-26.88,17.97L377.85,243.21z"/>
							</g>
						</g>
						<g>
							<g>
								<polygon class="st0" points="300.81,174.82 300.07,171.25 303.69,170.68 389.34,229.82 384.83,232.84 								"/>
							</g>
						</g>
						<g>
							<g>
								<polygon class="st6" points="487.89,272.08 488.18,260.37 485,268.28 								"/>
							</g>
						</g>
						<path class="st5" d="M471.65,244.61c-21.78-15.04-57.25-15.33-79.21-0.65c-7.13,4.76-11.94,10.52-14.47,16.64l-1.79-2.35
							l-0.31,12.41l0-0.01c-0.09,9.77,5.32,19.58,16.24,27.12c21.78,15.04,57.25,15.33,79.21,0.65
							C493.29,283.75,493.43,259.65,471.65,244.61z M460.22,276.69c5.67,3.92,5.63,10.19-0.08,14.01
							c-5.72,3.82-14.95,3.75-20.62-0.17c-5.67-3.92-5.63-10.19,0.08-14.01C445.32,272.7,454.55,272.78,460.22,276.69z"/>
						<g>
							<g>
								<path class="st7" d="M471.94,232.91c-21.78-15.04-57.25-15.33-79.21-0.65c-21.96,14.68-22.11,38.78-0.32,53.82
									c21.78,15.04,57.25,15.33,79.21,0.65C493.58,272.04,493.73,247.95,471.94,232.91z M460.52,264.99
									c5.67,3.92,5.63,10.19-0.08,14.01c-5.72,3.82-14.95,3.75-20.62-0.17c-5.67-3.92-5.63-10.19,0.08-14.01
									C445.62,261,454.85,261.07,460.52,264.99z"/>
							</g>
						</g>
						<path class="st0" d="M446.16,293.13c4.83,0.89,10.18,0.11,13.98-2.43c4.1-2.74,5.26-6.74,3.51-10.23l9.95-9.28
							c0,0,5.2-6.91,10.35-13.75c8.01,13.78,3.79,30.01-12.62,40.99c-7.24,4.84-15.36,7.59-24.56,9.18L446.16,293.13z"/>
						<g>
							<g>
								<path class="st2" d="M471.94,232.91c-21.78-15.04-57.25-15.33-79.21-0.65c-21.96,14.68-22.11,38.78-0.32,53.82
									c13.44,9.28,32.08,12.94,49.55,10.94c4.49-0.51,8.9-1.4,13.13-2.67c5.98-1.79,11.59-4.33,16.52-7.63
									C493.58,272.04,493.73,247.95,471.94,232.91z M460.52,264.99c5.67,3.92,5.63,10.19-0.08,14.01
									c-5.72,3.82-14.95,3.75-20.62-0.17c-5.67-3.92-5.63-10.19,0.08-14.01C445.62,261,454.85,261.07,460.52,264.99z"/>
							</g>
						</g>
						<g>
							<g>
								<g>
									<path class="st5" d="M482,260.06c-1.07-7.5-5.79-14.83-14.21-20.64c-19.38-13.38-50.93-13.64-70.47-0.58
										c-9.71,6.49-14.62,15.05-14.73,23.66c-1.39-9.78,3.44-19.85,14.49-27.24c19.54-13.06,51.09-12.8,70.47,0.58
										C477.31,242.57,482.11,251.34,482,260.06z"/>
								</g>
							</g>
						</g>
					</g>
					<g>
						<g>
							<g>
								<g>
									<path class="st5" d="M478.18,360.48c-18.62-12.85-33.64-43.97-33.48-69.37c0.05-7.9,1.45-14.68,4.18-20.15
										c2.05-4.12,4.8-7.35,8.15-9.59c7.87-5.26,17.82-4.28,28.02,2.77c18.62,12.85,33.64,43.97,33.48,69.37
										c-0.08,13.92-4.46,24.49-12.33,29.74c-3.34,2.23-7.04,3.34-10.99,3.34C489.85,366.58,484.06,364.53,478.18,360.48z
										 M460.94,269.47c-2.13,1.42-3.89,3.51-5.23,6.2l0,0c-1.99,3.99-3.06,9.35-3.09,15.5c-0.13,22.43,13.13,49.92,29.57,61.27
										c7.66,5.29,14.8,6.24,20.1,2.7c5.31-3.54,8.26-11.25,8.32-21.7c0.14-22.43-13.13-49.92-29.57-61.27
										c-4.62-3.19-9.05-4.81-13.01-4.81C465.44,267.36,463.04,268.06,460.94,269.47z"/>
								</g>
							</g>
						</g>
					</g>
				</g>
			</g>
		</g>
		<path class="st2" d="M457.7,287.97l-15.63,4.51l-2.25-13.65c5.67,3.92,14.9,3.99,20.62,0.17L457.7,287.97z"/>
		<path class="st2" d="M471.62,286.72c-4.93,3.3-10.54,5.84-16.52,7.63c-4.23,1.26-8.64,2.15-13.13,2.67
			c-17.47,2-36.11-1.67-49.55-10.94l63.67-1.68L471.62,286.72z"/>
		<path class="st5" d="M448.1,296.18c0,0,6.77-1.29,13.83-4.19v11.5c-3.36,1.38-8.91,3.38-13.66,4.12
			C433.69,309.87,448.1,296.18,448.1,296.18z"/>
	</g>
	<path class="st0" d="M458.25,293.38c2.91-1.01,6.08-2.3,9.01-3.91c8.52-4.69-2.26,12.69-2.26,12.69s-2.9,1.36-6.75,2.75V293.38z"/>
</g>
<polygon class="st0" points="298.51,495.37 326.37,516.51 339.93,513.92 306.81,495.08 "/>
<g>
	<g>
		<path class="st3" d="M332.19,602.12c0,0,8.02-4.76,12.95,2.33c4.93,7.09,11.97,23.83,12.19,35.14
			c0.22,11.31-7.61,10.55-12.26,7.87c-4.65-2.68-18.24-25.87-19.06-30.42c-0.82-4.55,0.97-10.69,2.28-11.89
			C329.6,603.95,332.19,602.12,332.19,602.12z"/>
		<path class="st0" d="M330.44,599.85l-0.37,9.78c-0.08,2.08,0.81,4.06,2.35,5.09c1.4,0.94,3.44,1.65,6.19,1.13
			c6.05-1.14,6.58-3.18,7.02-12.96C346.06,593.12,330.44,599.85,330.44,599.85z"/>
		<g>
			<path class="st3" d="M361.57,583.31c0,0,8.02-4.76,12.95,2.33c4.93,7.09,11.97,23.83,12.19,35.14
				c0.22,11.31-7.61,10.55-12.26,7.87c-4.65-2.68-18.24-25.87-19.06-30.42c-0.82-4.55,0.97-10.69,2.28-11.89
				S361.57,583.31,361.57,583.31z"/>
			<path class="st0" d="M359.82,581.04l-0.37,9.78c-0.08,2.08,0.81,4.06,2.35,5.09c1.4,0.94,3.44,1.65,6.19,1.13
				c6.05-1.14,6.58-3.18,7.02-12.96C375.43,574.3,359.82,581.04,359.82,581.04z"/>
			<path class="st2" d="M288.21,401.41c2.37-45.48,41.85,6.69,41.85,6.69l27.02,31.17l24.33,31.45c4.75,6.14,6.96,14.44,6.04,22.67
				l-9.84,88.19c-0.49,4.36-3.65,7.57-7.39,7.53c-1.05-0.01-2.26-0.12-3.65-0.38c-8.78-1.61-8.13-11.43-8.13-11.43l1.8-82.49
				l-51.1-36.25C309.15,458.57,285.84,446.89,288.21,401.41z"/>
		</g>
		<path class="st0" d="M340.72,479.23l7.27-3.14c0.17,0,12.36,13.88,12.25,18.73l-5.47,2.07l-13.73-15.69L340.72,479.23z"/>
		<path class="st0" d="M298.51,495.37c0,0-30.36-20.4-34-28.96c-1.42-3.35-3.63-6.85,5.23-11.91l40.5,33.97l-1.76,11.7
			L298.51,495.37z"/>
		<path class="st2" d="M258.84,418.96c2.53-45.47,41.85,6.69,41.85,6.69l27.02,31.17l24.33,31.45c4.75,6.14,6.96,14.44,6.04,22.67
			l-9.84,88.19c-0.49,4.36-3.65,7.57-7.39,7.53c-1.05-0.01-2.26-0.12-3.65-0.38c-8.78-1.61-8.13-11.43-8.13-11.43l1.8-82.49
			l-51.09-36.25C279.78,476.12,256.52,460.53,258.84,418.96z"/>
		<path class="st8" d="M282.19,272.75c-29.93,14.6-29.33,35.42-29.33,35.42s5.86,76.33,3.86,127.3
			c-0.84,21.31,96.21,22.94,81.73-33.92c-17.06-67.03-10.67-121.3-18.66-129.48C311.82,263.89,289.93,268.97,282.19,272.75z"/>
		<path class="st9" d="M272.56,291.21c1.57,7.15,9.53,10.92,17.78,8.42c8.26-2.5,13.68-10.33,12.11-17.48s-9.53-10.92-17.78-8.42
			C276.42,276.23,271,284.06,272.56,291.21z"/>
		<path class="st4" d="M271.18,291.63c-0.87-3.99,0.07-8.24,2.65-11.97c2.48-3.58,6.2-6.27,10.49-7.56c9-2.74,17.77,1.59,19.52,9.63
			c0.87,3.99-0.07,8.24-2.65,11.97c-2.48,3.58-6.21,6.26-10.49,7.56c-1.83,0.56-3.65,0.82-5.41,0.82
			C278.42,302.08,272.58,298.03,271.18,291.63z M285.03,275.36c-3.7,1.12-6.89,3.41-8.99,6.43c-1.99,2.88-2.74,6.07-2.1,9
			c1.37,6.24,8.56,9.46,16.04,7.21c3.7-1.12,6.89-3.41,8.99-6.43c1.99-2.88,2.74-6.07,2.1-9c-1.07-4.89-5.72-7.93-11.28-7.93
			C288.26,274.64,286.65,274.87,285.03,275.36z"/>
		<path class="st9" d="M294.19,271.16c0,0-0.26,1.41,0.26,12.57c0.16,3.51-10.28,6.79-12.98,3.61c-2.7-3.18-1.62-6.48-2.27-18.42
			C278.56,256.98,294.19,271.16,294.19,271.16z"/>
		<path class="st10" d="M279.21,268.93c0,0,2.57,11.07,15.24,15.32l-0.19-10.06L279.21,268.93z"/>
		<path class="st9" d="M271.18,240.79c-3.18,14.5,4.22,29.29,16.54,33.03c12.32,3.75,24.89-4.97,28.07-19.46
			c3.18-14.5-4.22-29.29-16.54-33.03C286.93,217.58,274.36,226.3,271.18,240.79z"/>
		<path class="st10" d="M288.19,248.57c0,0,12.68,6.39,21.47,6.47c8.78,0.07,6.85-8.58,6.85-8.58l-26.07-4.43L288.19,248.57z"/>
		<path class="st11" d="M312.28,250.26c0,0-11.05-5.52-20.74-3.22c-2.28,0.54-4.39,1.98-5.86,4.1c-0.48,0.69-1.09,1.33-1.77,1.51
			c-1.72,0.46-4.53-7.93-7.87-8.13c-3.34-0.19-5.57,2.59-2.83,7.75c2.74,5.16,1.81,10.94,0.55,11.77
			c-1.26,0.83-14.63-11.22-2.84-38.71c11.79-27.49,41.75-12.68,46.41-7.11c0,0,4.91,5.03,8.9,0.55
			C326.22,218.77,330.7,258.21,312.28,250.26z"/>
		<path class="st9" d="M269.65,363.94v20.62c0,2.36,0.85,4.62,2.33,6.21l36,38.63l-4.09,7.36l-47.55-40.58
			c-2.22-1.89-3.65-4.81-3.94-8.02l-3.21-35.97L269.65,363.94z"/>
		<path class="st8" d="M255.4,297.86c0,0-10.92,19.33-14.99,70.21c0,0,18.66,7.1,29.25,3.07
			C280.24,367.11,255.4,297.86,255.4,297.86z"/>
		<path class="st8" d="M271.65,322.3c0,0,4.28,26.93,4.52,39.59c0.07,3.48-1.74,6.62-4.52,7.8l0,0V322.3z"/>
	</g>
	<g>
		<path class="st3" d="M280.99,456.22l7.96-1.24l51.37-34.9c1.65-1.12,4.52-0.98,6.42,0.31l36.4,24.72l4.81-0.75V450l0,0
			c0.03,0.74-0.33,1.46-1.1,1.98l-58.21,39.55c-1.65,1.12-4.52,0.98-6.42-0.31l-39.64-26.92c-1.07-0.73-1.6-1.66-1.57-2.54h0V456.22
			z"/>
		<path class="st5" d="M319.58,434.16l3.65-2.48h40.12l19.78,13.43l4.81-0.75V450l0,0c0.03,0.74-0.33,1.46-1.1,1.98l-58.21,39.55
			c-0.87,0.59-2.08,0.83-3.32,0.73L319.58,434.16z"/>
		<path class="st0" d="M385.81,444.7l2.14-0.33V450l0,0c0.03,0.74-0.33,1.46-1.1,1.98l-1.03,0.7V444.7z"/>
		<path class="st12" d="M328.04,491.86c-1.56,0.7-3.79,0.54-5.46-0.4v-9.59h5.46V491.86z"/>
		<path class="st4" d="M328.62,485.91l58.21-39.55c1.65-1.12,1.44-3.07-0.46-4.37l-39.64-26.92c-1.9-1.29-4.78-1.43-6.42-0.31
			l-58.21,39.55c-1.65,1.12-1.44,3.07,0.46,4.37l39.64,26.92C324.1,486.89,326.98,487.03,328.62,485.91z"/>
		<path class="st2" d="M329.61,479.91l48.4-32.89c1.37-0.93,1.2-2.56-0.38-3.63l-21.24-14.06c-1.58-1.07-3.97-1.19-5.34-0.26
			l-48.4,32.89c-1.37,0.93-1.2,2.56,0.38,3.63l21.24,14.06C325.85,480.73,328.24,480.84,329.61,479.91z"/>
	</g>
	<path class="st9" d="M344.48,413.77l0.6,4.73c0.51,4.03,0.42,8.13-0.26,12.12l-0.72,4.16c-0.4,2.35-1.98,4.17-3.99,4.6l0,0
		c-1.56,0.34-3.04-0.96-3.22-2.82l-0.96-10.11c0,0-2.2,3.39-3.26,3.39c-1.06,0,1.19-10.12,3.59-15.85
		C338.67,408.27,344.48,413.77,344.48,413.77z"/>
	<path class="st9" d="M324.75,338.64l6.25,14.55c1.48,3.44,2.35,7.2,2.56,11.04l2.71,49.76l8.22-0.23l3.73-55.88
		c0.12-1.73,0.04-3.46-0.21-5.17l-4.26-28.34L324.75,338.64z"/>
	<g>
		<path class="st3" d="M330.59,489.71l4.88-7.5l51.33-34.97c1.65-1.12,2.98-4.12,2.97-6.71l-0.04-49.46l2.95-4.53l-2.77-1.89l0,0
			c-0.53-0.4-1.24-0.39-2.01,0.14l-58.17,39.64c-1.65,1.12-2.98,4.12-2.97,6.71l0.05,53.86c0,1.45,0.43,2.46,1.09,2.87h0
			L330.59,489.71z"/>
		<path class="st5" d="M366.09,461.35l3.65-2.48l20.02-40.92l-0.02-26.87l2.95-4.53l-2.77-1.89l0,0c-0.53-0.4-1.24-0.39-2.01,0.14
			l-58.17,39.64c-0.87,0.59-1.65,1.71-2.19,3.02L366.09,461.35z"/>
		<path class="st0" d="M391.38,388.55l1.31-2.01l-2.77-1.89l0,0c-0.53-0.4-1.24-0.39-2.01,0.14l-1.03,0.7L391.38,388.55z"/>
		<path class="st12" d="M329.2,424.86c-1.29,1.24-2.29,3.6-2.43,5.77l5.68,3.86l2.72-5.57L329.2,424.86z"/>
		<path class="st8" d="M332.5,426.31l58.17-39.64c1.65-1.12,2.98,0.06,2.98,2.65l0.05,53.86c0,2.58-1.33,5.59-2.97,6.71
			l-58.17,39.64c-1.65,1.12-2.98-0.06-2.98-2.65l-0.05-53.86C329.52,430.43,330.85,427.43,332.5,426.31z"/>
	</g>
	<path class="st9" d="M303.89,436.76l0.93,2.27c1.07,2.62,2.76,4.82,4.86,6.34l5.78,4.19c1.8,1.3,4.07,1.41,5.9,0.16
		c0.07-0.05,0.13-0.09,0.2-0.14c1.84-1.35,2-4.46,0.49-6.28l-6.04-7.31c0,0,3.39,3.06,4.34,1.83c0.7-0.9-3.29-5.31-6.35-5.45
		c-3.06-0.14-6.02-2.97-6.02-2.97L303.89,436.76z"/>
	<path class="st8" d="M319.2,271.97c0,0,22.14,28.34,31.07,54.35c0,0-7.57,16.05-26.1,22.35
		C305.64,354.96,319.2,271.97,319.2,271.97z"/>
	<path class="st8" d="M328.34,346.98l-3.59-40.79l8.45,38.21C331.7,345.33,330.07,346.19,328.34,346.98z"/>
	<path class="st4" d="M302.62,266.25l5.95-1.92c0,0-2.84,5.26-6.99,6.6c-4.15,1.34-4.79-2.79-4.79-2.79L302.62,266.25z"/>
</g>
<path class="st2" d="M398.86,183.98c0-10.81,7.47-19.61,16.66-19.61s16.66,8.8,16.66,19.61c0,10.81-7.47,19.61-16.66,19.61
	S398.86,194.79,398.86,183.98z M402.49,183.98c0,8.45,5.84,15.33,13.02,15.33c7.18,0,13.02-6.87,13.02-15.33
	c0-8.45-5.84-15.33-13.02-15.33C408.34,168.65,402.49,175.53,402.49,183.98z"/>
<path class="st0" d="M66.88,330.97c0-7.67,5.3-13.9,11.81-13.9s11.82,6.24,11.82,13.9s-5.3,13.9-11.82,13.9
	S66.88,338.64,66.88,330.97z M70.52,330.97c0,5.31,3.67,9.62,8.18,9.62c4.51,0,8.18-4.32,8.18-9.62c0-5.31-3.67-9.63-8.18-9.63
	C74.19,321.35,70.52,325.67,70.52,330.97z"/>
<path class="st0" d="M449.76,586.62l8.02-19.19l16.31,9.44l-8.02,19.19L449.76,586.62z M459.44,573.16l-4.81,11.52l9.79,5.66
	l4.81-11.52L459.44,573.16z"/>
<path class="st0" d="M213.04,289.12l8.02-19.2l16.31,9.44l-8.02,19.2L213.04,289.12z M222.72,275.65l-4.81,11.52l9.79,5.66
	l4.81-11.52L222.72,275.65z"/>
<polygon class="st0" points="484.28,487.84 491.78,492.17 495.47,483.35 487.97,479.01 "/>
<g>
	<g>
		<path class="st13" d="M194.1,194.41l44.57-30.28c0.88-0.6,1.68-0.62,2.3-0.22c0,0,0-0.03,0-0.03l4.32,2.94
			c0,0-1.91,0.82-3.04,1.31v38.19c0,3.11-1.61,6.72-3.59,8.06l-42.6,28.94v4.48l-4.37-2.96l0.02-0.01
			c-0.74-0.53-1.21-1.69-1.21-3.36v-39C190.52,199.37,192.12,195.76,194.1,194.41z"/>
		<path class="st11" d="M198.51,247.65l44.57-30.28c1.98-1.35,3.59-4.96,3.59-8.06v-39c0-3.11-1.61-4.54-3.59-3.19l-44.57,30.28
			c-1.98,1.35-3.59,4.96-3.59,8.06v39C194.92,247.56,196.52,248.99,198.51,247.65z"/>
	</g>
	<g>
		<path class="st4" d="M228.08,203.93c0,2.26,1.35,3.17,3.01,2.04c1.66-1.13,3.01-3.87,3.01-6.13c0-2.26-1.35-3.17-3.01-2.04
			C229.43,198.93,228.08,201.67,228.08,203.93z"/>
		<path class="st4" d="M218.97,210.12c0,2.26,1.35,3.17,3.01,2.04s3.01-3.87,3.01-6.13c0-2.26-1.35-3.17-3.01-2.04
			C220.32,205.12,218.97,207.86,218.97,210.12z"/>
		<path class="st4" d="M209.87,216.31c0,2.26,1.35,3.17,3.01,2.04c1.66-1.13,3.01-3.87,3.01-6.13c0-2.26-1.35-3.17-3.01-2.04
			C211.21,211.31,209.87,214.05,209.87,216.31z"/>
	</g>
</g>
<g>
	<g>
		<path class="st0" d="M502.18,526.2l43.72-29.71c0.87-0.59,1.65-0.61,2.26-0.21c0,0,0-0.03,0-0.03l4.24,2.88
			c0,0-1.88,0.81-2.98,1.28v37.47c0,3.05-1.57,6.59-3.52,7.91l-41.79,28.39v4.4l-4.28-2.9l0.02-0.01c-0.72-0.52-1.19-1.66-1.19-3.3
			v-38.26C498.66,531.06,500.24,527.52,502.18,526.2z"/>
		<path class="st2" d="M506.5,578.42l43.72-29.71c1.94-1.32,3.52-4.86,3.52-7.91v-38.26c0-3.05-1.57-4.45-3.52-3.13l-43.72,29.71
			c-1.94,1.32-3.52,4.86-3.52,7.91v38.26C502.98,578.34,504.56,579.74,506.5,578.42z"/>
	</g>
	<g>
		<path class="st4" d="M535.52,535.53c0,2.21,1.32,3.11,2.95,2c1.63-1.11,2.95-3.8,2.95-6.01c0-2.21-1.32-3.11-2.95-2
			C536.84,530.63,535.52,533.32,535.52,535.53z"/>
		<path class="st4" d="M526.58,541.61c0,2.21,1.32,3.11,2.95,2c1.63-1.11,2.95-3.8,2.95-6.01c0-2.21-1.32-3.11-2.95-2
			C527.9,536.7,526.58,539.39,526.58,541.61z"/>
		<path class="st4" d="M517.64,547.68c0,2.21,1.32,3.11,2.95,2c1.63-1.11,2.95-3.8,2.95-6.01c0-2.21-1.32-3.11-2.95-2
			C518.96,542.77,517.64,545.46,517.64,547.68z"/>
	</g>
</g>
</svg>
