<?xml version="1.0" encoding="utf-8"?>
<!-- Generator: Adobe Illustrator 25.3.0, SVG Export Plug-In . SVG Version: 6.00 Build 0)  -->
<svg version="1.1" id="Layer_1" xmlns="http://www.w3.org/2000/svg" xmlns:xlink="http://www.w3.org/1999/xlink" x="0px" y="0px"
	 viewBox="0 0 485.8 492.4" style="enable-background:new 0 0 485.8 492.4;" xml:space="preserve">
<style type="text/css">
	.st0{clip-path:url(#SVGID_2_);fill:#FDE4C4;}
	.st1{clip-path:url(#SVGID_2_);}
	.st2{fill:#603914;}
	.st3{fill:#F4B9B8;}
	.st4{fill:#F7BFBC;}
	.st5{fill:#F9CDCA;}
	.st6{fill:#272655;}
	.st7{fill:#211F42;}
	.st8{fill:#363740;}
	.st9{fill:#FFFFFF;}
	.st10{fill:#020203;}
	.st11{fill:#AEDAD7;}
	.st12{fill:#C69C6C;}
	.st13{fill:#C25353;}
	.st14{fill:#B04847;}
	.st15{fill:#203C49;}
	.st16{fill:#D55554;}
	.st17{fill:#EF7C7D;}
	.st18{fill:#9AA4CE;}
	.st19{fill:#F9B03D;}
</style>
<g>
	<g>
		<defs>
			<circle id="SVGID_1_" cx="242.9" cy="242.9" r="226.7"/>
		</defs>
		<clipPath id="SVGID_2_">
			<use xlink:href="#SVGID_1_"  style="overflow:visible;"/>
		</clipPath>
		<circle class="st0" cx="242.9" cy="242.9" r="226.7"/>
		<g class="st1">
			<g>
				
					<ellipse transform="matrix(0.9881 -0.1539 0.1539 0.9881 -21.8067 42.0899)" class="st2" cx="260.9" cy="161.9" rx="42.5" ry="54"/>
				<g>
					<g>
						<path class="st3" d="M-76,886c0,2.9,0.3,5.8,0.6,8.7c0.8,7.8,2,15.5,2.8,23.3c0.3,3.4,0.6,6.8-0.1,10.1s-2.4,6.5-5.3,8.3
							s-7,1.6-9.3-0.8c-2.1-2.1-2.3-5.4-2.5-8.3c-0.2-3.9-0.4-7.8-0.7-11.7c-0.3-5.3-0.6-10.5-0.6-15.8c-0.1-10.7,0.9-21.9,6.8-30.8
							c1.9-2.8,11.3-10.5,12-2.8c0.3,3-1.8,6.5-2.5,9.4C-75.6,878.9-76,882.5-76,886z"/>
					</g>
					<g>
						<path class="st4" d="M-81.7,891.5c0,2.9,0.3,5.8,0.6,8.7c0.8,7.8,2,15.5,2.8,23.3c0.3,3.4,0.6,6.8-0.1,10.1
							c-0.7,3.3-2.4,6.5-5.3,8.3c-2.9,1.7-7,1.6-9.3-0.8c-2.1-2.1-2.3-5.4-2.5-8.3c-0.2-3.9-0.4-7.8-0.7-11.7
							c-0.3-5.3-0.6-10.5-0.6-15.8c-0.1-10.7,0.9-21.9,6.8-30.8c1.9-2.8,11.3-10.5,12-2.8c0.3,3-1.8,6.5-2.5,9.4
							C-81.3,884.4-81.7,888-81.7,891.5z"/>
					</g>
					<g>
						<path class="st5" d="M-34.2,787.4c-7.3,0.9-14.6,2.3-21.6,4.6c-3.7,1.2-7.3,2.4-10.9,3.3c2.2,2.1,3.5,3.7,3.5,4.4
							c-0.2,2.5-1.4,4.8-2.7,7c-0.1,0.2-0.3,0.5-0.4,0.7c-8.9,15.8-15.7,32.3-22.2,49.2c-4.4,11.4-8.9,23.2-10.2,35.4
							c-1.3,12.9-0.6,25.9,0,38.9c0.1,2,0.2,4.1,1,6c1.5,3.3,6.2,5.2,9.1,2.5c6.4-5.8,5.8-16.5,5.8-24.4c-0.1-7.3-0.6-14.7,0.6-22
							c1.1-7.1,4.3-13.2,8.5-19c3-4.2,5.8-8.5,8.9-12.7c1.2-1.6,2.4-3.2,3.9-4.6c1.9-1.9,4.1-3.5,6.7-4.1c2.2-0.5,5.6-0.5,7.5,1.1
							c2,1.7,1.3,4.6,1,6.8c-0.3,2.6-1.2,5.2-2.1,7.6c-1.6,4.2-3.7,8.5-4,13.1c-0.1,0.8-0.1,1.5,0,2.3c0.4,8.3,9.6,17.6,15.9,7.9
							c1.3-2.1,2.2-4.4,3-6.8c4-11.1,10.4-21.4,12.4-33.1c1.3-7.5,1.7-15,2.1-22.6c1.5-25.9-0.8-32.1-4.1-42.7
							C-26.5,786.5-30.3,786.9-34.2,787.4z"/>
					</g>
					<g>
						<path class="st4" d="M-61,856.6c0.9-1.5,1.8-3,2.8-4.5c1.8-2.6,4-5,6.9-6.3c2.9-1.3,6.6-1.1,8.8,1.1c1.9,1.8,2.4,4.7,2.3,7.4
							c-0.4,6.5-4.2,12.2-7.5,17.8c-1.7,2.9-3.3,5.9-4.3,9.1c0.4-4.5,2.4-8.8,4-13.1c0.9-2.5,1.8-5,2.1-7.6c0.3-2.2,1-5.2-1-6.8
							c-1.9-1.5-5.3-1.6-7.5-1.1C-56.9,853.1-59.1,854.7-61,856.6z"/>
					</g>
				</g>
				<polygon class="st5" points="63.2,1635.3 64.4,1532.9 142.6,1530.6 128.9,1642.3 77.8,1667.4 				"/>
				<path class="st6" d="M273.4,670.9c0,0-15.3,124.6-27.5,204.8c-2.9,18.7-5.6,34.9-7.9,46.7c-7.7,39.4-16.7,97.2-25.9,162.4
					c-29.7,211.6-61.7,502.2-61.7,502.2H49.6c0,0-12.8-548.3,12.1-736c5.3-39.7,17.4-180.1,17.4-180.1H273.4z"/>
				<path class="st7" d="M245.9,875.6c-2.9,18.7-5.6,34.9-7.9,46.7c-7.7,39.4-16.7,97.2-25.9,162.4c-18.8-22.9-30.5-55.2-30.5-91.1
					C181.7,939.3,208.4,893.1,245.9,875.6z"/>
				<path class="st6" d="M370,670.5c0,0,12.1,140.4,17.4,180.1c24.9,187.7-14.7,735.3-14.7,735.3l-99.6,4.6
					c0,0-34.4-503.4-67.2-670.4c-12.2-62-30.2-249.5-30.2-249.5H370z"/>
				<g>
					<path class="st8" d="M2.3,782.2c0,0-1.7,10.4-4.9,20.8c-0.3,1.1-0.7,2.2-1,3.3c-1.2,3.5-2.5,6.9-4,9.7c-0.6,1.1-1.2,2.1-1.8,3
						c-1.4,2.2-3,3.8-4.7,4.5c-7.9,3.3-51.6-17.4-53.8-22.5c-0.8-1.8-1.1-4.4-1-7.4c0-1.2,0.1-2.5,0.3-3.9c0.4-3.3,1.1-6.9,1.9-10.5
						c0.3-1.2,0.6-2.4,0.9-3.6c2.7-10.2,6.1-19.2,6.1-19.2L2.3,782.2z"/>
					<g>
						<path class="st9" d="M-2.6,803c-0.3,1.1-0.7,2.2-1,3.3c-2.1-0.7-4.3-1.4-6.4-2.1c-12.1-4-24.1-8.5-35.7-13.9
							c-5.8-2.7-11.5-5.6-17-8.8c-1.3-0.7-2.6-1.5-3.9-2.2c0.3-1.2,0.6-2.4,0.9-3.6c2.6,1.6,5.3,3.1,7.9,4.6
							C-40.3,790-21.6,797-2.6,803z"/>
						<path class="st9" d="M-7.6,816c-0.6,1.1-1.2,2.1-1.8,3c-1.5-0.5-2.9-0.9-4.4-1.4c-19-6.2-38.2-13.3-55.1-24
							c0-1.2,0.1-2.5,0.3-3.9c1.5,0.9,2.9,1.9,4.4,2.7c11.2,6.7,23.2,11.8,35.4,16.3C-21.7,811.4-14.7,813.8-7.6,816z"/>
					</g>
				</g>
				<polygon class="st10" points="187.4,289.8 272.5,293.3 248.2,343.6 195.5,341.5 				"/>
				<path class="st5" d="M632.8,491.9c-1.7,0.2-4.2-0.1-5.7,0.7c-2.1,1.2-4,4-5.7,5.7c-4.7,4.8-9.6,9.4-14.3,14.2
					c-1.3,1.3-2.6,2.7-3.8,4c-10.8-12.3-21.5-24.7-32.1-37.2c11.5-8.8,20.4-15.4,24.3-18.2c1.9-1.3,3.8-2.7,5.8-4
					c0.4-5.3,1.3-10.6,2.7-15.8c1.8-6.3,5.1-11.5,7.5-17.6c4.1-10.5,6.1-21.8,9.4-32.6c1-3.3,2.2-6.8,4.6-9.3
					c0.1-0.1,0.2-0.2,0.3-0.3c2.4-2.3,6.3-3.5,9.3-1.9c2.3,1.3,3.5,3.9,3.8,6.5c0.5,4.6-0.5,9.6-1.4,14c-0.6,2.9-1.5,5.9-1.5,8.9
					c0,4.5,2.8,1.6,4.9-0.5c2.3-2.4,4.3-5,6.1-7.7c3.7-5.3,6.8-11.1,10.2-16.5c0,0,23.5-37.1,23.5-37.1c2.3-3.7,8.4-3.6,10.9-0.1
					c3.4,4.8-2.1,10.7-4.2,14.9c-3.6,6.9-7.2,13.8-10.7,20.7c-2.5,5-5.1,9.9-7.6,14.9c-1.5,2.9-4.1,5.4-5.6,8.3
					c-0.6,1.1-2.4,4-1.1,5.2c1.3,1.3,3.3-1.2,4.3-2c2.3-1.9,4.5-3.9,6.7-6c4.2-4,8.3-8.1,12.4-12.3c8.3-8.5,16.4-17.1,25.7-24.5
					c0.4-0.3,0.8-0.6,1.2-0.8c2.7-2.5,7.4-2.1,9.6,0.9c4.1,5.6-3.7,11.9-7,15.7c-5.3,6.2-10.9,12.1-16.2,18.3
					c-4,4.6-8,9.2-11.9,13.8c-1.4,1.6-9.5,7.5-7.5,10.3c1.7,2.4,7.6-3.3,9.1-4.1c3.6-2.1,7.2-4.2,10.8-6.4
					c7.1-4.3,14.2-8.8,21.1-13.4c0.6-0.4,1.3-0.7,2-0.9c1.9-1.4,3.8-2.8,5.7-4.2c3.4-2.5,8.5-0.7,9.7,3.4c1.7,5.9-5.3,9.1-9.1,11.9
					c-6,4.4-12.1,8.7-18.3,13c-4.3,3-8.7,6-13.1,9c-2.3,1.6-13.1,7.7-8.2,11.2c1,0.7,3.3-0.2,4.3-0.4c3.1-0.8,6-2.2,9-3.4
					c8-3.1,16-6.1,24-9c4.4-1.6,9.2,2.3,8.5,7c-1,6.8-13.1,8.4-18.3,10.2c-8.3,2.9-16.5,6-24.5,9.5c-1.4,0.6-2.8,1.2-4,2.1
					c-1.5,1.2-2.7,2.8-3.9,4.3c-11.1,13.7-28.2,23-45.4,26.5C637,491.3,634.9,491.6,632.8,491.9z"/>
				<path class="st11" d="M68.3,803.8c26.8,20.2,320.4,17.7,320.2,3.2c-0.5-35.1-5.9-73-10.9-110.2c-2.9-21-5.6-41.7-7.2-61.5
					c-3.9-46.7-17-193.7-18.8-219.7c-1.2-17-4.2-55.4-4.5-60c-2.2-1.5-4.4-3-6.6-4.4c-0.1,0-0.1-0.1-0.2-0.1c-1.6-1-3.5-2.1-5.6-3.3
					c0,0,0,0,0,0c-8.7-5.1-20.2-11.6-27.8-15.2c-19-9-38.5-14.5-59-17.5c-34.2-4.9-68,1-92.9,8c-22.3,6.2-37.4,13.3-39,14
					c-0.1,0-0.1,0.1-0.1,0.1s14.2,6.1,18,29.5c16.2,99.7-32.7,179-32.7,179s-12.4,86.8-19.6,131C76.8,704.9,64.5,800.9,68.3,803.8z"
					/>
				<g>
					<path class="st5" d="M186,242.8c0.9,5.2,1.8,10.3,2.8,15.5c0.1,0.3,0.1,0.6,0.2,0.9c0,0.1,0.1,0.3,0.1,0.4
						c1.2,6.8,2.4,13.7,3.3,20.5c0.3,2.8,0.6,5.5,0.8,8.3c0.2,3.1,0.3,6.2,0.4,9.3c0.1,6-0.1,11.9-0.3,17.9
						c-0.1,3.4-0.2,6.7-0.2,10.1c0,3.9-1.7,8.1-0.1,11.9c2,4.8,6.6,7.3,10.6,10.1c4.4,3.1,9.2,5.6,14.2,7.4c9.8,3.7,21,5.1,31.2,1.9
						c19.5-6,14.3-27.4,14.3-42.9c0,0,0-4.3,0-4.3l0-11.4l-0.1-16.2c-5.6-1.4-10.8-3.9-16-6.4c-17.1-8.4-34.2-17-50.9-26.2
						c-0.4-0.2-0.9-0.5-1.3-0.7C191.6,247.1,188.9,245.6,186,242.8z"/>
				</g>
				<g>
					<path class="st4" d="M263.2,314.2c-19.3-5-37.9-12.7-54.7-23.3c-5.4-3.3-10.9-6.9-16.2-10.8c-0.8-6.9-2.1-13.7-3.3-20.5
						c-1-5.6-2-11.2-3-16.8c3.2,3.1,6.3,4.8,10.3,7c16.7,9.2,33.7,17.8,50.9,26.2c5.2,2.5,10.4,5,16,6.4L263.2,314.2z"/>
				</g>
				<g>
					<g>
						<path class="st5" d="M196.2,247c-8.8,6.1-20.9,7.2-30.6,2.6c-8.2-3.9-14.3-11.8-16.3-20.6c-0.4-1.6-0.6-3.2-0.7-4.9
							c-0.1-2.9,0.2-5.8,1.2-8.6c2.5-6.7,9.3-11.5,16.4-11.9c7.1-0.5,14.3,3.2,18.6,8.9l4.4,13.3L196.2,247z"/>
					</g>
				</g>
				<polygon class="st5" points="353.6,1635.3 356.6,1555.1 287.5,1558.1 288.5,1642.3 339.6,1667.4 				"/>
				<path class="st12" d="M267.8,1676.4c1.8-7.3,5.9-13.8,9-20.6c1-2.2,9.4-22.3,10.7-22.2l1.6,0.2l51.9,7.5l12.7-17.5l1.8-2.4
					c8.9,4.5,17.9,9,26.8,13.5c17.8,9,35.6,17.9,53.4,26.9c13.2,6.6,26.4,13.3,39.5,19.9c3.3,1.7,5.8,4.8,6.5,8.4
					c0.7,3.7-2.9,10.9-8.3,12.2c-10.4,2.4-24.4,3.1-34.9,3.6c-21.2,0.8-40.4-0.2-61.6,0c-21.1,0.1-40.8-0.8-61.5-2
					c-8.2-0.5-16.5-1-25.1-1.5c-0.4,0-0.8-0.1-1.3-0.1c-5.7-0.3-14-1.2-18.3-5.2C264.9,1692.1,266.1,1683,267.8,1676.4z"/>
				<path class="st12" d="M149.6,1676.4c-1.8-7.3-5.9-13.8-9-20.6c-1-2.2-9.4-22.3-10.7-22.2l-1.6,0.2l-51.9,7.5l-12.7-17.5
					l-1.8-2.4c-8.9,4.5-17.9,9-26.8,13.5c-17.8,9-35.6,17.9-53.4,26.9c-13.2,6.6-26.4,13.3-39.5,19.9c-3.3,1.7-5.8,4.8-6.5,8.4
					c-0.7,3.7,2.9,10.9,8.3,12.2c10.4,2.4,24.4,3.1,34.9,3.6c21.2,0.8,40.4-0.2,61.6,0c21.1,0.1,40.8-0.8,61.5-2
					c8.2-0.5,16.5-1,25.1-1.5c0.4,0,0.8-0.1,1.3-0.1c5.7-0.3,14-1.2,18.3-5.2C152.4,1692.1,151.3,1683,149.6,1676.4z"/>
				<g>
					<path class="st8" d="M198.3,840.8c0,0-0.6,12.4-2.9,23.4c-0.2,1.1-0.5,2.3-0.7,3.3c-0.7,2.9-1.5,5.5-2.5,7.7
						c-0.6,1.2-1.2,2.3-1.8,3.1c-0.4,0.6-0.9,1.1-1.4,1.4c-3.9,3.1-53-7.4-78.6-17.2c-23.3-8.9-59.8-22.7-61.3-29.4
						c-0.3-1.4-0.4-3.1-0.3-5c0-1.2,0.2-2.5,0.3-3.8v0c0.3-2.3,0.7-4.9,1.2-7.5c0.2-1.2,0.5-2.4,0.8-3.6c2.4-10.9,5.9-21.5,5.9-21.5
						L198.3,840.8z"/>
					<g>
						<path class="st9" d="M192.2,875.2c-0.6,1.2-1.2,2.3-1.8,3.1c-7.4-1.7-14.8-3.5-22.1-5.4c-26-6.8-51.6-15.1-76.7-24.7
							c-12.5-4.7-24.9-9.6-36.4-16.4c-2.1-1.3-4.2-2.5-6.4-3.7c0-1.2,0.2-2.5,0.3-3.8c4.3,2.4,8.4,5,12.7,7.4
							c11.4,6.4,24,10.7,36.2,15.3c12.4,4.6,24.8,8.9,37.4,12.8C154.2,865.8,173.1,871,192.2,875.2z"/>
						<path class="st9" d="M195.5,864.2c-0.2,1.1-0.5,2.3-0.7,3.3c-8.5-1.9-16.9-3.9-25.3-6.1c-26-6.8-51.6-15.1-76.7-24.7
							c-12.5-4.7-24.9-9.6-36.4-16.4c-2-1.2-4-2.3-6-3.5c0.2-1.2,0.5-2.4,0.8-3.6c4,2.3,7.9,4.7,11.9,6.9
							c11.4,6.4,24,10.7,36.2,15.3c12.4,4.6,24.8,8.9,37.4,12.8C156,854.5,175.6,859.8,195.5,864.2z"/>
					</g>
				</g>
				<path class="st13" d="M198.9,854.4c-9.2,13.8-104.2-27.2-135.7-40.2c-23.9-9.9-15.2-24.1-12.6-42.5
					c7.5-54.5,16.7-101.3,25.7-151.5c3.4-19.1,6.8-38.7,10.1-59.4c0.1-0.9,0.3-1.7,0.4-2.5c-4,13.3-11.3,40.6-14.4,50.1
					c-17.2,54-44.8,181.7-73.6,186.3c-5,0.8-59.6-18.4-62.1-25.3C-80.5,721.1-27.1,544-18.4,522.1c14.9-37.9,62.2-135.6,74.7-151.8
					c24.1-31,102.5-49.3,106.4-50.4c11.3-3.2,22.7-6.1,34.2-8.6c11.4,26.9,14.1,53.4,17,82.5C229.3,548.9,206.1,843.6,198.9,854.4z"
					/>
				<g>
					<polygon class="st8" points="224.2,345 223.4,349.4 222.5,353.9 221.1,361.2 220.3,365.6 218,377.7 217.2,382 214.2,397.4 
						166.7,318.6 170,314 172.3,310.8 176.2,305.3 178.5,302.2 181.9,297.5 184.1,294.4 187.4,289.8 					"/>
					<g>
						<path class="st9" d="M223.4,349.4l-0.8,4.5c-7.5-9.5-14.8-19.1-21.9-28.8c-6.6-8.9-13.5-17.8-18.7-27.6l2.2-3.1
							c2.6,5.1,5.8,9.9,9.1,14.7C203,322.7,213,336.2,223.4,349.4z"/>
						<path class="st9" d="M221.1,361.2l-0.8,4.4c-8.5-10-16.8-20.1-24.7-30.6c-7.1-9.4-13.8-19.2-19.3-29.7l2.3-3.1
							c2.6,5,5.4,9.9,8.4,14.6c8.3,12.9,18.1,24.9,27.8,36.8C216.9,356.1,219,358.7,221.1,361.2z"/>
						<path class="st9" d="M218,377.7l-0.8,4.2c-9.9-10.7-18.9-22.2-27.2-34.2c-4.8-7.1-9.4-14.4-13.6-21.8
							c-2.1-3.8-4.2-7.6-6.2-11.4c-0.1-0.2-0.2-0.3-0.3-0.5l2.3-3.2c0.6,1.1,1.2,2.3,1.7,3.4c2.2,4.3,4.5,8.5,6.9,12.7
							c8.5,14.7,18.3,28.7,29.2,41.8C212.7,371.8,215.3,374.8,218,377.7z"/>
					</g>
				</g>
				<path class="st14" d="M94.3,584.2c-5,12.2-10.9,24.6-18,36c3.4-19.1,6.8-38.7,10.1-59.4c2.1-4.7,22.6-51.9,28.6-100.8
					C117.3,519.8,104.6,558.9,94.3,584.2z"/>
				<g>
					<path class="st8" d="M601.1,522.5c0,0,9-4.4,17.7-10.1c0.9-0.6,1.8-1.2,2.7-1.8c2.9-2,5.6-4.2,7.8-6.3c0.8-0.8,1.6-1.6,2.3-2.4
						c1.6-1.9,2.6-3.8,2.8-5.5c0.9-8.1-29.9-42.5-35.2-43.2c-1.9-0.3-4.3,0.2-7,1.1c-1.1,0.4-2.3,0.8-3.4,1.3
						c-2.9,1.3-6,2.9-9.1,4.6c-1,0.6-2,1.2-3,1.8c-8.6,5.2-15.9,10.8-15.9,10.8L601.1,522.5z"/>
					<g>
						<path class="st9" d="M618.8,512.4c0.9-0.6,1.8-1.2,2.7-1.8c-1.2-1.8-2.4-3.5-3.6-5.3c-7-10-14.3-19.8-22.4-28.9
							c-4-4.6-8.3-9-12.7-13.2c-1-1-2-2-3.1-2.9c-1,0.6-2,1.2-3,1.8c2.2,1.9,4.3,4,6.4,6C596.7,481.4,608.1,496.7,618.8,512.4z"/>
						<path class="st9" d="M629.4,504.3c0.8-0.8,1.6-1.6,2.3-2.4c-0.8-1.2-1.6-2.4-2.5-3.6c-10.8-15.7-22.5-31.3-36.9-43.9
							c-1.1,0.4-2.3,0.8-3.4,1.3c1.3,1.1,2.5,2.2,3.7,3.3c9.2,8.4,17.1,18,24.5,27.9C621.3,492.6,625.4,498.4,629.4,504.3z"/>
					</g>
				</g>
				<g>
					<path class="st8" d="M260.2,840.8c0,0,0.6,12.4,2.9,23.4c0.2,1.1,0.5,2.3,0.7,3.3c0.7,2.9,1.5,5.5,2.5,7.7
						c0.6,1.2,1.1,2.3,1.8,3.1c0.4,0.6,0.9,1.1,1.4,1.4c3.9,3.1,53-7.4,78.6-17.2c23.3-8.9,59.8-22.7,61.3-29.4
						c0.3-1.4,0.4-3.1,0.3-5c0-1.2-0.2-2.5-0.3-3.8v0c-0.3-2.3-0.7-4.9-1.2-7.5c-0.2-1.2-0.5-2.4-0.8-3.6
						c-2.4-10.9-5.9-21.5-5.9-21.5L260.2,840.8z"/>
					<g>
						<path class="st9" d="M266.3,875.2c0.6,1.2,1.1,2.3,1.8,3.1c7.4-1.7,14.8-3.5,22.1-5.4c26-6.8,51.6-15.1,76.7-24.7
							c12.5-4.7,24.9-9.6,36.4-16.4c2.1-1.3,4.2-2.5,6.4-3.7c0-1.2-0.2-2.5-0.3-3.8c-4.3,2.4-8.4,5-12.7,7.4
							c-11.4,6.4-24,10.7-36.2,15.3c-12.4,4.6-24.8,8.9-37.4,12.8C304.4,865.8,285.4,871,266.3,875.2z"/>
						<path class="st9" d="M263,864.2c0.2,1.1,0.5,2.3,0.7,3.3c8.5-1.9,16.9-3.9,25.3-6.1c26-6.8,51.6-15.1,76.7-24.7
							c12.5-4.7,24.9-9.6,36.4-16.4c2-1.2,4-2.3,6-3.5c-0.2-1.2-0.5-2.4-0.8-3.6c-4,2.3-7.9,4.7-11.9,6.9
							c-11.4,6.4-24,10.7-36.2,15.3c-12.4,4.6-24.8,8.9-37.4,12.8C302.5,854.5,282.9,859.8,263,864.2z"/>
					</g>
				</g>
				<path class="st13" d="M614,519.8c-21,29.4-175.7,196.6-223.1,98.9c-0.7-1.4-1.5-3.6-2.5-6.3c-5.1-14.2-13.3-43-16.7-54.2
					c0.1,0.9,0.3,1.7,0.4,2.5c0.3,1.7,0.5,3.3,0.8,5c3,18.8,6.2,36.8,9.3,54.4c9,50.1,18.1,97,25.7,151.5
					c2.6,18.5,11.2,32.7-12.6,42.5c-31.5,13-126.5,54-135.7,40.2c-4.6-6.9-0.9-129.3-4.4-256.4c-2-73.5-16.3-147.4-10.6-204.2
					c2.9-29.1,5.7-55.6,17-82.5c11.5,2.6,22.9,5.4,34.2,8.6c3.9,1.1,82.2,19.3,106.4,50.4c12.6,16.2,66.9,150.6,66.9,150.6
					s46.5-34.7,102.3-58.6C579.5,458.9,619.8,511.8,614,519.8z"/>
				<g>
					<polygon class="st8" points="234.3,345 235.2,349.4 236,353.9 237.4,361.2 238.2,365.6 240.5,377.7 241.3,382 244.3,397.4 
						291.8,318.6 288.5,314 286.2,310.8 282.3,305.3 280,302.2 276.6,297.5 274.4,294.4 271.1,289.8 					"/>
					<g>
						<path class="st9" d="M235.2,349.4l0.8,4.5c7.5-9.5,14.8-19.1,21.9-28.8c6.6-8.9,13.5-17.8,18.7-27.6l-2.2-3.1
							c-2.6,5.1-5.8,9.9-9.1,14.7C255.5,322.7,245.5,336.2,235.2,349.4z"/>
						<path class="st9" d="M237.4,361.2l0.8,4.4c8.5-10,16.8-20.1,24.7-30.6c7.1-9.4,13.8-19.2,19.3-29.7l-2.3-3.1
							c-2.6,5-5.4,9.9-8.4,14.6c-8.3,12.9-18.1,24.9-27.8,36.8C241.6,356.1,239.5,358.7,237.4,361.2z"/>
						<path class="st9" d="M240.5,377.7l0.8,4.2c9.9-10.7,18.9-22.2,27.2-34.2c4.8-7.1,9.4-14.4,13.6-21.8c2.1-3.8,4.2-7.6,6.2-11.4
							c0.1-0.2,0.2-0.3,0.3-0.5l-2.3-3.2c-0.6,1.1-1.2,2.3-1.7,3.4c-2.2,4.3-4.5,8.5-6.9,12.7c-8.5,14.7-18.3,28.7-29.2,41.8
							C245.8,371.8,243.2,374.8,240.5,377.7z"/>
					</g>
				</g>
				<g>
					<path class="st5" d="M296.2,262.6c-4.3,10.4-10.1,19.8-19.8,25.9c-8.6,5.4-18.9,8-29,7.6c-11.2-0.5-21.9-4.4-31.4-10.4
						c-4.7-3-9.2-6.5-13.2-10.3c-7-6.7-12.9-14.6-18-22.8c-8.3-13.5-14.9-28.8-18.2-44.7c-3.8-17.9-3.2-36.5,4.1-53.7
						c3-7,7.1-13.5,12.2-19.2c21.5-23.9,58.4-28,84.6-9.5c13.7,9.7,23.9,24.2,29.3,40c1.7,5,3.2,10.1,4.4,15.3
						C307.6,207.8,306.7,237,296.2,262.6z"/>
				</g>
				<g>
					<g>
						<g>
							<path class="st15" d="M241.9,214.6c-1.4,0.1-3.3-2.2-3.9-5.5c-0.3-1.8-0.1-3.5,0.5-4.8c0.2-0.5,0.8-1.5,1.6-1.7
								c0,0,0.1,0,0.1,0c1.4-0.1,3.3,2.2,3.9,5.5c0.3,1.8,0.1,3.5-0.5,4.8c-0.2,0.5-0.8,1.5-1.6,1.7
								C242,214.6,242,214.6,241.9,214.6z"/>
							<path class="st15" d="M284.1,210.5c-1.2,0.1-3.2-1.9-3.7-5.3c-0.3-1.7-0.1-3.4,0.5-4.7c0.4-0.9,1-1.5,1.5-1.6
								c0,0,0.1,0,0.1,0c1.2-0.1,3.2,1.9,3.7,5.3c0.3,1.7,0.1,3.4-0.5,4.7c-0.4,0.9-1,1.5-1.5,1.6
								C284.2,210.5,284.2,210.5,284.1,210.5L284.1,210.5z"/>
							<path class="st15" d="M263,218.1c1.1-1.2,3-1.7,4.7-1.4c1.8,0.3,3.4,1.6,4.3,3.2c0.9,1.6,1,3.7,0.2,5.3
								c-0.7,1.6-2.2,2.9-3.9,3.1c1.1-1.1,1.8-2.4,2-3.7c0.2-1.3,0-2.5-0.5-3.6c-0.6-1.1-1.4-2-2.6-2.5
								C266,218.1,264.5,217.8,263,218.1z"/>
						</g>
						<g>
							<path class="st15" d="M243.2,184.2c-2-1-4.2-1.6-6.5-1.7c-2.4-0.1-4.8,0.2-6.9,1.1c-1.7,0.6-2.5,2.6-1.9,4.2
								c0.3,0.8,1,1.5,1.8,1.9c0.3,0.1,0.7,0.2,1,0.2c0.5,0,0.9,0,1.4-0.2c1.3-0.5,2.8-0.7,4.2-0.7c1.4,0.1,2.8,0.4,4,1
								c0.4,0.2,0.8,0.3,1.3,0.3c1.3,0.1,2.5-0.6,3.1-1.8C245.5,187,244.9,185,243.2,184.2z"/>
							<path class="st15" d="M283.5,177.4c-0.8-0.2-1.5-0.3-2.3-0.3c-3.5-0.2-7,0.8-9.8,2.7c-1.5,1-1.9,3.1-0.9,4.6
								c0.4,0.7,1.1,1.1,1.9,1.3c0.2,0.1,0.4,0.1,0.7,0.1c0.7,0,1.4-0.2,2-0.6c1.6-1.1,3.7-1.7,5.7-1.6c0.5,0,0.9,0.1,1.3,0.2
								c0.2,0,0.3,0.1,0.5,0.1c1.6,0.1,3-1,3.4-2.6C286.4,179.5,285.3,177.8,283.5,177.4z"/>
						</g>
						<path class="st9" d="M241.1,204.8c-2.1-0.4-2.7,2.8-0.7,3.2C242.5,208.4,243.2,205.2,241.1,204.8z"/>
						<path class="st9" d="M284,200.7c-2.1-0.4-2.7,2.8-0.7,3.2C285.4,204.3,286,201.1,284,200.7z"/>
						<g>
							<path class="st16" d="M288.5,234.3c0.6,5.7-0.4,11.1-2.7,15.7c-3.5,7.4-10.2,12.7-18.2,13.5c-8.2,0.8-15.9-3.2-20.9-10
								c-2.9-4-4.9-8.9-5.4-14.4c0-0.2,0-0.4,0-0.6l47.1-4.8C288.5,233.9,288.5,234.1,288.5,234.3z"/>
							<path class="st9" d="M286.5,233.9c-4.7,6.1-12.1,10.4-20.7,11.3c-8.6,0.9-16.7-1.9-22.6-6.9L286.5,233.9z"/>
							<path class="st17" d="M285.9,250.1c-3.5,7.4-10.2,12.7-18.2,13.5c-8.2,0.8-15.9-3.2-20.9-10c7.9-2.6,16.1-4,24.4-4.3
								C276.1,249.1,281,249.4,285.9,250.1z"/>
						</g>
					</g>
					<g>
						<path class="st4" d="M239.3,227.5c0.3,5.4-5.4,10-12.7,10.4c-7.3,0.4-13.4-3.6-13.7-9c-0.3-5.4,5.4-10,12.7-10.4
							C232.9,218.1,239,222.2,239.3,227.5z"/>
						<path class="st4" d="M300.7,218.8c0.2,3.6-3.6,6.8-8.5,7c-4.9,0.3-9.1-2.5-9.2-6.1c-0.2-3.6,3.6-6.8,8.5-7
							C296.3,212.5,300.5,215.2,300.7,218.8z"/>
					</g>
				</g>
				<path class="st14" d="M388.4,612.4c-5.1-14.2-13.3-43-16.7-54.2c0.1,0.9,0.3,1.7,0.4,2.5c0.3,1.7,0.5,3.3,0.8,5l-1.5-8.1
					l-8.3-124.9c0,0,26.3,117.9,26.7,157.9C389.8,594.8,389.1,603.7,388.4,612.4z"/>
				<polygon class="st18" points="42.5,1542.1 42.5,1590.3 156.4,1592.7 161,1544.5 				"/>
				<polygon class="st18" points="264.5,1547.3 266.8,1595 379.3,1592.5 384.1,1542.1 				"/>
				<path class="st2" d="M162.4,140.1c-2.1-8.3,0.6-17.6,6-23.9c5.4-6.3,13.1-10,21.1-11.3c7.9-1.3,16-0.4,23.9,1.2
					c7.6,1.5,15.2,3.7,22.9,3.3c9.4-0.6,18.6-5.4,24.8-13c5.9-7.2,18.6-6.2,26.2-1.1c7.7,5.1,15.2,13.9,16.8,23.5
					c1.5,9.1,0.7,24.4-13.7,32.8c-16.9,9.9-69.9,6.4-77.1,6.2c-7.2-0.2-14.9,1.7-19.6,7.5c-9.4,11.5-11.2,28.7-11.9,44.1
					c-5.5-3.1-10.8-4.4-17.1-4.4c-2.7,0-5.7,0.2-9.1,2.7c-5.9-11.5-9.4-23.8-12.1-36.5c-1.3-6.3-2.3-12.9-1.5-19.3
					c0.3-2.4,0.9-4.9,2.2-6.9c2-3,5.4-4.7,8.8-5.1C156.5,139.3,159,139.1,162.4,140.1z"/>
			</g>
		</g>
	</g>
	<g>
		<path class="st19" d="M243,485.9c-0.7,0-1.3-0.6-1.3-1.3c0-0.7,0.6-1.3,1.3-1.3c2.3,0,4.6,0,6.9-0.1c0.7,0,1.3,0.5,1.3,1.3
			c0,0.7-0.5,1.3-1.3,1.3C247.6,485.9,245.3,485.9,243,485.9z M236.1,485.8C236.1,485.8,236.1,485.8,236.1,485.8
			c-2.3-0.1-4.7-0.2-7-0.3c-0.7,0-1.3-0.6-1.2-1.4c0-0.7,0.6-1.3,1.4-1.2c2.3,0.1,4.6,0.2,6.9,0.3c0.7,0,1.3,0.6,1.3,1.3
			C237.3,485.3,236.8,485.8,236.1,485.8z M256.8,485.5c-0.7,0-1.2-0.5-1.3-1.2c0-0.7,0.5-1.3,1.2-1.4c2.3-0.1,4.6-0.3,6.8-0.5
			c0.7-0.1,1.3,0.5,1.4,1.2c0.1,0.7-0.5,1.3-1.2,1.4C261.5,485.2,259.1,485.4,256.8,485.5C256.8,485.5,256.8,485.5,256.8,485.5z
			 M222.3,485c0,0-0.1,0-0.1,0c-2.3-0.2-4.6-0.4-6.9-0.7c-0.7-0.1-1.2-0.7-1.1-1.4c0.1-0.7,0.7-1.2,1.4-1.1c2.3,0.3,4.6,0.5,6.8,0.7
			c0.7,0.1,1.2,0.7,1.2,1.4C223.5,484.5,223,485,222.3,485z M270.5,484.3c-0.6,0-1.2-0.5-1.3-1.1c-0.1-0.7,0.4-1.3,1.1-1.4
			c2.3-0.3,4.5-0.6,6.8-0.9c0.7-0.1,1.4,0.4,1.5,1.1c0.1,0.7-0.4,1.4-1.1,1.5c-2.3,0.3-4.6,0.6-6.9,0.9
			C270.6,484.3,270.6,484.3,270.5,484.3z M208.6,483.5c-0.1,0-0.1,0-0.2,0c-2.3-0.3-4.6-0.7-6.9-1.1c-0.7-0.1-1.2-0.8-1.1-1.5
			c0.1-0.7,0.8-1.2,1.5-1.1c2.2,0.4,4.5,0.7,6.8,1.1c0.7,0.1,1.2,0.8,1.1,1.5C209.8,483,209.2,483.5,208.6,483.5z M284.2,482.4
			c-0.6,0-1.2-0.4-1.3-1.1c-0.1-0.7,0.4-1.4,1.1-1.5c2.2-0.4,4.5-0.8,6.7-1.3c0.7-0.1,1.4,0.3,1.5,1c0.1,0.7-0.3,1.4-1,1.5
			c-2.3,0.5-4.6,0.9-6.8,1.3C284.3,482.4,284.3,482.4,284.2,482.4z M195,481.2c-0.1,0-0.2,0-0.3,0c-2.3-0.5-4.5-0.9-6.8-1.5
			c-0.7-0.2-1.1-0.9-1-1.5c0.2-0.7,0.9-1.1,1.5-1c2.2,0.5,4.5,1,6.7,1.4c0.7,0.1,1.2,0.8,1,1.5C196.1,480.7,195.6,481.2,195,481.2z
			 M297.7,479.7c-0.6,0-1.1-0.4-1.3-1c-0.2-0.7,0.3-1.4,1-1.5c2.2-0.5,4.5-1.1,6.7-1.6c0.7-0.2,1.4,0.2,1.6,0.9
			c0.2,0.7-0.2,1.4-0.9,1.6c-2.2,0.6-4.5,1.1-6.7,1.7C297.9,479.7,297.8,479.7,297.7,479.7z M181.5,478.1c-0.1,0-0.2,0-0.3,0
			c-2.2-0.6-4.5-1.2-6.7-1.9c-0.7-0.2-1.1-0.9-0.9-1.6c0.2-0.7,0.9-1.1,1.6-0.9c2.2,0.6,4.4,1.3,6.6,1.8c0.7,0.2,1.1,0.9,0.9,1.6
			C182.6,477.7,182.1,478.1,181.5,478.1z M311.1,476.2c-0.6,0-1.1-0.4-1.2-0.9c-0.2-0.7,0.2-1.4,0.9-1.6c2.2-0.6,4.4-1.3,6.6-2
			c0.7-0.2,1.4,0.1,1.6,0.8c0.2,0.7-0.2,1.4-0.8,1.6c-2.2,0.7-4.4,1.4-6.6,2C311.3,476.1,311.2,476.2,311.1,476.2z M168.3,474.2
			c-0.1,0-0.3,0-0.4-0.1c-2.2-0.7-4.4-1.5-6.6-2.2c-0.7-0.2-1-1-0.8-1.6c0.2-0.7,1-1,1.6-0.8c2.1,0.8,4.3,1.5,6.5,2.2
			c0.7,0.2,1,0.9,0.8,1.6C169.3,473.8,168.8,474.2,168.3,474.2z M324.2,471.9c-0.5,0-1-0.3-1.2-0.9c-0.2-0.7,0.1-1.4,0.8-1.6
			c2.1-0.8,4.3-1.6,6.4-2.4c0.7-0.3,1.4,0.1,1.7,0.7c0.3,0.7-0.1,1.4-0.7,1.7c-2.1,0.8-4.3,1.7-6.5,2.4
			C324.5,471.9,324.3,471.9,324.2,471.9z M155.3,469.5c-0.2,0-0.3,0-0.5-0.1c-2.2-0.8-4.3-1.7-6.4-2.6c-0.7-0.3-1-1-0.7-1.7
			c0.3-0.7,1-1,1.7-0.7c2.1,0.9,4.2,1.8,6.4,2.6c0.7,0.3,1,1,0.7,1.7C156.3,469.2,155.8,469.5,155.3,469.5z M337,466.9
			c-0.5,0-1-0.3-1.2-0.8c-0.3-0.7,0-1.4,0.7-1.7c2.1-0.9,4.2-1.8,6.3-2.8c0.6-0.3,1.4,0,1.7,0.6c0.3,0.6,0,1.4-0.6,1.7
			c-2.1,1-4.2,1.9-6.3,2.8C337.4,466.9,337.2,466.9,337,466.9z M142.5,464.2c-0.2,0-0.4,0-0.5-0.1c-2.1-1-4.2-2-6.3-3
			c-0.6-0.3-0.9-1.1-0.6-1.7c0.3-0.6,1.1-0.9,1.7-0.6c2,1,4.1,2,6.2,2.9c0.6,0.3,0.9,1.1,0.6,1.7C143.5,463.9,143,464.2,142.5,464.2
			z M349.5,461.2c-0.5,0-0.9-0.3-1.2-0.7c-0.3-0.6-0.1-1.4,0.6-1.7c2-1,4.1-2.1,6.1-3.1c0.6-0.3,1.4-0.1,1.7,0.5
			c0.3,0.6,0.1,1.4-0.5,1.7c-2,1.1-4.1,2.1-6.2,3.1C349.9,461.1,349.7,461.2,349.5,461.2z M130.1,458c-0.2,0-0.4,0-0.6-0.1
			c-2-1.1-4.1-2.2-6.1-3.3c-0.6-0.4-0.8-1.1-0.5-1.8c0.4-0.6,1.1-0.8,1.8-0.5c2,1.1,4,2.2,6,3.3c0.6,0.3,0.9,1.1,0.5,1.7
			C131,457.8,130.6,458,130.1,458z M361.7,454.7c-0.4,0-0.9-0.2-1.1-0.7c-0.4-0.6-0.1-1.4,0.5-1.8c2-1.1,4-2.3,5.9-3.5
			c0.6-0.4,1.4-0.2,1.8,0.4c0.4,0.6,0.2,1.4-0.4,1.8c-2,1.2-4,2.4-6,3.5C362.1,454.7,361.9,454.7,361.7,454.7z M118.1,451.2
			c-0.2,0-0.5-0.1-0.7-0.2c-2-1.2-4-2.4-5.9-3.7c-0.6-0.4-0.8-1.2-0.4-1.8c0.4-0.6,1.2-0.8,1.8-0.4c1.9,1.2,3.9,2.5,5.8,3.6
			c0.6,0.4,0.8,1.2,0.4,1.8C118.9,451,118.5,451.2,118.1,451.2z M373.5,447.6c-0.4,0-0.8-0.2-1.1-0.6c-0.4-0.6-0.2-1.4,0.4-1.8
			c1.9-1.2,3.8-2.5,5.7-3.8c0.6-0.4,1.4-0.3,1.8,0.3c0.4,0.6,0.3,1.4-0.3,1.8c-1.9,1.3-3.8,2.6-5.8,3.8
			C374,447.5,373.7,447.6,373.5,447.6z M106.5,443.8c-0.3,0-0.5-0.1-0.7-0.2c-1.9-1.3-3.8-2.6-5.7-4c-0.6-0.4-0.7-1.2-0.3-1.8
			c0.4-0.6,1.2-0.7,1.8-0.3c1.8,1.3,3.7,2.7,5.6,4c0.6,0.4,0.7,1.2,0.3,1.8C107.3,443.6,106.9,443.8,106.5,443.8z M384.9,439.8
			c-0.4,0-0.8-0.2-1-0.5c-0.4-0.6-0.3-1.4,0.3-1.8c1.8-1.3,3.7-2.7,5.5-4.1c0.6-0.4,1.4-0.3,1.8,0.2c0.4,0.6,0.3,1.4-0.2,1.8
			c-1.8,1.4-3.7,2.8-5.5,4.2C385.4,439.7,385.1,439.8,384.9,439.8z M95.3,435.6c-0.3,0-0.6-0.1-0.8-0.3c-1.8-1.4-3.6-2.9-5.4-4.3
			c-0.6-0.5-0.6-1.3-0.2-1.8c0.5-0.6,1.3-0.6,1.8-0.2c1.8,1.4,3.6,2.9,5.4,4.3c0.6,0.4,0.7,1.2,0.2,1.8
			C96.1,435.5,95.7,435.6,95.3,435.6z M395.8,431.4c-0.4,0-0.7-0.2-1-0.5c-0.5-0.6-0.4-1.4,0.2-1.8c1.8-1.4,3.5-2.9,5.2-4.4
			c0.5-0.5,1.4-0.4,1.8,0.1c0.5,0.5,0.4,1.4-0.1,1.8c-1.7,1.5-3.5,3-5.3,4.5C396.3,431.3,396.1,431.4,395.8,431.4z M84.6,426.9
			c-0.3,0-0.6-0.1-0.8-0.3c-1.7-1.5-3.5-3.1-5.2-4.6c-0.5-0.5-0.6-1.3-0.1-1.8c0.5-0.5,1.3-0.6,1.8-0.1c1.7,1.5,3.4,3.1,5.1,4.6
			c0.5,0.5,0.6,1.3,0.1,1.8C85.3,426.7,85,426.9,84.6,426.9z M406.2,422.4c-0.3,0-0.7-0.1-1-0.4c-0.5-0.5-0.4-1.3,0.1-1.8
			c1.7-1.5,3.4-3.1,5-4.7c0.5-0.5,1.3-0.5,1.8,0c0.5,0.5,0.5,1.3,0,1.8c-1.6,1.6-3.3,3.2-5,4.8C406.8,422.3,406.5,422.4,406.2,422.4
			z M74.4,417.6c-0.3,0-0.6-0.1-0.9-0.4c-1.7-1.6-3.3-3.3-4.9-4.9c-0.5-0.5-0.5-1.3,0-1.8c0.5-0.5,1.3-0.5,1.8,0
			c1.6,1.6,3.2,3.3,4.9,4.9c0.5,0.5,0.5,1.3,0,1.8C75.1,417.4,74.8,417.6,74.4,417.6z M416.1,412.8c-0.3,0-0.6-0.1-0.9-0.4
			c-0.5-0.5-0.5-1.3,0-1.8c1.6-1.6,3.2-3.3,4.7-5c0.5-0.5,1.3-0.6,1.8-0.1c0.5,0.5,0.6,1.3,0.1,1.8c-1.6,1.7-3.2,3.4-4.8,5
			C416.8,412.6,416.4,412.8,416.1,412.8z M64.8,407.7c-0.3,0-0.7-0.1-1-0.4c-1.6-1.7-3.1-3.4-4.6-5.2c-0.5-0.5-0.4-1.4,0.1-1.8
			c0.5-0.5,1.4-0.4,1.8,0.1c1.5,1.7,3,3.4,4.6,5.1c0.5,0.5,0.4,1.3-0.1,1.8C65.4,407.5,65.1,407.7,64.8,407.7z M425.4,402.6
			c-0.3,0-0.6-0.1-0.8-0.3c-0.5-0.5-0.6-1.3-0.1-1.8c1.5-1.7,3-3.5,4.4-5.2c0.5-0.6,1.3-0.6,1.8-0.2c0.6,0.5,0.6,1.3,0.2,1.8
			c-1.5,1.8-3,3.6-4.5,5.3C426.2,402.4,425.8,402.6,425.4,402.6z M55.8,397.2c-0.4,0-0.7-0.2-1-0.5c-1.5-1.8-2.9-3.6-4.3-5.4
			c-0.4-0.6-0.3-1.4,0.2-1.8c0.6-0.4,1.4-0.3,1.8,0.2c1.4,1.8,2.8,3.6,4.3,5.4c0.5,0.6,0.4,1.4-0.2,1.8
			C56.4,397.1,56.1,397.2,55.8,397.2z M434.2,391.9c-0.3,0-0.6-0.1-0.8-0.3c-0.6-0.4-0.7-1.2-0.2-1.8c1.4-1.8,2.8-3.7,4.1-5.5
			c0.4-0.6,1.2-0.7,1.8-0.3c0.6,0.4,0.7,1.2,0.3,1.8c-1.4,1.9-2.8,3.7-4.2,5.6C435,391.7,434.6,391.9,434.2,391.9z M47.4,386.3
			c-0.4,0-0.8-0.2-1-0.5c-1.4-1.9-2.7-3.8-4-5.7c-0.4-0.6-0.3-1.4,0.3-1.8c0.6-0.4,1.4-0.3,1.8,0.3c1.3,1.9,2.6,3.8,4,5.6
			c0.4,0.6,0.3,1.4-0.3,1.8C47.9,386.3,47.6,386.3,47.4,386.3z M442.3,380.7c-0.3,0-0.5-0.1-0.7-0.2c-0.6-0.4-0.7-1.2-0.3-1.8
			c1.3-1.9,2.6-3.8,3.8-5.7c0.4-0.6,1.2-0.8,1.8-0.4c0.6,0.4,0.8,1.2,0.4,1.8c-1.2,1.9-2.5,3.9-3.8,5.8
			C443.1,380.6,442.7,380.7,442.3,380.7z M39.6,375c-0.4,0-0.8-0.2-1.1-0.6c-1.2-1.9-2.5-3.9-3.7-5.9c-0.4-0.6-0.2-1.4,0.4-1.8
			c0.6-0.4,1.4-0.2,1.8,0.4c1.2,1.9,2.4,3.9,3.6,5.8c0.4,0.6,0.2,1.4-0.4,1.8C40.1,374.9,39.8,375,39.6,375z M449.8,369.1
			c-0.2,0-0.5-0.1-0.7-0.2c-0.6-0.4-0.8-1.2-0.4-1.8c1.2-1.9,2.3-3.9,3.5-5.9c0.4-0.6,1.1-0.8,1.8-0.5c0.6,0.4,0.8,1.1,0.5,1.8
			c-1.1,2-2.3,4-3.5,6C450.7,368.9,450.2,369.1,449.8,369.1z M32.4,363.2c-0.4,0-0.9-0.2-1.1-0.7c-1.1-2-2.3-4-3.3-6.1
			c-0.3-0.6-0.1-1.4,0.5-1.7c0.6-0.3,1.4-0.1,1.7,0.5c1.1,2,2.2,4,3.3,6c0.4,0.6,0.1,1.4-0.5,1.8C32.9,363.1,32.7,363.2,32.4,363.2z
			 M456.6,357.1c-0.2,0-0.4,0-0.6-0.2c-0.6-0.3-0.9-1.1-0.5-1.7c1.1-2,2.1-4.1,3.1-6.1c0.3-0.6,1.1-0.9,1.7-0.6
			c0.6,0.3,0.9,1.1,0.6,1.7c-1,2.1-2.1,4.2-3.2,6.2C457.5,356.9,457.1,357.1,456.6,357.1z M26,351c-0.5,0-0.9-0.3-1.2-0.7
			c-1-2.1-2-4.2-3-6.2c-0.3-0.6,0-1.4,0.6-1.7c0.6-0.3,1.4,0,1.7,0.6c0.9,2.1,1.9,4.1,2.9,6.2c0.3,0.6,0.1,1.4-0.6,1.7
			C26.4,351,26.2,351,26,351z M462.7,344.7c-0.2,0-0.4,0-0.5-0.1c-0.6-0.3-0.9-1.1-0.6-1.7c0.9-2.1,1.9-4.2,2.8-6.3
			c0.3-0.7,1-1,1.7-0.7c0.7,0.3,1,1,0.7,1.7c-0.9,2.1-1.8,4.3-2.8,6.4C463.7,344.4,463.2,344.7,462.7,344.7z M20.3,338.5
			c-0.5,0-1-0.3-1.2-0.8c-0.9-2.1-1.8-4.3-2.6-6.4c-0.3-0.7,0.1-1.4,0.7-1.7c0.7-0.3,1.4,0.1,1.7,0.7c0.8,2.1,1.7,4.2,2.6,6.3
			c0.3,0.7,0,1.4-0.7,1.7C20.6,338.5,20.4,338.5,20.3,338.5z M468.1,332c-0.2,0-0.3,0-0.5-0.1c-0.7-0.3-1-1-0.7-1.7
			c0.8-2.1,1.6-4.3,2.4-6.4c0.2-0.7,1-1,1.6-0.8c0.7,0.2,1,1,0.8,1.6c-0.8,2.2-1.6,4.4-2.4,6.5C469.1,331.6,468.6,332,468.1,332z
			 M15.3,325.7c-0.5,0-1-0.3-1.2-0.9c-0.8-2.2-1.5-4.4-2.2-6.6c-0.2-0.7,0.1-1.4,0.8-1.6c0.7-0.2,1.4,0.1,1.6,0.8
			c0.7,2.2,1.5,4.4,2.2,6.5c0.2,0.7-0.1,1.4-0.8,1.6C15.6,325.6,15.4,325.7,15.3,325.7z M472.8,318.9c-0.1,0-0.3,0-0.4-0.1
			c-0.7-0.2-1-0.9-0.8-1.6c0.7-2.2,1.4-4.4,2-6.6c0.2-0.7,0.9-1.1,1.6-0.9c0.7,0.2,1.1,0.9,0.9,1.6c-0.6,2.2-1.3,4.4-2,6.6
			C473.8,318.6,473.3,318.9,472.8,318.9z M11,312.5c-0.6,0-1.1-0.4-1.2-0.9c-0.6-2.2-1.3-4.5-1.9-6.7c-0.2-0.7,0.2-1.4,0.9-1.6
			c0.7-0.2,1.4,0.2,1.6,0.9c0.6,2.2,1.2,4.4,1.8,6.6c0.2,0.7-0.2,1.4-0.9,1.6C11.2,312.5,11.1,312.5,11,312.5z M476.7,305.7
			c-0.1,0-0.2,0-0.3,0c-0.7-0.2-1.1-0.9-0.9-1.6c0.6-2.2,1.1-4.4,1.6-6.7c0.2-0.7,0.9-1.1,1.5-1c0.7,0.2,1.1,0.9,1,1.5
			c-0.5,2.2-1.1,4.5-1.7,6.7C477.7,305.3,477.2,305.7,476.7,305.7z M7.5,299.2c-0.6,0-1.1-0.4-1.3-1c-0.5-2.2-1-4.5-1.5-6.8
			c-0.1-0.7,0.3-1.4,1-1.5c0.7-0.1,1.4,0.3,1.5,1c0.5,2.2,0.9,4.5,1.5,6.7c0.2,0.7-0.3,1.4-1,1.5C7.7,299.2,7.6,299.2,7.5,299.2z
			 M479.8,292.2c-0.1,0-0.2,0-0.3,0c-0.7-0.1-1.2-0.8-1-1.5c0.5-2.2,0.9-4.5,1.3-6.7c0.1-0.7,0.8-1.2,1.5-1.1
			c0.7,0.1,1.2,0.8,1.1,1.5c-0.4,2.3-0.8,4.6-1.3,6.8C480.9,291.8,480.4,292.2,479.8,292.2z M4.7,285.7c-0.6,0-1.2-0.4-1.3-1.1
			c-0.4-2.3-0.8-4.6-1.1-6.9c-0.1-0.7,0.4-1.4,1.1-1.5c0.7-0.1,1.4,0.4,1.5,1.1c0.3,2.3,0.7,4.5,1.1,6.8c0.1,0.7-0.3,1.4-1.1,1.5
			C4.9,285.7,4.8,285.7,4.7,285.7z M482.1,278.6c-0.1,0-0.1,0-0.2,0c-0.7-0.1-1.2-0.8-1.1-1.5c0.3-2.2,0.6-4.5,0.9-6.8
			c0.1-0.7,0.7-1.2,1.4-1.1c0.7,0.1,1.2,0.7,1.1,1.4c-0.3,2.3-0.6,4.6-0.9,6.9C483.3,278.2,482.7,278.6,482.1,278.6z M2.8,272
			c-0.6,0-1.2-0.5-1.3-1.1c-0.3-2.3-0.5-4.6-0.7-6.9c-0.1-0.7,0.5-1.3,1.2-1.4c0.7-0.1,1.3,0.5,1.4,1.2c0.2,2.3,0.4,4.6,0.7,6.8
			c0.1,0.7-0.4,1.3-1.1,1.4C2.9,272,2.8,272,2.8,272z M483.7,264.9c0,0-0.1,0-0.1,0c-0.7-0.1-1.2-0.7-1.2-1.4
			c0.2-2.3,0.4-4.6,0.5-6.8c0-0.7,0.6-1.3,1.4-1.2c0.7,0,1.3,0.6,1.2,1.4c-0.1,2.3-0.3,4.6-0.5,6.9
			C484.9,264.4,484.3,264.9,483.7,264.9z M1.6,258.3c-0.7,0-1.2-0.5-1.3-1.2c-0.1-2.3-0.2-4.6-0.3-6.9c0-0.7,0.5-1.3,1.3-1.3
			c0.7,0,1.3,0.5,1.3,1.3c0.1,2.3,0.2,4.6,0.3,6.9C2.9,257.6,2.4,258.2,1.6,258.3C1.6,258.3,1.6,258.3,1.6,258.3z M484.4,251.1
			C484.4,251.1,484.4,251.1,484.4,251.1c-0.7,0-1.3-0.6-1.3-1.3c0.1-2.3,0.1-4.6,0.1-6.9l0-0.4c0-0.7,0.6-1.3,1.3-1.3
			c0.7,0,1.3,0.6,1.3,1.3l0,0.5c0,2.3,0,4.6-0.1,6.9C485.7,250.6,485.1,251.1,484.4,251.1z M1.2,244.5c-0.7,0-1.3-0.6-1.3-1.3V243
			c0-2.2,0-4.5,0.1-6.7c0-0.7,0.7-1.3,1.3-1.3c0.7,0,1.3,0.6,1.3,1.3c-0.1,2.2-0.1,4.4-0.1,6.6v0.2C2.5,243.9,1.9,244.5,1.2,244.5z
			 M484.4,236.9c-0.7,0-1.3-0.6-1.3-1.3c-0.1-2.3-0.2-4.6-0.3-6.9c0-0.7,0.5-1.3,1.2-1.4c0.7,0,1.3,0.5,1.4,1.2
			c0.1,2.3,0.2,4.6,0.3,6.9C485.7,236.3,485.2,236.9,484.4,236.9C484.4,236.9,484.4,236.9,484.4,236.9z M1.6,230.7
			C1.6,230.7,1.5,230.7,1.6,230.7c-0.8,0-1.3-0.6-1.3-1.4c0.1-2.3,0.3-4.6,0.5-6.9c0.1-0.7,0.7-1.2,1.4-1.2c0.7,0.1,1.2,0.7,1.2,1.4
			c-0.2,2.3-0.3,4.6-0.5,6.8C2.8,230.1,2.3,230.7,1.6,230.7z M483.6,223.1c-0.7,0-1.2-0.5-1.3-1.2c-0.2-2.3-0.4-4.6-0.7-6.8
			c-0.1-0.7,0.4-1.3,1.1-1.4c0.7-0.1,1.3,0.4,1.4,1.1c0.3,2.3,0.5,4.6,0.7,6.9c0.1,0.7-0.5,1.3-1.2,1.4
			C483.7,223.1,483.7,223.1,483.6,223.1z M2.7,216.9c0,0-0.1,0-0.1,0c-0.7-0.1-1.2-0.7-1.1-1.4c0.3-2.3,0.6-4.6,0.9-6.9
			c0.1-0.7,0.7-1.2,1.5-1.1c0.7,0.1,1.2,0.8,1.1,1.5c-0.3,2.2-0.6,4.5-0.9,6.8C3.9,216.4,3.4,216.9,2.7,216.9z M482,209.4
			c-0.6,0-1.2-0.5-1.3-1.1c-0.3-2.3-0.7-4.5-1.1-6.8c-0.1-0.7,0.3-1.4,1.1-1.5c0.7-0.1,1.4,0.3,1.5,1.1c0.4,2.3,0.8,4.6,1.1,6.9
			c0.1,0.7-0.4,1.4-1.1,1.5C482.2,209.4,482.1,209.4,482,209.4z M4.7,203.3c-0.1,0-0.1,0-0.2,0c-0.7-0.1-1.2-0.8-1.1-1.5
			c0.4-2.3,0.8-4.6,1.3-6.8c0.1-0.7,0.8-1.1,1.5-1c0.7,0.1,1.2,0.8,1,1.5c-0.4,2.2-0.9,4.5-1.3,6.7C5.8,202.8,5.3,203.3,4.7,203.3z
			 M479.7,195.8c-0.6,0-1.1-0.4-1.3-1c-0.5-2.2-0.9-4.5-1.5-6.7c-0.2-0.7,0.3-1.4,1-1.6c0.7-0.2,1.4,0.3,1.6,1
			c0.5,2.2,1,4.5,1.5,6.8c0.1,0.7-0.3,1.4-1,1.5C479.8,195.8,479.8,195.8,479.7,195.8z M7.4,189.7c-0.1,0-0.2,0-0.3,0
			c-0.7-0.2-1.1-0.9-1-1.5c0.5-2.3,1.1-4.5,1.7-6.7c0.2-0.7,0.9-1.1,1.6-0.9c0.7,0.2,1.1,0.9,0.9,1.6c-0.6,2.2-1.1,4.4-1.6,6.7
			C8.5,189.3,8,189.7,7.4,189.7z M476.5,182.4c-0.6,0-1.1-0.4-1.2-1c-0.6-2.2-1.2-4.4-1.8-6.6c-0.2-0.7,0.2-1.4,0.9-1.6
			c0.7-0.2,1.4,0.2,1.6,0.9c0.7,2.2,1.3,4.5,1.9,6.7c0.2,0.7-0.2,1.4-0.9,1.6C476.8,182.4,476.6,182.4,476.5,182.4z M10.9,176.4
			c-0.1,0-0.2,0-0.4-0.1c-0.7-0.2-1.1-0.9-0.9-1.6c0.6-2.2,1.3-4.4,2-6.6c0.2-0.7,0.9-1,1.6-0.8c0.7,0.2,1,0.9,0.8,1.6
			c-0.7,2.2-1.4,4.4-2,6.6C11.9,176,11.4,176.4,10.9,176.4z M472.6,169.1c-0.5,0-1-0.3-1.2-0.9c-0.7-2.2-1.5-4.3-2.2-6.5
			c-0.2-0.7,0.1-1.4,0.8-1.6c0.7-0.2,1.4,0.1,1.6,0.8c0.8,2.2,1.5,4.4,2.2,6.6c0.2,0.7-0.1,1.4-0.8,1.6
			C472.9,169.1,472.8,169.1,472.6,169.1z M15.1,163.2c-0.1,0-0.3,0-0.4-0.1c-0.7-0.2-1-1-0.8-1.6c0.8-2.2,1.6-4.4,2.4-6.5
			c0.3-0.7,1-1,1.7-0.7c0.7,0.3,1,1,0.7,1.7c-0.8,2.1-1.6,4.3-2.4,6.5C16.1,162.9,15.6,163.2,15.1,163.2z M468,156.2
			c-0.5,0-1-0.3-1.2-0.8c-0.8-2.1-1.7-4.2-2.6-6.3c-0.3-0.7,0-1.4,0.7-1.7c0.7-0.3,1.4,0,1.7,0.7c0.9,2.1,1.8,4.3,2.6,6.4
			c0.3,0.7-0.1,1.4-0.7,1.7C468.3,156.1,468.1,156.2,468,156.2z M20.1,150.3c-0.2,0-0.3,0-0.5-0.1c-0.7-0.3-1-1-0.7-1.7
			c0.9-2.1,1.8-4.3,2.8-6.4c0.3-0.6,1.1-0.9,1.7-0.6c0.6,0.3,0.9,1.1,0.6,1.7c-0.9,2.1-1.9,4.2-2.8,6.3
			C21.1,150,20.6,150.3,20.1,150.3z M462.6,143.5c-0.5,0-1-0.3-1.2-0.8c-1-2.1-1.9-4.1-2.9-6.2c-0.3-0.6-0.1-1.4,0.6-1.7
			c0.6-0.3,1.4-0.1,1.7,0.6c1,2.1,2,4.2,3,6.2c0.3,0.6,0,1.4-0.6,1.7C463,143.5,462.8,143.5,462.6,143.5z M25.9,137.7
			c-0.2,0-0.4,0-0.6-0.1c-0.6-0.3-0.9-1.1-0.6-1.7c1-2.1,2.1-4.2,3.2-6.2c0.3-0.6,1.1-0.9,1.7-0.5c0.6,0.3,0.9,1.1,0.5,1.7
			c-1.1,2-2.1,4.1-3.1,6.1C26.8,137.5,26.3,137.7,25.9,137.7z M456.5,131.2c-0.5,0-0.9-0.2-1.1-0.7c-1.1-2-2.2-4-3.3-6
			c-0.4-0.6-0.1-1.4,0.5-1.8c0.6-0.4,1.4-0.1,1.8,0.5c1.1,2,2.3,4,3.3,6.1c0.3,0.6,0.1,1.4-0.5,1.7
			C456.9,131.1,456.7,131.2,456.5,131.2z M32.3,125.5c-0.2,0-0.4-0.1-0.6-0.2c-0.6-0.4-0.8-1.1-0.5-1.8c1.1-2,2.3-4,3.5-6
			c0.4-0.6,1.2-0.8,1.8-0.4c0.6,0.4,0.8,1.2,0.4,1.8c-1.2,2-2.3,4-3.5,5.9C33.2,125.3,32.8,125.5,32.3,125.5z M449.7,119.2
			c-0.4,0-0.9-0.2-1.1-0.6c-1.2-1.9-2.4-3.9-3.6-5.8c-0.4-0.6-0.2-1.4,0.4-1.8c0.6-0.4,1.4-0.2,1.8,0.4c1.2,1.9,2.5,3.9,3.7,5.9
			c0.4,0.6,0.2,1.4-0.4,1.8C450.2,119.1,449.9,119.2,449.7,119.2z M39.5,113.7c-0.2,0-0.5-0.1-0.7-0.2c-0.6-0.4-0.8-1.2-0.4-1.8
			c1.2-1.9,2.5-3.9,3.8-5.8c0.4-0.6,1.2-0.7,1.8-0.3c0.6,0.4,0.7,1.2,0.3,1.8c-1.3,1.9-2.6,3.8-3.8,5.7
			C40.3,113.5,39.9,113.7,39.5,113.7z M442.2,107.6c-0.4,0-0.8-0.2-1.1-0.6c-1.3-1.9-2.6-3.8-4-5.6c-0.4-0.6-0.3-1.4,0.3-1.8
			c0.6-0.4,1.4-0.3,1.8,0.3c1.4,1.9,2.7,3.8,4,5.7c0.4,0.6,0.3,1.4-0.3,1.8C442.7,107.5,442.5,107.6,442.2,107.6z M47.3,102.3
			c-0.3,0-0.5-0.1-0.8-0.2c-0.6-0.4-0.7-1.2-0.3-1.8c1.4-1.9,2.8-3.7,4.2-5.6c0.4-0.6,1.2-0.7,1.8-0.2c0.6,0.4,0.7,1.2,0.2,1.8
			c-1.4,1.8-2.8,3.7-4.1,5.5C48.1,102.1,47.7,102.3,47.3,102.3z M434.1,96.5c-0.4,0-0.8-0.2-1-0.5c-1.4-1.8-2.8-3.6-4.3-5.4
			c-0.5-0.6-0.4-1.4,0.2-1.8c0.6-0.5,1.4-0.4,1.8,0.2c1.5,1.8,2.9,3.6,4.3,5.4c0.4,0.6,0.3,1.4-0.2,1.8
			C434.7,96.4,434.4,96.5,434.1,96.5z M55.7,91.4c-0.3,0-0.6-0.1-0.8-0.3c-0.6-0.5-0.6-1.3-0.2-1.8c1.5-1.8,3-3.6,4.5-5.3
			c0.5-0.5,1.3-0.6,1.8-0.1c0.5,0.5,0.6,1.3,0.1,1.8c-1.5,1.7-3,3.5-4.4,5.3C56.4,91.2,56.1,91.4,55.7,91.4z M425.4,85.8
			c-0.4,0-0.7-0.2-1-0.4c-1.5-1.7-3-3.4-4.6-5.1c-0.5-0.5-0.4-1.3,0.1-1.8c0.5-0.5,1.3-0.4,1.8,0.1c1.6,1.7,3.1,3.4,4.6,5.2
			c0.5,0.5,0.4,1.4-0.1,1.8C426,85.7,425.7,85.8,425.4,85.8z M64.7,80.9c-0.3,0-0.6-0.1-0.9-0.3c-0.5-0.5-0.6-1.3-0.1-1.8
			c1.6-1.7,3.2-3.4,4.8-5c0.5-0.5,1.3-0.5,1.8,0c0.5,0.5,0.5,1.3,0,1.8c-1.6,1.6-3.2,3.3-4.7,5C65.4,80.8,65.1,80.9,64.7,80.9z
			 M416,75.7c-0.3,0-0.7-0.1-0.9-0.4c-1.6-1.6-3.2-3.3-4.9-4.8c-0.5-0.5-0.5-1.3,0-1.8c0.5-0.5,1.3-0.5,1.8,0
			c1.6,1.6,3.3,3.2,4.9,4.9c0.5,0.5,0.5,1.3,0,1.8C416.7,75.5,416.3,75.7,416,75.7z M74.4,71c-0.3,0-0.7-0.1-0.9-0.4
			c-0.5-0.5-0.5-1.3,0-1.8c1.6-1.6,3.3-3.2,5-4.8c0.5-0.5,1.3-0.4,1.8,0.1c0.5,0.5,0.4,1.3-0.1,1.8c-1.7,1.5-3.4,3.1-5,4.7
			C75,70.9,74.7,71,74.4,71z M406.1,66c-0.3,0-0.6-0.1-0.9-0.3c-1.7-1.5-3.4-3.1-5.1-4.6c-0.5-0.5-0.6-1.3-0.1-1.8
			c0.5-0.5,1.3-0.6,1.8-0.1c1.7,1.5,3.5,3.1,5.2,4.6c0.5,0.5,0.6,1.3,0.1,1.8C406.8,65.9,406.5,66,406.1,66z M84.5,61.7
			c-0.4,0-0.7-0.2-1-0.4c-0.5-0.5-0.4-1.4,0.1-1.8c1.7-1.5,3.5-3,5.3-4.5c0.6-0.5,1.4-0.4,1.8,0.2c0.5,0.6,0.4,1.4-0.2,1.8
			c-1.8,1.4-3.5,2.9-5.2,4.4C85.1,61.6,84.8,61.7,84.5,61.7z M395.7,57c-0.3,0-0.6-0.1-0.8-0.3c-1.8-1.4-3.6-2.9-5.4-4.3
			c-0.6-0.4-0.7-1.2-0.2-1.8c0.4-0.6,1.2-0.7,1.8-0.2c1.8,1.4,3.7,2.9,5.4,4.3c0.6,0.5,0.6,1.3,0.2,1.8C396.4,56.8,396,57,395.7,57z
			 M95.2,52.9c-0.4,0-0.8-0.2-1-0.5c-0.4-0.6-0.3-1.4,0.2-1.8c1.8-1.4,3.7-2.8,5.5-4.2c0.6-0.4,1.4-0.3,1.8,0.3
			c0.4,0.6,0.3,1.4-0.3,1.8c-1.8,1.3-3.7,2.7-5.5,4.1C95.7,52.9,95.5,52.9,95.2,52.9z M384.7,48.6c-0.3,0-0.5-0.1-0.8-0.2
			c-1.8-1.3-3.7-2.7-5.6-4c-0.6-0.4-0.7-1.2-0.3-1.8c0.4-0.6,1.2-0.7,1.8-0.3c1.9,1.3,3.8,2.6,5.7,4c0.6,0.4,0.7,1.2,0.3,1.8
			C385.5,48.4,385.1,48.6,384.7,48.6z M106.3,44.8c-0.4,0-0.8-0.2-1.1-0.6c-0.4-0.6-0.3-1.4,0.3-1.8c1.9-1.3,3.8-2.6,5.8-3.8
			c0.6-0.4,1.4-0.2,1.8,0.4c0.4,0.6,0.2,1.4-0.4,1.8c-1.9,1.2-3.8,2.5-5.7,3.8C106.8,44.8,106.6,44.8,106.3,44.8z M373.3,40.8
			c-0.2,0-0.5-0.1-0.7-0.2c-1.9-1.2-3.9-2.5-5.8-3.6c-0.6-0.4-0.8-1.2-0.4-1.8c0.4-0.6,1.2-0.8,1.8-0.4c2,1.2,4,2.4,5.9,3.7
			c0.6,0.4,0.8,1.2,0.4,1.8C374.2,40.6,373.8,40.8,373.3,40.8z M117.9,37.4c-0.4,0-0.9-0.2-1.1-0.6c-0.4-0.6-0.2-1.4,0.4-1.8
			c2-1.2,4-2.4,6-3.5c0.6-0.4,1.4-0.1,1.8,0.5c0.4,0.6,0.1,1.4-0.5,1.8c-2,1.1-4,2.3-5.9,3.5C118.4,37.3,118.1,37.4,117.9,37.4z
			 M361.5,33.6c-0.2,0-0.4-0.1-0.6-0.2c-2-1.1-4-2.2-6-3.3c-0.6-0.3-0.9-1.1-0.5-1.7c0.3-0.6,1.1-0.9,1.7-0.5c2,1.1,4.1,2.2,6.1,3.3
			c0.6,0.3,0.8,1.1,0.5,1.8C362.4,33.4,361.9,33.6,361.5,33.6z M129.9,30.6c-0.5,0-0.9-0.2-1.1-0.7c-0.3-0.6-0.1-1.4,0.5-1.7
			c2-1.1,4.1-2.1,6.2-3.2c0.6-0.3,1.4-0.1,1.7,0.6c0.3,0.6,0.1,1.4-0.6,1.7c-2,1-4.1,2.1-6.1,3.1C130.3,30.5,130.1,30.6,129.9,30.6z
			 M349.3,27.2c-0.2,0-0.4,0-0.6-0.1c-2-1-4.1-2-6.2-2.9c-0.6-0.3-0.9-1.1-0.6-1.7c0.3-0.6,1.1-0.9,1.7-0.6c2.1,1,4.2,2,6.3,3
			c0.6,0.3,0.9,1.1,0.6,1.7C350.2,26.9,349.7,27.2,349.3,27.2z M142.2,24.5c-0.5,0-1-0.3-1.2-0.8c-0.3-0.6,0-1.4,0.6-1.7
			c2.1-1,4.2-1.9,6.3-2.8c0.7-0.3,1.4,0,1.7,0.7c0.3,0.7,0,1.4-0.7,1.7c-2.1,0.9-4.2,1.8-6.3,2.8C142.6,24.4,142.4,24.5,142.2,24.5z
			 M336.7,21.5c-0.2,0-0.3,0-0.5-0.1c-2.1-0.9-4.3-1.8-6.4-2.6c-0.7-0.3-1-1-0.7-1.7c0.3-0.7,1-1,1.7-0.7c2.2,0.8,4.3,1.7,6.4,2.6
			c0.7,0.3,1,1,0.7,1.7C337.7,21.2,337.2,21.5,336.7,21.5z M154.9,19.1c-0.5,0-1-0.3-1.2-0.8c-0.3-0.7,0.1-1.4,0.7-1.7
			c2.1-0.8,4.3-1.7,6.5-2.4c0.7-0.2,1.4,0.1,1.6,0.8c0.2,0.7-0.1,1.4-0.8,1.6c-2.1,0.8-4.3,1.6-6.4,2.4
			C155.2,19.1,155,19.1,154.9,19.1z M323.8,16.5c-0.1,0-0.3,0-0.4-0.1c-2.2-0.8-4.3-1.5-6.5-2.2c-0.7-0.2-1.1-0.9-0.8-1.6
			c0.2-0.7,0.9-1.1,1.6-0.8c2.2,0.7,4.4,1.5,6.6,2.2c0.7,0.2,1,1,0.8,1.6C324.8,16.1,324.3,16.5,323.8,16.5z M167.9,14.4
			c-0.5,0-1-0.3-1.2-0.9c-0.2-0.7,0.1-1.4,0.8-1.6c2.2-0.7,4.4-1.4,6.6-2.1c0.7-0.2,1.4,0.2,1.6,0.9c0.2,0.7-0.2,1.4-0.9,1.6
			c-2.2,0.6-4.4,1.3-6.6,2C168.1,14.4,168,14.4,167.9,14.4z M310.6,12.2c-0.1,0-0.2,0-0.4-0.1c-2.2-0.6-4.4-1.2-6.6-1.8
			c-0.7-0.2-1.1-0.9-0.9-1.6c0.2-0.7,0.9-1.1,1.6-0.9c2.2,0.6,4.5,1.2,6.7,1.8c0.7,0.2,1.1,0.9,0.9,1.6
			C311.7,11.8,311.2,12.2,310.6,12.2z M181.1,10.5c-0.6,0-1.1-0.4-1.2-1c-0.2-0.7,0.2-1.4,0.9-1.6c2.2-0.6,4.5-1.1,6.7-1.7
			c0.7-0.2,1.4,0.3,1.5,1c0.2,0.7-0.3,1.4-1,1.5c-2.2,0.5-4.5,1.1-6.7,1.7C181.3,10.5,181.2,10.5,181.1,10.5z M297.3,8.7
			c-0.1,0-0.2,0-0.3,0c-2.2-0.5-4.5-1-6.7-1.4c-0.7-0.1-1.2-0.8-1-1.5c0.1-0.7,0.8-1.2,1.5-1c2.3,0.4,4.5,0.9,6.8,1.5
			c0.7,0.2,1.1,0.9,1,1.5C298.4,8.3,297.9,8.7,297.3,8.7z M194.5,7.4c-0.6,0-1.1-0.4-1.3-1c-0.1-0.7,0.3-1.4,1-1.5
			c2.3-0.5,4.6-0.9,6.8-1.3c0.7-0.1,1.4,0.3,1.5,1.1c0.1,0.7-0.3,1.4-1.1,1.5c-2.2,0.4-4.5,0.8-6.7,1.3
			C194.7,7.4,194.6,7.4,194.5,7.4z M283.7,6c-0.1,0-0.1,0-0.2,0c-2.2-0.4-4.5-0.7-6.8-1.1c-0.7-0.1-1.2-0.8-1.1-1.5
			c0.1-0.7,0.8-1.2,1.5-1.1c2.3,0.3,4.6,0.7,6.9,1.1c0.7,0.1,1.2,0.8,1.1,1.5C284.9,5.6,284.4,6,283.7,6z M208.1,5.1
			c-0.6,0-1.2-0.5-1.3-1.1c-0.1-0.7,0.4-1.4,1.1-1.5c2.3-0.3,4.6-0.6,6.9-0.9c0.7-0.1,1.3,0.4,1.4,1.1c0.1,0.7-0.4,1.3-1.1,1.4
			c-2.3,0.3-4.6,0.6-6.8,0.9C208.3,5.1,208.2,5.1,208.1,5.1z M270.1,4.1c0,0-0.1,0-0.1,0c-2.3-0.3-4.6-0.5-6.8-0.7
			c-0.7-0.1-1.2-0.7-1.2-1.4c0.1-0.7,0.7-1.2,1.4-1.2c2.3,0.2,4.6,0.4,6.9,0.7c0.7,0.1,1.2,0.7,1.1,1.4
			C271.3,3.6,270.7,4.1,270.1,4.1z M221.8,3.5c-0.7,0-1.2-0.5-1.3-1.2c-0.1-0.7,0.5-1.3,1.2-1.4c2.3-0.2,4.6-0.4,6.9-0.5
			c0.7,0,1.3,0.5,1.4,1.2c0,0.7-0.5,1.3-1.2,1.4c-2.3,0.1-4.6,0.3-6.8,0.5C221.9,3.5,221.9,3.5,221.8,3.5z M256.3,2.9
			C256.3,2.9,256.3,2.9,256.3,2.9c-2.3-0.1-4.6-0.2-6.9-0.3c-0.7,0-1.3-0.6-1.3-1.3c0-0.7,0.6-1.3,1.3-1.3c2.3,0.1,4.6,0.2,6.9,0.3
			c0.7,0,1.3,0.6,1.2,1.4C257.6,2.4,257,2.9,256.3,2.9z M235.6,2.7c-0.7,0-1.3-0.6-1.3-1.3c0-0.7,0.5-1.3,1.3-1.3
			c2.3-0.1,4.6-0.1,6.9-0.1c0,0,0,0,0,0c0.7,0,1.3,0.6,1.3,1.3c0,0.7-0.6,1.3-1.3,1.3C240.3,2.6,237.9,2.6,235.6,2.7
			C235.6,2.7,235.6,2.7,235.6,2.7z"/>
	</g>
</g>
</svg>
