<?xml version="1.0" encoding="utf-8"?>
<!-- Generator: Adobe Illustrator 25.3.0, SVG Export Plug-In . SVG Version: 6.00 Build 0)  -->
<svg version="1.1" xmlns="http://www.w3.org/2000/svg" xmlns:xlink="http://www.w3.org/1999/xlink" x="0px" y="0px"
	 viewBox="0 0 500 500" style="enable-background:new 0 0 500 500;" xml:space="preserve">
<style type="text/css">
	.st0{fill:#FFFFFF;}
	.st1{fill:#EAF9F8;}
	.st2{fill:#E03C03;}
	.st3{fill:#FF6224;}
	.st4{fill:#FFC947;}
	.st5{fill:#20C3C5;}
	.st6{fill:#383873;}
	.st7{fill:#86BFBC;}
	.st8{fill:#B8E3E2;}
	.st9{fill:#9FCCC9;}
	.st10{opacity:0.15;fill:none;stroke:#000000;stroke-width:0.8185;stroke-linecap:round;stroke-miterlimit:10;}
	.st11{fill:#382424;}
	.st12{fill:#FFAD94;}
	.st13{opacity:0.25;}
	.st14{fill:#0C2059;}
	.st15{fill:#2E4780;}
	.st16{opacity:0.15;}
	.st17{fill:#169799;}
	.st18{fill:none;stroke:#000000;stroke-width:0.8185;stroke-linecap:round;stroke-miterlimit:10;}
	.st19{fill:none;stroke:#000000;stroke-width:0.8185;stroke-linecap:round;stroke-miterlimit:10;stroke-dasharray:4.1525,4.1525;}
	.st20{opacity:0.53;}
</style>
<g id="BACKGROUND">
	<rect class="st0" width="500" height="500"/>
</g>
<g id="OBJECTS">
	<g>
		<path class="st1" d="M89.2,232.3c23.3,34.9,73.2,143,60.9,183.2l178.7,0c0,0,25.8-19.2,50.9-52.7c4.6-6.1,9.1-12.6,13.4-19.6
			c4.6-7.4,9-15.3,13-23.6c11.6-24.2,19.9-52.3,20.3-83.3c1.2-107.4-91.7-207.1-218.1-166.9C82,109.7,65.9,197.3,89.2,232.3z"/>
		<g>
			<g>
				<path class="st2" d="M201.1,416.7c0.4,0,0.7-0.2,1-0.5l95.3-118.5c0.4-0.5,0.3-1.3-0.2-1.7c-0.5-0.4-1.3-0.3-1.7,0.2
					l-95.3,118.5c-0.4,0.5-0.3,1.3,0.2,1.7C200.5,416.6,200.8,416.7,201.1,416.7z"/>
			</g>
			<g>
				<path class="st3" d="M348.9,416.7c0.3,0,0.5-0.1,0.8-0.3c0.5-0.4,0.6-1.2,0.2-1.7l-95.3-118.5c-0.4-0.5-1.2-0.6-1.7-0.2
					c-0.5,0.4-0.6,1.2-0.2,1.7l95.3,118.5C348.2,416.5,348.5,416.7,348.9,416.7z"/>
			</g>
			<g>
				<path class="st3" d="M253.6,416.7c0.4,0,0.7-0.2,1-0.5l95.3-118.5c0.4-0.5,0.3-1.3-0.2-1.7c-0.5-0.4-1.3-0.3-1.7,0.2
					l-95.3,118.5c-0.4,0.5-0.3,1.3,0.2,1.7C253,416.6,253.3,416.7,253.6,416.7z"/>
			</g>
			<path class="st2" d="M332,300.1h44.3c1.7,0,3.1-1.4,3.1-3.1l0,0c0-1.7-1.4-3.1-3.1-3.1H332c-1.7,0-3.1,1.4-3.1,3.1l0,0
				C328.9,298.7,330.3,300.1,332,300.1z"/>
			<path class="st3" d="M204.6,300.1h126.5c1.7,0,3.1-1.4,3.1-3.1l0,0c0-1.7-1.4-3.1-3.1-3.1H204.6V300.1z"/>
			<g>
				<path class="st2" d="M297.8,356.2c0,1.9,1.5,3.4,3.4,3.4c1.9,0,3.4-1.5,3.4-3.4c0-1.9-1.5-3.4-3.4-3.4
					C299.3,352.8,297.8,354.3,297.8,356.2z"/>
			</g>
			<path class="st4" d="M245.3,356.2c0,1.9,1.5,3.4,3.4,3.4c1.9,0,3.4-1.5,3.4-3.4c0-1.9-1.5-3.4-3.4-3.4
				C246.8,352.8,245.3,354.3,245.3,356.2z"/>
		</g>
		<g>
			<path class="st5" d="M291,199.9h44.6c2.2,0,4-1.8,4-4v-33.2c0-2.2-1.8-4-4-4H291c-2.2,0-4,1.8-4,4v33.2
				C287,198.1,288.8,199.9,291,199.9z"/>
			<path class="st0" d="M300.6,178.2v2.5c0,0.7,0.6,1.2,1.2,1.2h1.5c0.2,1,0.6,1.9,1.1,2.8l-1,1c-0.5,0.5-0.5,1.3,0,1.8l1.8,1.8
				c0.5,0.5,1.3,0.5,1.8,0l1-1c0.9,0.5,1.8,0.9,2.8,1.1v1.3c0,0.7,0.6,1.2,1.2,1.2h2.5c0.7,0,1.2-0.6,1.2-1.2v-1.4
				c1-0.3,1.9-0.7,2.7-1.2l1,1c0.5,0.5,1.3,0.5,1.8,0l1.8-1.8c0.5-0.5,0.5-1.3,0-1.8l-1.2-1.2c0.4-0.8,0.8-1.7,1-2.7h1.7
				c0.7,0,1.2-0.6,1.2-1.2V178c0-0.7-0.6-1.2-1.2-1.2h-1.9c-0.3-0.8-0.6-1.6-1.1-2.4l1.4-1.4c0.5-0.5,0.5-1.3,0-1.8l-1.8-1.8
				c-0.5-0.5-1.3-0.5-1.8,0l-1.5,1.5c-0.7-0.4-1.5-0.7-2.3-0.9v-2.1c0-0.7-0.6-1.2-1.2-1.2h-2.5c-0.7,0-1.2,0.6-1.2,1.2v2
				c-0.8,0.2-1.6,0.5-2.4,1l-1.4-1.4c-0.5-0.5-1.3-0.5-1.8,0l-1.8,1.8c-0.5,0.5-0.5,1.3,0,1.8l1.3,1.3c-0.5,0.8-0.9,1.6-1.1,2.5
				h-1.7C301.2,176.9,300.6,177.5,300.6,178.2z M306.9,180.9c-0.9-4.5,3-8.4,7.5-7.5c2.5,0.5,4.5,2.5,5,5c0.9,4.5-3,8.4-7.5,7.5
				C309.4,185.5,307.4,183.4,306.9,180.9z"/>
		</g>
		<g>
			<path class="st3" d="M223.8,177.2h44.6c2.2,0,4-1.8,4-4V140c0-2.2-1.8-4-4-4h-44.6c-2.2,0-4,1.8-4,4v33.2
				C219.9,175.4,221.6,177.2,223.8,177.2z"/>
			<g>
				<g>
					<g>
						<path class="st0" d="M255,163.5c0.3,0,0.6-0.1,0.9-0.4l5.5-5.9c0.5-0.5,0.5-1.3,0-1.9l-5.6-6c-0.5-0.5-1.3-0.5-1.7,0
							c-0.5,0.5-0.5,1.3,0,1.9l4.8,5.1l-4.7,5c-0.5,0.5-0.5,1.3,0,1.9C254.4,163.4,254.7,163.5,255,163.5z"/>
					</g>
					<g>
						<path class="st0" d="M237.3,163.5c0.3,0,0.6-0.1,0.9-0.4c0.5-0.5,0.5-1.3,0-1.9l-4.7-5l4.8-5.1c0.5-0.5,0.5-1.3,0-1.9
							c-0.5-0.5-1.3-0.5-1.7,0l-5.6,6c-0.2,0.2-0.4,0.6-0.4,0.9c0,0.3,0.1,0.7,0.4,0.9l5.5,5.9C236.6,163.4,237,163.5,237.3,163.5z"
							/>
					</g>
				</g>
				<g>
					<path class="st0" d="M248.9,165.1c0.2,0,0.3,0,0.5-0.1c0.6-0.3,0.9-1,0.7-1.7l-5.5-14.5c-0.3-0.7-1-1-1.6-0.7
						c-0.6,0.3-0.9,1-0.7,1.7l5.5,14.5C248,164.8,248.4,165.1,248.9,165.1z"/>
				</g>
			</g>
		</g>
		<g>
			<g>
				<path class="st0" d="M183.6,185.1h110.7v-3.4c0-0.9-0.7-1.7-1.7-1.7H185.2c-0.9,0-1.7,0.7-1.7,1.7V185.1z"/>
				<path class="st6" d="M186.7,244.1h104.5c1.7,0,3.1-1.4,3.1-3.1v-55.9H183.6V241C183.6,242.7,185,244.1,186.7,244.1z"/>
				<g>
					<g>
						<path class="st3" d="M188.9,182.6c0,0.4,0.3,0.8,0.8,0.8s0.8-0.3,0.8-0.8c0-0.4-0.3-0.8-0.8-0.8S188.9,182.1,188.9,182.6z"/>
						<path class="st3" d="M194.2,182.6c0,0.4,0.3,0.8,0.8,0.8c0.4,0,0.8-0.3,0.8-0.8c0-0.4-0.3-0.8-0.8-0.8
							C194.6,181.8,194.2,182.1,194.2,182.6z"/>
						<path class="st3" d="M199.6,182.6c0,0.4,0.3,0.8,0.8,0.8c0.4,0,0.8-0.3,0.8-0.8c0-0.4-0.3-0.8-0.8-0.8
							C199.9,181.8,199.6,182.1,199.6,182.6z"/>
					</g>
				</g>
				<path class="st5" d="M227.1,193.1h61.5c0.6,0,1.1-0.5,1.1-1.1l0,0c0-0.6-0.5-1.1-1.1-1.1h-61.5c-0.6,0-1.1,0.5-1.1,1.1l0,0
					C226,192.6,226.5,193.1,227.1,193.1z"/>
				<path class="st5" d="M227.1,199.9h61.5c0.6,0,1.1-0.5,1.1-1.1l0,0c0-0.6-0.5-1.1-1.1-1.1h-61.5c-0.6,0-1.1,0.5-1.1,1.1l0,0
					C226,199.4,226.5,199.9,227.1,199.9z"/>
				<path class="st5" d="M256.4,206.7h32.1c0.6,0,1.1-0.5,1.1-1.1l0,0c0-0.6-0.5-1.1-1.1-1.1h-32.1c-0.6,0-1.1,0.5-1.1,1.1l0,0
					C255.3,206.2,255.8,206.7,256.4,206.7z"/>
				<path class="st3" d="M227.1,220.3h61.5c0.6,0,1.1-0.5,1.1-1.1l0,0c0-0.6-0.5-1.1-1.1-1.1h-61.5c-0.6,0-1.1,0.5-1.1,1.1l0,0
					C226,219.8,226.5,220.3,227.1,220.3z"/>
				<path class="st3" d="M256.4,227.1h32.1c0.6,0,1.1-0.5,1.1-1.1l0,0c0-0.6-0.5-1.1-1.1-1.1h-32.1c-0.6,0-1.1,0.5-1.1,1.1l0,0
					C255.3,226.6,255.8,227.1,256.4,227.1z"/>
				<path class="st5" d="M256.4,233.9h32.1c0.6,0,1.1-0.5,1.1-1.1l0,0c0-0.6-0.5-1.1-1.1-1.1h-32.1c-0.6,0-1.1,0.5-1.1,1.1l0,0
					C255.3,233.4,255.8,233.9,256.4,233.9z"/>
				<path class="st0" d="M227.1,206.7h23.1c0.6,0,1.1-0.5,1.1-1.1l0,0c0-0.6-0.5-1.1-1.1-1.1h-23.1c-0.6,0-1.1,0.5-1.1,1.1l0,0
					C226,206.2,226.5,206.7,227.1,206.7z"/>
				<path class="st3" d="M196.6,191.4l16.3,16.3c0.4,0.4,1.1,0.4,1.5,0l0,0c0.4-0.4,0.4-1.1,0-1.5l-16.3-16.3
					c-0.4-0.4-1.1-0.4-1.5,0l0,0C196.1,190.3,196.1,191,196.6,191.4z"/>
				
					<ellipse transform="matrix(0.973 -0.2307 0.2307 0.973 -45.7371 53.3995)" class="st3" cx="205.5" cy="222.3" rx="9.6" ry="9.6"/>
				<path class="st5" d="M206.7,229c0,3,2.4,5.5,5.5,5.5c3,0,5.5-2.4,5.5-5.5c0-3-2.4-5.5-5.5-5.5C209.2,223.5,206.7,226,206.7,229z
					"/>
			</g>
			<polyline class="st6" points="294.3,238.1 294.3,257.6 276.4,239.7 			"/>
		</g>
		<g>
			<polygon class="st7" points="313.3,262.8 274,262.8 259.8,290.2 299.1,290.2 			"/>
			<path class="st0" d="M298.3,288.2l11.8-22.6c0.2-0.5-0.1-1-0.6-1h-34c-0.3,0-0.5,0.1-0.6,0.4l-11.8,22.6c-0.2,0.5,0.1,1,0.6,1h34
				C297.9,288.5,298.2,288.4,298.3,288.2z"/>
			
				<rect x="267.3" y="290.2" transform="matrix(-1 -4.490420e-11 4.490420e-11 -1 566.408 583.9956)" class="st8" width="31.8" height="3.6"/>
			<path class="st9" d="M240,290.2h31.4c1,0,1.8,0.8,1.8,1.8l0,0c0,1-0.8,1.8-1.8,1.8H240c-1,0-1.8-0.8-1.8-1.8l0,0
				C238.2,291,239,290.2,240,290.2z"/>
			<path class="st8" d="M299.1,290.2l14.2-27.3l0.7,0.5c0.5,0.3,0.6,1,0.3,1.5l-15.2,29V290.2z"/>
			
				<rect x="284.8" y="291.9" transform="matrix(-1 -4.468527e-11 4.468527e-11 -1 573.1179 584.3597)" class="st9" width="3.5" height="0.6"/>
			
				<rect x="280.4" y="291.9" transform="matrix(-1 -4.468482e-11 4.468482e-11 -1 564.3173 584.3597)" class="st9" width="3.5" height="0.6"/>
			
				<rect x="276" y="291.9" transform="matrix(-1 -4.520485e-11 4.520485e-11 -1 555.5167 584.3597)" class="st9" width="3.5" height="0.6"/>
		</g>
		<g>
			<path class="st6" d="M227.5,343.7c0,0,32.6,25.4,37.7,31.8c1.9,2.4,5.3,6.7,8.9,11.1c5.8,7.2,11.9,14.7,12.6,14.9
				c1.2,0.3,10.9-7.1,11.2-8.7c0.2-1-8.7-16.3-16.4-28.5c-4.7-7.5-8.9-13.8-10.4-15.2c-3.9-3.7-28.2-16.5-28.2-16.5L227.5,343.7z"/>
			<path class="st10" d="M289.7,396c0,0-30.4-43.3-45.7-50.6"/>
			<path class="st11" d="M193.6,232.5c0.3,0.8,0.7,1.6,1.2,2.4c2.4,4.6,0.6,9.1,3.3,10.3c0.2,0.1,0.3,0.1,0.5,0.2
				c3.5,0.8,11.6-3.9,11.9-6.2c0.4-2.3-2.5-6.3,0-6.8c2.5-0.5,3.8,3.7,3.8,3.7c2,0.2,2.8-3.2,6.1-3.2c0.5,0,0.9,0.1,1.4,0.2
				c1.6,0.4,3,1.4,3.8,2.1c0.7,0.5,1,1,1,1s3-1.9,2.8-5.6c-0.2-5.9-2.4-10.2-7.7-11.1c-0.6-6.6-6-10.1-13.2-10.3
				c-6.3-0.2-7.3,5.5-7.4,6.9c0.1-1.1,0.4-4.5,1.9-6.9c-3.2-0.1-6,2.1-5.2,9.5c-0.7-2.2-3.3-3.6-5.2-2c1.8,0,3.6,3.1,3.6,3.1
				s-2.1,1.4-3.6,3.9C191.5,225.7,192,228.7,193.6,232.5z"/>
			<path class="st12" d="M198.1,245.2l0.1,1.1l0.3,3.8c0,0,5.8,5,9.1,0c0,0,0-0.1,0.1-0.1c1-1.5,1.9-2.1,2.8-2.2
				c1.8-0.2,3.3,1.6,4.8-0.4c4.4-5.5,6.1-11.9,6.6-14.5c-0.5-0.1-0.9-0.2-1.4-0.2c-3.4,0-4.1,3.4-6.1,3.2c0,0-1.3-4.2-3.8-3.7
				c-2.5,0.5,0.4,4.5,0,6.8c-0.2,1-1.8,2.5-4,3.8c-2.5,1.5-5.6,2.7-7.6,2.5c-0.1,0-0.2,0-0.4-0.1
				C198.4,245.3,198.3,245.2,198.1,245.2z"/>
			<path class="st13" d="M197.2,252.3c2.6,1.8,7.4,2.1,7.4,2.1l3.9-0.6c0,0,1.6-2.4,0.9-3.7c-0.1-0.3-0.5-0.6-1-1
				c-1.1-0.9-2.8-2-4.5-2.9c-1.8-0.9-3.7-1.7-5-1.8C195.5,244.2,194.6,250.5,197.2,252.3z"/>
			<path class="st5" d="M198,316.1c5.9,1.1,18.3-2.3,24.2-5c1.8-0.8,2.9-1.5,3.2-2c1.1-2,0-3.5-2.8-9.9c-0.3-0.7-0.7-1.5-1-2.3
				c-1.9-4.5-1.9-14.1-1.9-22.4c0-7.1,0.1-13.2-1.1-14.3c-2.4-2.4-14.7-10.1-14.7-10.1l-2.4,12.7c0,0-1.4,6.4-2.8,14.8
				C196,293,193,315.2,198,316.1z"/>
			<path class="st6" d="M193.9,321.8c0,0.6,5.8,14.2,10.7,16.1c4.9,1.9,34.4-0.2,34.4-0.2l14.6,9.5l-3.1,28.7l-2.1,20l-0.1,0.6
				c4.5,2.9,15.7,3.7,16.9,1.2c0,0,0,0,0,0c1.2-2.5,19.1-56.4,12.1-65.7c-7-9.3-51.9-23-51.9-23c-1.2,0.7-2.5,1.4-4,2
				c-5,2-11.3,3.3-16.2,4.1c-1.9,0.3-3.5,0.5-4.7,0.6c-1.6,0.2-2.5,0.3-2.5,0.3S193.9,321.2,193.9,321.8z"/>
			<path class="st14" d="M246.5,415.4h37.9c0.2-0.7-0.1-1.4-0.6-2c-1.5-1.8-5.4-3.7-9.1-5.3c-3.5-1.5-6.9-2.8-8.1-3.7
				c-2.7-2.1-1.4-6.2-1.4-6.5c-0.4,0.8-2,1.3-4,1.5c-4,0.3-10-0.7-12.9-2.6l0.1-0.6c-1.1,2.2-1.7,12.8-1.8,17.4
				C246.5,414.6,246.5,415.4,246.5,415.4z"/>
			<path class="st15" d="M261.3,399.3c0.1,1.8,0.4,4.7,0.9,5.5c0.8,1.2,9.1,5.3,10.3,4.9c0.8-0.2,1.7-1.1,2.2-1.6
				c-3.5-1.5-6.9-2.8-8.1-3.7c-2.7-2.1-1.4-6.2-1.4-6.5C264.8,398.7,263.3,399.2,261.3,399.3z"/>
			<path class="st15" d="M246.5,415.4h37.9c0.2-0.7-0.1-1.4-0.6-2h-37.2C246.5,414.6,246.5,415.4,246.5,415.4z"/>
			<path class="st14" d="M286.8,401.4c0,0,2.9,7.6,5.4,11.6c1,1.6,1.9,2.6,2.6,2.4c2.3-0.9,25.8-20.8,23.5-22.3
				c-0.3-0.2-0.9-0.4-1.5-0.4c-2-0.3-5.4,0-8.5,0.3c-2.7,0.3-5.2,0.6-6.5,0.6c-3.3,0-3.7-1-3.7-1c-0.1,0.4-0.7,1.1-1.6,2
				C293.5,397.4,287.6,401.6,286.8,401.4z"/>
			<path class="st15" d="M296.4,394.7c5,3.3,10.1,1.3,11.2,0.6c0.8-0.5,0.8-1.6,0.7-2.2c-2.7,0.3-5.2,0.6-6.5,0.6
				c-3.3,0-3.7-1-3.7-1C297.9,393.1,297.3,393.8,296.4,394.7z"/>
			<path class="st15" d="M292.1,413c1,1.6,1.9,2.6,2.6,2.4c2.3-0.9,25.8-20.8,23.5-22.3c-0.3-0.2-0.9-0.4-1.5-0.4L292.1,413z"/>
			<path class="st12" d="M222.1,291.3c1.8,2.6,5.1,6.4,7.8,6.1c0.1,0,0.2,0,0.3-0.1c5.2-0.9,35.5-8.5,36.9-8.8
				c1.5-0.3,11.7-0.4,11.1-1.5c-0.6-1.1-6.4-4.5-8-4.4c-1.6,0.1-7.7,1.9-13.8,1.7c-6.1-0.2-22.2,0-22.2,0l-0.8-1.3l-1.1-2
				C232.7,287,225.6,291.8,222.1,291.3z"/>
			<path class="st10" d="M222.1,313.5c0,0,1.4,7.4-4,9.9"/>
			<path class="st10" d="M225,319.4c0,0,36,15.4,37.8,20.1c1.7,4.8-9.2,56.4-9.2,56.4"/>
			<path class="st16" d="M193.9,321.8c0,0.6,5.8,14.2,10.7,16.1c4.9,1.9,34.4-0.2,34.4-0.2l14.6,9.5l-3.1,28.7c0,0,6.2-32.8,6.2-35
				c0-1.8-40.7-13.5-51.5-25.8c-4.2,0.7-7.3,0.9-7.3,0.9S193.9,321.2,193.9,321.8z"/>
			<path class="st13" d="M213.1,287c2.5,3.6,6.6,8.1,9.5,12.3c-0.3-0.7-0.7-1.5-1-2.3c-1.9-4.5-1.9-14.1-1.9-22.4l-8.7-5.8
				C210.9,268.7,209,281.2,213.1,287z"/>
			<path class="st17" d="M220.5,290.2c0.4,0.3,0.8,0.7,1.1,1c0.1,0,0.3,0.1,0.5,0.1c3.4,0.5,10.6-4.4,10.3-10.3
				c0-0.4-0.4-1.3-0.9-2.5c-2.9-5.9-11.7-19.1-13.4-18.5c0,0-5.7,0.9-7.2,8.6C209.5,275.9,214.7,284.8,220.5,290.2z"/>
			<path class="st13" d="M200.5,315.9c1.2-0.1,2.9-0.4,4.7-0.6c4.8-0.8,11.2-2,16.2-4.1c-4.4-0.2-13.8-3.1-15-24.6
				c-0.5,4-1.3,8.2-2.4,12.5C202.6,304.7,201.2,310.7,200.5,315.9z"/>
			<path class="st13" d="M202.8,244.7c0.5,0.5,0.8,1,1.1,1.4c1.8,0.9,3.5,2,4.5,2.9c0.7-0.8,1.4-1.1,2.1-1.2l-3.9-4.9
				C205.4,243.7,204.1,244.3,202.8,244.7z"/>
			<path class="st13" d="M222.1,291.3c1.8,2.6,5.1,6.4,7.8,6.1c0.1,0,0.2,0,0.3-0.1c3.3-4.8,3.5-11.2,3.3-14.3l-1.1-2
				C232.7,287,225.6,291.8,222.1,291.3z"/>
			<path class="st13" d="M193.6,232.5c0.3,0.8,0.7,1.6,1.2,2.4c1.2,2.2,1.3,4.5,1.5,6.3c0.4-0.3,0.8-0.6,1.2-0.8
				c2.5,1.5,4.2,3.1,5.3,4.4l0,0c3.6-1.3,7.5-4,7.8-5.6c0.4-2.3-2.5-6.3,0-6.8c2.5-0.5,3.8,3.7,3.8,3.7c2,0.2,2.8-3.2,6.1-3.2
				c0.5,0,0.9,0.1,1.4,0.2c1.6,0.4,3,1.4,3.8,2.1c0,0-3.8-5.3-9.7-4.2c0,0,0.9-1.7,4.9-1.5c-8.4-2.7-13.7-1.7-16.3,1.4
				C202.5,233.2,197.6,236.3,193.6,232.5z"/>
		</g>
		<g>
			<path class="st8" d="M176.6,347.3h29.2c0,0-23.1-6.8-23.1-52.7c0-0.6,0-1.2,0-1.8c0.2-30.7,6.8-47.6,14.9-52.4
				c-2.5-1.5-5.9-2.9-10.3-3.9c-1.9-0.4-4.1-0.8-6.4-1c-20-2-35.9,5.8-37.8,14.7C141,258.9,152.7,347.3,176.6,347.3z"/>
			<path class="st7" d="M182.6,294.6c0,45.9,23.1,52.7,23.1,52.7h47.8l-2-1.4l-12.6-8.1l-25.3-1.8c-1.4-5.6-5.1-5.8-10.7-6.4
				c-3.3-0.3-3.6-5.9-2.6-13.2c0.7-5.3,2.1-11.5,3.6-17.3c1.1-4.3,1.9-8.5,2.4-12.5c0.6-4.7,0.9-9.2,0.9-13.5
				c0.1-9.7-1.1-17.9-2.3-23.9c-0.1-0.6-0.2-1.1-0.4-1.7c0,0,0,0,0-0.1c-0.1-0.3-0.6-1.3-1.8-2.7l0,0c-1.1-1.3-2.8-2.8-5.3-4.4
				c-0.4,0.2-0.8,0.5-1.2,0.8c-7.5,5.7-13.4,22.5-13.7,51.6C182.6,293.4,182.6,294,182.6,294.6z"/>
			<path class="st8" d="M191.8,415.4h34.4c1.2,0,1.7-1.5,0.8-2.2l-8.6-6.7c-3.8-3-6.1-7.6-6.1-12.4v-46.8h-6.6V394
				c0,4.9-2.2,9.4-6.1,12.4l-8.6,6.7C190.1,413.9,190.7,415.4,191.8,415.4z"/>
			<g class="st13">
				<g>
					<path class="st18" d="M165.6,237.2c0,0-0.3,0.6-0.7,1.9"/>
					<path class="st19" d="M163.7,243.1c-1.2,4.4-2.7,11.2-3.9,20.5c-3.1,24.2,0,58.1,21.1,79.5"/>
					<path class="st18" d="M182.4,344.6c0.5,0.5,1,0.9,1.5,1.4"/>
				</g>
			</g>
			<path class="st16" d="M205.8,347.3V360c2.3,1.2,4.6,2.1,6.6,2.8v-15.6H205.8z"/>
			<path class="st16" d="M196.6,327.4c1.6,4.9,11.3,4,12.4,7.6c2.5,7.6,3.9,4.3,13.5,5.2c5.5,0.6,9.5,4.1,11.9,7h19.1l-2-1.4
				l-12.6-8.1l-25.3-1.8c-1.4-5.6-5.1-5.8-10.7-6.4c-3.3-0.3-3.6-5.9-2.6-13.2c0.7-5.3,2.1-11.5,3.6-17.3c1.1-4.3,1.9-8.5,2.4-12.5
				c0.6-4.7,0.9-9.2,0.9-13.5C203.6,292.5,195.5,323.8,196.6,327.4z"/>
			<path class="st16" d="M182.6,294.6c0-0.6,0-1.2,0-1.8c0.2-30.7,6.8-47.6,14.9-52.4c-2.5-1.5-5.9-2.9-10.3-3.9
				c1.3,1.9,2.7,4.8,2.1,7.9c-1.2,5.5-14.4,26.5-9.3,60.1c3.7,24.3,2.4,36.9-1.4,42.8h27.2C205.8,347.3,182.6,340.5,182.6,294.6z"/>
		</g>
		<path class="st13" d="M349.5,269.5c0,1.1,0.1,2.1,0.3,3h9.4c2.8-1.8,7.3-5.5,10-10.9c-2.5,2.7-6.8,6.1-11.2,7.1
			C354.2,269.6,351.4,269.2,349.5,269.5z"/>
		<g>
			<path class="st5" d="M327.7,232.3c1,3.8,5.9,11.2,10.2,19.1c4.8,8.6,9.1,17.9,7.4,23.7c-0.4,1.5-0.6,2.6-0.6,3.3
				c0,2.6,1.9,1.8,3.9,0.3c2-1.5,4-3.6,4-3.6l-0.1-11.4c0,0,6.4-5.9,1.2-18.9c-0.3-0.8-0.7-1.7-1.2-2.6
				c-7.3-14.7-18.2-30.2-7.9-34.6C330.4,206.8,325.6,224.3,327.7,232.3z"/>
			<g class="st20">
				<path d="M344.7,207.7c-2.7,0.6-5,2.4-6.4,4.7c-0.4,0.6-0.7,1.2-1,1.8c-0.2,0.6-0.5,1.3-0.7,1.9c-0.2,0.7-0.4,1.3-0.4,2l-0.2,1
					l0,1c0.1,2.7,1,5.3,1.9,7.9c1,2.5,2.1,5,3.3,7.5c2.3,4.9,4.9,9.8,7.1,14.8c1.1,2.5,2.2,5,3,7.7c0.4,1.3,0.7,2.7,0.9,4
					c0.2,1.4,0.2,2.8-0.3,4.2c-0.1,0.2-0.3,0.3-0.5,0.3c-0.2-0.1-0.3-0.3-0.3-0.5c0,0,0,0,0,0l0,0c0.4-1.2,0.4-2.5,0.3-3.9
					c-0.2-1.3-0.5-2.6-0.9-3.9c-0.8-2.6-1.8-5.1-2.9-7.6c-2.2-5-4.6-9.9-6.9-14.8c-1.1-2.5-2.2-5-3.2-7.6c-0.9-2.6-1.8-5.2-1.8-8
					l0.1-1l0.2-1c0.1-0.7,0.3-1.3,0.5-2c0.2-0.7,0.5-1.3,0.7-1.9c0.3-0.6,0.6-1.2,1-1.8C339.7,210.1,342,208.3,344.7,207.7z"/>
			</g>
			<path class="st17" d="M334.3,255.3c4.4,11.5,0,20.3,6.6,21.5c3,0.6,4.3-1.7,4.9-4.2c0.7-3.1,0.2-6.6,0.2-6.6s-1.1-2.8-3.5-5.6
				C340.6,258,337.9,255.9,334.3,255.3z"/>
			<path class="st8" d="M349.5,269.5c0,2.7,0.6,5,1.9,6.2c0.1,0.1,0.2,0.2,0.4,0.3c3.1,2.5,5.1-2.1,5.1-2.1s8.3-4.1,12.3-12.3
				c3.1-6.3,3.8-15.2-3.5-26.5c-1.1,8.1-5.5,13.6-9.9,18.8c0,0,0,0,0,0c-0.5,0.7-1.1,1.3-1.6,1.9
				C351.1,259.5,349.5,265.1,349.5,269.5z"/>
			<g class="st20">
				<path d="M365.7,235.1c0.8,3.5,1,7,0.8,10.6c-0.3,3.5-1.2,7.1-3.1,10.2c-1.8,3.1-4.3,5.7-6.6,8.4c-1.1,1.4-2.1,2.8-2.8,4.4
					c-0.7,1.6-1,3.3-0.8,5c0,0.2-0.1,0.4-0.4,0.4c-0.2,0-0.4-0.1-0.4-0.4c0,0,0,0,0,0c-0.1-1.8,0.2-3.7,1-5.4c0.8-1.7,1.9-3.1,3-4.5
					c2.3-2.7,4.9-5.2,6.7-8.2c1.9-3,2.9-6.5,3.2-10C366.6,242.2,366.4,238.6,365.7,235.1z"/>
			</g>
			<g class="st13">
				<path d="M334.3,255.3c1.3,1.4,2.5,2.9,3.7,4.4c1.2,1.5,2.3,3.1,3.3,4.7c2,3.3,3.8,6.8,4.5,10.7c0,0.2-0.1,0.4-0.3,0.5
					c-0.2,0-0.4-0.1-0.5-0.3c0,0,0,0,0,0l0,0c-0.5-3.7-2.1-7.3-4-10.6c-0.9-1.7-2-3.3-3.1-4.8C336.7,258.2,335.6,256.7,334.3,255.3z
					"/>
			</g>
			<path class="st8" d="M337,275.4l2.8,17.2c0.1,0.7,0.8,1.2,1.5,1.2h17.4c0.7,0,1.4-0.5,1.5-1.2l2.3-14l0.5-3.2
				c0.2-0.9-0.5-1.8-1.5-1.8h-23C337.5,273.6,336.8,274.4,337,275.4z"/>
			<path class="st7" d="M334.3,278.9h31.4l-0.8-4.7c-0.2-1-1-1.7-2-1.7h-25.7c-1,0-1.8,0.7-2,1.7L334.3,278.9z"/>
			<path class="st13" d="M346,265.9c0,0,0.4,3.5-0.2,6.6h4.1c-0.2-0.9-0.3-1.9-0.3-3c0-4.5,1.6-10.1,4.6-13.7
				c0.5-0.6,1.1-1.3,1.6-1.9c0,0,0,0,0,0c-0.1-2.5-0.6-5.5-2.1-9.1c-0.2,4.1-1.3,11.3-5.4,12.1c-3.1,0.6-7.2-2.5-10.3-5.5
				c1.6,3,3.2,6,4.5,8.9C344.9,263.1,346,265.9,346,265.9z"/>
			<path class="st13" d="M348.3,293.8h10.4c0.7,0,1.4-0.5,1.5-1.2l2.2-13.7h-9c0.2,1.9,0.5,5.5-0.2,8.3
				C352.7,289.4,350.8,292.2,348.3,293.8z"/>
		</g>
		<g>
			<g>
				<g>
					<path class="st6" d="M249.1,116.1c-1.7,0-2.1,1.2-2.1,2.2c0,0.8,0.1,1.7,0.2,2.6c0.1,0.9,0.2,1.8,0.2,2.7
						c0,2.9-1.8,3.9-3.8,3.9h-0.4v-1.6h0.4c1.4,0,1.8-0.9,1.8-2.3c0-0.8-0.1-1.6-0.2-2.3c-0.1-0.8-0.2-1.5-0.2-2.3
						c0-2.4,0.8-3.2,2.1-3.6v-0.1c-1.3-0.4-2.1-1.2-2.1-3.6c0-0.7,0.1-1.5,0.2-2.2c0.1-0.7,0.2-1.5,0.2-2.3c0-1.4-0.5-2.3-1.8-2.3
						h-0.5v-1.6h0.4c2.2,0,3.8,1.2,3.8,3.9c0,0.9-0.1,1.8-0.2,2.7c-0.1,0.8-0.2,1.7-0.2,2.6c0,1,0.4,2.1,2.1,2.1V116.1z"/>
					<path class="st6" d="M218.2,114.6c1.7,0,2.1-1.1,2.1-2.1c0-0.9-0.1-1.7-0.2-2.6c-0.1-0.9-0.2-1.7-0.2-2.7
						c0-2.7,1.7-3.9,3.8-3.9h0.4v1.6h-0.5c-1.3,0.2-1.8,0.9-1.8,2.3c0,0.8,0.1,1.6,0.2,2.3c0.1,0.8,0.2,1.5,0.2,2.2
						c0,2.4-0.8,3.2-2.1,3.6v0.1c1.3,0.4,2.1,1.2,2.1,3.6c0,0.8-0.1,1.5-0.2,2.3c-0.1,0.8-0.2,1.5-0.2,2.3c0,1.4,0.5,2.2,1.8,2.3
						h0.4v1.6h-0.4c-2,0-3.8-1-3.8-3.9c0-0.9,0.1-1.8,0.2-2.7c0.1-0.9,0.2-1.8,0.2-2.6c0-1-0.4-2.2-2.1-2.2V114.6z"/>
				</g>
			</g>
			<polygon class="st3" points="228.6,118.3 228.6,112.5 233.6,109.6 238.7,112.5 238.7,118.3 233.6,121.3 			"/>
		</g>
		<g>
			<path class="st3" d="M190.5,147.4c4.8-2.4,10.5-1.4,14.2,2.3c4.6,4.6,4.8,12.1,0.5,16.9l1.9-0.2c0.2,0,0.4,0.1,0.5,0.4
				c0,0.2-0.1,0.4-0.4,0.5l-2.8,0.3c-0.1,0-0.2,0-0.3-0.1c-0.1-0.1-0.1-0.2-0.2-0.3l-0.3-2.7c0-0.2,0.1-0.4,0.4-0.5
				c0.2,0,0.4,0.1,0.5,0.4l0.2,1.7c4-4.5,3.9-11.5-0.4-15.8c-3.5-3.5-8.8-4.4-13.3-2.2c-0.2,0.1-0.4,0-0.5-0.2
				C190.2,147.8,190.3,147.5,190.5,147.4z"/>
			<path class="st3" d="M201.2,170.1c-4.8,2.4-10.5,1.4-14.2-2.3c-4.6-4.6-4.8-12.1-0.5-16.9l-1.9,0.2c-0.2,0-0.4-0.1-0.5-0.4
				c0-0.2,0.1-0.4,0.4-0.5l2.8-0.3c0.1,0,0.2,0,0.3,0.1c0.1,0.1,0.1,0.2,0.2,0.3l0.3,2.7c0,0.2-0.1,0.4-0.4,0.5
				c-0.2,0-0.4-0.1-0.5-0.4l-0.2-1.7c-4,4.5-3.9,11.5,0.4,15.8c3.5,3.5,8.8,4.4,13.3,2.2c0.2-0.1,0.4,0,0.5,0.2
				C201.4,169.7,201.4,170,201.2,170.1z"/>
		</g>
		<g>
			<path class="st3" d="M91.7,193.1h74.1c1.4,0,2.4-1.1,2.4-2.4l0,0c0-1.4-1.1-2.4-2.4-2.4H91.7c-1.4,0-2.4,1.1-2.4,2.4l0,0
				C89.2,192,90.3,193.1,91.7,193.1z"/>
			<path class="st5" d="M118.1,203.7h47.6c1.4,0,2.4-1.1,2.4-2.4l0,0c0-1.4-1.1-2.4-2.4-2.4h-47.6c-1.4,0-2.4,1.1-2.4,2.4l0,0
				C115.7,202.6,116.8,203.7,118.1,203.7z"/>
			<path class="st5" d="M118.1,215.1h47.6c1.4,0,2.4-1.1,2.4-2.4l0,0c0-1.4-1.1-2.4-2.4-2.4h-47.6c-1.4,0-2.4,1.1-2.4,2.4l0,0
				C115.7,214,116.8,215.1,118.1,215.1z"/>
		</g>
		<g>
			<path class="st5" d="M354.3,152.4h38.5c1.4,0,2.4-1.1,2.4-2.4l0,0c0-1.4-1.1-2.4-2.4-2.4h-38.5c-1.4,0-2.4,1.1-2.4,2.4l0,0
				C351.9,151.3,353,152.4,354.3,152.4z"/>
			<path class="st3" d="M368.9,163.1h24c1.4,0,2.4-1.1,2.4-2.4l0,0c0-1.4-1.1-2.4-2.4-2.4h-24c-1.4,0-2.4,1.1-2.4,2.4l0,0
				C366.4,162,367.5,163.1,368.9,163.1z"/>
			<path class="st3" d="M368.9,174.5h24c1.4,0,2.4-1.1,2.4-2.4l0,0c0-1.4-1.1-2.4-2.4-2.4h-24c-1.4,0-2.4,1.1-2.4,2.4l0,0
				C366.4,173.4,367.5,174.5,368.9,174.5z"/>
		</g>
		<g>
			<path class="st17" d="M125.1,329.7c2.4,7,5.3,13,8.3,18.5c10.4,18.9,22.4,30.9,22.8,48.6c0,0,3.7-16.6,0.7-35.5
				c-1.7-10.6-5.5-22-13.2-31.6c-21.6-26.6-18.4-50.8-18.4-50.8S114.4,298.7,125.1,329.7z"/>
			<g class="st13">
				<path d="M149.7,375.9c0.3-2,0.2-4.2,0-6.3c-0.2-2.1-0.6-4.2-1.1-6.2c-1-4.1-2.6-8.1-4.5-11.9c-0.9-1.9-2-3.7-3.1-5.6l-3.4-5.4
					c-2.2-3.7-4.1-7.6-5.6-11.6c-1.6-4-2.9-8.1-3.9-12.2c-1.1-4.1-2-8.3-2.7-12.5c-0.7-4.2-1.2-8.5-1.4-12.7c-0.1-2.1-0.1-4.3,0-6.4
					c0.1-1.1,0.2-2.1,0.3-3.2c0.2-1,0.4-2.1,0.9-3.1c-0.5,1-0.7,2-0.9,3.1c-0.2,1.1-0.2,2.1-0.3,3.2c-0.1,2.1,0,4.3,0.1,6.4
					c0.3,4.3,0.8,8.5,1.5,12.7c0.7,4.2,1.7,8.4,2.8,12.5c1.1,4.1,2.5,8.2,4,12.1c1.6,4,3.4,7.8,5.7,11.4l3.5,5.4
					c1.1,1.8,2.2,3.7,3.1,5.6c1.9,3.8,3.5,7.8,4.6,12c0.6,2.1,0.9,4.2,1.2,6.4c0.2,2.2,0.3,4.3,0,6.5c0,0.2-0.2,0.4-0.5,0.3
					C149.8,376.4,149.7,376.2,149.7,375.9L149.7,375.9z"/>
			</g>
			<path class="st13" d="M133.3,348.2c10.4,18.9,22.4,30.9,22.8,48.6c0,0,3.7-16.6,0.7-35.5C150.2,358.5,140.7,354,133.3,348.2z"/>
			<path class="st5" d="M150.1,415.4c0,0,7.6-12.9-10.3-28.9c-17.9-16-31.9-37-29.2-54.1c17.1,19.9,62.6,48.1,49.8,83L150.1,415.4z"
				/>
			<g class="st13">
				<path d="M110.6,332.4c1.7,3.8,4.1,7.2,6.5,10.5c2.5,3.3,5.3,6.4,8.2,9.3c2.9,2.9,6.1,5.5,9.3,8.2c3.2,2.7,6.1,5.7,8.7,8.9
					c5.2,6.5,9.2,13.9,11.7,21.8c1.2,4,2.1,8.1,2.2,12.3c0.2,4.2-0.3,8.4-2,12.3c-0.1,0.2-0.3,0.3-0.5,0.2c-0.2-0.1-0.3-0.3-0.2-0.5
					l0,0c1.6-3.7,2.2-7.9,2-12c-0.1-4.1-0.9-8.2-2.1-12.1c-2.4-7.9-6.4-15.3-11.4-21.7c-2.5-3.2-5.4-6.3-8.5-8.9
					c-3.2-2.7-6.4-5.3-9.2-8.3c-2.9-2.9-5.7-6-8.1-9.3C114.6,339.7,112.4,336.2,110.6,332.4z"/>
			</g>
		</g>
		<g>
			<path class="st17" d="M406.9,321.8c0,0,9.3-8.5,14.3-29.8c-28.6,24.2-35.6,45.8-35.6,45.8L406.9,321.8z"/>
			<g class="st13">
				<path d="M421.2,292c-3.9,5.8-7.6,11.6-11.3,17.5c-1.8,2.9-3.6,5.9-5.4,8.9c-1.7,3-3.4,6-4.8,9.2l0,0c-0.1,0.2-0.3,0.3-0.5,0.2
					s-0.3-0.3-0.2-0.5c0,0,0,0,0,0c1.5-3.2,3.2-6.2,5-9.2c1.8-3,3.7-5.9,5.5-8.8C413.4,303.4,417.3,297.7,421.2,292z"/>
			</g>
			<path class="st5" d="M386.2,333.7c5.1-4.6,12.8-9.2,20-14.2c9.6-6.6,18.6-13.8,20.3-22.6c3.8,31.8-33.2,46.1-33.2,46.1l-0.1,0.1
				l-13.4,19.6C379.8,362.8,374.3,344.5,386.2,333.7z"/>
			<g class="st13">
				<path d="M426.5,297c0,3.5-1,7-2.5,10.2c-1.5,3.2-3.6,6.1-6.1,8.6c-2.5,2.5-5.4,4.6-8.4,6.5c-2.9,2-5.9,3.9-8.8,5.9
					c-5.8,4-11.3,8.7-15.1,14.6c-3.8,5.9-5.6,13-5.5,20c0,0.2-0.2,0.4-0.4,0.4s-0.4-0.2-0.4-0.4l0,0c0-7.1,1.8-14.3,5.8-20.3
					c3.9-6,9.5-10.6,15.3-14.6c2.9-2,5.9-3.9,8.9-5.8c3-1.9,5.9-4,8.4-6.4c2.5-2.5,4.6-5.4,6.2-8.5C425.5,304,426.5,300.5,426.5,297
					z"/>
			</g>
		</g>
		<path class="st1" d="M122.8,429.6h248.6c3.9,0,7.1-3.2,7.1-7.1l0,0c0-3.9-3.2-7.1-7.1-7.1H122.8c-3.9,0-7.1,3.2-7.1,7.1l0,0
			C115.7,426.4,118.9,429.6,122.8,429.6z"/>
	</g>
</g>
<g id="DESIGNED_BY_FREEPIK">
</g>
</svg>
