<?xml version="1.0" encoding="utf-8"?>
<!-- Generator: Adobe Illustrator 25.3.0, SVG Export Plug-In . SVG Version: 6.00 Build 0)  -->
<svg version="1.1" id="Analytics" xmlns="http://www.w3.org/2000/svg" xmlns:xlink="http://www.w3.org/1999/xlink" x="0px" y="0px"
	 viewBox="0 0 2500 2498" style="enable-background:new 0 0 2500 2498;" xml:space="preserve">
<style type="text/css">
	.st0{fill:url(#SVGID_1_);}
	.st1{fill:url(#SVGID_2_);}
	.st2{clip-path:url(#SVGID_4_);}
	.st3{fill:#442578;}
	.st4{fill:#2F1160;}
	.st5{clip-path:url(#SVGID_6_);fill:#442578;}
	.st6{opacity:0.2;clip-path:url(#SVGID_8_);fill:#FFFFFF;enable-background:new    ;}
	.st7{opacity:0.2;clip-path:url(#SVGID_10_);fill:#FFFFFF;enable-background:new    ;}
	.st8{opacity:0.2;clip-path:url(#SVGID_12_);fill:#FFFFFF;enable-background:new    ;}
	.st9{opacity:0.2;clip-path:url(#SVGID_14_);fill:#BF360C;enable-background:new    ;}
	.st10{display:none;fill:url(#SVGID_15_);}
</style>
<linearGradient id="SVGID_1_" gradientUnits="userSpaceOnUse" x1="886.5588" y1="1515.7761" x2="1038.6588" y2="1515.7761" gradientTransform="matrix(16.4342 0 0 16.4342 -14569.7158 -23661.582)">
	<stop  offset="0" style="stop-color:#FFFFFF;stop-opacity:0.1"/>
	<stop  offset="1" style="stop-color:#FFFFFF;stop-opacity:0"/>
</linearGradient>
<path class="st0" d="M2297.7,0h-455.2C1732.3,0,1642,90.4,1642,200.5v588.3h-659c-106.8,0-193.9,87.1-193.9,195.6v659H195.7
	c-108.5,0-195.6,87.1-195.6,195.6v460.2c0,108.5,87.1,195.6,195.6,198.9h2103.6c110.1,0,200.5-90.4,200.5-200.5v-2097
	C2498.2,90.4,2407.8,0,2297.7,0z"/>
<linearGradient id="SVGID_2_" gradientUnits="userSpaceOnUse" x1="886.5588" y1="1515.7761" x2="1038.6588" y2="1515.7761" gradientTransform="matrix(16.4342 0 0 16.4342 -14569.7158 -23661.582)">
	<stop  offset="0" style="stop-color:#FFFFFF;stop-opacity:0.1"/>
	<stop  offset="1" style="stop-color:#FFFFFF;stop-opacity:0"/>
</linearGradient>
<path class="st1" d="M2297.7,0h-455.2C1732.3,0,1642,90.4,1642,200.5v588.3h-659c-106.8,0-193.9,87.1-193.9,195.6v659H195.7
	c-108.5,0-195.6,87.1-195.6,195.6v460.2c0,108.5,87.1,195.6,195.6,198.9h2103.6c110.1,0,200.5-90.4,200.5-200.5v-2097
	C2498.2,90.4,2407.8,0,2297.7,0z"/>
<g>
	<defs>
		<path id="SVGID_3_" d="M2297.7,0h-451.9c-110.1,0-200.5,90.4-200.5,200.5v588.3H987.9c-108.5,0-197.2,88.7-197.2,197.2v657.4
			H197.4c-108.5,0-197.2,88.7-197.2,197.2v460.2c0,108.5,88.7,197.2,197.2,197.2h2100.3c110.1,0,200.5-90.4,200.5-200.5v-2097
			C2498.2,90.4,2407.8,0,2297.7,0z"/>
	</defs>
	<clipPath id="SVGID_4_">
		<use xlink:href="#SVGID_3_"  style="overflow:visible;"/>
	</clipPath>
	<g class="st2">
		<path class="st3" d="M2297.7,0h-451.9c-110.1,0-200.5,90.4-200.5,200.5V2498h652.4c110.1,0,200.5-90.4,200.5-200.5v-2097
			C2498.2,90.4,2407.8,0,2297.7,0z"/>
		<path class="st4" d="M789,986.1v657.4H197.4c-108.5,0-197.2,88.7-197.2,197.2v460.2c0,108.5,88.7,197.2,197.2,197.2h1446.2V788.8
			H986.2C877.8,788.8,789,877.6,789,986.1z"/>
	</g>
</g>
<g>
	<defs>
		<path id="SVGID_5_" d="M2297.7,0h-451.9c-110.1,0-200.5,90.4-200.5,200.5v588.3H987.9c-108.5,0-197.2,88.7-197.2,197.2v657.4
			H197.4c-108.5,0-197.2,88.7-197.2,197.2v460.2c0,108.5,88.7,197.2,197.2,197.2h2100.3c110.1,0,200.5-90.4,200.5-200.5v-2097
			C2498.2,90.4,2407.8,0,2297.7,0z"/>
	</defs>
	<clipPath id="SVGID_6_">
		<use xlink:href="#SVGID_5_"  style="overflow:visible;"/>
	</clipPath>
	<path class="st5" d="M1643.6,788.8V2498H2296c110.1,0,200.5-90.4,200.5-200.5v-654.1L1643.6,788.8z"/>
</g>
<g>
	<g>
		<defs>
			<path id="SVGID_7_" d="M2297.7,0h-451.9c-110.1,0-200.5,90.4-200.5,200.5v588.3H987.9c-108.5,0-197.2,88.7-197.2,197.2v657.4
				H197.4c-108.5,0-197.2,88.7-197.2,197.2v460.2c0,108.5,88.7,197.2,197.2,197.2h2100.3c110.1,0,200.5-90.4,200.5-200.5v-2097
				C2498.2,90.4,2407.8,0,2297.7,0z"/>
		</defs>
		<clipPath id="SVGID_8_">
			<use xlink:href="#SVGID_7_"  style="overflow:visible;"/>
		</clipPath>
		<path class="st6" d="M986.2,805.3h657.4v-16.4H986.2c-108.5,0-197.2,88.7-197.2,197.2v16.4C789,894,877.8,805.3,986.2,805.3z"/>
	</g>
</g>
<g>
	<g>
		<defs>
			<path id="SVGID_9_" d="M2297.7,0h-451.9c-110.1,0-200.5,90.4-200.5,200.5v588.3H987.9c-108.5,0-197.2,88.7-197.2,197.2v657.4
				H197.4c-108.5,0-197.2,88.7-197.2,197.2v460.2c0,108.5,88.7,197.2,197.2,197.2h2100.3c110.1,0,200.5-90.4,200.5-200.5v-2097
				C2498.2,90.4,2407.8,0,2297.7,0z"/>
		</defs>
		<clipPath id="SVGID_10_">
			<use xlink:href="#SVGID_9_"  style="overflow:visible;"/>
		</clipPath>
		<path class="st7" d="M197.4,1659.9H789v-16.4H197.4c-108.5,0-197.2,88.7-197.2,197.2v16.4C0.2,1748.6,88.9,1659.9,197.4,1659.9z"
			/>
	</g>
</g>
<g>
	<g>
		<defs>
			<path id="SVGID_11_" d="M2297.7,0h-451.9c-110.1,0-200.5,90.4-200.5,200.5v588.3H987.9c-108.5,0-197.2,88.7-197.2,197.2v657.4
				H197.4c-108.5,0-197.2,88.7-197.2,197.2v460.2c0,108.5,88.7,197.2,197.2,197.2h2100.3c110.1,0,200.5-90.4,200.5-200.5v-2097
				C2498.2,90.4,2407.8,0,2297.7,0z"/>
		</defs>
		<clipPath id="SVGID_12_">
			<use xlink:href="#SVGID_11_"  style="overflow:visible;"/>
		</clipPath>
		<path class="st8" d="M2297.7,0h-451.9c-110.1,0-200.5,90.4-200.5,200.5v16.4c0-110.1,90.4-200.5,200.5-200.5h451.9
			c110.1,0,200.5,90.4,200.5,200.5v-16.4C2498.2,90.4,2407.8,0,2297.7,0z"/>
	</g>
</g>
<g>
	<g>
		<defs>
			<path id="SVGID_13_" d="M2297.7,0h-451.9c-110.1,0-200.5,90.4-200.5,200.5v588.3H987.9c-108.5,0-197.2,88.7-197.2,197.2v657.4
				H197.4c-108.5,0-197.2,88.7-197.2,197.2v460.2c0,108.5,88.7,197.2,197.2,197.2h2100.3c110.1,0,200.5-90.4,200.5-200.5v-2097
				C2498.2,90.4,2407.8,0,2297.7,0z"/>
		</defs>
		<clipPath id="SVGID_14_">
			<use xlink:href="#SVGID_13_"  style="overflow:visible;"/>
		</clipPath>
		<path class="st9" d="M2297.7,2481.6H197.4c-108.5,0-197.2-88.7-197.2-197.2v16.4c0,108.5,88.7,197.2,197.2,197.2H2296
			c110.1,0,200.5-90.4,200.5-200.5v-16.4C2498.2,2391.2,2407.8,2481.6,2297.7,2481.6L2297.7,2481.6z"/>
	</g>
</g>
<linearGradient id="SVGID_15_" gradientUnits="userSpaceOnUse" x1="935.9364" y1="1464.8531" x2="1037.9329" y2="1566.8496" gradientTransform="matrix(16.4342 0 0 16.4342 -14569.7158 -23661.582)">
	<stop  offset="0" style="stop-color:#FFFFFF;stop-opacity:0.1"/>
	<stop  offset="1" style="stop-color:#FFFFFF;stop-opacity:0"/>
</linearGradient>
<path class="st10" d="M1645.2,0L1645.2,0c-961.6,0,0,90.2,0,200.5V789l0,0c-945.8,0,0,88.7,0,197.2V1644l0,0
	c-945.8,0,0,88.7,0,197.2v459.6c0,108.5-945.8,197.2,0,197.2l0,0c961.6,0,0-90.2,0-200.5v-2097C1645.2,90.2,2606.8,0,1645.2,0z"/>
</svg>
